<svg id="svg" version="1.1" xmlns="http://www.w3.org/2000/svg" xmlns:xlink="http://www.w3.org/1999/xlink" width="400" height="400" viewBox="0, 0, 400,400"><g id="svgg"><path id="path0" d="M154.200 137.258 C 152.000 137.452,149.787 137.789,149.281 138.006 C 148.776 138.223,147.931 138.400,147.405 138.400 C 146.878 138.400,146.336 138.580,146.200 138.800 C 146.064 139.020,145.601 139.200,145.171 139.200 C 144.741 139.200,144.032 139.380,143.595 139.600 C 143.158 139.820,142.442 140.180,142.005 140.400 C 141.568 140.620,140.938 140.800,140.605 140.800 C 140.272 140.800,140.000 140.946,140.000 141.125 C 140.000 141.304,139.370 141.698,138.600 142.000 C 137.830 142.302,137.200 142.652,137.200 142.777 C 137.200 142.902,136.694 143.229,136.075 143.503 C 135.456 143.776,134.564 144.360,134.092 144.800 C 133.620 145.240,133.131 145.600,133.006 145.600 C 132.727 145.600,130.630 147.470,127.573 150.446 C 122.869 155.024,114.938 165.998,112.501 171.300 C 112.122 172.125,111.674 172.800,111.506 172.800 C 111.338 172.800,111.200 173.160,111.200 173.600 C 111.200 174.040,111.020 174.400,110.800 174.400 C 110.580 174.400,110.400 174.760,110.400 175.200 C 110.400 175.640,110.220 176.000,110.000 176.000 C 109.780 176.000,109.600 176.360,109.600 176.800 C 109.600 177.240,109.420 177.600,109.200 177.600 C 108.980 177.600,108.800 177.872,108.800 178.204 C 108.800 178.537,108.450 179.572,108.022 180.504 C 106.832 183.097,104.549 190.182,103.609 194.200 C 103.145 196.180,102.673 198.160,102.560 198.600 C 100.103 208.149,100.102 228.962,102.558 238.600 C 102.670 239.040,103.051 240.660,103.403 242.200 C 104.010 244.848,106.071 251.663,106.789 253.400 C 106.971 253.840,107.498 255.053,107.960 256.096 C 108.422 257.138,108.800 258.263,108.800 258.596 C 108.800 258.928,108.980 259.200,109.200 259.200 C 109.420 259.200,109.600 259.560,109.600 260.000 C 109.600 260.440,109.780 260.800,110.000 260.800 C 110.220 260.800,110.400 261.160,110.400 261.600 C 110.400 262.040,110.580 262.400,110.800 262.400 C 111.020 262.400,111.200 262.760,111.200 263.200 C 111.200 263.640,111.380 264.000,111.600 264.000 C 111.820 264.000,112.000 264.360,112.000 264.800 C 112.000 265.240,112.146 265.600,112.325 265.600 C 112.504 265.600,112.898 266.230,113.200 267.000 C 113.502 267.770,113.875 268.400,114.028 268.400 C 114.181 268.400,114.410 268.715,114.536 269.100 C 114.662 269.485,115.223 270.570,115.782 271.511 C 117.440 274.298,117.134 277.895,115.086 279.692 C 114.342 280.343,114.335 280.435,114.962 281.292 C 115.327 281.791,116.081 282.830,116.636 283.600 C 117.191 284.370,118.287 285.660,119.071 286.466 L 120.496 287.932 121.860 287.166 C 124.300 285.796,127.263 286.449,129.757 288.908 C 130.823 289.959,134.580 293.374,136.237 294.800 C 138.672 296.894,146.135 302.222,148.445 303.516 C 151.496 305.224,151.806 305.406,152.000 305.605 C 152.110 305.718,153.100 306.258,154.200 306.805 C 155.300 307.352,156.260 307.935,156.333 308.100 C 156.407 308.265,156.705 308.400,156.996 308.400 C 157.286 308.400,158.306 308.786,159.262 309.257 C 160.218 309.728,161.405 310.268,161.900 310.457 C 162.783 310.793,163.907 311.239,165.700 311.964 C 166.777 312.399,173.226 314.322,175.200 314.797 C 175.970 314.982,177.320 315.311,178.200 315.526 C 182.332 316.540,183.709 316.800,184.946 316.800 C 185.680 316.800,186.802 316.973,187.440 317.185 C 196.147 320.073,224.055 316.747,236.347 311.356 C 237.146 311.005,238.160 310.580,238.600 310.410 C 250.703 305.742,269.122 292.191,276.406 282.598 C 278.179 280.262,279.828 278.177,280.042 278.000 C 281.246 277.007,287.322 266.827,289.831 261.600 C 290.623 259.950,291.435 258.287,291.635 257.905 C 291.836 257.523,292.000 256.938,292.000 256.605 C 292.000 256.272,292.180 256.000,292.400 256.000 C 292.620 256.000,292.800 255.550,292.800 255.000 C 292.800 254.450,292.980 254.000,293.200 254.000 C 293.420 254.000,293.600 253.561,293.600 253.024 C 293.600 252.487,293.780 251.936,294.000 251.800 C 294.220 251.664,294.400 251.201,294.400 250.771 C 294.400 250.341,294.562 249.677,294.761 249.295 C 294.960 248.913,295.344 247.790,295.615 246.800 C 297.201 241.009,297.535 239.586,297.982 236.700 C 298.212 235.215,298.623 232.785,298.895 231.300 C 299.204 229.616,299.386 224.912,299.379 218.800 C 299.369 209.776,299.116 206.422,298.022 200.800 C 297.075 195.932,296.688 194.116,296.404 193.200 C 296.233 192.650,295.874 191.390,295.607 190.400 C 295.340 189.410,294.960 188.287,294.761 187.905 C 294.562 187.523,294.400 186.936,294.400 186.600 C 294.400 186.264,294.241 185.677,294.047 185.295 C 293.697 184.608,293.127 183.249,292.454 181.500 C 287.525 168.699,274.456 149.923,267.680 145.909 C 267.086 145.557,266.060 144.804,265.400 144.235 C 264.740 143.666,263.990 143.201,263.733 143.200 C 263.477 143.200,263.207 143.065,263.133 142.900 C 262.947 142.480,259.637 140.800,258.996 140.800 C 258.705 140.800,258.407 140.665,258.333 140.499 C 258.190 140.176,254.133 138.782,251.200 138.049 C 246.248 136.812,236.638 136.817,232.200 138.059 C 228.805 139.010,225.738 140.078,224.262 140.823 C 223.416 141.250,222.381 141.600,221.962 141.600 C 221.543 141.600,221.200 141.780,221.200 142.000 C 221.200 142.220,220.851 142.400,220.424 142.400 C 219.997 142.400,219.536 142.580,219.400 142.800 C 219.264 143.020,218.724 143.200,218.200 143.200 C 217.676 143.200,217.136 143.380,217.000 143.600 C 216.864 143.820,216.324 144.000,215.800 144.000 C 215.276 144.000,214.748 144.160,214.627 144.356 C 214.506 144.551,213.821 144.813,213.104 144.936 C 212.387 145.060,210.720 145.386,209.400 145.660 C 206.378 146.289,194.160 146.318,191.200 145.703 C 189.990 145.452,188.280 145.064,187.400 144.841 C 186.520 144.618,185.260 144.314,184.600 144.164 C 183.940 144.015,183.220 143.763,183.000 143.604 C 182.780 143.446,181.745 143.071,180.700 142.771 C 179.655 142.471,178.800 142.085,178.800 141.913 C 178.800 141.741,178.528 141.600,178.196 141.600 C 177.863 141.600,176.828 141.255,175.896 140.833 C 174.386 140.151,171.316 139.084,167.800 138.019 C 167.140 137.819,165.160 137.542,163.400 137.404 C 161.640 137.265,159.750 137.096,159.200 137.028 C 158.650 136.959,156.400 137.063,154.200 137.258 M146.400 176.000 C 146.400 176.220,146.593 176.400,146.829 176.400 C 147.346 176.400,147.975 177.032,148.905 178.486 C 150.225 180.548,149.768 194.000,148.379 194.000 C 147.148 194.000,147.912 195.209,149.529 195.822 C 166.113 202.098,165.385 222.582,148.400 227.565 C 147.410 227.856,146.078 228.252,145.440 228.447 C 144.802 228.641,142.324 228.800,139.933 228.800 C 112.878 228.800,109.503 198.019,136.137 194.177 C 137.995 193.909,138.062 193.855,137.776 192.849 C 137.210 190.859,137.121 180.759,137.657 179.436 C 138.716 176.825,140.638 175.600,143.678 175.600 C 145.226 175.600,146.400 175.773,146.400 176.000 M260.422 176.907 C 261.180 177.626,262.025 178.614,262.300 179.102 C 262.919 180.201,263.008 191.824,262.400 192.200 C 261.691 192.638,261.946 194.000,262.736 194.000 C 266.653 194.000,274.079 197.300,277.247 200.447 C 286.338 209.480,281.902 223.721,268.800 227.565 C 267.810 227.856,266.478 228.252,265.840 228.447 C 262.493 229.467,254.397 228.713,250.000 226.973 C 234.341 220.774,234.645 201.790,250.500 195.808 C 251.545 195.414,252.400 195.061,252.400 195.023 C 252.400 194.986,251.950 194.345,251.400 193.600 C 249.405 190.897,249.982 179.113,252.212 177.000 C 254.251 175.067,258.432 175.020,260.422 176.907 M207.724 180.380 C 214.546 183.837,218.352 190.882,217.891 199.200 C 217.697 202.705,217.501 203.572,216.262 206.400 C 213.080 213.667,204.837 218.383,197.500 217.135 C 182.319 214.552,176.706 194.782,187.979 183.596 C 189.955 181.636,191.232 180.824,194.800 179.259 C 197.174 178.217,204.754 178.875,207.724 180.380 M86.200 197.600 C 86.064 197.820,85.601 198.000,85.172 198.000 C 81.838 198.000,74.520 203.570,71.510 208.400 C 65.188 218.540,67.144 232.987,75.794 240.059 C 76.237 240.421,77.140 241.186,77.800 241.758 C 78.460 242.331,79.210 242.799,79.467 242.800 C 79.723 242.800,79.993 242.935,80.067 243.100 C 80.277 243.573,83.602 245.200,84.358 245.200 C 84.733 245.200,85.211 245.364,85.420 245.565 C 86.350 246.459,91.200 246.547,91.200 245.670 C 91.200 245.218,91.020 244.736,90.800 244.600 C 90.580 244.464,90.400 243.654,90.400 242.800 C 90.400 241.946,90.220 241.136,90.000 241.000 C 89.780 240.864,89.600 239.899,89.600 238.856 C 89.600 237.813,89.435 236.789,89.232 236.580 C 88.262 235.577,87.858 209.299,88.725 203.600 C 88.977 201.950,89.295 199.835,89.433 198.900 L 89.684 197.200 88.066 197.200 C 87.175 197.200,86.336 197.380,86.200 197.600 M310.400 198.520 C 310.400 199.246,310.565 200.011,310.768 200.220 C 311.651 201.133,312.447 230.113,311.612 230.948 C 311.385 231.175,311.200 232.483,311.200 233.856 C 311.200 235.229,311.020 236.464,310.800 236.600 C 310.580 236.736,310.400 237.816,310.400 239.000 C 310.400 240.184,310.220 241.264,310.000 241.400 C 309.780 241.536,309.600 242.256,309.600 243.000 C 309.600 243.744,309.420 244.464,309.200 244.600 C 308.980 244.736,308.800 245.218,308.800 245.670 C 308.800 246.547,313.650 246.459,314.580 245.565 C 314.789 245.364,315.259 245.200,315.624 245.200 C 316.529 245.200,320.816 242.955,322.240 241.734 C 327.969 236.826,330.565 232.787,331.793 226.874 C 333.060 220.771,331.156 210.115,328.420 208.000 C 328.278 207.890,327.728 207.170,327.197 206.400 C 324.907 203.074,317.528 198.000,314.983 198.000 C 314.468 198.000,313.936 197.820,313.800 197.600 C 313.085 196.443,310.400 197.169,310.400 198.520 M160.400 330.272 C 160.400 334.213,160.589 337.528,160.861 338.372 C 164.226 348.801,174.385 353.439,183.887 348.883 C 187.140 347.324,192.000 341.763,192.000 339.601 C 192.000 339.186,192.180 338.736,192.400 338.600 C 193.010 338.223,192.917 330.818,192.300 330.593 C 192.025 330.492,190.090 330.225,188.000 330.000 C 185.910 329.774,183.030 329.406,181.600 329.183 C 180.170 328.959,178.280 328.674,177.400 328.547 C 176.520 328.421,175.629 328.156,175.420 327.959 C 175.211 327.762,174.457 327.600,173.744 327.600 C 173.031 327.600,172.336 327.420,172.200 327.200 C 172.064 326.980,171.571 326.800,171.105 326.800 C 170.204 326.800,167.861 326.135,166.705 325.551 C 166.323 325.358,165.659 325.200,165.229 325.200 C 164.799 325.200,164.336 325.020,164.200 324.800 C 164.064 324.580,163.524 324.400,163.000 324.400 C 162.476 324.400,161.936 324.220,161.800 324.000 C 160.726 322.262,160.400 323.721,160.400 330.272 M235.400 324.890 C 234.740 325.112,233.887 325.453,233.505 325.647 C 233.123 325.841,232.459 326.000,232.029 326.000 C 231.599 326.000,231.148 326.160,231.027 326.356 C 230.906 326.551,230.221 326.808,229.504 326.927 C 228.787 327.045,227.390 327.346,226.400 327.596 C 222.555 328.566,217.565 329.423,212.585 329.968 C 210.597 330.185,208.212 330.485,207.285 330.633 L 205.600 330.902 205.600 333.923 C 205.600 348.603,222.852 356.071,233.291 345.910 C 236.979 342.320,237.778 339.835,237.925 331.500 C 238.064 323.623,238.189 323.950,235.400 324.890 " stroke="none" fill="#f2d0c2" fill-rule="evenodd"></path><path id="path1" d="M47.200 0.274 C 46.210 0.371,45.229 0.619,45.020 0.825 C 44.811 1.031,44.046 1.200,43.320 1.200 C 42.594 1.200,42.000 1.380,42.000 1.600 C 42.000 1.820,41.460 2.000,40.800 2.000 C 40.140 2.000,39.600 2.180,39.600 2.400 C 39.600 2.620,39.161 2.800,38.624 2.800 C 38.087 2.800,37.536 2.980,37.400 3.200 C 37.264 3.420,36.803 3.600,36.376 3.600 C 35.949 3.600,35.600 3.780,35.600 4.000 C 35.600 4.220,35.240 4.400,34.800 4.400 C 34.360 4.400,34.000 4.580,34.000 4.800 C 34.000 5.020,33.640 5.200,33.200 5.200 C 32.760 5.200,32.400 5.380,32.400 5.600 C 32.400 5.820,32.040 6.000,31.600 6.000 C 31.160 6.000,30.800 6.180,30.800 6.400 C 30.800 6.620,30.440 6.800,30.000 6.800 C 29.560 6.800,29.200 6.980,29.200 7.200 C 29.200 7.420,29.016 7.600,28.791 7.600 C 28.393 7.600,25.199 9.550,24.800 10.036 C 24.690 10.170,24.187 10.498,23.682 10.764 C 21.617 11.852,12.652 20.817,11.564 22.882 C 11.298 23.387,10.970 23.890,10.836 24.000 C 10.350 24.399,8.400 27.593,8.400 27.991 C 8.400 28.216,8.220 28.400,8.000 28.400 C 7.780 28.400,7.600 28.760,7.600 29.200 C 7.600 29.640,7.420 30.000,7.200 30.000 C 6.980 30.000,6.800 30.360,6.800 30.800 C 6.800 31.240,6.620 31.600,6.400 31.600 C 6.180 31.600,6.000 31.960,6.000 32.400 C 6.000 32.840,5.820 33.200,5.600 33.200 C 5.380 33.200,5.200 33.560,5.200 34.000 C 5.200 34.440,5.020 34.800,4.800 34.800 C 4.580 34.800,4.400 35.340,4.400 36.000 C 4.400 36.660,4.220 37.200,4.000 37.200 C 3.780 37.200,3.600 37.740,3.600 38.400 C 3.600 39.060,3.420 39.600,3.200 39.600 C 2.980 39.600,2.800 40.140,2.800 40.800 C 2.800 41.460,2.620 42.000,2.400 42.000 C 2.180 42.000,2.000 42.630,2.000 43.400 C 2.000 44.170,1.820 44.800,1.600 44.800 C 1.380 44.800,1.200 45.689,1.200 46.776 C 1.200 47.863,1.020 48.864,0.800 49.000 C 0.256 49.336,0.256 66.800,0.800 66.800 C 1.020 66.800,1.200 67.790,1.200 69.000 C 1.200 70.210,1.380 71.200,1.600 71.200 C 1.820 71.200,2.000 71.920,2.000 72.800 C 2.000 73.680,2.180 74.400,2.400 74.400 C 2.620 74.400,2.800 74.940,2.800 75.600 C 2.800 76.260,2.980 76.800,3.200 76.800 C 3.420 76.800,3.600 77.340,3.600 78.000 C 3.600 78.660,3.780 79.200,4.000 79.200 C 4.220 79.200,4.400 79.560,4.400 80.000 C 4.400 80.440,4.580 80.800,4.800 80.800 C 5.020 80.800,5.200 81.340,5.200 82.000 C 5.200 82.660,5.380 83.200,5.600 83.200 C 5.820 83.200,6.000 83.560,6.000 84.000 C 6.000 84.440,6.180 84.800,6.400 84.800 C 6.620 84.800,6.800 85.160,6.800 85.600 C 6.800 86.040,6.950 86.400,7.132 86.400 C 7.315 86.400,7.715 86.895,8.020 87.500 C 9.076 89.590,11.317 93.002,12.057 93.647 C 12.466 94.003,12.800 94.506,12.800 94.766 C 12.800 95.350,21.894 104.400,22.481 104.400 C 22.715 104.400,23.197 104.729,23.553 105.131 C 24.569 106.279,28.514 108.800,29.295 108.800 C 29.683 108.800,30.000 108.980,30.000 109.200 C 30.000 109.420,30.270 109.600,30.600 109.600 C 30.930 109.600,31.200 109.736,31.200 109.902 C 31.200 110.069,31.785 110.440,32.500 110.729 C 33.215 111.017,34.113 111.421,34.495 111.626 C 34.877 111.832,35.462 112.000,35.795 112.000 C 36.128 112.000,36.400 112.180,36.400 112.400 C 36.400 112.620,36.760 112.800,37.200 112.800 C 37.640 112.800,38.000 112.980,38.000 113.200 C 38.000 113.420,38.540 113.600,39.200 113.600 C 39.860 113.600,40.400 113.780,40.400 114.000 C 40.400 114.220,41.030 114.400,41.800 114.400 C 42.570 114.400,43.200 114.580,43.200 114.800 C 43.200 115.020,43.920 115.200,44.800 115.200 C 45.680 115.200,46.400 115.380,46.400 115.600 C 46.400 115.822,47.467 116.000,48.800 116.000 C 50.133 116.000,51.200 116.178,51.200 116.400 C 51.200 116.653,54.067 116.800,59.000 116.800 C 63.933 116.800,66.800 116.653,66.800 116.400 C 66.800 116.178,67.867 116.000,69.200 116.000 C 70.533 116.000,71.600 115.822,71.600 115.600 C 71.600 115.380,72.320 115.200,73.200 115.200 C 74.080 115.200,74.800 115.020,74.800 114.800 C 74.800 114.580,75.430 114.400,76.200 114.400 C 76.970 114.400,77.600 114.220,77.600 114.000 C 77.600 113.780,78.140 113.600,78.800 113.600 C 79.460 113.600,80.000 113.420,80.000 113.200 C 80.000 112.980,80.360 112.800,80.800 112.800 C 81.240 112.800,81.600 112.620,81.600 112.400 C 81.600 112.180,82.039 112.000,82.576 112.000 C 83.113 112.000,83.664 111.820,83.800 111.600 C 83.936 111.380,84.397 111.200,84.824 111.200 C 85.251 111.200,85.600 111.020,85.600 110.800 C 85.600 110.580,85.960 110.400,86.400 110.400 C 86.840 110.400,87.200 110.249,87.200 110.065 C 87.200 109.881,88.190 109.230,89.400 108.618 C 90.610 108.006,91.600 107.346,91.600 107.152 C 91.600 106.959,91.825 106.800,92.100 106.799 C 92.375 106.799,93.230 106.259,94.000 105.600 C 94.770 104.941,95.537 104.401,95.704 104.401 C 96.118 104.400,105.200 95.293,105.200 94.880 C 105.200 94.699,105.515 94.202,105.900 93.775 C 107.242 92.288,108.800 90.050,108.800 89.610 C 108.800 89.366,109.160 88.780,109.600 88.308 C 110.040 87.836,110.400 87.213,110.400 86.925 C 110.400 86.636,110.580 86.400,110.800 86.400 C 111.020 86.400,111.200 86.040,111.200 85.600 C 111.200 85.160,111.380 84.800,111.600 84.800 C 111.820 84.800,112.000 84.440,112.000 84.000 C 112.000 83.560,112.180 83.200,112.400 83.200 C 112.620 83.200,112.800 82.851,112.800 82.424 C 112.800 81.997,112.980 81.536,113.200 81.400 C 113.420 81.264,113.600 80.713,113.600 80.176 C 113.600 79.639,113.780 79.200,114.000 79.200 C 114.220 79.200,114.400 78.660,114.400 78.000 C 114.400 77.340,114.580 76.800,114.800 76.800 C 115.020 76.800,115.200 76.361,115.200 75.824 C 115.200 75.287,115.380 74.736,115.600 74.600 C 115.820 74.464,116.000 73.733,116.000 72.976 C 116.000 72.219,116.180 71.600,116.400 71.600 C 116.620 71.600,116.800 70.700,116.800 69.600 C 116.800 68.500,116.980 67.600,117.200 67.600 C 117.455 67.600,117.600 64.200,117.600 58.200 C 117.600 52.200,117.455 48.800,117.200 48.800 C 116.980 48.800,116.800 47.911,116.800 46.824 C 116.800 45.737,116.620 44.736,116.400 44.600 C 116.180 44.464,116.000 43.823,116.000 43.176 C 116.000 42.529,115.820 42.000,115.600 42.000 C 115.380 42.000,115.200 41.280,115.200 40.400 C 115.200 39.520,115.020 38.800,114.800 38.800 C 114.580 38.800,114.400 38.451,114.400 38.024 C 114.400 37.597,114.220 37.136,114.000 37.000 C 113.780 36.864,113.600 36.313,113.600 35.776 C 113.600 35.239,113.420 34.800,113.200 34.800 C 112.980 34.800,112.800 34.440,112.800 34.000 C 112.800 33.560,112.620 33.200,112.400 33.200 C 112.180 33.200,112.000 32.840,112.000 32.400 C 112.000 31.960,111.820 31.600,111.600 31.600 C 111.380 31.600,111.200 31.240,111.200 30.800 C 111.200 30.360,111.020 30.000,110.800 30.000 C 110.580 30.000,110.400 29.640,110.400 29.200 C 110.400 28.760,110.265 28.398,110.100 28.395 C 109.935 28.393,109.469 27.701,109.066 26.857 C 108.662 26.013,107.897 24.817,107.366 24.199 C 106.834 23.581,106.400 22.930,106.400 22.751 C 106.400 22.573,105.815 21.833,105.100 21.108 C 104.385 20.383,103.181 18.971,102.424 17.971 C 101.667 16.971,100.229 15.533,99.229 14.776 C 98.229 14.019,96.817 12.815,96.092 12.100 C 95.367 11.385,94.612 10.800,94.415 10.800 C 94.218 10.800,93.819 10.575,93.529 10.299 C 92.670 9.486,89.651 7.600,89.209 7.600 C 88.984 7.600,88.800 7.420,88.800 7.200 C 88.800 6.980,88.440 6.800,88.000 6.800 C 87.560 6.800,87.200 6.620,87.200 6.400 C 87.200 6.180,86.840 6.000,86.400 6.000 C 85.960 6.000,85.600 5.820,85.600 5.600 C 85.600 5.380,85.240 5.200,84.800 5.200 C 84.360 5.200,84.000 5.020,84.000 4.800 C 84.000 4.580,83.640 4.400,83.200 4.400 C 82.760 4.400,82.400 4.220,82.400 4.000 C 82.400 3.780,82.040 3.600,81.600 3.600 C 81.160 3.600,80.800 3.420,80.800 3.200 C 80.800 2.980,80.260 2.800,79.600 2.800 C 78.940 2.800,78.400 2.620,78.400 2.400 C 78.400 2.180,77.860 2.000,77.200 2.000 C 76.540 2.000,76.000 1.820,76.000 1.600 C 76.000 1.380,75.406 1.200,74.680 1.200 C 73.954 1.200,73.135 0.975,72.861 0.701 C 72.362 0.202,51.478 -0.146,47.200 0.274 M329.200 0.274 C 328.210 0.371,327.229 0.619,327.020 0.825 C 326.811 1.031,326.046 1.200,325.320 1.200 C 324.594 1.200,324.000 1.380,324.000 1.600 C 324.000 1.820,323.460 2.000,322.800 2.000 C 322.140 2.000,321.600 2.180,321.600 2.400 C 321.600 2.620,321.060 2.800,320.400 2.800 C 319.740 2.800,319.200 2.980,319.200 3.200 C 319.200 3.420,318.840 3.600,318.400 3.600 C 317.960 3.600,317.600 3.780,317.600 4.000 C 317.600 4.220,317.240 4.400,316.800 4.400 C 316.360 4.400,316.000 4.580,316.000 4.800 C 316.000 5.020,315.640 5.200,315.200 5.200 C 314.760 5.200,314.400 5.380,314.400 5.600 C 314.400 5.820,314.040 6.000,313.600 6.000 C 313.160 6.000,312.800 6.180,312.800 6.400 C 312.800 6.620,312.440 6.800,312.000 6.800 C 311.560 6.800,311.200 6.980,311.200 7.200 C 311.200 7.420,311.016 7.600,310.791 7.600 C 310.306 7.600,307.058 9.669,306.867 10.100 C 306.793 10.265,306.500 10.400,306.215 10.400 C 305.930 10.400,304.994 11.075,304.136 11.900 C 303.278 12.725,301.761 14.019,300.765 14.776 C 299.768 15.533,298.333 16.971,297.576 17.971 C 296.819 18.971,295.630 20.368,294.933 21.075 C 294.237 21.782,293.549 22.729,293.406 23.180 C 293.263 23.631,292.990 24.000,292.800 24.000 C 292.610 24.000,292.330 24.391,292.178 24.869 C 292.026 25.347,291.564 26.101,291.151 26.545 C 290.738 26.988,290.400 27.587,290.400 27.875 C 290.400 28.164,290.220 28.400,290.000 28.400 C 289.780 28.400,289.600 28.760,289.600 29.200 C 289.600 29.640,289.420 30.000,289.200 30.000 C 288.980 30.000,288.800 30.360,288.800 30.800 C 288.800 31.240,288.620 31.600,288.400 31.600 C 288.180 31.600,288.000 31.960,288.000 32.400 C 288.000 32.840,287.820 33.200,287.600 33.200 C 287.380 33.200,287.200 33.560,287.200 34.000 C 287.200 34.440,287.020 34.800,286.800 34.800 C 286.580 34.800,286.400 35.239,286.400 35.776 C 286.400 36.313,286.220 36.864,286.000 37.000 C 285.780 37.136,285.600 37.597,285.600 38.024 C 285.600 38.451,285.420 38.800,285.200 38.800 C 284.980 38.800,284.800 39.419,284.800 40.176 C 284.800 40.933,284.620 41.664,284.400 41.800 C 284.180 41.936,284.000 42.566,284.000 43.200 C 284.000 43.834,283.820 44.464,283.600 44.600 C 283.380 44.736,283.200 45.636,283.200 46.600 C 283.200 47.564,283.020 48.464,282.800 48.600 C 282.552 48.753,282.400 52.404,282.400 58.224 C 282.400 64.208,282.545 67.600,282.800 67.600 C 283.020 67.600,283.200 68.500,283.200 69.600 C 283.200 70.700,283.380 71.600,283.600 71.600 C 283.820 71.600,284.000 72.219,284.000 72.976 C 284.000 73.733,284.180 74.464,284.400 74.600 C 284.620 74.736,284.800 75.287,284.800 75.824 C 284.800 76.361,284.980 76.800,285.200 76.800 C 285.420 76.800,285.600 77.340,285.600 78.000 C 285.600 78.660,285.780 79.200,286.000 79.200 C 286.220 79.200,286.400 79.740,286.400 80.400 C 286.400 81.060,286.580 81.600,286.800 81.600 C 287.020 81.600,287.200 81.960,287.200 82.400 C 287.200 82.840,287.380 83.200,287.600 83.200 C 287.820 83.200,288.000 83.560,288.000 84.000 C 288.000 84.440,288.180 84.800,288.400 84.800 C 288.620 84.800,288.800 85.160,288.800 85.600 C 288.800 86.040,288.980 86.400,289.200 86.400 C 289.420 86.400,289.600 86.636,289.600 86.925 C 289.600 87.213,289.960 87.836,290.400 88.308 C 290.840 88.780,291.200 89.444,291.200 89.783 C 291.200 90.122,291.368 90.400,291.573 90.400 C 291.778 90.400,292.047 90.715,292.171 91.100 C 292.294 91.485,292.846 92.323,293.398 92.962 C 293.949 93.601,294.400 94.271,294.400 94.450 C 294.400 94.868,303.872 104.400,304.288 104.401 C 304.460 104.401,305.230 104.941,306.000 105.600 C 306.770 106.259,307.625 106.799,307.900 106.799 C 308.175 106.800,308.400 106.954,308.400 107.143 C 308.400 107.441,310.527 108.700,313.497 110.159 C 313.990 110.402,314.395 110.735,314.397 110.900 C 314.399 111.065,314.749 111.200,315.176 111.200 C 315.603 111.200,316.064 111.380,316.200 111.600 C 316.336 111.820,316.887 112.000,317.424 112.000 C 317.961 112.000,318.400 112.180,318.400 112.400 C 318.400 112.620,318.760 112.800,319.200 112.800 C 319.640 112.800,320.000 112.980,320.000 113.200 C 320.000 113.420,320.540 113.600,321.200 113.600 C 321.860 113.600,322.400 113.780,322.400 114.000 C 322.400 114.220,323.019 114.400,323.776 114.400 C 324.533 114.400,325.264 114.580,325.400 114.800 C 325.536 115.020,326.267 115.200,327.024 115.200 C 327.781 115.200,328.400 115.380,328.400 115.600 C 328.400 115.822,329.467 116.000,330.800 116.000 C 332.133 116.000,333.200 116.178,333.200 116.400 C 333.200 116.653,336.067 116.800,341.000 116.800 C 345.933 116.800,348.800 116.653,348.800 116.400 C 348.800 116.178,349.867 116.000,351.200 116.000 C 352.533 116.000,353.600 115.822,353.600 115.600 C 353.600 115.380,354.320 115.200,355.200 115.200 C 356.080 115.200,356.800 115.020,356.800 114.800 C 356.800 114.580,357.430 114.400,358.200 114.400 C 358.970 114.400,359.600 114.220,359.600 114.000 C 359.600 113.780,360.140 113.600,360.800 113.600 C 361.460 113.600,362.000 113.420,362.000 113.200 C 362.000 112.980,362.360 112.800,362.800 112.800 C 363.240 112.800,363.600 112.620,363.600 112.400 C 363.600 112.180,363.872 112.000,364.205 112.000 C 364.538 112.000,365.123 111.840,365.505 111.644 C 365.887 111.448,367.055 110.880,368.100 110.381 C 369.145 109.882,370.000 109.323,370.000 109.137 C 370.000 108.952,370.317 108.800,370.705 108.800 C 371.486 108.800,375.431 106.279,376.447 105.131 C 376.803 104.729,377.292 104.400,377.534 104.400 C 378.109 104.400,387.200 95.309,387.200 94.734 C 387.200 94.492,387.526 94.003,387.925 93.647 C 388.324 93.291,389.194 92.190,389.860 91.200 C 390.950 89.576,391.561 88.492,392.952 85.703 C 393.199 85.210,393.535 84.805,393.700 84.803 C 393.865 84.801,394.000 84.440,394.000 84.000 C 394.000 83.560,394.180 83.200,394.400 83.200 C 394.620 83.200,394.800 82.660,394.800 82.000 C 394.800 81.340,394.980 80.800,395.200 80.800 C 395.420 80.800,395.600 80.440,395.600 80.000 C 395.600 79.560,395.780 79.200,396.000 79.200 C 396.220 79.200,396.400 78.660,396.400 78.000 C 396.400 77.340,396.580 76.800,396.800 76.800 C 397.020 76.800,397.200 76.260,397.200 75.600 C 397.200 74.940,397.380 74.400,397.600 74.400 C 397.820 74.400,398.000 73.680,398.000 72.800 C 398.000 71.920,398.180 71.200,398.400 71.200 C 398.620 71.200,398.800 70.210,398.800 69.000 C 398.800 67.790,398.980 66.800,399.200 66.800 C 399.454 66.800,399.600 63.675,399.600 58.224 C 399.600 52.937,399.447 49.552,399.200 49.400 C 398.980 49.264,398.800 48.173,398.800 46.976 C 398.800 45.779,398.620 44.800,398.400 44.800 C 398.180 44.800,398.000 44.170,398.000 43.400 C 398.000 42.630,397.820 42.000,397.600 42.000 C 397.380 42.000,397.200 41.460,397.200 40.800 C 397.200 40.140,397.020 39.600,396.800 39.600 C 396.580 39.600,396.400 39.060,396.400 38.400 C 396.400 37.740,396.220 37.200,396.000 37.200 C 395.780 37.200,395.600 36.660,395.600 36.000 C 395.600 35.340,395.420 34.800,395.200 34.800 C 394.980 34.800,394.800 34.440,394.800 34.000 C 394.800 33.560,394.620 33.200,394.400 33.200 C 394.180 33.200,394.000 32.840,394.000 32.400 C 394.000 31.960,393.820 31.600,393.600 31.600 C 393.380 31.600,393.200 31.240,393.200 30.800 C 393.200 30.360,393.020 30.000,392.800 30.000 C 392.580 30.000,392.400 29.640,392.400 29.200 C 392.400 28.760,392.220 28.400,392.000 28.400 C 391.780 28.400,391.600 28.185,391.600 27.922 C 391.600 27.410,389.855 24.705,388.700 23.425 C 388.315 22.998,388.000 22.512,388.000 22.344 C 388.000 21.475,378.190 11.750,376.318 10.764 C 375.813 10.498,375.310 10.170,375.200 10.036 C 374.801 9.550,371.607 7.600,371.209 7.600 C 370.984 7.600,370.800 7.420,370.800 7.200 C 370.800 6.980,370.440 6.800,370.000 6.800 C 369.560 6.800,369.200 6.620,369.200 6.400 C 369.200 6.180,368.840 6.000,368.400 6.000 C 367.960 6.000,367.600 5.820,367.600 5.600 C 367.600 5.380,367.240 5.200,366.800 5.200 C 366.360 5.200,366.000 5.020,366.000 4.800 C 366.000 4.580,365.640 4.400,365.200 4.400 C 364.760 4.400,364.400 4.220,364.400 4.000 C 364.400 3.780,364.051 3.600,363.624 3.600 C 363.197 3.600,362.736 3.420,362.600 3.200 C 362.464 2.980,361.913 2.800,361.376 2.800 C 360.839 2.800,360.400 2.620,360.400 2.400 C 360.400 2.180,359.860 2.000,359.200 2.000 C 358.540 2.000,358.000 1.820,358.000 1.600 C 358.000 1.380,357.406 1.200,356.680 1.200 C 355.954 1.200,355.135 0.975,354.861 0.701 C 354.362 0.202,333.478 -0.146,329.200 0.274 M65.600 12.197 C 71.761 13.227,74.261 13.970,78.800 16.116 C 94.810 23.687,105.600 40.710,105.600 58.398 C 105.600 64.068,103.740 71.956,101.072 77.600 C 94.642 91.203,83.681 99.840,68.000 103.660 C 65.050 104.378,52.981 104.367,50.000 103.643 C 28.852 98.505,15.129 83.092,12.815 61.882 C 12.235 56.561,13.778 44.560,15.239 43.020 C 15.438 42.811,15.602 42.361,15.603 42.020 C 15.610 40.886,19.629 33.441,21.768 30.600 C 32.140 16.825,49.556 9.514,65.600 12.197 M346.893 12.036 C 370.156 15.526,387.634 35.312,387.603 58.123 C 387.559 89.599,355.984 111.920,325.824 101.795 C 296.694 92.017,285.300 55.161,303.797 30.547 C 313.869 17.144,331.231 9.687,346.893 12.036 M36.921 33.425 C 35.415 34.085,33.599 36.934,33.601 38.635 C 33.604 40.540,34.817 42.037,43.036 50.272 L 50.871 58.122 42.676 66.361 C 32.670 76.421,31.823 78.252,35.558 81.732 C 39.260 85.182,40.845 84.442,50.723 74.651 C 55.190 70.223,58.898 66.552,58.963 66.493 C 59.028 66.434,62.766 70.039,67.270 74.504 C 73.405 80.586,75.832 82.737,76.946 83.079 C 81.549 84.492,86.024 79.420,83.827 75.280 C 83.512 74.686,79.732 70.692,75.427 66.404 C 71.122 62.116,67.600 58.424,67.600 58.200 C 67.600 57.975,70.860 54.554,74.844 50.596 C 85.529 39.983,86.686 37.108,81.641 33.714 C 78.151 31.367,76.840 32.099,67.204 41.773 C 62.916 46.078,59.224 49.600,59.000 49.600 C 58.776 49.600,55.084 46.078,50.796 41.773 C 41.333 32.273,40.583 31.822,36.921 33.425 M363.200 36.673 C 362.560 36.799,357.006 42.047,347.788 51.235 C 339.861 59.136,333.167 65.600,332.912 65.600 C 332.657 65.600,329.838 62.306,326.647 58.280 C 321.135 51.325,320.186 50.382,318.117 49.804 C 315.520 49.078,311.894 51.424,311.381 54.163 C 310.958 56.416,311.530 57.841,314.251 61.308 C 329.448 80.670,329.195 80.400,332.214 80.400 C 334.966 80.400,335.743 79.724,353.657 61.730 C 367.115 48.212,369.987 45.134,370.338 43.853 C 371.582 39.310,368.016 35.723,363.200 36.673 M193.435 77.100 C 193.271 77.265,191.036 77.531,188.468 77.692 C 180.767 78.173,178.220 78.446,177.820 78.832 C 177.611 79.035,176.486 79.200,175.320 79.200 C 174.154 79.200,173.200 79.380,173.200 79.600 C 173.200 79.820,172.401 80.000,171.424 80.000 C 170.447 80.000,169.536 80.180,169.400 80.400 C 169.264 80.620,168.443 80.800,167.576 80.800 C 166.709 80.800,166.000 80.980,166.000 81.200 C 166.000 81.420,165.280 81.600,164.400 81.600 C 163.520 81.600,162.800 81.780,162.800 82.000 C 162.800 82.220,162.170 82.400,161.400 82.400 C 160.630 82.400,160.000 82.580,160.000 82.800 C 160.000 83.020,159.460 83.200,158.800 83.200 C 158.140 83.200,157.600 83.380,157.600 83.600 C 157.600 83.820,157.060 84.000,156.400 84.000 C 155.740 84.000,155.200 84.180,155.200 84.400 C 155.200 84.620,154.660 84.800,154.000 84.800 C 153.340 84.800,152.800 84.980,152.800 85.200 C 152.800 85.420,152.260 85.600,151.600 85.600 C 150.940 85.600,150.400 85.780,150.400 86.000 C 150.400 86.220,150.051 86.400,149.624 86.400 C 149.197 86.400,148.736 86.580,148.600 86.800 C 148.464 87.020,147.913 87.200,147.376 87.200 C 146.839 87.200,146.400 87.380,146.400 87.600 C 146.400 87.820,146.040 88.000,145.600 88.000 C 145.160 88.000,144.800 88.180,144.800 88.400 C 144.800 88.620,144.350 88.800,143.800 88.800 C 143.250 88.800,142.800 88.980,142.800 89.200 C 142.800 89.420,142.440 89.600,142.000 89.600 C 141.560 89.600,141.200 89.780,141.200 90.000 C 141.200 90.220,140.840 90.400,140.400 90.400 C 139.960 90.400,139.600 90.580,139.600 90.800 C 139.600 91.020,139.328 91.200,138.995 91.200 C 138.662 91.200,138.077 91.364,137.695 91.565 C 137.313 91.766,135.245 92.791,133.100 93.843 C 130.955 94.895,129.200 95.857,129.200 95.980 C 129.200 96.104,128.615 96.464,127.900 96.780 C 127.185 97.097,126.251 97.680,125.825 98.078 C 125.398 98.475,124.896 98.800,124.708 98.800 C 124.520 98.800,123.980 99.160,123.508 99.600 C 123.036 100.040,122.413 100.400,122.125 100.400 C 121.836 100.400,121.600 100.580,121.600 100.800 C 121.600 101.020,121.357 101.200,121.059 101.200 C 120.762 101.200,119.954 101.740,119.263 102.400 C 118.572 103.060,117.775 103.600,117.492 103.600 C 117.209 103.600,116.717 103.960,116.400 104.400 C 116.083 104.840,115.593 105.200,115.312 105.200 C 115.030 105.200,114.800 105.380,114.800 105.600 C 114.800 105.820,114.602 106.000,114.360 106.000 C 114.119 106.000,113.417 106.540,112.800 107.200 C 112.183 107.860,111.502 108.400,111.285 108.400 C 111.068 108.400,109.852 109.390,108.582 110.600 C 107.313 111.810,106.118 112.800,105.927 112.800 C 105.528 112.800,95.042 123.332,93.725 125.055 C 93.244 125.685,92.119 127.003,91.225 127.984 C 90.331 128.965,89.600 129.928,89.600 130.124 C 89.600 130.319,89.060 130.983,88.400 131.600 C 87.740 132.217,87.200 132.937,87.200 133.200 C 87.200 133.463,86.660 134.183,86.000 134.800 C 85.340 135.417,84.800 136.169,84.800 136.472 C 84.800 136.775,84.440 137.283,84.000 137.600 C 83.560 137.917,83.200 138.431,83.200 138.741 C 83.200 139.052,82.884 139.597,82.497 139.953 C 82.111 140.309,81.540 141.095,81.230 141.700 C 80.919 142.305,80.515 142.800,80.332 142.800 C 80.150 142.800,80.000 143.055,80.000 143.367 C 80.000 143.678,79.865 143.993,79.700 144.067 C 79.324 144.234,78.025 146.364,77.729 147.300 C 77.607 147.685,77.348 148.000,77.153 148.000 C 76.959 148.000,76.800 148.360,76.800 148.800 C 76.800 149.240,76.655 149.600,76.477 149.600 C 76.123 149.600,74.800 152.388,74.800 153.134 C 74.800 153.390,74.620 153.600,74.400 153.600 C 74.180 153.600,74.000 153.960,74.000 154.400 C 74.000 154.840,73.820 155.200,73.600 155.200 C 73.380 155.200,73.200 155.560,73.200 156.000 C 73.200 156.440,73.020 156.800,72.800 156.800 C 72.580 156.800,72.400 157.160,72.400 157.600 C 72.400 158.040,72.220 158.400,72.000 158.400 C 71.780 158.400,71.600 158.760,71.600 159.200 C 71.600 159.640,71.420 160.000,71.200 160.000 C 70.980 160.000,70.800 160.450,70.800 161.000 C 70.800 161.550,70.620 162.000,70.400 162.000 C 70.180 162.000,70.000 162.360,70.000 162.800 C 70.000 163.240,69.820 163.600,69.600 163.600 C 69.380 163.600,69.200 163.949,69.200 164.376 C 69.200 164.803,69.020 165.264,68.800 165.400 C 68.580 165.536,68.400 166.087,68.400 166.624 C 68.400 167.161,68.220 167.600,68.000 167.600 C 67.780 167.600,67.600 168.140,67.600 168.800 C 67.600 169.460,67.420 170.000,67.200 170.000 C 66.980 170.000,66.800 170.349,66.800 170.776 C 66.800 171.203,66.620 171.664,66.400 171.800 C 66.180 171.936,66.000 172.476,66.000 173.000 C 66.000 173.524,65.820 174.064,65.600 174.200 C 65.380 174.336,65.200 174.876,65.200 175.400 C 65.200 175.924,65.020 176.464,64.800 176.600 C 64.580 176.736,64.400 177.366,64.400 178.000 C 64.400 178.634,64.220 179.264,64.000 179.400 C 63.780 179.536,63.600 180.267,63.600 181.024 C 63.600 181.781,63.420 182.400,63.200 182.400 C 62.980 182.400,62.800 183.120,62.800 184.000 C 62.800 184.880,62.620 185.600,62.400 185.600 C 62.180 185.600,62.000 186.320,62.000 187.200 C 62.000 188.080,61.820 188.800,61.600 188.800 C 61.380 188.800,61.200 189.664,61.200 190.720 C 61.200 191.776,61.036 192.811,60.835 193.020 C 60.635 193.229,60.369 194.390,60.244 195.600 C 60.120 196.810,59.913 198.790,59.783 200.000 C 59.654 201.210,59.290 202.767,58.974 203.460 C 58.658 204.154,58.400 205.009,58.400 205.360 C 58.400 205.712,58.220 206.000,58.000 206.000 C 57.780 206.000,57.600 206.360,57.600 206.800 C 57.600 207.240,57.420 207.600,57.200 207.600 C 56.980 207.600,56.800 208.140,56.800 208.800 C 56.800 209.460,56.620 210.000,56.400 210.000 C 56.180 210.000,56.000 210.630,56.000 211.400 C 56.000 212.170,55.820 212.800,55.600 212.800 C 55.378 212.800,55.200 213.859,55.200 215.176 C 55.200 216.483,55.020 217.664,54.800 217.800 C 54.580 217.936,54.400 219.657,54.400 221.624 C 54.400 223.741,54.563 225.200,54.800 225.200 C 55.025 225.200,55.200 226.325,55.200 227.776 C 55.200 229.193,55.380 230.464,55.600 230.600 C 55.820 230.736,56.000 231.377,56.000 232.024 C 56.000 232.671,56.180 233.200,56.400 233.200 C 56.620 233.200,56.800 233.740,56.800 234.400 C 56.800 235.060,56.980 235.600,57.200 235.600 C 57.420 235.600,57.600 236.050,57.600 236.600 C 57.600 237.150,57.780 237.600,58.000 237.600 C 58.220 237.600,58.400 237.887,58.400 238.238 C 58.400 238.932,59.499 241.063,60.300 241.921 C 60.575 242.216,60.800 242.616,60.800 242.810 C 60.800 243.005,61.250 243.614,61.800 244.164 C 62.350 244.714,62.800 245.346,62.800 245.568 C 62.800 245.791,64.060 247.220,65.600 248.745 C 68.225 251.344,69.340 253.600,68.000 253.600 C 67.780 253.600,67.600 254.309,67.600 255.176 C 67.600 256.043,67.420 256.864,67.200 257.000 C 66.980 257.136,66.800 257.867,66.800 258.624 C 66.800 259.381,66.620 260.000,66.400 260.000 C 66.180 260.000,66.000 260.630,66.000 261.400 C 66.000 262.170,65.820 262.800,65.600 262.800 C 65.380 262.800,65.200 263.340,65.200 264.000 C 65.200 264.660,65.020 265.200,64.800 265.200 C 64.580 265.200,64.400 265.639,64.400 266.176 C 64.400 266.713,64.220 267.264,64.000 267.400 C 63.780 267.536,63.600 267.997,63.600 268.424 C 63.600 268.851,63.420 269.200,63.200 269.200 C 62.980 269.200,62.800 269.639,62.800 270.176 C 62.800 270.713,62.620 271.264,62.400 271.400 C 62.180 271.536,62.000 271.997,62.000 272.424 C 62.000 272.851,61.820 273.200,61.600 273.200 C 61.380 273.200,61.200 273.545,61.200 273.967 C 61.200 274.388,61.058 274.793,60.884 274.867 C 60.457 275.047,58.400 279.472,58.400 280.211 C 58.400 280.535,58.220 280.800,58.000 280.800 C 57.780 280.800,57.600 281.160,57.600 281.600 C 57.600 282.040,57.420 282.400,57.200 282.400 C 56.980 282.400,56.800 282.760,56.800 283.200 C 56.800 283.640,56.620 284.000,56.400 284.000 C 56.180 284.000,56.000 284.439,56.000 284.976 C 56.000 285.513,55.820 286.064,55.600 286.200 C 55.380 286.336,55.200 286.977,55.200 287.624 C 55.200 288.271,55.020 288.800,54.800 288.800 C 54.580 288.800,54.400 289.599,54.400 290.576 C 54.400 291.553,54.220 292.464,54.000 292.600 C 53.465 292.931,53.465 305.069,54.000 305.400 C 54.220 305.536,54.400 306.357,54.400 307.224 C 54.400 308.091,54.580 308.800,54.800 308.800 C 55.020 308.800,55.200 309.419,55.200 310.176 C 55.200 310.933,55.380 311.664,55.600 311.800 C 55.820 311.936,56.000 312.397,56.000 312.824 C 56.000 313.251,56.180 313.600,56.400 313.600 C 56.620 313.600,56.800 314.039,56.800 314.576 C 56.800 315.113,56.980 315.664,57.200 315.800 C 57.420 315.936,57.600 316.397,57.600 316.824 C 57.600 317.251,57.745 317.600,57.923 317.600 C 58.101 317.600,58.546 318.281,58.913 319.113 C 59.280 319.945,60.406 321.610,61.415 322.813 C 62.424 324.016,63.733 325.581,64.325 326.291 C 64.916 327.002,65.625 327.587,65.900 327.591 C 66.175 327.596,66.400 327.780,66.400 328.000 C 66.400 328.220,66.598 328.400,66.840 328.400 C 67.081 328.400,67.783 328.940,68.400 329.600 C 69.017 330.260,69.769 330.800,70.072 330.800 C 70.375 330.800,70.883 331.160,71.200 331.600 C 71.517 332.040,72.031 332.400,72.341 332.400 C 72.652 332.400,73.197 332.716,73.553 333.103 C 73.909 333.489,74.695 334.060,75.300 334.370 C 75.905 334.681,76.400 335.085,76.400 335.268 C 76.400 335.450,76.670 335.600,77.000 335.600 C 77.330 335.600,77.600 335.780,77.600 336.000 C 77.600 336.220,77.878 336.400,78.217 336.400 C 78.556 336.400,79.220 336.760,79.692 337.200 C 80.164 337.640,80.787 338.000,81.075 338.000 C 81.364 338.000,81.600 338.180,81.600 338.400 C 81.600 338.620,81.960 338.800,82.400 338.800 C 82.840 338.800,83.200 338.980,83.200 339.200 C 83.200 339.420,83.560 339.600,84.000 339.600 C 84.440 339.600,84.800 339.780,84.800 340.000 C 84.800 340.220,85.160 340.400,85.600 340.400 C 86.040 340.400,86.400 340.564,86.400 340.765 C 86.400 340.966,87.120 341.251,88.000 341.400 C 88.880 341.549,89.600 341.834,89.600 342.035 C 89.600 342.236,89.960 342.400,90.400 342.400 C 90.840 342.400,91.200 342.580,91.200 342.800 C 91.200 343.020,91.560 343.200,92.000 343.200 C 92.440 343.200,92.800 343.380,92.800 343.600 C 92.800 343.820,93.250 344.000,93.800 344.000 C 94.350 344.000,94.800 344.180,94.800 344.400 C 94.800 344.620,95.141 344.800,95.557 344.800 C 96.751 344.800,96.818 345.750,95.769 347.821 C 95.236 348.874,94.800 350.065,94.800 350.468 C 94.800 350.871,94.620 351.200,94.400 351.200 C 94.180 351.200,94.000 351.442,94.000 351.739 C 94.000 352.035,93.710 352.858,93.356 353.568 C 92.700 354.884,91.690 358.117,91.316 360.100 C 91.202 360.705,90.950 361.200,90.755 361.200 C 90.560 361.200,90.400 361.819,90.400 362.576 C 90.400 363.333,90.220 364.064,90.000 364.200 C 89.780 364.336,89.600 364.977,89.600 365.624 C 89.600 366.271,89.420 366.800,89.200 366.800 C 88.980 366.800,88.800 367.700,88.800 368.800 C 88.800 369.900,88.620 370.800,88.400 370.800 C 88.180 370.800,88.000 371.700,88.000 372.800 C 88.000 373.900,87.820 374.800,87.600 374.800 C 87.374 374.800,87.200 375.933,87.200 377.400 C 87.200 378.867,87.026 380.000,86.800 380.000 C 86.554 380.000,86.400 382.000,86.400 385.200 C 86.400 388.400,86.246 390.400,86.000 390.400 C 85.478 390.400,85.478 394.677,86.000 395.000 C 86.220 395.136,86.400 395.794,86.400 396.463 C 86.400 397.308,86.780 398.034,87.642 398.840 L 88.885 400.000 200.000 400.000 L 311.115 400.000 312.358 398.840 C 313.302 397.957,313.600 397.334,313.600 396.240 C 313.600 395.448,313.780 394.800,314.000 394.800 C 314.220 394.800,314.400 394.170,314.400 393.400 C 314.400 392.630,314.220 392.000,314.000 392.000 C 313.751 392.000,313.600 389.733,313.600 386.000 C 313.600 382.267,313.449 380.000,313.200 380.000 C 312.974 380.000,312.800 378.867,312.800 377.400 C 312.800 375.933,312.626 374.800,312.400 374.800 C 312.180 374.800,312.000 373.900,312.000 372.800 C 312.000 371.700,311.820 370.800,311.600 370.800 C 311.380 370.800,311.200 369.900,311.200 368.800 C 311.200 367.700,311.020 366.800,310.800 366.800 C 310.580 366.800,310.400 366.260,310.400 365.600 C 310.400 364.940,310.220 364.400,310.000 364.400 C 309.780 364.400,309.600 363.680,309.600 362.800 C 309.600 361.920,309.420 361.200,309.200 361.200 C 308.980 361.200,308.800 360.894,308.800 360.520 C 308.800 359.438,307.455 355.200,307.111 355.200 C 306.940 355.200,306.800 354.761,306.800 354.224 C 306.800 353.687,306.620 353.136,306.400 353.000 C 306.180 352.864,306.000 352.403,306.000 351.976 C 306.000 351.549,305.820 351.200,305.600 351.200 C 305.380 351.200,305.190 350.885,305.177 350.500 C 305.164 350.115,304.733 348.910,304.219 347.823 C 303.202 345.672,303.266 344.800,304.443 344.800 C 304.859 344.800,305.200 344.620,305.200 344.400 C 305.200 344.180,305.650 344.000,306.200 344.000 C 306.750 344.000,307.200 343.820,307.200 343.600 C 307.200 343.380,307.560 343.200,308.000 343.200 C 308.440 343.200,308.800 343.020,308.800 342.800 C 308.800 342.580,309.160 342.400,309.600 342.400 C 310.040 342.400,310.400 342.236,310.400 342.035 C 310.400 341.834,311.120 341.549,312.000 341.400 C 312.880 341.251,313.600 340.966,313.600 340.765 C 313.600 340.564,313.960 340.400,314.400 340.400 C 314.840 340.400,315.200 340.220,315.200 340.000 C 315.200 339.780,315.560 339.600,316.000 339.600 C 316.440 339.600,316.800 339.420,316.800 339.200 C 316.800 338.980,317.145 338.800,317.567 338.800 C 317.988 338.800,318.393 338.665,318.467 338.500 C 318.634 338.124,320.764 336.825,321.700 336.529 C 322.085 336.407,322.400 336.148,322.400 335.953 C 322.400 335.759,322.670 335.600,323.000 335.600 C 323.330 335.600,323.600 335.420,323.600 335.200 C 323.600 334.980,323.870 334.800,324.200 334.800 C 324.530 334.800,324.800 334.620,324.800 334.400 C 324.800 334.180,325.070 334.000,325.400 334.000 C 325.730 334.000,326.000 333.850,326.000 333.668 C 326.000 333.485,326.495 333.081,327.100 332.770 C 327.705 332.460,328.491 331.889,328.847 331.503 C 329.203 331.116,329.698 330.800,329.946 330.800 C 330.195 330.800,331.141 330.080,332.048 329.200 C 332.955 328.320,333.900 327.596,334.148 327.591 C 334.397 327.587,335.084 327.002,335.675 326.291 C 336.267 325.581,337.539 324.059,338.503 322.909 C 340.357 320.696,343.205 315.478,343.202 314.300 C 343.201 313.915,343.380 313.600,343.600 313.600 C 343.820 313.600,344.000 313.251,344.000 312.824 C 344.000 312.397,344.180 311.936,344.400 311.800 C 344.620 311.664,344.800 310.933,344.800 310.176 C 344.800 309.419,344.980 308.800,345.200 308.800 C 345.420 308.800,345.600 307.990,345.600 307.000 C 345.600 306.010,345.780 305.200,346.000 305.200 C 346.249 305.200,346.400 302.875,346.400 299.024 C 346.400 295.337,346.239 292.748,346.000 292.600 C 345.780 292.464,345.600 291.553,345.600 290.576 C 345.600 289.599,345.420 288.800,345.200 288.800 C 344.980 288.800,344.800 288.260,344.800 287.600 C 344.800 286.940,344.620 286.400,344.400 286.400 C 344.180 286.400,344.000 285.860,344.000 285.200 C 344.000 284.540,343.820 284.000,343.600 284.000 C 343.380 284.000,343.200 283.640,343.200 283.200 C 343.200 282.760,343.020 282.400,342.800 282.400 C 342.580 282.400,342.400 282.040,342.400 281.600 C 342.400 281.160,342.220 280.800,342.000 280.800 C 341.780 280.800,341.600 280.503,341.600 280.140 C 341.600 279.363,339.572 275.061,339.115 274.867 C 338.942 274.793,338.800 274.388,338.800 273.967 C 338.800 273.545,338.620 273.200,338.400 273.200 C 338.180 273.200,338.000 272.851,338.000 272.424 C 338.000 271.997,337.820 271.536,337.600 271.400 C 337.380 271.264,337.200 270.713,337.200 270.176 C 337.200 269.639,337.020 269.200,336.800 269.200 C 336.580 269.200,336.400 268.851,336.400 268.424 C 336.400 267.997,336.220 267.536,336.000 267.400 C 335.780 267.264,335.600 266.713,335.600 266.176 C 335.600 265.639,335.420 265.200,335.200 265.200 C 334.980 265.200,334.800 264.660,334.800 264.000 C 334.800 263.340,334.620 262.800,334.400 262.800 C 334.180 262.800,334.000 262.170,334.000 261.400 C 334.000 260.630,333.820 260.000,333.600 260.000 C 333.380 260.000,333.200 259.471,333.200 258.824 C 333.200 258.177,333.020 257.536,332.800 257.400 C 332.580 257.264,332.400 256.353,332.400 255.376 C 332.400 254.399,332.220 253.600,332.000 253.600 C 330.660 253.600,331.775 251.344,334.400 248.745 C 335.940 247.220,337.200 245.791,337.200 245.568 C 337.200 245.346,337.650 244.714,338.200 244.164 C 338.750 243.614,339.200 243.005,339.200 242.810 C 339.200 242.616,339.425 242.216,339.700 241.921 C 340.501 241.063,341.600 238.932,341.600 238.238 C 341.600 237.887,341.780 237.600,342.000 237.600 C 342.220 237.600,342.400 237.150,342.400 236.600 C 342.400 236.050,342.580 235.600,342.800 235.600 C 343.020 235.600,343.200 235.060,343.200 234.400 C 343.200 233.740,343.380 233.200,343.600 233.200 C 343.820 233.200,344.000 232.671,344.000 232.024 C 344.000 231.377,344.180 230.736,344.400 230.600 C 344.620 230.464,344.800 229.193,344.800 227.776 C 344.800 226.325,344.975 225.200,345.200 225.200 C 345.437 225.200,345.600 223.741,345.600 221.624 C 345.600 219.657,345.420 217.936,345.200 217.800 C 344.980 217.664,344.800 216.483,344.800 215.176 C 344.800 213.859,344.622 212.800,344.400 212.800 C 344.180 212.800,344.000 212.170,344.000 211.400 C 344.000 210.630,343.820 210.000,343.600 210.000 C 343.380 210.000,343.200 209.460,343.200 208.800 C 343.200 208.140,343.020 207.600,342.800 207.600 C 342.580 207.600,342.400 207.240,342.400 206.800 C 342.400 206.360,342.220 206.000,342.000 206.000 C 341.780 206.000,341.600 205.712,341.600 205.360 C 341.600 205.009,341.342 204.154,341.026 203.460 C 340.710 202.767,340.358 201.300,340.243 200.200 C 340.129 199.100,339.841 197.030,339.603 195.600 C 339.365 194.170,339.070 192.190,338.946 191.200 C 338.823 190.210,338.560 189.229,338.361 189.020 C 338.163 188.811,338.000 187.956,338.000 187.120 C 338.000 186.284,337.820 185.600,337.600 185.600 C 337.380 185.600,337.200 184.880,337.200 184.000 C 337.200 183.120,337.020 182.400,336.800 182.400 C 336.580 182.400,336.400 181.781,336.400 181.024 C 336.400 180.267,336.220 179.536,336.000 179.400 C 335.780 179.264,335.600 178.724,335.600 178.200 C 335.600 177.676,335.420 177.136,335.200 177.000 C 334.980 176.864,334.800 176.401,334.800 175.971 C 334.800 175.541,334.632 174.877,334.427 174.495 C 334.221 174.113,333.822 172.945,333.539 171.900 C 333.257 170.855,332.885 170.000,332.713 170.000 C 332.541 170.000,332.400 169.460,332.400 168.800 C 332.400 168.140,332.220 167.600,332.000 167.600 C 331.780 167.600,331.600 167.251,331.600 166.824 C 331.600 166.397,331.420 165.936,331.200 165.800 C 330.980 165.664,330.800 165.113,330.800 164.576 C 330.800 164.039,330.620 163.600,330.400 163.600 C 330.180 163.600,330.000 163.240,330.000 162.800 C 330.000 162.360,329.820 162.000,329.600 162.000 C 329.380 162.000,329.200 161.550,329.200 161.000 C 329.200 160.450,329.020 160.000,328.800 160.000 C 328.580 160.000,328.400 159.640,328.400 159.200 C 328.400 158.760,328.220 158.400,328.000 158.400 C 327.780 158.400,327.600 158.040,327.600 157.600 C 327.600 157.160,327.420 156.800,327.200 156.800 C 326.980 156.800,326.800 156.440,326.800 156.000 C 326.800 155.560,326.620 155.200,326.400 155.200 C 326.180 155.200,326.000 154.840,326.000 154.400 C 326.000 153.960,325.820 153.600,325.600 153.600 C 325.380 153.600,325.200 153.336,325.200 153.014 C 325.200 152.201,323.924 149.600,323.526 149.600 C 323.347 149.600,323.200 149.255,323.200 148.833 C 323.200 148.412,323.065 148.007,322.900 147.933 C 322.524 147.766,321.225 145.636,320.929 144.700 C 320.807 144.315,320.548 144.000,320.353 144.000 C 320.159 144.000,320.000 143.770,320.000 143.488 C 320.000 143.207,319.640 142.717,319.200 142.400 C 318.760 142.083,318.400 141.543,318.400 141.200 C 318.400 140.857,318.040 140.317,317.600 140.000 C 317.160 139.683,316.800 139.143,316.800 138.800 C 316.800 138.457,316.440 137.917,316.000 137.600 C 315.560 137.283,315.200 136.775,315.200 136.472 C 315.200 136.169,314.660 135.417,314.000 134.800 C 313.340 134.183,312.800 133.463,312.800 133.200 C 312.800 132.937,312.260 132.217,311.600 131.600 C 310.940 130.983,310.400 130.281,310.400 130.040 C 310.400 129.798,310.220 129.600,310.000 129.600 C 309.780 129.600,309.600 129.409,309.600 129.177 C 309.600 128.944,308.856 127.959,307.946 126.988 C 307.036 126.017,306.007 124.817,305.660 124.322 C 304.416 122.545,295.996 114.400,295.404 114.400 C 295.072 114.400,294.800 114.220,294.800 114.000 C 294.800 113.774,293.667 113.600,292.200 113.600 C 290.733 113.600,289.600 113.774,289.600 114.000 C 289.600 114.220,289.243 114.400,288.808 114.400 C 288.269 114.400,287.937 114.753,287.770 115.500 C 287.635 116.105,287.272 117.167,286.962 117.860 C 285.551 121.024,286.233 122.538,291.491 127.913 C 307.293 144.067,318.555 163.429,324.196 184.145 C 325.427 188.666,325.280 189.057,322.800 187.852 C 319.052 186.032,312.226 184.424,308.169 184.407 L 306.537 184.400 305.236 180.900 C 304.520 178.975,303.589 176.637,303.167 175.704 C 302.745 174.772,302.400 173.899,302.400 173.765 C 302.400 172.675,296.756 162.362,293.070 156.718 C 273.828 127.254,246.612 117.657,218.077 130.274 C 209.948 133.869,201.300 135.153,194.000 133.848 C 190.375 133.201,185.942 132.008,185.420 131.541 C 185.211 131.353,184.804 131.200,184.516 131.200 C 184.227 131.200,183.228 130.851,182.296 130.425 C 162.434 121.353,141.123 123.673,124.261 136.743 C 119.974 140.066,111.877 149.359,107.264 156.250 C 103.667 161.624,97.600 172.630,97.600 173.781 C 97.600 173.906,97.255 174.772,96.833 175.704 C 96.411 176.637,95.480 178.975,94.764 180.900 L 93.463 184.400 91.631 184.407 C 87.473 184.424,80.470 186.132,76.705 188.047 C 74.450 189.194,74.436 188.946,76.388 182.358 C 87.217 145.810,113.319 116.154,148.499 100.430 C 153.812 98.055,163.480 94.739,168.400 93.603 C 190.262 88.557,208.660 88.381,229.200 93.019 C 233.593 94.011,240.771 96.124,243.400 97.200 C 243.840 97.380,245.908 98.190,247.996 99.001 C 251.477 100.352,260.007 104.374,262.400 105.792 C 262.950 106.117,265.365 107.558,267.766 108.992 C 272.832 112.018,274.501 112.315,276.841 110.609 C 277.588 110.063,278.605 109.404,279.100 109.144 C 280.066 108.637,280.526 102.800,279.600 102.800 C 279.380 102.800,279.200 102.506,279.200 102.147 C 279.200 101.416,277.275 99.601,276.500 99.600 C 276.225 99.600,276.000 99.420,276.000 99.200 C 276.000 98.980,275.730 98.800,275.400 98.800 C 275.070 98.800,274.800 98.620,274.800 98.400 C 274.800 98.180,274.530 98.000,274.200 98.000 C 273.870 98.000,273.600 97.820,273.600 97.600 C 273.600 97.380,273.330 97.200,273.000 97.200 C 272.670 97.200,272.400 97.020,272.400 96.800 C 272.400 96.580,272.040 96.400,271.600 96.400 C 271.160 96.400,270.800 96.242,270.800 96.048 C 270.800 95.855,269.045 94.851,266.900 93.818 C 264.755 92.785,262.687 91.773,262.305 91.570 C 261.923 91.366,261.338 91.200,261.005 91.200 C 260.672 91.200,260.400 91.020,260.400 90.800 C 260.400 90.580,260.040 90.400,259.600 90.400 C 259.160 90.400,258.800 90.220,258.800 90.000 C 258.800 89.780,258.440 89.600,258.000 89.600 C 257.560 89.600,257.200 89.420,257.200 89.200 C 257.200 88.980,256.851 88.800,256.424 88.800 C 255.997 88.800,255.536 88.620,255.400 88.400 C 255.264 88.180,254.803 88.000,254.376 88.000 C 253.949 88.000,253.600 87.820,253.600 87.600 C 253.600 87.380,253.161 87.200,252.624 87.200 C 252.087 87.200,251.536 87.020,251.400 86.800 C 251.264 86.580,250.803 86.400,250.376 86.400 C 249.949 86.400,249.600 86.220,249.600 86.000 C 249.600 85.780,249.060 85.600,248.400 85.600 C 247.740 85.600,247.200 85.420,247.200 85.200 C 247.200 84.980,246.660 84.800,246.000 84.800 C 245.340 84.800,244.800 84.620,244.800 84.400 C 244.800 84.180,244.260 84.000,243.600 84.000 C 242.940 84.000,242.400 83.820,242.400 83.600 C 242.400 83.380,241.860 83.200,241.200 83.200 C 240.540 83.200,240.000 83.020,240.000 82.800 C 240.000 82.580,239.370 82.400,238.600 82.400 C 237.830 82.400,237.200 82.220,237.200 82.000 C 237.200 81.780,236.480 81.600,235.600 81.600 C 234.720 81.600,234.000 81.420,234.000 81.200 C 234.000 80.980,233.280 80.800,232.400 80.800 C 231.520 80.800,230.800 80.620,230.800 80.400 C 230.800 80.180,229.900 80.000,228.800 80.000 C 227.700 80.000,226.800 79.820,226.800 79.600 C 226.800 79.380,225.821 79.200,224.624 79.200 C 223.427 79.200,222.336 79.020,222.200 78.800 C 222.064 78.580,220.804 78.400,219.400 78.400 C 217.996 78.400,216.736 78.220,216.600 78.000 C 216.457 77.768,214.263 77.600,211.376 77.600 C 208.325 77.600,206.400 77.445,206.400 77.200 C 206.400 76.731,193.898 76.634,193.435 77.100 M167.249 137.380 C 170.334 138.097,173.589 139.191,177.600 140.859 C 183.146 143.166,185.349 143.872,189.800 144.770 C 198.197 146.463,202.532 146.459,210.600 144.749 C 212.607 144.324,213.464 144.088,216.800 143.042 C 219.025 142.344,224.058 140.375,224.600 139.991 C 224.820 139.835,226.440 139.248,228.200 138.686 C 244.121 133.609,260.164 137.421,272.135 149.126 C 289.634 166.235,299.948 191.901,299.987 218.430 C 300.021 241.405,293.840 260.114,280.069 278.720 C 266.358 297.245,245.426 310.891,222.600 316.185 C 218.903 317.043,217.365 317.300,209.323 318.405 C 205.559 318.922,194.870 318.911,190.916 318.386 C 175.907 316.393,167.005 313.834,155.685 308.261 C 151.289 306.097,145.501 302.706,143.800 301.298 C 143.580 301.116,142.524 300.367,141.454 299.633 C 138.927 297.900,133.274 293.160,130.082 290.098 C 125.970 286.153,121.129 286.400,119.355 290.647 C 117.842 294.266,119.750 296.994,129.491 305.140 L 132.382 307.557 128.491 310.450 C 119.970 316.783,109.282 327.556,105.482 333.641 C 104.975 334.452,103.631 334.630,102.495 334.038 C 102.113 333.838,100.630 333.187,99.200 332.590 C 68.487 319.763,59.799 305.308,70.239 284.400 C 74.987 274.890,76.980 269.771,78.920 262.098 L 80.175 257.133 81.388 257.321 C 82.054 257.424,84.130 257.799,86.000 258.154 C 87.870 258.509,90.885 258.799,92.700 258.799 C 94.566 258.800,96.000 258.969,96.000 259.188 C 96.000 260.476,102.042 272.512,105.006 277.129 C 107.640 281.230,111.039 282.230,113.968 279.765 C 116.987 277.225,117.083 274.942,114.363 270.400 C 111.460 265.555,107.541 257.332,105.688 252.200 C 103.451 246.005,101.782 238.982,100.403 229.967 C 99.881 226.558,99.881 210.642,100.403 207.233 C 102.124 195.983,103.413 190.848,106.676 182.254 C 118.994 149.806,143.280 131.814,167.249 137.380 M141.000 176.464 C 136.839 178.750,136.043 191.047,139.839 194.381 C 142.792 196.973,146.601 196.159,148.700 192.486 C 149.614 190.887,149.373 180.616,148.380 178.850 C 146.977 176.353,143.341 175.178,141.000 176.464 M253.292 177.040 C 249.803 179.789,249.563 191.368,252.929 194.563 C 255.408 196.915,259.906 196.007,261.486 192.834 C 262.449 190.900,262.532 180.856,261.600 179.015 C 260.095 176.043,255.841 175.031,253.292 177.040 M194.266 180.156 C 178.239 186.900,178.834 209.754,195.200 216.057 C 203.245 219.155,213.893 212.988,216.634 203.643 C 220.906 189.080,207.218 174.707,194.266 180.156 M90.213 196.421 C 90.356 196.652,90.196 198.677,89.859 200.921 C 87.696 215.284,88.020 228.769,90.833 241.400 C 92.237 247.704,92.303 247.552,88.433 246.888 C 67.446 243.289,59.271 215.039,75.600 202.540 C 75.930 202.288,76.740 201.612,77.400 201.040 C 79.807 198.951,84.584 197.011,89.676 196.052 C 89.828 196.023,90.070 196.189,90.213 196.421 M312.672 196.607 C 315.629 197.098,319.968 199.023,322.662 201.039 C 340.250 214.206,334.359 241.861,312.952 246.624 C 307.816 247.766,307.807 247.756,309.170 241.800 C 309.871 238.732,310.323 235.754,311.198 228.436 C 312.054 221.274,311.651 210.465,310.164 200.687 C 309.560 196.722,309.653 195.781,310.612 196.149 C 310.904 196.261,311.831 196.467,312.672 196.607 M320.215 258.300 C 321.870 266.211,324.506 273.501,329.058 282.762 C 333.605 292.012,333.790 292.650,333.775 299.000 C 333.744 312.399,327.006 320.090,306.515 330.119 C 303.211 331.736,302.279 332.141,297.494 334.037 L 295.589 334.793 294.837 333.896 C 294.424 333.403,292.644 331.200,290.880 329.000 C 285.380 322.137,278.795 315.828,271.700 310.622 C 267.257 307.363,267.299 307.989,271.292 304.597 C 280.656 296.640,286.950 289.604,293.544 279.719 C 294.895 277.695,296.000 275.958,296.000 275.860 C 296.000 275.762,296.685 274.538,297.522 273.141 C 299.393 270.019,302.720 263.166,304.000 259.801 C 304.354 258.869,304.568 258.800,307.090 258.797 C 309.893 258.794,317.078 257.855,317.496 257.437 C 318.244 256.689,319.994 257.245,320.215 258.300 M145.764 316.414 L 147.915 317.629 148.096 328.314 C 148.196 334.191,148.464 339.540,148.692 340.200 C 148.920 340.860,149.347 342.210,149.640 343.200 C 155.649 363.494,184.996 369.373,198.129 352.914 C 199.126 351.664,199.308 351.723,201.397 353.956 C 212.741 366.083,233.363 365.298,243.857 352.340 C 249.146 345.808,250.780 339.634,250.793 326.136 L 250.800 318.472 253.831 316.809 L 256.862 315.145 259.619 316.783 C 262.073 318.241,267.252 322.006,270.600 324.766 C 279.660 332.234,290.202 346.753,294.330 357.446 C 297.824 366.500,299.235 371.540,300.362 379.000 C 301.468 386.317,301.516 388.007,300.624 388.221 C 300.171 388.330,254.620 388.369,199.400 388.309 L 99.000 388.200 99.097 385.000 C 99.151 383.240,99.381 380.630,99.610 379.200 C 100.320 374.755,100.782 372.659,102.387 366.600 C 102.795 365.061,103.938 361.634,104.389 360.600 C 104.581 360.160,105.060 358.990,105.455 358.000 C 107.461 352.962,113.447 342.273,116.115 338.963 C 124.152 328.993,131.645 322.122,140.059 317.006 C 143.571 314.870,143.112 314.918,145.764 316.414 M168.600 325.629 C 169.260 325.808,170.520 326.159,171.400 326.408 C 176.480 327.845,186.809 329.600,190.189 329.600 C 193.494 329.600,193.766 329.997,193.500 334.440 C 193.376 336.508,193.053 338.740,192.781 339.400 C 191.554 342.383,191.194 343.087,190.422 344.013 C 180.979 355.338,166.024 352.857,160.430 339.036 C 159.759 337.379,159.352 324.810,159.934 323.723 L 160.387 322.876 163.894 324.090 C 165.822 324.758,167.940 325.451,168.600 325.629 M238.715 330.900 C 238.540 338.285,238.500 338.508,236.649 342.375 C 233.384 349.198,223.377 352.922,216.000 350.059 C 209.522 347.546,205.524 341.810,204.941 334.192 C 204.626 330.075,204.722 329.992,210.305 329.564 C 217.268 329.029,223.318 327.939,230.000 326.017 C 231.650 325.542,233.540 325.005,234.200 324.822 C 234.860 324.640,235.850 324.301,236.400 324.071 C 238.955 322.998,238.905 322.851,238.715 330.900 " stroke="none" fill="#050505" fill-rule="evenodd"></path><path id="path2" d="M334.600 12.085 C 322.551 13.935,311.141 20.773,303.797 30.547 C 294.113 43.433,292.065 61.231,298.520 76.400 C 311.142 106.059,349.912 113.737,373.338 91.217 C 383.493 81.455,388.971 66.323,387.174 53.000 C 383.632 26.746,359.816 8.212,334.600 12.085 M368.200 37.437 C 370.196 38.745,371.042 41.282,370.338 43.853 C 369.888 45.496,339.400 76.659,335.728 79.230 C 331.183 82.411,330.309 81.758,317.778 65.800 C 317.259 65.140,315.672 63.118,314.251 61.308 C 311.530 57.841,310.958 56.416,311.381 54.163 C 311.894 51.424,315.520 49.078,318.117 49.804 C 320.186 50.382,321.135 51.325,326.647 58.280 C 329.838 62.306,332.657 65.600,332.912 65.600 C 333.167 65.600,339.861 59.136,347.788 51.235 C 357.006 42.047,362.560 36.799,363.200 36.673 C 364.717 36.373,367.143 36.744,368.200 37.437 M197.282 89.896 C 198.758 89.973,201.278 89.973,202.882 89.897 C 204.487 89.821,203.280 89.758,200.200 89.758 C 197.120 89.757,195.807 89.819,197.282 89.896 M156.700 136.693 C 157.635 136.777,159.165 136.777,160.100 136.693 C 161.035 136.609,160.270 136.540,158.400 136.540 C 156.530 136.540,155.765 136.609,156.700 136.693 M239.900 136.693 C 240.835 136.777,242.365 136.777,243.300 136.693 C 244.235 136.609,243.470 136.540,241.600 136.540 C 239.730 136.540,238.965 136.609,239.900 136.693 M142.705 175.883 C 143.202 175.979,143.922 175.975,144.305 175.875 C 144.687 175.775,144.280 175.696,143.400 175.701 C 142.520 175.705,142.207 175.787,142.705 175.883 M255.905 175.883 C 256.402 175.979,257.122 175.975,257.505 175.875 C 257.887 175.775,257.480 175.696,256.600 175.701 C 255.720 175.705,255.407 175.787,255.905 175.883 M252.887 177.100 C 251.930 178.035,251.914 178.081,252.781 177.406 C 254.488 176.076,254.569 176.000,254.286 176.000 C 254.136 176.000,253.506 176.495,252.887 177.100 M198.700 179.089 C 199.415 179.178,200.585 179.178,201.300 179.089 C 202.015 179.001,201.430 178.928,200.000 178.928 C 198.570 178.928,197.985 179.001,198.700 179.089 M217.293 196.000 C 217.293 196.770,217.375 197.085,217.476 196.700 C 217.576 196.315,217.576 195.685,217.476 195.300 C 217.375 194.915,217.293 195.230,217.293 196.000 M182.531 197.800 C 182.533 199.340,182.605 199.921,182.692 199.091 C 182.779 198.261,182.777 197.001,182.689 196.291 C 182.600 195.581,182.529 196.260,182.531 197.800 M299.293 207.200 C 299.293 207.970,299.375 208.285,299.476 207.900 C 299.576 207.515,299.576 206.885,299.476 206.500 C 299.375 206.115,299.293 206.430,299.293 207.200 M332.920 221.600 C 332.920 222.810,332.995 223.305,333.087 222.700 C 333.178 222.095,333.178 221.105,333.087 220.500 C 332.995 219.895,332.920 220.390,332.920 221.600 M74.383 239.700 C 75.364 240.745,76.219 241.600,76.283 241.600 C 76.584 241.600,76.266 241.241,74.500 239.583 L 72.600 237.800 74.383 239.700 M325.200 239.800 C 324.228 240.790,323.523 241.600,323.633 241.600 C 323.743 241.600,324.628 240.790,325.600 239.800 C 326.572 238.810,327.277 238.000,327.167 238.000 C 327.057 238.000,326.172 238.810,325.200 239.800 M273.775 286.100 L 272.600 287.400 273.900 286.225 C 274.615 285.579,275.200 284.994,275.200 284.925 C 275.200 284.616,274.870 284.888,273.775 286.100 M268.991 290.900 L 265.800 294.200 269.100 291.009 C 272.165 288.046,272.582 287.600,272.291 287.600 C 272.230 287.600,270.745 289.085,268.991 290.900 M140.059 317.006 C 131.645 322.122,124.152 328.993,116.115 338.963 C 113.447 342.273,107.461 352.962,105.455 358.000 C 105.060 358.990,104.581 360.160,104.389 360.600 C 103.938 361.634,102.795 365.061,102.387 366.600 C 100.782 372.659,100.320 374.755,99.610 379.200 C 99.381 380.630,99.151 383.240,99.097 385.000 L 99.000 388.200 199.400 388.309 C 254.620 388.369,300.171 388.330,300.624 388.221 C 301.404 388.034,301.430 387.860,301.116 384.912 C 299.985 374.277,298.489 368.223,294.330 357.446 C 290.202 346.753,279.660 332.234,270.600 324.766 C 267.252 322.006,262.073 318.241,259.619 316.783 L 256.862 315.145 253.831 316.809 L 250.800 318.472 250.793 326.136 C 250.780 339.634,249.146 345.808,243.857 352.340 C 233.363 365.298,212.741 366.083,201.397 353.956 C 199.308 351.723,199.126 351.664,198.129 352.914 C 184.996 369.373,155.649 363.494,149.640 343.200 C 149.347 342.210,148.920 340.860,148.692 340.200 C 148.464 339.540,148.196 334.191,148.096 328.314 L 147.915 317.629 145.764 316.414 C 143.112 314.918,143.571 314.870,140.059 317.006 M190.500 318.276 C 190.885 318.376,191.515 318.376,191.900 318.276 C 192.285 318.175,191.970 318.093,191.200 318.093 C 190.430 318.093,190.115 318.175,190.500 318.276 M208.500 318.276 C 208.885 318.376,209.515 318.376,209.900 318.276 C 210.285 318.175,209.970 318.093,209.200 318.093 C 208.430 318.093,208.115 318.175,208.500 318.276 M193.907 318.690 C 194.626 318.779,195.706 318.777,196.307 318.686 C 196.908 318.595,196.320 318.522,195.000 318.524 C 193.680 318.526,193.188 318.601,193.907 318.690 M204.500 318.687 C 205.105 318.778,206.095 318.778,206.700 318.687 C 207.305 318.595,206.810 318.520,205.600 318.520 C 204.390 318.520,203.895 318.595,204.500 318.687 M159.934 323.723 C 159.352 324.810,159.759 337.379,160.430 339.036 C 163.104 345.643,168.070 350.136,173.242 350.628 C 174.989 350.794,174.992 350.792,173.600 350.400 C 170.498 349.524,169.328 349.038,167.781 347.980 C 164.254 345.569,162.313 342.874,160.861 338.372 C 159.620 334.527,160.451 321.817,161.800 324.000 C 161.936 324.220,162.476 324.400,163.000 324.400 C 163.524 324.400,164.064 324.580,164.200 324.800 C 164.336 325.020,164.799 325.200,165.229 325.200 C 165.659 325.200,166.323 325.358,166.705 325.551 C 167.861 326.135,170.204 326.800,171.105 326.800 C 171.571 326.800,172.064 326.980,172.200 327.200 C 172.336 327.420,173.031 327.600,173.744 327.600 C 174.457 327.600,175.211 327.762,175.420 327.959 C 175.629 328.156,176.520 328.421,177.400 328.547 C 178.280 328.674,180.170 328.959,181.600 329.183 C 183.030 329.406,185.910 329.774,188.000 330.000 C 190.090 330.225,192.025 330.492,192.300 330.593 C 192.917 330.818,193.010 338.223,192.400 338.600 C 192.180 338.736,192.000 339.186,192.000 339.601 C 192.000 342.901,185.576 348.805,180.445 350.220 C 178.910 350.643,178.795 350.734,179.758 350.764 C 181.418 350.815,186.339 348.314,188.099 346.524 C 190.980 343.596,191.180 343.291,192.781 339.400 C 193.053 338.740,193.376 336.508,193.500 334.440 C 193.766 329.997,193.494 329.600,190.189 329.600 C 186.809 329.600,176.480 327.845,171.400 326.408 C 170.520 326.159,169.260 325.808,168.600 325.629 C 167.940 325.451,165.822 324.758,163.894 324.090 L 160.387 322.876 159.934 323.723 M236.400 324.071 C 235.850 324.301,234.860 324.640,234.200 324.822 C 233.540 325.005,231.650 325.542,230.000 326.017 C 223.318 327.939,217.268 329.029,210.305 329.564 C 204.703 329.994,204.625 330.062,204.950 334.281 C 205.606 342.822,211.550 350.005,218.475 350.624 L 220.200 350.778 218.196 350.253 C 210.686 348.287,205.600 341.693,205.600 333.923 L 205.600 330.902 207.285 330.633 C 208.212 330.485,210.597 330.185,212.585 329.968 C 217.565 329.423,222.555 328.566,226.400 327.596 C 227.390 327.346,228.787 327.045,229.504 326.927 C 230.221 326.808,230.906 326.551,231.027 326.356 C 231.148 326.160,231.599 326.000,232.029 326.000 C 232.459 326.000,233.123 325.842,233.505 325.649 C 234.457 325.168,236.947 324.400,237.554 324.400 C 237.935 324.400,238.022 326.043,237.925 331.500 L 237.800 338.600 236.449 341.483 C 234.409 345.833,230.726 348.823,225.702 350.205 C 224.146 350.633,224.011 350.735,224.958 350.764 C 228.283 350.867,234.835 346.165,236.649 342.375 C 238.500 338.508,238.540 338.285,238.715 330.900 C 238.905 322.851,238.955 322.998,236.400 324.071 M175.905 351.083 C 176.402 351.179,177.122 351.175,177.505 351.075 C 177.887 350.975,177.480 350.896,176.600 350.901 C 175.720 350.905,175.407 350.987,175.905 351.083 M221.105 351.083 C 221.602 351.179,222.322 351.175,222.705 351.075 C 223.087 350.975,222.680 350.896,221.800 350.901 C 220.920 350.905,220.607 350.987,221.105 351.083 " stroke="none" fill="#68949a" fill-rule="evenodd"></path><path id="path3" d="M53.400 12.461 C 33.206 15.765,18.236 29.714,14.186 49.000 C 13.068 54.323,13.531 69.016,14.842 69.826 C 15.039 69.948,15.200 70.489,15.200 71.029 C 15.200 71.569,15.359 72.323,15.553 72.705 C 15.748 73.087,16.086 73.850,16.306 74.400 C 22.498 89.918,34.322 99.676,51.200 103.200 C 53.826 103.748,65.729 103.526,68.400 102.879 C 69.390 102.639,70.740 102.330,71.400 102.191 C 72.060 102.053,73.050 101.749,73.600 101.516 C 74.150 101.283,74.960 100.966,75.400 100.810 C 78.996 99.538,85.532 95.889,87.416 94.100 C 87.706 93.825,88.053 93.600,88.187 93.600 C 88.322 93.600,89.559 92.475,90.936 91.100 C 106.922 75.140,109.500 51.574,97.313 32.800 C 92.010 24.631,81.600 16.742,73.000 14.375 C 72.340 14.194,71.080 13.838,70.200 13.584 C 66.103 12.402,57.337 11.816,53.400 12.461 M42.113 32.959 C 42.821 33.267,46.903 37.042,51.184 41.347 L 58.969 49.176 67.204 41.025 C 75.077 33.232,75.522 32.861,77.336 32.589 C 81.370 31.984,84.802 34.765,84.799 38.635 C 84.796 40.983,83.867 42.166,75.531 50.437 L 67.875 58.034 76.101 66.320 C 85.827 76.117,86.622 77.842,83.199 81.739 C 79.470 85.987,77.190 85.026,67.175 74.985 L 59.060 66.849 51.030 74.924 C 46.614 79.366,42.497 83.225,41.881 83.500 C 37.989 85.239,33.200 82.048,33.200 77.715 C 33.200 75.134,33.348 74.941,42.143 66.092 L 50.200 57.985 42.296 50.092 C 32.893 40.702,33.229 41.129,33.213 38.560 C 33.184 33.983,37.794 31.082,42.113 32.959 M155.305 137.087 C 155.914 137.179,156.814 137.177,157.305 137.082 C 157.797 136.987,157.300 136.911,156.200 136.914 C 155.100 136.917,154.697 136.995,155.305 137.087 M159.900 137.082 C 160.395 137.178,161.205 137.178,161.700 137.082 C 162.195 136.987,161.790 136.909,160.800 136.909 C 159.810 136.909,159.405 136.987,159.900 137.082 M238.300 137.082 C 238.795 137.178,239.605 137.178,240.100 137.082 C 240.595 136.987,240.190 136.909,239.200 136.909 C 238.210 136.909,237.805 136.987,238.300 137.082 M243.505 137.083 C 244.002 137.179,244.722 137.175,245.105 137.075 C 245.487 136.975,245.080 136.896,244.200 136.901 C 243.320 136.905,243.007 136.987,243.505 137.083 M138.000 193.501 C 138.000 193.725,137.145 194.032,136.100 194.183 C 113.666 197.416,111.061 222.228,132.551 227.987 C 135.806 228.859,143.219 229.124,145.440 228.447 C 146.078 228.252,147.410 227.856,148.400 227.565 C 163.124 223.245,166.365 205.883,153.899 198.113 C 149.531 195.390,147.637 194.788,146.200 195.664 C 143.934 197.046,140.555 196.341,138.810 194.122 C 138.364 193.555,138.000 193.276,138.000 193.501 M260.957 194.447 C 259.031 196.575,255.773 196.985,253.428 195.393 C 252.612 194.839,252.043 194.546,252.164 194.742 C 252.285 194.937,251.532 195.419,250.492 195.811 C 234.645 201.790,234.345 220.775,250.000 226.973 C 254.397 228.713,262.493 229.467,265.840 228.447 C 266.478 228.252,267.810 227.856,268.800 227.565 C 283.620 223.217,286.739 205.720,274.097 197.846 C 269.811 195.177,262.101 193.183,260.957 194.447 M88.256 206.484 C 88.121 206.988,88.027 207.760,88.046 208.200 C 88.065 208.640,88.245 208.298,88.446 207.440 C 88.836 205.778,88.670 204.940,88.256 206.484 M311.458 206.800 C 311.775 208.525,312.002 208.851,311.994 207.567 C 311.991 207.035,311.811 206.330,311.594 206.000 C 311.318 205.578,311.277 205.815,311.458 206.800 M100.914 208.600 C 100.917 209.700,100.995 210.103,101.087 209.495 C 101.179 208.886,101.177 207.986,101.082 207.495 C 100.987 207.003,100.911 207.500,100.914 208.600 M299.740 218.800 C 299.740 220.670,299.809 221.435,299.893 220.500 C 299.977 219.565,299.977 218.035,299.893 217.100 C 299.809 216.165,299.740 216.930,299.740 218.800 M332.528 221.600 C 332.528 223.030,332.601 223.615,332.689 222.900 C 332.778 222.185,332.778 221.015,332.689 220.300 C 332.601 219.585,332.528 220.170,332.528 221.600 M100.914 228.600 C 100.917 229.700,100.995 230.103,101.087 229.495 C 101.179 228.886,101.177 227.986,101.082 227.495 C 100.987 227.003,100.911 227.500,100.914 228.600 M88.006 229.033 C 88.009 229.675,88.184 230.470,88.395 230.800 C 88.655 231.209,88.699 230.890,88.532 229.800 C 88.229 227.823,87.998 227.486,88.006 229.033 M311.654 229.267 C 311.625 229.634,311.484 230.264,311.341 230.667 C 311.141 231.233,311.195 231.296,311.575 230.946 C 311.846 230.697,311.987 230.067,311.888 229.546 C 311.790 229.026,311.684 228.900,311.654 229.267 M323.970 240.300 L 323.000 241.400 324.200 240.400 C 324.860 239.850,325.475 239.355,325.567 239.300 C 325.658 239.245,325.555 239.200,325.336 239.200 C 325.118 239.200,324.503 239.695,323.970 240.300 M89.300 246.676 C 89.685 246.776,90.315 246.776,90.700 246.676 C 91.085 246.575,90.770 246.493,90.000 246.493 C 89.230 246.493,88.915 246.575,89.300 246.676 M309.300 246.676 C 309.685 246.776,310.315 246.776,310.700 246.676 C 311.085 246.575,310.770 246.493,310.000 246.493 C 309.230 246.493,308.915 246.575,309.300 246.676 M114.065 280.750 C 114.361 281.716,119.787 288.318,120.121 288.119 C 120.297 288.013,119.622 287.051,118.621 285.981 C 117.619 284.910,116.793 283.892,116.783 283.717 C 116.774 283.543,116.121 282.680,115.331 281.800 C 114.542 280.920,113.972 280.448,114.065 280.750 M130.400 289.725 C 130.400 289.794,130.985 290.379,131.700 291.025 L 133.000 292.200 131.825 290.900 C 130.730 289.688,130.400 289.416,130.400 289.725 M184.900 317.076 C 185.285 317.176,185.915 317.176,186.300 317.076 C 186.685 316.975,186.370 316.893,185.600 316.893 C 184.830 316.893,184.515 316.975,184.900 317.076 M190.305 317.883 C 190.802 317.979,191.522 317.975,191.905 317.875 C 192.287 317.775,191.880 317.696,191.000 317.701 C 190.120 317.705,189.807 317.787,190.305 317.883 M208.500 317.876 C 208.885 317.976,209.515 317.976,209.900 317.876 C 210.285 317.775,209.970 317.693,209.200 317.693 C 208.430 317.693,208.115 317.775,208.500 317.876 M201.305 318.287 C 201.914 318.379,202.814 318.377,203.305 318.282 C 203.797 318.187,203.300 318.111,202.200 318.114 C 201.100 318.117,200.697 318.195,201.305 318.287 " stroke="none" fill="#e18891" fill-rule="evenodd"></path><path id="path4" d="M53.200 12.047 C 40.055 14.148,29.437 20.415,21.768 30.600 C 19.629 33.441,15.610 40.886,15.603 42.020 C 15.602 42.361,15.438 42.811,15.239 43.020 C 13.778 44.560,12.235 56.561,12.815 61.882 C 15.129 83.095,28.819 98.471,50.000 103.646 C 53.361 104.467,65.463 104.337,68.800 103.443 C 70.230 103.061,71.940 102.602,72.600 102.424 C 82.435 99.770,92.872 91.654,98.607 82.200 C 100.200 79.575,102.400 74.995,102.400 74.305 C 102.400 74.005,102.559 73.589,102.753 73.380 C 103.266 72.828,104.345 68.373,105.017 64.035 C 109.514 34.989,82.051 7.435,53.200 12.047 M66.200 12.764 C 67.520 12.961,69.320 13.330,70.200 13.584 C 71.080 13.838,72.340 14.194,73.000 14.375 C 81.600 16.742,92.010 24.631,97.313 32.800 C 109.500 51.574,106.922 75.140,90.936 91.100 C 89.559 92.475,88.322 93.600,88.187 93.600 C 88.053 93.600,87.706 93.825,87.416 94.100 C 85.532 95.889,78.996 99.538,75.400 100.810 C 74.960 100.966,74.150 101.283,73.600 101.516 C 73.050 101.749,72.060 102.053,71.400 102.191 C 70.740 102.330,69.390 102.639,68.400 102.879 C 65.729 103.526,53.826 103.748,51.200 103.200 C 34.322 99.676,22.498 89.918,16.306 74.400 C 16.086 73.850,15.748 73.087,15.553 72.705 C 15.359 72.323,15.200 71.569,15.200 71.029 C 15.200 70.489,15.039 69.948,14.842 69.826 C 13.531 69.016,13.068 54.323,14.186 49.000 C 19.249 24.890,41.873 9.128,66.200 12.764 M39.000 32.670 C 39.660 32.752,40.650 32.919,41.200 33.042 C 41.792 33.173,45.557 36.595,50.431 41.432 C 54.957 45.924,58.829 49.600,59.034 49.600 C 59.240 49.600,62.826 46.161,67.004 41.959 C 71.182 37.756,75.140 33.977,75.800 33.560 C 76.712 32.985,76.821 32.803,76.256 32.801 C 75.824 32.801,72.050 36.227,67.241 40.988 L 58.969 49.176 51.184 41.347 C 43.190 33.308,41.920 32.357,39.313 32.460 C 38.002 32.512,37.960 32.540,39.000 32.670 M77.905 32.683 C 78.402 32.779,79.122 32.775,79.505 32.675 C 79.887 32.575,79.480 32.496,78.600 32.501 C 77.720 32.505,77.407 32.587,77.905 32.683 M35.722 33.400 C 33.454 34.988,32.387 39.451,33.809 41.400 C 34.130 41.840,37.949 45.752,42.296 50.092 L 50.200 57.985 42.143 66.092 C 33.348 74.941,33.200 75.134,33.200 77.715 C 33.200 82.048,37.989 85.239,41.881 83.500 C 42.497 83.225,46.614 79.366,51.030 74.924 L 59.060 66.849 67.175 74.985 C 77.190 85.026,79.470 85.987,83.199 81.739 C 86.622 77.842,85.827 76.117,76.101 66.320 L 67.875 58.034 75.531 50.437 C 79.742 46.259,83.549 42.247,83.992 41.520 C 85.547 38.971,84.457 34.670,81.924 33.361 C 80.270 32.505,80.121 32.692,81.641 33.714 C 86.654 37.087,85.555 39.912,75.228 50.196 C 71.033 54.374,67.600 57.964,67.600 58.174 C 67.600 58.384,71.179 62.165,75.554 66.578 C 79.929 70.990,83.709 74.993,83.954 75.474 C 84.985 77.495,83.803 81.357,81.849 82.351 C 77.570 84.529,77.017 84.232,67.236 74.509 C 62.747 70.046,59.022 66.440,58.959 66.497 C 58.897 66.554,55.190 70.223,50.723 74.651 C 40.845 84.442,39.260 85.182,35.558 81.732 C 31.823 78.252,32.671 76.420,42.667 66.370 L 50.853 58.140 43.046 50.312 C 34.817 42.060,33.604 40.553,33.601 38.578 C 33.600 37.150,35.715 33.600,36.568 33.600 C 36.889 33.600,37.264 33.420,37.400 33.200 C 37.775 32.593,36.689 32.722,35.722 33.400 M186.600 90.420 C 168.692 92.827,156.480 96.404,142.751 103.268 C 120.850 114.216,100.439 133.160,89.222 152.950 C 88.832 153.637,88.040 155.010,87.462 156.000 C 83.902 162.097,79.521 172.312,77.256 179.800 C 74.769 188.019,74.770 188.014,75.421 188.263 C 75.745 188.388,76.233 188.319,76.505 188.110 C 78.460 186.611,87.322 184.400,91.373 184.400 C 93.059 184.400,93.550 184.253,93.714 183.700 C 99.048 165.680,114.540 143.130,127.583 134.400 C 144.457 123.105,163.469 121.804,183.000 130.605 C 193.688 135.422,206.184 135.420,217.000 130.599 C 237.701 121.374,257.866 123.289,274.848 136.095 C 286.800 145.107,299.866 164.706,306.051 182.900 C 306.550 184.368,306.604 184.400,308.580 184.400 C 310.425 184.400,314.459 185.060,318.000 185.942 C 318.770 186.134,320.548 186.762,321.950 187.338 C 323.353 187.914,324.645 188.296,324.821 188.187 C 325.368 187.849,321.609 175.215,319.588 170.600 C 315.214 160.611,312.589 155.595,308.099 148.648 C 303.078 140.878,299.227 136.108,291.722 128.363 C 286.249 122.715,285.425 120.880,287.002 117.854 C 287.967 116.005,287.273 113.600,285.776 113.600 C 285.658 113.600,285.156 113.162,284.659 112.626 C 284.163 112.090,283.503 111.595,283.192 111.526 C 282.882 111.457,282.352 111.103,282.014 110.740 C 280.528 109.144,279.410 108.746,278.573 109.516 C 275.189 112.632,273.402 112.489,266.961 108.584 C 261.032 104.990,257.232 103.045,248.800 99.293 C 240.348 95.530,227.548 92.296,214.400 90.600 C 209.400 89.955,190.950 89.835,186.600 90.420 M151.600 137.200 C 150.256 137.631,151.708 137.631,153.400 137.200 C 154.478 136.926,154.498 136.894,153.600 136.887 C 153.050 136.883,152.150 137.024,151.600 137.200 M163.200 137.200 C 163.750 137.376,164.650 137.520,165.200 137.520 L 166.200 137.520 165.200 137.200 C 164.650 137.024,163.750 136.880,163.200 136.880 L 162.200 136.880 163.200 137.200 M234.800 137.200 L 233.800 137.520 234.800 137.520 C 235.350 137.520,236.250 137.376,236.800 137.200 L 237.800 136.880 236.800 136.880 C 236.250 136.880,235.350 137.024,234.800 137.200 M246.600 137.200 C 248.292 137.631,249.744 137.631,248.400 137.200 C 247.850 137.024,246.950 136.883,246.400 136.887 C 245.502 136.894,245.522 136.926,246.600 137.200 M251.200 138.000 C 251.530 138.213,252.070 138.388,252.400 138.388 C 252.933 138.388,252.933 138.345,252.400 138.000 C 252.070 137.787,251.530 137.612,251.200 137.612 C 250.667 137.612,250.667 137.655,251.200 138.000 M132.887 144.998 C 129.203 147.768,125.035 151.966,121.800 156.167 C 121.140 157.024,120.225 158.192,119.767 158.763 C 116.537 162.786,108.346 176.880,108.911 177.444 C 109.010 177.543,109.963 175.864,111.028 173.712 C 116.264 163.136,126.305 150.154,133.000 145.303 C 135.288 143.646,135.799 143.225,135.540 143.213 C 135.396 143.206,134.203 144.009,132.887 144.998 M264.400 143.324 C 264.400 143.417,265.165 143.998,266.100 144.615 C 267.035 145.232,267.589 145.480,267.331 145.168 C 266.834 144.567,264.400 143.036,264.400 143.324 M186.000 144.382 C 186.330 144.605,186.945 144.791,187.367 144.794 C 188.390 144.802,188.071 144.573,186.600 144.244 C 185.724 144.048,185.562 144.085,186.000 144.382 M189.200 145.194 C 189.530 145.411,190.235 145.591,190.767 145.594 C 192.051 145.602,191.725 145.375,190.000 145.058 C 189.015 144.877,188.778 144.918,189.200 145.194 M197.300 146.297 C 198.785 146.374,201.215 146.374,202.700 146.297 C 204.185 146.220,202.970 146.157,200.000 146.157 C 197.030 146.157,195.815 146.220,197.300 146.297 M270.800 148.079 C 270.800 148.417,273.676 151.258,273.846 151.087 C 273.923 151.011,273.269 150.248,272.393 149.393 C 271.517 148.537,270.800 147.946,270.800 148.079 M274.801 152.600 C 275.351 153.260,275.845 153.875,275.900 153.967 C 275.955 154.058,276.088 154.045,276.196 153.938 C 276.304 153.830,275.809 153.215,275.097 152.571 L 273.803 151.400 274.801 152.600 M280.575 159.732 C 281.191 160.539,281.776 161.200,281.875 161.200 C 282.153 161.200,280.421 158.860,279.909 158.544 C 279.659 158.389,279.959 158.924,280.575 159.732 M283.949 164.600 C 284.165 165.040,284.634 165.760,284.993 166.200 L 285.644 167.000 285.251 166.200 C 285.035 165.760,284.566 165.040,284.207 164.600 L 283.556 163.800 283.949 164.600 M288.682 172.989 C 289.273 174.193,289.823 175.111,289.905 175.029 C 290.084 174.849,288.067 170.800,287.798 170.800 C 287.694 170.800,288.092 171.785,288.682 172.989 M258.800 176.200 C 259.350 176.514,259.980 176.772,260.200 176.772 C 260.420 176.772,260.150 176.514,259.600 176.200 C 259.050 175.886,258.420 175.628,258.200 175.628 C 257.980 175.628,258.250 175.886,258.800 176.200 M147.594 177.403 C 149.187 179.321,149.321 179.445,148.886 178.596 C 148.659 178.153,148.052 177.434,147.537 176.998 C 146.633 176.234,146.635 176.248,147.594 177.403 M252.129 177.300 C 251.684 177.795,251.176 178.470,251.001 178.800 C 250.663 179.437,250.755 179.350,252.376 177.500 C 252.906 176.895,253.249 176.400,253.139 176.400 C 253.029 176.400,252.575 176.805,252.129 177.300 M138.279 178.374 C 137.906 179.006,137.601 179.676,137.601 179.862 C 137.602 180.048,137.972 179.595,138.423 178.855 C 138.874 178.115,139.179 177.446,139.101 177.367 C 139.022 177.289,138.652 177.742,138.279 178.374 M195.600 179.218 C 195.162 179.515,195.324 179.552,196.200 179.356 C 197.671 179.027,197.990 178.798,196.967 178.806 C 196.545 178.809,195.930 178.995,195.600 179.218 M202.433 178.944 C 202.525 179.023,203.140 179.208,203.800 179.356 C 204.676 179.552,204.838 179.515,204.400 179.218 C 203.860 178.853,202.032 178.598,202.433 178.944 M149.362 185.800 C 149.362 189.320,149.424 190.706,149.498 188.881 C 149.572 187.056,149.572 184.176,149.497 182.481 C 149.422 180.786,149.361 182.280,149.362 185.800 M250.560 185.800 C 250.561 189.100,250.622 190.397,250.698 188.682 C 250.773 186.967,250.772 184.267,250.697 182.682 C 250.621 181.097,250.559 182.500,250.560 185.800 M262.558 185.800 C 262.558 188.880,262.621 190.087,262.697 188.482 C 262.773 186.878,262.773 184.358,262.696 182.882 C 262.619 181.407,262.557 182.720,262.558 185.800 M137.355 185.800 C 137.356 188.660,137.420 189.778,137.497 188.283 C 137.574 186.789,137.574 184.449,137.496 183.083 C 137.418 181.718,137.355 182.940,137.355 185.800 M188.132 183.547 C 186.849 184.838,185.459 186.503,185.043 187.247 C 184.117 188.903,184.521 188.494,186.770 185.500 C 187.720 184.235,188.610 183.194,188.749 183.186 C 189.241 183.157,191.391 181.204,190.932 181.202 C 190.675 181.201,189.415 182.256,188.132 183.547 M212.555 184.519 C 213.403 185.553,214.180 186.400,214.282 186.400 C 214.555 186.400,212.021 183.260,211.477 182.924 C 211.222 182.766,211.707 183.484,212.555 184.519 M103.400 192.400 C 103.250 192.873,103.217 193.350,103.327 193.460 C 103.437 193.570,103.650 193.273,103.800 192.800 C 103.950 192.327,103.983 191.850,103.873 191.740 C 103.763 191.630,103.550 191.927,103.400 192.400 M148.036 193.637 C 147.039 194.985,145.034 196.000,143.367 196.000 C 142.251 196.000,139.200 194.482,139.200 193.926 C 139.200 193.747,138.992 193.600,138.738 193.600 C 138.045 193.600,139.552 195.117,140.926 195.803 C 143.470 197.072,147.118 196.001,148.559 193.562 C 149.458 192.040,149.188 192.078,148.036 193.637 M251.131 193.000 C 252.498 195.764,256.487 197.252,258.905 195.900 C 260.180 195.188,262.000 193.520,262.000 193.064 C 262.000 192.851,261.685 193.041,261.300 193.484 C 258.535 196.670,254.393 196.681,251.804 193.510 C 251.216 192.790,250.913 192.560,251.131 193.000 M182.250 194.850 C 181.928 196.458,181.976 200.398,182.328 201.285 C 182.478 201.662,182.600 200.087,182.600 197.785 C 182.600 193.115,182.599 193.105,182.250 194.850 M102.629 195.429 C 102.481 196.015,102.438 196.572,102.532 196.666 C 102.627 196.760,102.824 196.358,102.971 195.771 C 103.119 195.185,103.162 194.628,103.068 194.534 C 102.973 194.440,102.776 194.842,102.629 195.429 M217.677 197.450 C 217.635 198.798,217.511 200.508,217.401 201.250 L 217.203 202.600 217.620 201.273 C 217.849 200.543,217.973 198.833,217.895 197.473 L 217.754 195.000 217.677 197.450 M87.600 196.677 C 84.562 197.187,81.000 198.768,77.800 201.028 C 75.453 202.685,72.353 205.600,72.938 205.600 C 73.100 205.600,73.900 204.913,74.716 204.072 C 78.217 200.468,83.166 197.860,88.100 197.019 L 89.600 196.764 89.600 198.649 C 89.600 200.959,89.805 200.825,90.136 198.300 C 90.407 196.231,90.376 196.211,87.600 196.677 M309.825 197.845 C 310.200 199.917,310.400 200.057,310.400 198.249 L 310.400 196.764 311.900 197.018 C 312.725 197.157,314.654 197.709,316.187 198.243 C 317.719 198.776,318.799 199.052,318.587 198.856 C 317.893 198.215,313.716 196.843,311.605 196.563 L 309.543 196.289 309.825 197.845 M101.782 199.382 C 101.629 200.402,101.594 201.327,101.704 201.437 C 101.814 201.547,102.029 200.802,102.182 199.782 C 102.335 198.761,102.370 197.837,102.260 197.727 C 102.150 197.617,101.935 198.361,101.782 199.382 M297.680 198.200 C 297.680 198.640,297.824 199.450,298.000 200.000 C 298.254 200.792,298.320 200.833,298.320 200.200 C 298.320 199.760,298.176 198.950,298.000 198.400 C 297.746 197.608,297.680 197.567,297.680 198.200 M322.000 201.070 C 322.770 201.683,324.189 202.953,325.153 203.892 C 326.117 204.832,327.008 205.600,327.134 205.600 C 327.640 205.600,324.082 202.249,322.400 201.141 C 320.651 199.989,320.640 199.987,322.000 201.070 M89.056 201.684 C 88.921 202.188,88.832 203.500,88.858 204.600 C 88.902 206.470,88.926 206.419,89.228 203.809 C 89.560 200.942,89.489 200.067,89.056 201.684 M310.685 203.227 C 310.808 204.642,310.974 205.875,311.054 205.967 C 311.381 206.341,311.160 201.756,310.825 201.227 C 310.599 200.869,310.546 201.620,310.685 203.227 M101.069 203.156 C 100.921 203.895,100.821 205.063,100.847 205.750 C 100.879 206.612,101.005 206.325,101.255 204.823 C 101.653 202.421,101.497 201.017,101.069 203.156 M298.480 203.000 C 298.480 203.440,298.624 204.250,298.800 204.800 C 299.054 205.592,299.120 205.633,299.120 205.000 C 299.120 204.560,298.976 203.750,298.800 203.200 C 298.546 202.408,298.480 202.367,298.480 203.000 M215.725 206.441 C 215.245 207.518,214.926 208.400,215.017 208.400 C 215.309 208.400,216.852 205.154,216.723 204.811 C 216.656 204.630,216.206 205.363,215.725 206.441 M183.600 205.798 C 183.600 206.236,185.576 209.600,185.834 209.600 C 185.944 209.600,185.544 208.745,184.946 207.700 C 183.656 205.448,183.600 205.369,183.600 205.798 M70.962 208.233 C 70.176 209.461,69.610 210.543,69.704 210.637 C 69.798 210.731,70.517 209.726,71.302 208.404 C 73.099 205.377,72.864 205.259,70.962 208.233 M328.185 207.500 C 328.802 208.435,329.377 209.200,329.463 209.200 C 329.796 209.200,328.418 206.913,327.758 206.371 C 327.366 206.048,327.551 206.539,328.185 207.500 M311.400 218.346 C 311.400 225.002,311.517 230.032,311.660 229.524 C 311.994 228.339,311.987 208.981,311.653 207.423 C 311.514 206.775,311.400 211.691,311.400 218.346 M88.257 208.300 C 87.506 212.840,88.109 229.878,89.202 235.000 L 89.543 236.600 89.385 234.800 C 89.299 233.810,89.020 231.200,88.765 229.000 C 88.493 226.645,88.364 221.257,88.452 215.900 C 88.534 210.895,88.580 206.800,88.553 206.800 C 88.526 206.800,88.393 207.475,88.257 208.300 M100.259 209.700 C 99.930 212.438,99.981 225.681,100.330 228.000 C 100.478 228.990,100.600 224.805,100.600 218.700 C 100.600 212.595,100.580 207.600,100.556 207.600 C 100.531 207.600,100.398 208.545,100.259 209.700 M299.498 211.800 C 299.615 213.780,299.776 215.475,299.856 215.567 C 300.128 215.881,299.905 210.600,299.595 209.400 C 299.421 208.728,299.379 209.784,299.498 211.800 M212.221 211.529 L 209.842 214.200 211.951 212.200 C 213.686 210.555,215.201 208.707,214.714 208.829 C 214.651 208.844,213.529 210.059,212.221 211.529 M187.600 211.743 C 188.590 212.798,189.760 213.852,190.200 214.085 C 190.640 214.318,190.910 214.428,190.800 214.331 C 190.690 214.233,189.520 213.179,188.200 211.989 L 185.800 209.825 187.600 211.743 M68.249 213.815 C 68.112 214.173,68.015 214.766,68.034 215.133 C 68.053 215.500,68.227 215.269,68.421 214.620 C 68.798 213.358,68.665 212.733,68.249 213.815 M332.068 216.400 C 332.087 218.050,332.717 219.756,332.732 218.200 C 332.738 217.540,332.589 216.640,332.400 216.200 C 332.087 215.473,332.057 215.491,332.068 216.400 M67.452 216.900 C 67.127 218.112,67.187 225.625,67.528 226.485 C 67.678 226.862,67.800 224.657,67.800 221.585 C 67.800 215.522,67.805 215.584,67.452 216.900 M299.454 225.342 C 299.288 227.291,299.236 228.969,299.339 229.072 C 299.599 229.332,300.120 223.498,299.920 222.562 C 299.830 222.143,299.621 223.394,299.454 225.342 M332.254 225.554 C 332.100 226.518,332.058 227.391,332.161 227.494 C 332.430 227.763,332.915 224.945,332.707 224.322 C 332.612 224.036,332.408 224.590,332.254 225.554 M68.006 228.233 C 68.009 228.655,68.195 229.270,68.418 229.600 C 68.715 230.038,68.752 229.876,68.556 229.000 C 68.227 227.529,67.998 227.210,68.006 228.233 M331.400 229.200 C 331.250 229.673,331.217 230.150,331.327 230.260 C 331.437 230.370,331.650 230.073,331.800 229.600 C 331.950 229.127,331.983 228.650,331.873 228.540 C 331.763 228.430,331.550 228.727,331.400 229.200 M100.840 231.833 C 100.862 232.695,101.033 233.850,101.221 234.400 C 101.442 235.048,101.480 234.555,101.331 233.000 C 101.063 230.220,100.782 229.551,100.840 231.833 M329.875 232.875 C 329.304 234.028,328.907 235.040,328.992 235.125 C 329.077 235.210,329.620 234.344,330.200 233.200 C 330.780 232.056,331.177 231.044,331.083 230.950 C 330.989 230.856,330.446 231.722,329.875 232.875 M310.872 232.450 C 310.832 233.248,310.705 234.507,310.589 235.250 C 310.397 236.485,310.415 236.516,310.808 235.615 C 311.044 235.074,311.171 233.814,311.091 232.815 C 310.962 231.218,310.936 231.175,310.872 232.450 M298.622 233.022 C 298.472 233.825,298.428 234.562,298.526 234.660 C 298.624 234.757,298.827 234.181,298.978 233.378 C 299.128 232.575,299.172 231.838,299.074 231.740 C 298.976 231.643,298.773 232.219,298.622 233.022 M70.400 234.246 C 70.400 235.388,77.806 243.127,78.364 242.569 C 78.490 242.443,78.237 242.140,77.801 241.897 C 76.318 241.067,73.237 237.927,71.975 235.961 C 70.782 234.102,70.400 233.686,70.400 234.246 M101.675 236.600 C 101.665 237.260,101.811 238.160,102.000 238.600 L 102.344 239.400 102.325 238.600 C 102.314 238.160,102.168 237.260,102.000 236.600 L 101.695 235.400 101.675 236.600 M326.842 237.525 C 325.949 238.757,325.792 239.126,326.385 238.600 C 327.522 237.591,328.962 235.592,328.527 235.625 C 328.347 235.638,327.589 236.493,326.842 237.525 M89.628 238.033 C 89.644 238.785,89.820 239.760,90.020 240.200 C 90.265 240.739,90.305 240.346,90.141 239.000 C 89.851 236.619,89.589 236.124,89.628 238.033 M297.829 237.829 C 297.681 238.415,297.638 238.972,297.732 239.066 C 297.827 239.160,298.024 238.758,298.171 238.171 C 298.319 237.585,298.362 237.028,298.268 236.934 C 298.173 236.840,297.976 237.242,297.829 237.829 M310.059 238.000 C 310.020 238.550,309.889 239.450,309.767 240.000 C 309.576 240.862,309.608 240.902,309.997 240.291 C 310.246 239.902,310.377 239.002,310.289 238.291 C 310.164 237.287,310.113 237.222,310.059 238.000 M323.200 241.254 L 321.400 242.885 323.094 241.613 C 324.568 240.507,325.514 239.574,325.124 239.612 C 325.056 239.619,324.190 240.358,323.200 241.254 M102.434 240.800 C 102.446 241.130,102.611 241.760,102.800 242.200 L 103.144 243.000 103.166 242.200 C 103.178 241.760,103.013 241.130,102.800 240.800 C 102.455 240.267,102.415 240.267,102.434 240.800 M297.029 241.429 C 296.881 242.015,296.838 242.572,296.932 242.666 C 297.027 242.760,297.224 242.358,297.371 241.771 C 297.519 241.185,297.562 240.628,297.468 240.534 C 297.373 240.440,297.176 240.842,297.029 241.429 M90.406 242.033 C 90.409 242.565,90.589 243.270,90.806 243.600 C 91.082 244.022,91.123 243.785,90.942 242.800 C 90.625 241.075,90.398 240.749,90.406 242.033 M309.249 242.000 C 309.216 242.330,309.089 243.050,308.967 243.600 C 308.775 244.464,308.807 244.503,309.199 243.888 C 309.448 243.497,309.575 242.777,309.481 242.288 C 309.386 241.800,309.282 241.670,309.249 242.000 M78.800 242.990 C 78.800 243.094,79.385 243.465,80.100 243.814 L 81.400 244.448 80.400 243.633 C 79.437 242.848,78.800 242.592,78.800 242.990 M103.212 244.000 C 103.212 244.330,103.387 244.870,103.600 245.200 C 103.945 245.733,103.988 245.733,103.988 245.200 C 103.988 244.870,103.813 244.330,103.600 244.000 C 103.255 243.467,103.212 243.467,103.212 244.000 M91.168 245.700 C 91.049 246.560,91.110 247.050,91.312 246.848 C 91.505 246.655,91.598 245.981,91.519 245.349 C 91.387 244.291,91.359 244.319,91.168 245.700 M86.600 246.400 C 87.040 246.589,87.760 246.744,88.200 246.744 L 89.000 246.744 88.200 246.400 C 87.760 246.211,87.040 246.056,86.600 246.056 L 85.800 246.056 86.600 246.400 M311.800 246.400 L 311.000 246.744 311.800 246.744 C 312.240 246.744,312.960 246.589,313.400 246.400 L 314.200 246.056 313.400 246.056 C 312.960 246.056,312.240 246.211,311.800 246.400 M104.012 246.800 C 104.012 247.130,104.187 247.670,104.400 248.000 C 104.745 248.533,104.788 248.533,104.788 248.000 C 104.788 247.670,104.613 247.130,104.400 246.800 C 104.055 246.267,104.012 246.267,104.012 246.800 M79.993 257.456 C 79.909 261.624,75.805 273.153,70.616 283.800 C 66.534 292.175,66.197 293.361,66.232 299.200 C 66.313 312.636,75.192 322.023,96.800 331.519 C 104.751 335.014,104.438 335.007,106.838 331.724 C 112.263 324.302,121.687 315.117,129.500 309.638 C 132.515 307.523,132.499 307.686,129.900 305.544 C 121.935 298.981,118.800 295.393,118.800 292.839 C 118.800 290.447,120.889 287.770,123.074 287.360 C 123.808 287.222,124.499 286.964,124.609 286.786 C 124.864 286.373,122.374 287.054,120.975 287.779 C 119.840 288.368,119.081 287.667,115.024 282.284 L 113.881 280.768 114.892 279.684 C 117.214 277.193,117.476 274.423,115.661 271.560 C 115.034 270.572,114.449 269.591,114.360 269.382 C 113.994 268.512,111.510 264.400,111.352 264.400 C 111.136 264.400,112.044 266.164,113.665 268.899 C 116.164 273.111,116.400 273.651,116.400 275.151 C 116.400 282.015,108.503 283.124,104.653 276.800 C 102.386 273.076,97.883 264.233,96.761 261.300 L 95.804 258.800 92.202 258.800 C 90.221 258.799,87.250 258.514,85.600 258.167 C 81.095 257.217,80.001 257.078,79.993 257.456 M317.483 257.451 C 316.982 257.951,313.700 258.446,309.056 258.720 L 304.313 259.000 303.287 261.600 C 300.208 269.400,293.512 280.725,287.600 288.133 C 283.922 292.743,276.650 300.171,272.000 304.071 C 267.391 307.935,267.373 307.304,272.200 310.935 C 276.456 314.137,276.955 314.552,281.549 318.709 C 284.638 321.504,290.138 327.646,293.362 331.900 C 295.214 334.343,296.708 335.120,297.400 334.000 C 297.536 333.780,297.902 333.600,298.214 333.600 C 298.525 333.600,299.999 333.055,301.490 332.389 C 332.290 318.625,340.294 304.918,329.631 284.200 C 325.470 276.116,322.155 267.339,320.603 260.300 C 319.929 257.244,318.758 256.175,317.483 257.451 M108.607 259.079 C 109.207 260.514,109.600 261.162,109.600 260.716 C 109.600 260.284,108.385 257.600,108.189 257.600 C 108.079 257.600,108.267 258.266,108.607 259.079 M290.200 261.061 C 289.864 261.865,289.682 262.615,289.795 262.728 C 289.908 262.841,290.000 262.835,290.000 262.716 C 290.000 262.596,290.272 261.846,290.605 261.049 C 290.938 260.252,291.121 259.600,291.011 259.600 C 290.901 259.600,290.536 260.258,290.200 261.061 M285.460 269.952 C 284.702 271.245,283.773 272.775,283.395 273.352 C 283.017 273.928,282.800 274.400,282.912 274.400 C 283.106 274.400,284.413 272.399,286.374 269.100 C 286.864 268.275,287.169 267.600,287.052 267.600 C 286.934 267.600,286.218 268.658,285.460 269.952 M281.669 275.639 C 280.910 276.854,281.366 277.016,282.155 275.812 C 282.520 275.256,282.678 274.800,282.505 274.800 C 282.333 274.800,281.957 275.178,281.669 275.639 M278.975 279.468 C 278.359 280.276,278.059 280.811,278.309 280.656 C 278.821 280.340,280.553 278.000,280.275 278.000 C 280.176 278.000,279.591 278.661,278.975 279.468 M273.807 285.593 C 272.952 286.469,272.330 287.245,272.426 287.318 C 272.522 287.391,273.298 286.674,274.152 285.725 C 276.101 283.559,275.877 283.473,273.807 285.593 M126.393 287.325 C 127.159 287.569,129.139 289.042,130.793 290.598 C 133.438 293.087,137.190 296.333,139.300 297.959 C 139.685 298.255,140.000 298.338,140.000 298.142 C 140.000 297.946,139.571 297.519,139.046 297.193 C 137.745 296.385,134.398 293.533,131.075 290.400 C 128.008 287.508,126.978 286.816,125.800 286.855 C 125.312 286.871,125.543 287.055,126.393 287.325 M266.581 292.900 L 265.000 294.600 266.700 293.019 C 268.281 291.548,268.584 291.200,268.281 291.200 C 268.216 291.200,267.451 291.965,266.581 292.900 M140.557 298.731 C 141.514 300.280,158.000 310.001,158.000 309.017 C 158.000 308.930,156.965 308.359,155.700 307.748 C 152.275 306.093,147.008 302.966,143.428 300.462 C 141.683 299.242,140.392 298.463,140.557 298.731 M247.511 306.160 C 245.416 307.405,245.084 307.863,247.000 306.865 C 249.005 305.820,249.919 305.203,249.400 305.244 C 249.180 305.261,248.330 305.674,247.511 306.160 M168.800 313.600 C 169.130 313.813,169.670 313.988,170.000 313.988 C 170.533 313.988,170.533 313.945,170.000 313.600 C 169.670 313.387,169.130 313.212,168.800 313.212 C 168.267 313.212,168.267 313.255,168.800 313.600 M171.400 314.400 C 172.596 314.914,173.595 314.914,172.800 314.400 C 172.470 314.187,171.840 314.022,171.400 314.034 L 170.600 314.056 171.400 314.400 M174.400 315.200 C 174.730 315.413,175.270 315.588,175.600 315.588 C 176.133 315.588,176.133 315.545,175.600 315.200 C 175.270 314.987,174.730 314.812,174.400 314.812 C 173.867 314.812,173.867 314.855,174.400 315.200 M177.400 316.000 C 177.840 316.189,178.560 316.344,179.000 316.344 L 179.800 316.344 179.000 316.000 C 178.560 315.811,177.840 315.656,177.400 315.656 L 176.600 315.656 177.400 316.000 M221.400 316.000 C 220.896 316.217,220.822 316.344,221.200 316.344 C 221.530 316.344,222.160 316.189,222.600 316.000 C 223.104 315.783,223.178 315.656,222.800 315.656 C 222.470 315.656,221.840 315.811,221.400 316.000 M181.200 316.800 C 181.750 316.976,182.740 317.117,183.400 317.113 L 184.600 317.105 183.400 316.800 C 182.740 316.632,181.750 316.491,181.200 316.487 L 180.200 316.480 181.200 316.800 M217.200 316.800 C 216.408 317.054,216.367 317.120,217.000 317.120 C 217.440 317.120,218.250 316.976,218.800 316.800 C 219.592 316.546,219.633 316.480,219.000 316.480 C 218.560 316.480,217.750 316.624,217.200 316.800 M186.000 317.600 C 186.550 317.776,187.630 317.917,188.400 317.913 L 189.800 317.905 188.600 317.600 C 186.839 317.152,184.601 317.152,186.000 317.600 M210.900 317.876 C 211.285 317.976,211.915 317.976,212.300 317.876 C 212.685 317.775,212.370 317.693,211.600 317.693 C 210.830 317.693,210.515 317.775,210.900 317.876 M193.507 318.290 C 194.226 318.379,195.306 318.377,195.907 318.286 C 196.508 318.195,195.920 318.122,194.600 318.124 C 193.280 318.126,192.788 318.201,193.507 318.290 M204.900 318.287 C 205.505 318.378,206.495 318.378,207.100 318.287 C 207.705 318.195,207.210 318.120,206.000 318.120 C 204.790 318.120,204.295 318.195,204.900 318.287 M198.700 318.693 C 199.635 318.777,201.165 318.777,202.100 318.693 C 203.035 318.609,202.270 318.540,200.400 318.540 C 198.530 318.540,197.765 318.609,198.700 318.693 " stroke="none" fill="#c2837b" fill-rule="evenodd"></path></g></svg>