<?xml version="1.0" encoding="UTF-8"?>
<svg xmlns="http://www.w3.org/2000/svg" xmlns:xlink="http://www.w3.org/1999/xlink" viewBox="0 0 240 240" width="240px" height="240px">
<g id="surface91950693">
<path style=" stroke:none;fill-rule:nonzero;fill:rgb(100%,75.686276%,2.745098%);fill-opacity:1;" d="M 176 179.5 L 64 179.5 C 56.277344 179.5 50 173.222656 50 165.5 L 50 74.5 C 50 66.777344 56.277344 60.5 64 60.5 L 176 60.5 C 183.722656 60.5 190 66.777344 190 74.5 L 190 165.5 C 190 173.222656 183.722656 179.5 176 179.5 Z M 176 179.5 "/>
<path style=" stroke:none;fill-rule:nonzero;fill:rgb(12.941177%,12.941177%,12.941177%);fill-opacity:1;" d="M 155 81.429688 L 85.070312 81.429688 C 77.371094 81.429688 71.070312 87.695312 71.070312 95.429688 L 71.070312 141 C 71.070312 147.511719 75.515625 152.96875 81.5 154.511719 L 81.5 147.019531 C 79.433594 145.796875 78.070312 143.554688 78.070312 141 L 78.070312 95.429688 C 78.070312 91.578125 81.21875 88.429688 85.070312 88.429688 L 155 88.429688 C 158.851562 88.429688 162 91.578125 162 95.429688 L 162 141 C 162 143.589844 160.601562 145.828125 158.5 147.054688 L 158.5 154.546875 C 164.554688 153.003906 169 147.511719 169 141 L 169 95.429688 C 169 87.695312 162.734375 81.429688 155 81.429688 Z M 155 81.429688 "/>
<path style=" stroke:none;fill-rule:nonzero;fill:rgb(12.941177%,12.941177%,12.941177%);fill-opacity:1;" d="M 93.75 134 C 96.648438 134 99 136.351562 99 139.25 L 99 156.75 C 99 159.648438 96.648438 162 93.75 162 C 90.851562 162 88.5 159.648438 88.5 156.75 L 88.5 139.25 C 88.5 136.351562 90.851562 134 93.75 134 Z M 93.75 134 "/>
<path style=" stroke:none;fill-rule:nonzero;fill:rgb(12.941177%,12.941177%,12.941177%);fill-opacity:1;" d="M 111.25 113 C 114.148438 113 116.5 115.351562 116.5 118.25 L 116.5 156.75 C 116.5 159.648438 114.148438 162 111.25 162 C 108.351562 162 106 159.648438 106 156.75 L 106 118.25 C 106 115.351562 108.351562 113 111.25 113 Z M 111.25 113 "/>
<path style=" stroke:none;fill-rule:nonzero;fill:rgb(12.941177%,12.941177%,12.941177%);fill-opacity:1;" d="M 128.75 123.5 C 131.648438 123.5 134 125.851562 134 128.75 L 134 156.75 C 134 159.648438 131.648438 162 128.75 162 C 125.851562 162 123.5 159.648438 123.5 156.75 L 123.5 128.75 C 123.5 125.851562 125.851562 123.5 128.75 123.5 Z M 128.75 123.5 "/>
<path style=" stroke:none;fill-rule:nonzero;fill:rgb(12.941177%,12.941177%,12.941177%);fill-opacity:1;" d="M 146.25 99 C 149.148438 99 151.5 101.351562 151.5 104.25 L 151.5 156.75 C 151.5 159.648438 149.148438 162 146.25 162 C 143.351562 162 141 159.648438 141 156.75 L 141 104.25 C 141 101.351562 143.351562 99 146.25 99 Z M 146.25 99 "/>
<path style=" stroke:none;fill-rule:nonzero;fill:rgb(80.000001%,80.000001%,80.000001%);fill-opacity:1;" d="M 43.375 205.152344 L 35.523438 205.152344 L 35.523438 218.199219 L 31.128906 218.199219 L 31.128906 184.875 L 43.425781 184.875 C 47.070312 184.875 49.925781 185.800781 51.992188 187.660156 C 54.0625 189.519531 55.097656 191.984375 55.097656 195.050781 C 55.097656 198.289062 54.085938 200.78125 52.058594 202.535156 C 50.042969 204.28125 47.148438 205.152344 43.375 205.152344 Z M 35.523438 188.488281 L 35.523438 201.558594 L 43.425781 201.558594 C 45.777344 201.558594 47.578125 201.003906 48.828125 199.898438 C 50.078125 198.789062 50.703125 197.191406 50.703125 195.101562 C 50.703125 193.113281 50.078125 191.53125 48.828125 190.34375 C 47.578125 189.152344 45.859375 188.535156 43.667969 188.488281 Z M 58.625 205.882812 L 58.625 205.589844 C 58.625 203.164062 59.097656 200.976562 60.050781 199.039062 C 61.007812 197.101562 62.335938 195.609375 64.035156 194.554688 C 65.742188 193.5 67.683594 192.972656 69.867188 192.972656 C 73.238281 192.972656 75.96875 194.140625 78.050781 196.476562 C 80.132812 198.808594 81.175781 201.914062 81.175781 205.796875 L 81.175781 206.089844 C 81.175781 208.5 80.714844 210.664062 79.789062 212.585938 C 78.863281 214.5 77.542969 215.992188 75.824219 217.058594 C 74.113281 218.125 72.136719 218.660156 69.90625 218.660156 C 66.550781 218.660156 63.832031 217.492188 61.75 215.152344 C 59.664062 212.824219 58.625 209.734375 58.625 205.882812 Z M 62.882812 206.089844 C 62.882812 208.835938 63.519531 211.042969 64.796875 212.710938 C 66.066406 214.371094 67.769531 215.203125 69.90625 215.203125 C 72.058594 215.203125 73.769531 214.359375 75.03125 212.671875 C 76.300781 210.984375 76.9375 208.625 76.9375 205.589844 C 76.9375 202.871094 76.292969 200.664062 75.003906 198.980469 C 73.714844 197.292969 72 196.449219 69.867188 196.449219 C 67.777344 196.449219 66.089844 197.28125 64.804688 198.949219 C 63.523438 200.609375 62.882812 202.988281 62.882812 206.089844 Z M 102.527344 193.429688 L 108.417969 212.359375 L 113.175781 193.429688 L 117.414062 193.429688 L 110.195312 218.199219 L 106.765625 218.199219 L 100.742188 199.429688 L 94.878906 218.199219 L 91.453125 218.199219 L 84.261719 193.429688 L 88.472656 193.429688 L 93.347656 211.980469 L 99.121094 193.429688 Z M 131.996094 218.660156 C 128.636719 218.660156 125.90625 217.554688 123.800781 215.347656 C 121.691406 213.148438 120.636719 210.199219 120.636719 206.5 L 120.636719 205.726562 C 120.636719 203.265625 121.105469 201.074219 122.042969 199.144531 C 122.980469 197.210938 124.292969 195.699219 125.980469 194.613281 C 127.667969 193.519531 129.496094 192.972656 131.46875 192.972656 C 134.6875 192.972656 137.191406 194.035156 138.980469 196.15625 C 140.765625 198.277344 141.65625 201.316406 141.65625 205.269531 L 141.65625 207.027344 L 124.875 207.027344 C 124.933594 209.46875 125.648438 211.441406 127.015625 212.945312 C 128.382812 214.449219 130.117188 215.203125 132.222656 215.203125 C 133.71875 215.203125 134.984375 214.898438 136.019531 214.285156 C 137.0625 213.671875 137.972656 212.863281 138.746094 211.863281 L 141.335938 213.875 C 139.257812 217.066406 136.144531 218.660156 131.996094 218.660156 Z M 131.46875 196.449219 C 129.757812 196.449219 128.320312 197.070312 127.160156 198.316406 C 126.003906 199.558594 125.285156 201.304688 125.011719 203.550781 L 137.417969 203.550781 L 137.417969 203.226562 C 137.292969 201.078125 136.714844 199.410156 135.679688 198.226562 C 134.644531 197.042969 133.238281 196.449219 131.46875 196.449219 Z M 158.523438 193.292969 L 158.523438 197.230469 C 157.886719 197.125 157.191406 197.074219 156.445312 197.074219 C 153.664062 197.074219 151.777344 198.257812 150.789062 200.621094 L 150.789062 218.199219 L 146.550781 218.199219 L 146.550781 193.429688 L 150.671875 193.429688 L 150.738281 196.292969 C 152.128906 194.078125 154.097656 192.972656 156.648438 192.972656 C 157.46875 192.972656 158.09375 193.078125 158.523438 193.292969 Z M 186.246094 218.199219 L 174.691406 218.199219 L 174.691406 184.875 L 185.582031 184.875 C 189.199219 184.875 191.921875 185.621094 193.746094 187.113281 C 195.570312 188.609375 196.480469 190.824219 196.480469 193.753906 C 196.480469 195.308594 196.039062 196.6875 195.152344 197.886719 C 194.265625 199.082031 193.0625 200.011719 191.539062 200.667969 C 193.335938 201.171875 194.757812 202.128906 195.808594 203.539062 C 196.847656 204.953125 197.371094 206.636719 197.371094 208.589844 C 197.371094 211.578125 196.402344 213.929688 194.46875 215.640625 C 192.527344 217.347656 189.789062 218.199219 186.246094 218.199219 Z M 186.410156 202.613281 L 179.085938 202.613281 L 179.085938 214.605469 L 186.34375 214.605469 C 188.386719 214.605469 190 214.074219 191.175781 213.015625 C 192.363281 211.953125 192.957031 210.492188 192.957031 208.628906 C 192.957031 204.617188 190.773438 202.613281 186.410156 202.613281 Z M 179.085938 188.488281 L 179.085938 199.085938 L 185.71875 199.085938 C 187.644531 199.085938 189.183594 198.605469 190.335938 197.640625 C 191.488281 196.683594 192.066406 195.382812 192.066406 193.734375 C 192.066406 191.898438 191.53125 190.566406 190.464844 189.738281 C 189.398438 188.90625 187.769531 188.488281 185.582031 188.488281 Z M 208.59375 184.875 L 208.59375 218.199219 L 204.199219 218.199219 L 204.199219 184.875 Z M 208.59375 184.875 "/>
</g>
</svg>
