<?xml version="1.0" encoding="UTF-8"?>
<svg xmlns="http://www.w3.org/2000/svg" xmlns:xlink="http://www.w3.org/1999/xlink" viewBox="0 0 240 240" width="240px" height="240px">
<defs>
<linearGradient id="linear0" gradientUnits="userSpaceOnUse" x1="116.11792" y1="10.06917" x2="82.405922" y2="182.262665" gradientTransform="matrix(1.032558,0,0,1.032558,31.200001,31.200001)">
<stop offset="0.457" style="stop-color:rgb(79.607844%,12.941177%,13.725491%);stop-opacity:1;"/>
<stop offset="1" style="stop-color:rgb(45.882353%,14.117648%,14.509805%);stop-opacity:1;"/>
</linearGradient>
<linearGradient id="linear1" gradientUnits="userSpaceOnUse" x1="78.664917" y1="94.159248" x2="80.492416" y2="50.245499" gradientTransform="matrix(1.032558,0,0,1.032558,31.200001,31.200001)">
<stop offset="0.1" style="stop-color:rgb(71.764708%,36.862746%,35.294119%);stop-opacity:1;"/>
<stop offset="0.949" style="stop-color:rgb(42.352942%,15.294118%,17.647059%);stop-opacity:1;"/>
</linearGradient>
<linearGradient id="linear2" gradientUnits="userSpaceOnUse" x1="110.162422" y1="109.879333" x2="53.44183" y2="130.465576" gradientTransform="matrix(1.032558,0,0,1.032558,31.200001,31.200001)">
<stop offset="0" style="stop-color:rgb(63.921571%,14.117648%,14.117648%);stop-opacity:1;"/>
<stop offset="1" style="stop-color:rgb(45.882353%,14.117648%,14.509805%);stop-opacity:1;"/>
</linearGradient>
<linearGradient id="linear3" gradientUnits="userSpaceOnUse" x1="36.034" y1="164.930084" x2="50.456921" y2="123.012253" gradientTransform="matrix(1.032558,0,0,1.032558,31.200001,31.200001)">
<stop offset="0.343" style="stop-color:rgb(84.313726%,46.27451%,43.921569%);stop-opacity:1;"/>
<stop offset="0.949" style="stop-color:rgb(65.098041%,13.333334%,14.117648%);stop-opacity:1;"/>
</linearGradient>
<linearGradient id="linear4" gradientUnits="userSpaceOnUse" x1="145.1465" y1="168.183746" x2="115.576828" y2="114.046753" gradientTransform="matrix(1.032558,0,0,1.032558,31.200001,31.200001)">
<stop offset="0.343" style="stop-color:rgb(84.313726%,46.27451%,43.921569%);stop-opacity:1;"/>
<stop offset="0.949" style="stop-color:rgb(65.098041%,13.333334%,14.117648%);stop-opacity:1;"/>
</linearGradient>
</defs>
<g id="surface91876882">
<path style=" stroke:none;fill-rule:nonzero;fill:rgb(58.039218%,17.647059%,19.607843%);fill-opacity:1;" d="M 113.339844 42.300781 C 94.210938 76.710938 77.671875 112.339844 63.6875 149.15625 C 62.539062 152.152344 61.539062 154.855469 60.6875 157.183594 C 58.46875 163.140625 57.210938 166.65625 56.839844 167.25 C 57.691406 164.179688 58.578125 160.921875 59.503906 157.628906 C 60.171875 155.296875 60.835938 152.929688 61.503906 150.523438 C 66.683594 132.394531 73.527344 113.042969 78.003906 99.910156 C 84.71875 81.445312 92.625 63.53125 101.746094 46.160156 C 102.992188 43.785156 105.476562 42.300781 108.164062 42.300781 Z M 113.339844 42.300781 "/>
<path style=" stroke:none;fill-rule:nonzero;fill:url(#linear0);" d="M 81.222656 142.570312 C 86.109375 133.652344 117.890625 68.753906 120.035156 64.796875 C 120.519531 63.871094 121.109375 63.277344 121.777344 63.277344 C 122.441406 63.277344 123.183594 63.835938 123.996094 65.203125 C 125.476562 67.683594 139.460938 96.617188 143.976562 106.753906 C 139.535156 109.011719 91.363281 134.578125 81.222656 142.570312 Z M 189.707031 197.589844 C 189.746094 197.589844 189.746094 197.589844 189.78125 197.550781 C 192.003906 195.925781 193.148438 193 192.371094 190.152344 C 191.816406 188.152344 191.261719 186.191406 190.890625 185.269531 C 190.523438 184.269531 189.300781 179.605469 187.449219 172.726562 C 185.195312 166.101562 182.789062 159.441406 180.273438 152.78125 C 177.128906 144.566406 173.835938 136.390625 170.503906 128.4375 C 166.769531 119.519531 162.992188 110.859375 159.292969 102.648438 C 146.269531 73.824219 134.28125 50.589844 129.953125 42.300781 L 113.339844 42.300781 C 94.210938 76.710938 77.671875 112.339844 63.6875 149.15625 C 62.539062 152.152344 61.539062 154.855469 60.6875 157.183594 C 58.46875 163.105469 57.210938 166.65625 56.839844 167.25 L 56.359375 169.136719 C 53.992188 177.757812 52.066406 185.269531 50.847656 190.597656 C 50.253906 193.1875 51.21875 195.777344 53.140625 197.402344 C 54.804688 198.144531 56.804688 198.882812 59.097656 199.476562 C 61.316406 192.003906 68.792969 173.058594 70.714844 167.988281 L 70.902344 167.582031 L 70.902344 167.546875 C 72.195312 164.03125 74.417969 158.851562 76.304688 153.78125 C 101.609375 143.644531 127.585938 135.726562 154.261719 130.101562 C 158.738281 139.722656 163.585938 149.527344 165.398438 153.523438 C 165.472656 153.632812 165.511719 153.707031 165.546875 153.816406 C 165.585938 153.890625 165.65625 154.003906 165.65625 154.078125 C 165.695312 154.152344 165.730469 154.261719 165.769531 154.335938 C 165.878906 154.558594 165.953125 154.742188 166.027344 154.890625 C 168.027344 159.480469 177.460938 178.683594 180.308594 185.453125 C 181.566406 188.414062 182.714844 191.667969 183.640625 194.371094 C 183.75 194.664062 183.863281 194.960938 183.9375 195.257812 C 184.417969 196.699219 184.824219 197.996094 185.121094 198.882812 C 185.121094 198.957031 185.15625 199.03125 185.15625 199.070312 L 185.195312 199.070312 Z M 189.707031 197.589844 "/>
<path style=" stroke:none;fill-rule:nonzero;fill:rgb(87.843138%,16.862746%,16.862746%);fill-opacity:1;" d="M 187.449219 172.726562 C 185.195312 166.101562 182.789062 159.441406 180.273438 152.78125 C 177.128906 144.566406 173.835938 136.390625 170.503906 128.4375 C 166.769531 119.519531 162.992188 110.859375 159.292969 102.648438 C 146.269531 73.824219 134.28125 50.589844 129.914062 42.300781 L 133.386719 42.300781 C 136.589844 42.300781 139.582031 44.007812 141.144531 46.804688 C 147.6875 58.507812 153.414062 70.589844 158.332031 83.109375 C 160.292969 87.847656 162.882812 93.617188 165.027344 100.019531 C 167.914062 108.566406 172.28125 118.222656 175.09375 127.84375 C 177.570312 136.390625 179.941406 144.902344 182.050781 152.671875 C 184.15625 160.292969 186.007812 167.210938 187.449219 172.726562 Z M 187.449219 172.726562 "/>
<path style=" stroke:none;fill-rule:nonzero;fill:url(#linear1);" d="M 143.976562 106.753906 C 140.015625 108.972656 137.945312 110.304688 133.429688 112.636719 C 129.101562 100.613281 125.253906 90.179688 124.21875 87.699219 C 122.738281 84.183594 120.40625 84.515625 119.148438 88.144531 C 112.230469 107.679688 106.9375 120.445312 103.980469 128.585938 C 94.210938 133.984375 88.289062 138.277344 81.222656 142.605469 L 81.1875 142.605469 C 86.070312 133.726562 117.890625 68.605469 120.035156 64.796875 L 120 64.757812 C 120.960938 63.132812 121.480469 62.464844 121.925781 62.464844 C 122.554688 62.464844 122.960938 63.6875 123.996094 65.203125 C 125.660156 67.683594 139.5 96.726562 143.976562 106.753906 Z M 143.976562 106.753906 "/>
<path style=" stroke:none;fill-rule:nonzero;fill:url(#linear2);" d="M 165.4375 153.523438 C 159.921875 154.003906 155.851562 154.632812 148.601562 155.410156 L 148.195312 155.445312 C 133.28125 157.109375 114.855469 159.515625 93.730469 163.066406 L 91.585938 163.402344 C 84.296875 164.660156 78.78125 166.027344 70.902344 167.546875 C 72.234375 163.992188 74.414062 158.777344 76.304688 153.816406 L 76.304688 153.78125 C 101.464844 143.234375 127.472656 135.316406 154.261719 130.101562 C 158.738281 139.722656 163.585938 149.527344 165.4375 153.523438 Z M 165.4375 153.523438 "/>
<path style=" stroke:none;fill-rule:nonzero;fill:url(#linear3);" d="M 91.585938 163.4375 C 90.769531 165.511719 89.992188 167.582031 89.179688 169.617188 C 88.550781 171.246094 87.921875 172.871094 87.292969 174.464844 C 84.8125 181.050781 82.554688 187.117188 80.707031 191.964844 C 80.335938 193.074219 79.929688 194.109375 79.597656 195.074219 C 78.929688 196.8125 78.375 198.328125 77.894531 199.585938 C 73.824219 200.621094 70.234375 200.769531 67.570312 200.695312 C 67.535156 200.734375 67.496094 200.734375 67.496094 200.695312 C 67.238281 200.695312 66.941406 200.660156 66.683594 200.660156 L 65.425781 200.550781 L 65.3125 200.550781 C 65.09375 200.550781 64.871094 200.550781 64.683594 200.511719 C 64.648438 200.511719 64.574219 200.511719 64.535156 200.476562 C 62.574219 200.289062 60.761719 199.921875 59.097656 199.476562 C 61.316406 192.003906 68.792969 173.058594 70.714844 167.988281 L 70.902344 167.582031 C 78.78125 166.027344 84.296875 164.660156 91.585938 163.4375 Z M 91.585938 163.4375 "/>
<path style=" stroke:none;fill-rule:nonzero;fill:url(#linear4);" d="M 185.195312 199.070312 L 185.15625 199.070312 C 182.382812 199.734375 180.347656 199.808594 176.351562 199.882812 C 171.503906 200.03125 168.65625 200.066406 165.585938 199.21875 C 164.84375 197.183594 163.992188 194.8125 162.992188 192.261719 C 162.957031 192.222656 162.957031 192.148438 162.957031 192.113281 C 162.03125 189.597656 160.960938 186.820312 159.847656 183.9375 C 159.109375 182.050781 158.332031 180.050781 157.519531 177.980469 C 155.925781 173.910156 154.226562 169.617188 152.523438 165.25 C 151.226562 161.996094 149.933594 158.703125 148.601562 155.410156 C 155.851562 154.59375 159.886719 153.964844 165.398438 153.523438 L 165.4375 153.523438 C 165.511719 153.707031 165.621094 153.929688 165.65625 154.078125 C 165.695312 154.152344 165.730469 154.261719 165.769531 154.335938 C 165.878906 154.558594 165.953125 154.742188 166.027344 154.890625 C 168.027344 159.480469 177.460938 178.683594 180.308594 185.453125 C 181.566406 188.414062 182.714844 191.667969 183.640625 194.371094 C 183.75 194.664062 183.863281 194.960938 183.9375 195.257812 C 184.417969 196.699219 184.824219 197.996094 185.121094 198.882812 C 185.15625 198.957031 185.15625 199.03125 185.195312 199.070312 Z M 185.195312 199.070312 "/>
<path style=" stroke:none;fill-rule:nonzero;fill:rgb(63.137257%,16.078432%,18.82353%);fill-opacity:1;" d="M 165.511719 199.21875 C 165.101562 199.105469 164.695312 198.957031 164.253906 198.808594 C 162.660156 198.253906 161.402344 197.589844 160.589844 197.183594 L 160.550781 197.144531 L 160.183594 196.886719 C 157.777344 195.257812 156.222656 192.632812 156 189.707031 C 155.777344 186.675781 155.335938 183.640625 154.707031 180.644531 C 152.96875 172.132812 150.785156 163.734375 148.195312 155.445312 L 148.5625 155.410156 C 151.636719 163.066406 154.707031 170.839844 157.519531 177.980469 C 158.332031 180.050781 159.109375 182.050781 159.847656 183.9375 C 162.105469 189.855469 164.066406 195.109375 165.511719 199.21875 Z M 165.511719 199.21875 "/>
<path style=" stroke:none;fill-rule:nonzero;fill:rgb(63.137257%,16.078432%,18.82353%);fill-opacity:1;" d="M 93.730469 163.066406 C 92.769531 168.027344 92.027344 172.171875 91.769531 173.242188 C 91.363281 174.871094 91.027344 182.308594 90.84375 187.671875 C 90.695312 191.226562 88.808594 194.480469 85.8125 196.332031 L 83.480469 197.773438 C 82.40625 198.21875 81.222656 198.660156 80.003906 199.03125 C 79.300781 199.253906 78.597656 199.4375 77.894531 199.585938 C 78.375 198.328125 78.929688 196.8125 79.597656 195.074219 C 79.929688 194.109375 80.335938 193.074219 80.707031 191.964844 C 82.554688 187.117188 84.8125 181.050781 87.292969 174.464844 C 87.921875 172.871094 88.550781 171.246094 89.179688 169.617188 C 89.992188 167.582031 90.769531 165.511719 91.585938 163.4375 Z M 93.730469 163.066406 "/>
<path style=" stroke:none;fill-rule:nonzero;fill:rgb(80.000001%,80.000001%,80.000001%);fill-opacity:1;" d="M 51.195312 235.855469 L 47.832031 226.65625 L 33.074219 226.65625 L 29.761719 235.855469 L 24.96875 235.855469 L 38.421875 200.625 L 42.492188 200.625 L 55.964844 235.855469 Z M 40.457031 206.355469 L 34.480469 222.835938 L 46.457031 222.835938 Z M 76.007812 235.855469 L 75.90625 233.265625 C 74.164062 235.316406 71.605469 236.339844 68.234375 236.339844 C 65.445312 236.339844 63.320312 235.527344 61.863281 233.90625 C 60.402344 232.285156 59.664062 229.886719 59.640625 226.707031 L 59.640625 209.671875 L 64.125 209.671875 L 64.125 226.582031 C 64.125 230.554688 65.738281 232.542969 68.964844 232.542969 C 72.382812 232.542969 74.65625 231.269531 75.792969 228.722656 L 75.792969 209.671875 L 80.261719 209.671875 L 80.261719 235.855469 Z M 88.65625 203.332031 L 93.140625 203.332031 L 93.140625 209.671875 L 98.023438 209.671875 L 98.023438 213.128906 L 93.140625 213.128906 L 93.140625 229.371094 C 93.140625 230.417969 93.355469 231.203125 93.789062 231.726562 C 94.230469 232.253906 94.972656 232.519531 96.019531 232.519531 C 96.535156 232.519531 97.246094 232.421875 98.148438 232.222656 L 98.148438 235.855469 C 96.96875 236.179688 95.824219 236.339844 94.707031 236.339844 C 92.710938 236.339844 91.203125 235.734375 90.1875 234.523438 C 89.167969 233.3125 88.65625 231.59375 88.65625 229.371094 L 88.65625 213.128906 L 83.898438 213.128906 L 83.898438 209.671875 L 88.65625 209.671875 Z M 101.585938 222.835938 L 101.585938 222.527344 C 101.585938 219.957031 102.085938 217.648438 103.09375 215.597656 C 104.105469 213.550781 105.507812 211.972656 107.304688 210.859375 C 109.109375 209.742188 111.164062 209.183594 113.46875 209.183594 C 117.035156 209.183594 119.917969 210.421875 122.121094 212.890625 C 124.324219 215.355469 125.425781 218.640625 125.425781 222.742188 L 125.425781 223.050781 C 125.425781 225.597656 124.9375 227.886719 123.960938 229.917969 C 122.984375 231.941406 121.585938 233.519531 119.769531 234.648438 C 117.957031 235.777344 115.871094 236.339844 113.511719 236.339844 C 109.964844 236.339844 107.09375 235.105469 104.890625 232.632812 C 102.6875 230.171875 101.585938 226.902344 101.585938 222.835938 Z M 106.085938 223.050781 C 106.085938 225.957031 106.761719 228.289062 108.109375 230.054688 C 109.453125 231.808594 111.253906 232.6875 113.511719 232.6875 C 115.789062 232.6875 117.597656 231.792969 118.933594 230.011719 C 120.273438 228.230469 120.945312 225.734375 120.945312 222.527344 C 120.945312 219.648438 120.265625 217.316406 118.902344 215.535156 C 117.539062 213.753906 115.726562 212.859375 113.46875 212.859375 C 111.261719 212.859375 109.476562 213.742188 108.121094 215.503906 C 106.765625 217.257812 106.085938 219.777344 106.085938 223.050781 Z M 152.984375 224.671875 L 157.652344 224.671875 C 157.21875 228.40625 155.847656 231.28125 153.53125 233.304688 C 151.214844 235.328125 148.136719 236.339844 144.300781 236.339844 C 140.136719 236.339844 136.800781 234.847656 134.296875 231.859375 C 131.785156 228.878906 130.527344 224.886719 130.527344 219.882812 L 130.527344 216.496094 C 130.527344 213.21875 131.113281 210.339844 132.28125 207.851562 C 133.453125 205.367188 135.113281 203.460938 137.261719 202.132812 C 139.402344 200.804688 141.886719 200.140625 144.714844 200.140625 C 148.453125 200.140625 151.449219 201.183594 153.707031 203.269531 C 155.972656 205.359375 157.289062 208.253906 157.652344 211.941406 L 152.984375 211.941406 C 152.578125 209.140625 151.707031 207.109375 150.363281 205.851562 C 149.015625 204.589844 147.132812 203.960938 144.714844 203.960938 C 141.742188 203.960938 139.410156 205.058594 137.722656 207.253906 C 136.039062 209.441406 135.195312 212.566406 135.195312 216.621094 L 135.195312 220.027344 C 135.195312 223.855469 135.992188 226.898438 137.589844 229.15625 C 139.1875 231.414062 141.425781 232.542969 144.300781 232.542969 C 146.882812 232.542969 148.863281 231.957031 150.238281 230.785156 C 151.617188 229.617188 152.53125 227.578125 152.984375 224.671875 Z M 186.824219 235.855469 L 183.457031 226.65625 L 168.691406 226.65625 L 165.375 235.855469 L 160.585938 235.855469 L 174.039062 200.625 L 178.109375 200.625 L 191.582031 235.855469 Z M 176.074219 206.355469 L 170.09375 222.835938 L 182.074219 222.835938 Z M 206.078125 235.855469 L 196.332031 235.855469 L 196.332031 200.625 L 206.277344 200.625 C 209.339844 200.625 212.050781 201.300781 214.414062 202.648438 C 216.765625 204.003906 218.585938 205.9375 219.863281 208.441406 C 221.144531 210.941406 221.796875 213.8125 221.816406 217.054688 L 221.816406 219.304688 C 221.816406 222.628906 221.171875 225.539062 219.886719 228.039062 C 218.605469 230.539062 216.773438 232.457031 214.390625 233.800781 C 212.015625 235.136719 209.246094 235.820312 206.078125 235.855469 Z M 206.398438 204.445312 L 200.980469 204.445312 L 200.980469 232.054688 L 205.863281 232.054688 C 209.441406 232.054688 212.230469 230.945312 214.226562 228.722656 C 216.214844 226.492188 217.210938 223.320312 217.210938 219.210938 L 217.210938 217.144531 C 217.210938 213.148438 216.269531 210.039062 214.390625 207.820312 C 212.511719 205.605469 209.847656 204.480469 206.398438 204.445312 Z M 206.398438 204.445312 "/>
</g>
</svg>
