<svg id="svg" version="1.1" xmlns="http://www.w3.org/2000/svg" xmlns:xlink="http://www.w3.org/1999/xlink" width="400" height="400" viewBox="0, 0, 400,400"><g id="svgg"><path id="path0" d="M23.200 7.200 C 23.200 7.420,22.300 7.600,21.200 7.600 C 20.100 7.600,19.200 7.780,19.200 8.000 C 19.200 8.220,18.830 8.400,18.377 8.400 C 15.225 8.400,8.400 15.363,8.400 18.578 C 8.400 18.920,8.220 19.200,8.000 19.200 C 7.780 19.200,7.600 20.100,7.600 21.200 C 7.600 22.300,7.420 23.200,7.200 23.200 C 6.934 23.200,6.800 82.400,6.800 200.000 C 6.800 317.600,6.934 376.800,7.200 376.800 C 7.420 376.800,7.600 377.700,7.600 378.800 C 7.600 379.900,7.780 380.800,8.000 380.800 C 8.220 380.800,8.400 381.080,8.400 381.422 C 8.400 384.720,15.280 391.600,18.578 391.600 C 18.920 391.600,19.200 391.780,19.200 392.000 C 19.200 392.220,20.089 392.400,21.176 392.400 C 22.263 392.400,23.264 392.580,23.400 392.800 C 23.564 393.066,82.804 393.200,199.824 393.200 C 317.008 393.200,376.000 393.066,376.000 392.800 C 376.000 392.578,377.067 392.400,378.400 392.400 C 379.720 392.400,380.800 392.236,380.800 392.035 C 380.800 391.834,381.520 391.549,382.400 391.400 C 383.280 391.251,384.000 390.966,384.000 390.765 C 384.000 390.564,384.260 390.400,384.578 390.400 C 385.330 390.400,390.400 385.330,390.400 384.578 C 390.400 384.260,390.564 384.000,390.765 384.000 C 390.966 384.000,391.251 383.280,391.400 382.400 C 391.549 381.520,391.834 380.800,392.035 380.800 C 392.236 380.800,392.400 379.900,392.400 378.800 C 392.400 377.700,392.580 376.800,392.800 376.800 C 393.066 376.800,393.200 317.600,393.200 200.000 C 393.200 82.400,393.066 23.200,392.800 23.200 C 392.580 23.200,392.400 22.300,392.400 21.200 C 392.400 20.100,392.220 19.200,392.000 19.200 C 391.780 19.200,391.600 18.830,391.600 18.377 C 391.600 15.225,384.637 8.400,381.422 8.400 C 381.080 8.400,380.800 8.220,380.800 8.000 C 380.800 7.780,379.911 7.600,378.824 7.600 C 377.737 7.600,376.736 7.420,376.600 7.200 C 376.257 6.645,23.200 6.645,23.200 7.200 M376.174 23.831 C 376.739 24.397,376.794 27.590,376.703 54.531 L 376.600 84.600 200.000 84.600 L 23.400 84.600 23.297 54.531 C 23.206 27.590,23.261 24.397,23.826 23.831 C 24.795 22.863,375.205 22.863,376.174 23.831 M377.000 238.080 C 377.000 350.678,376.905 376.055,376.480 376.480 C 375.949 377.011,27.922 377.533,24.961 377.007 C 24.150 376.863,23.563 376.437,23.261 375.775 C 22.754 374.661,22.561 100.773,23.067 100.266 C 23.214 100.119,102.909 100.044,200.167 100.100 L 377.000 100.200 377.000 238.080 M82.200 128.267 C 80.905 128.615,78.853 130.343,78.100 131.721 C 77.448 132.913,77.386 136.300,77.200 181.541 L 77.000 230.083 73.800 231.161 C 61.143 235.428,51.802 246.023,49.595 258.620 C 48.614 264.214,49.507 273.688,51.412 277.900 C 51.735 278.615,52.304 279.875,52.676 280.700 C 55.867 287.783,67.702 298.359,72.476 298.395 C 72.848 298.398,73.264 298.580,73.400 298.800 C 73.536 299.020,73.988 299.200,74.405 299.200 C 74.821 299.200,75.614 299.406,76.165 299.657 L 77.168 300.114 77.284 322.157 L 77.400 344.200 78.600 345.892 C 81.798 350.403,88.223 350.175,90.989 345.454 L 92.000 343.730 92.000 321.913 L 92.000 300.097 93.100 299.704 C 93.705 299.488,94.920 299.084,95.800 298.806 C 128.767 288.392,127.764 239.683,94.400 230.797 C 93.410 230.533,92.468 230.111,92.306 229.859 C 92.144 229.606,92.001 207.800,91.987 181.400 C 91.959 127.723,92.194 131.953,89.094 129.461 C 87.575 128.240,84.367 127.684,82.200 128.267 M158.270 128.764 C 154.506 130.683,154.013 132.427,154.006 143.851 L 154.000 153.103 152.900 153.496 C 152.295 153.712,151.080 154.109,150.200 154.378 C 127.904 161.194,118.746 189.769,132.714 208.937 C 134.396 211.244,139.872 216.794,140.471 216.798 C 140.621 216.799,141.012 217.069,141.341 217.399 C 142.352 218.409,148.857 221.509,151.500 222.240 L 154.000 222.931 154.000 282.832 C 154.000 341.411,154.017 342.772,154.782 344.467 C 157.086 349.574,162.645 350.777,166.738 347.053 C 169.163 344.847,168.981 349.565,169.200 283.411 L 169.400 223.022 172.400 221.977 C 176.935 220.398,178.078 219.843,181.268 217.674 C 187.059 213.738,191.881 208.093,193.974 202.800 C 194.279 202.030,194.679 201.229,194.864 201.020 C 195.049 200.811,195.200 200.237,195.200 199.744 C 195.200 199.251,195.360 198.748,195.556 198.627 C 196.380 198.118,197.292 189.690,196.987 185.400 C 196.516 178.783,194.702 173.654,190.760 167.800 C 186.742 161.833,179.590 156.430,173.000 154.385 C 172.120 154.112,170.923 153.719,170.340 153.512 L 169.279 153.136 169.134 143.068 L 168.989 133.000 167.828 131.280 C 165.781 128.248,161.496 127.120,158.270 128.764 M235.400 128.629 C 233.979 129.368,232.508 130.687,231.863 131.800 C 231.527 132.381,231.345 141.692,231.200 165.785 L 231.000 198.969 230.000 199.443 C 229.450 199.704,228.280 200.136,227.400 200.404 C 215.824 203.926,207.022 213.591,203.541 226.600 C 202.822 229.290,202.829 239.151,203.553 241.800 C 207.256 255.354,215.086 263.933,227.602 268.147 C 229.200 268.685,230.660 269.367,230.847 269.663 C 231.034 269.958,231.191 286.703,231.194 306.874 C 231.200 345.020,231.194 344.876,232.927 346.739 C 236.396 350.469,245.100 349.079,245.187 344.780 C 245.194 344.439,245.379 343.981,245.598 343.762 C 245.855 343.505,246.032 330.195,246.098 306.260 L 246.200 269.157 249.102 268.180 C 283.195 256.699,282.041 210.265,247.400 199.745 L 246.200 199.381 246.000 166.390 C 245.854 142.250,245.673 133.117,245.327 132.345 C 243.729 128.781,238.716 126.904,235.400 128.629 M312.200 128.603 C 311.540 128.961,310.590 129.637,310.090 130.106 C 307.873 132.183,308.000 128.354,308.000 193.051 L 308.000 252.779 306.820 253.390 C 306.171 253.725,305.281 254.000,304.843 254.000 C 304.406 254.000,303.936 254.180,303.800 254.400 C 303.664 254.620,303.291 254.800,302.972 254.800 C 300.980 254.800,293.676 259.448,290.150 262.960 C 271.356 281.676,279.165 313.596,304.600 322.024 C 308.241 323.231,307.987 322.359,307.994 333.681 C 308.000 343.953,308.111 344.757,309.800 346.739 C 312.386 349.775,317.722 349.957,320.417 347.102 C 322.515 344.878,322.587 344.466,322.800 333.426 L 323.000 323.052 326.600 321.796 C 341.778 316.503,350.800 303.868,350.800 287.906 C 350.800 283.009,350.166 279.125,348.824 275.800 C 345.168 266.741,338.749 259.776,330.600 256.025 C 329.060 255.316,327.487 254.571,327.105 254.368 C 326.723 254.166,326.057 254.000,325.624 254.000 C 325.192 254.000,324.381 253.792,323.824 253.538 L 322.810 253.076 322.705 193.004 L 322.600 132.931 321.459 131.285 C 319.389 128.298,315.071 127.047,312.200 128.603 M167.533 168.474 C 189.747 177.363,185.142 208.192,161.600 208.192 C 136.292 208.192,133.802 172.299,158.800 167.841 C 160.353 167.564,166.343 167.998,167.533 168.474 M243.400 214.419 C 258.525 218.336,263.815 236.789,253.098 248.245 C 242.214 259.881,222.659 254.650,218.587 239.013 C 214.838 224.619,228.914 210.667,243.400 214.419 M88.723 244.833 C 90.646 245.277,91.114 245.441,93.684 246.570 C 105.795 251.891,108.989 269.212,99.649 278.922 C 88.107 290.923,68.899 285.768,64.570 269.507 C 60.904 255.733,74.735 241.604,88.723 244.833 M322.200 268.825 C 331.317 272.201,337.202 281.883,335.619 290.900 C 332.366 309.433,308.855 314.932,298.418 299.600 C 287.393 283.403,303.897 262.045,322.200 268.825 " stroke="none" fill="#2e3e65" fill-rule="evenodd"></path><path id="path1" d="M23.867 23.866 C 23.720 24.013,23.600 37.693,23.600 54.267 L 23.600 84.400 200.003 84.400 L 376.405 84.400 376.303 54.100 L 376.200 23.800 200.167 23.700 C 103.349 23.644,24.014 23.719,23.867 23.866 M55.886 43.041 C 59.183 44.146,63.165 48.090,63.190 50.276 C 63.196 50.758,63.380 51.264,63.600 51.400 C 64.142 51.735,64.108 55.295,63.549 56.681 C 61.788 61.055,60.137 63.047,57.253 64.278 C 56.454 64.619,55.487 65.056,55.105 65.249 C 54.120 65.747,50.644 65.684,49.319 65.144 C 46.311 63.917,45.661 63.540,44.332 62.249 C 35.704 53.870,44.510 39.231,55.886 43.041 M89.800 43.704 C 98.150 47.970,98.022 61.196,89.600 64.344 C 88.830 64.631,87.887 65.032,87.505 65.233 C 85.075 66.516,79.522 64.959,76.679 62.198 C 67.399 53.186,78.296 37.826,89.800 43.704 M121.889 43.543 C 128.039 46.683,130.110 52.567,127.345 59.046 C 125.920 62.387,120.885 65.600,117.076 65.600 C 106.813 65.600,101.670 52.870,109.060 45.762 C 112.598 42.358,117.806 41.457,121.889 43.543 M358.218 43.382 L 359.200 44.364 359.187 53.882 C 359.174 63.860,359.121 64.179,357.326 65.135 C 356.669 65.485,331.426 65.600,255.257 65.600 L 154.062 65.600 152.831 64.369 L 151.600 63.138 151.600 54.349 C 151.600 45.130,151.817 43.812,153.500 42.832 C 153.970 42.558,187.505 42.420,255.718 42.412 L 357.236 42.400 358.218 43.382 M78.778 245.554 C 69.727 248.451,64.602 255.480,64.601 265.000 L 64.600 270.200 66.280 273.636 C 75.890 293.284,105.156 286.443,104.935 264.600 C 104.800 251.291,91.382 241.521,78.778 245.554 " stroke="none" fill="#e3a45a" fill-rule="evenodd"></path><path id="path2" d="M48.194 43.214 C 40.492 46.178,38.400 56.488,44.332 62.249 C 45.661 63.540,46.311 63.917,49.319 65.144 C 50.644 65.684,54.120 65.747,55.105 65.249 C 55.487 65.056,56.454 64.619,57.253 64.278 C 60.137 63.047,61.788 61.055,63.549 56.681 C 64.108 55.295,64.142 51.735,63.600 51.400 C 63.380 51.264,63.196 50.758,63.190 50.276 C 63.134 45.283,53.998 40.980,48.194 43.214 M80.712 43.151 C 72.757 46.365,70.645 56.338,76.679 62.198 C 78.057 63.536,78.705 63.915,81.719 65.144 C 83.062 65.691,86.536 65.745,87.505 65.233 C 87.887 65.032,88.830 64.631,89.600 64.344 C 94.847 62.383,97.709 54.311,95.032 49.023 C 92.307 43.640,85.951 41.034,80.712 43.151 M113.090 43.062 C 102.984 46.560,103.135 61.121,113.315 64.842 C 117.516 66.378,121.765 65.341,125.153 61.953 C 130.886 56.220,129.310 47.332,121.889 43.543 C 119.641 42.395,115.647 42.177,113.090 43.062 M153.500 42.832 C 151.817 43.812,151.600 45.130,151.600 54.349 L 151.600 63.138 152.831 64.369 L 154.062 65.600 255.257 65.600 C 331.426 65.600,356.669 65.485,357.326 65.135 C 359.121 64.179,359.174 63.860,359.187 53.882 L 359.200 44.364 358.218 43.382 L 357.236 42.400 255.718 42.412 C 187.505 42.420,153.970 42.558,153.500 42.832 M23.699 238.300 L 23.800 376.200 200.000 376.200 L 376.200 376.200 376.301 238.300 L 376.401 100.400 200.000 100.400 L 23.599 100.400 23.699 238.300 M86.800 127.718 C 89.222 128.593,90.020 129.204,91.227 131.107 L 92.400 132.957 92.400 181.211 L 92.400 229.465 93.300 229.887 C 93.795 230.119,95.010 230.550,96.000 230.845 C 106.106 233.853,115.609 243.298,118.935 253.641 C 120.384 258.145,120.594 259.583,120.594 265.000 C 120.594 270.417,120.384 271.855,118.935 276.359 C 115.546 286.896,106.835 295.582,96.006 299.221 L 92.600 300.365 92.497 322.083 C 92.384 345.917,92.458 345.191,89.928 347.609 C 86.550 350.837,81.190 350.155,78.099 346.104 L 77.000 344.663 76.800 322.515 L 76.600 300.366 73.400 299.244 C 61.900 295.213,52.313 285.189,49.832 274.600 C 45.285 255.196,55.501 236.203,73.400 230.782 C 74.280 230.516,75.401 230.146,75.892 229.961 L 76.784 229.624 76.892 181.112 L 77.000 132.600 77.980 131.200 C 79.058 129.659,79.362 129.412,81.760 128.111 C 83.638 127.093,84.817 127.001,86.800 127.718 M163.631 127.657 C 168.595 129.144,169.353 131.110,169.600 143.138 L 169.800 152.876 172.600 153.772 C 205.377 164.259,205.519 212.733,172.800 222.348 C 171.810 222.639,170.730 223.015,170.400 223.182 C 169.872 223.451,169.775 230.690,169.595 283.444 C 169.481 316.420,169.232 343.850,169.039 344.400 C 166.486 351.704,155.769 351.127,154.032 343.592 C 153.759 342.404,153.616 321.812,153.610 282.508 L 153.600 223.215 152.500 222.975 C 145.195 221.380,136.403 215.181,131.650 208.272 C 130.061 205.963,127.200 199.894,127.200 198.832 C 127.200 198.400,127.039 197.948,126.842 197.826 C 125.916 197.254,125.252 184.591,125.993 181.630 C 126.862 178.155,127.292 176.597,127.604 175.800 C 131.821 165.004,140.014 157.156,150.600 153.772 L 153.400 152.877 153.600 142.938 C 153.792 133.385,153.836 132.942,154.738 131.491 C 156.824 128.136,160.271 126.650,163.631 127.657 M240.431 127.657 C 242.522 128.283,244.565 130.062,245.564 132.126 C 246.391 133.834,246.400 134.203,246.400 166.439 L 246.400 199.025 248.300 199.577 C 260.029 202.985,270.194 213.070,273.117 224.200 C 273.348 225.080,273.731 226.541,273.968 227.446 C 274.527 229.577,274.527 238.823,273.968 240.954 C 273.731 241.859,273.350 243.320,273.123 244.200 C 270.381 254.796,260.325 265.300,250.000 268.351 C 249.010 268.644,247.798 269.039,247.306 269.230 L 246.412 269.577 246.306 306.954 L 246.200 344.331 244.983 346.062 C 241.069 351.631,233.055 350.443,230.880 343.972 C 230.521 342.902,230.400 333.374,230.400 306.063 L 230.400 269.583 229.500 269.243 C 229.005 269.055,227.880 268.680,227.000 268.409 C 221.021 266.566,213.896 261.516,210.055 256.400 C 209.477 255.630,208.889 254.910,208.748 254.800 C 207.902 254.141,204.314 246.491,203.589 243.800 C 198.560 225.135,209.830 204.866,228.086 199.744 L 230.400 199.095 230.400 166.941 C 230.400 131.325,230.318 132.495,233.000 129.805 C 235.278 127.520,237.668 126.829,240.431 127.657 M318.104 128.013 C 320.275 129.053,320.811 129.490,322.015 131.200 L 323.000 132.600 323.200 192.717 L 323.400 252.835 326.835 253.989 C 347.316 260.871,357.249 284.073,347.975 303.373 C 345.973 307.540,345.136 308.773,341.200 313.356 C 338.760 316.198,329.520 322.000,327.435 322.000 C 327.112 322.000,326.736 322.180,326.600 322.400 C 326.464 322.620,325.845 322.800,325.225 322.800 C 323.337 322.800,323.270 323.167,323.131 334.236 L 323.000 344.664 321.901 346.104 C 318.012 351.200,311.148 350.706,308.124 345.113 C 307.516 343.988,307.385 342.348,307.207 333.643 C 306.978 322.383,307.236 323.293,304.000 322.356 C 294.496 319.606,283.041 308.221,281.104 299.600 C 280.981 299.050,280.566 297.520,280.182 296.200 C 279.247 292.984,279.213 283.209,280.125 280.000 C 281.226 276.131,281.469 275.435,282.546 273.080 C 286.595 264.229,294.571 257.060,303.800 253.977 C 305.340 253.463,306.825 252.875,307.100 252.672 C 307.496 252.379,307.600 239.925,307.600 192.735 C 307.600 133.877,307.610 133.149,308.403 131.594 C 310.250 127.973,314.640 126.353,318.104 128.013 " stroke="none" fill="#e3f0f7" fill-rule="evenodd"></path><path id="path3" d="M112.100 23.500 C 160.445 23.556,239.555 23.556,287.900 23.500 C 336.245 23.444,296.690 23.398,200.000 23.398 C 103.310 23.398,63.755 23.444,112.100 23.500 M23.396 54.400 L 23.400 84.600 200.000 84.600 L 376.600 84.600 376.604 54.400 L 376.608 24.200 376.501 54.300 L 376.395 84.400 200.000 84.400 L 23.605 84.400 23.499 54.300 L 23.392 24.200 23.396 54.400 M83.300 244.691 C 84.125 244.778,85.475 244.778,86.300 244.691 C 87.125 244.605,86.450 244.534,84.800 244.534 C 83.150 244.534,82.475 244.605,83.300 244.691 M69.978 250.700 L 68.600 252.200 70.100 250.822 C 71.496 249.538,71.784 249.200,71.478 249.200 C 71.412 249.200,70.737 249.875,69.978 250.700 M64.131 265.000 C 64.133 266.540,64.205 267.121,64.292 266.291 C 64.379 265.461,64.377 264.201,64.289 263.491 C 64.200 262.781,64.129 263.460,64.131 265.000 M311.400 267.963 C 293.567 271.481,288.858 295.094,304.000 305.068 C 321.173 316.379,342.627 297.889,333.783 279.400 C 329.772 271.014,320.347 266.198,311.400 267.963 M70.000 279.400 C 70.746 280.170,71.447 280.800,71.557 280.800 C 71.667 280.800,71.146 280.170,70.400 279.400 C 69.654 278.630,68.953 278.000,68.843 278.000 C 68.733 278.000,69.254 278.630,70.000 279.400 M83.507 285.490 C 84.226 285.579,85.306 285.577,85.907 285.486 C 86.508 285.395,85.920 285.322,84.600 285.324 C 83.280 285.326,82.788 285.401,83.507 285.490 " stroke="none" fill="#d26483" fill-rule="evenodd"></path><path id="path4" d="M23.067 100.266 C 22.561 100.773,22.754 374.661,23.261 375.775 C 23.563 376.437,24.150 376.863,24.961 377.007 C 27.922 377.533,375.949 377.011,376.480 376.480 C 376.905 376.055,377.000 350.678,377.000 238.080 L 377.000 100.200 200.167 100.100 C 102.909 100.044,23.214 100.119,23.067 100.266 M376.301 238.300 L 376.200 376.200 200.000 376.200 L 23.800 376.200 23.699 238.300 L 23.599 100.400 200.000 100.400 L 376.401 100.400 376.301 238.300 M81.760 128.111 C 79.362 129.412,79.058 129.659,77.980 131.200 L 77.000 132.600 76.892 181.112 L 76.784 229.624 75.892 229.961 C 75.401 230.146,74.280 230.516,73.400 230.782 C 66.611 232.838,59.586 238.095,55.019 244.536 C 53.076 247.275,49.987 253.802,50.015 255.106 C 50.024 255.488,50.592 254.360,51.278 252.600 C 55.331 242.205,63.167 234.745,73.800 231.161 L 77.000 230.083 77.200 181.541 C 77.424 127.274,77.164 131.689,80.268 129.321 C 82.512 127.609,86.858 127.666,89.062 129.436 C 92.199 131.956,91.959 127.677,91.987 181.400 C 92.001 207.800,92.144 229.606,92.306 229.859 C 92.468 230.111,93.410 230.533,94.400 230.797 C 104.146 233.392,113.339 241.425,117.422 250.914 C 118.065 252.407,118.645 253.464,118.713 253.262 C 118.935 252.594,116.364 247.479,114.319 244.521 C 110.018 238.299,102.709 232.842,96.000 230.845 C 95.010 230.550,93.795 230.119,93.300 229.887 L 92.400 229.465 92.400 181.211 L 92.400 132.957 91.227 131.107 C 89.004 127.602,85.024 126.342,81.760 128.111 M159.400 127.662 C 156.685 128.657,153.722 131.929,154.118 133.496 C 154.243 133.992,154.381 133.836,154.584 132.966 C 155.843 127.596,164.678 126.272,167.609 131.014 C 168.094 131.800,168.592 132.342,168.714 132.219 C 169.120 131.813,166.583 129.070,165.082 128.290 C 163.246 127.338,160.972 127.086,159.400 127.662 M236.000 127.756 C 234.360 128.276,231.199 131.262,231.201 132.289 C 231.203 132.782,231.438 132.615,231.967 131.746 C 234.490 127.609,240.150 126.763,243.552 130.015 C 246.107 132.456,246.000 130.862,246.000 166.635 C 246.000 202.541,245.858 200.505,248.321 199.878 C 248.765 199.765,248.550 199.600,247.700 199.402 L 246.400 199.100 246.400 166.476 C 246.400 134.203,246.391 133.834,245.564 132.126 C 243.723 128.323,239.827 126.543,236.000 127.756 M312.911 127.764 C 310.904 128.494,309.281 129.874,308.403 131.594 C 307.610 133.149,307.600 133.877,307.600 192.735 C 307.600 239.912,307.496 252.384,307.100 252.696 C 306.825 252.912,306.060 253.233,305.400 253.409 C 304.591 253.624,304.419 253.780,304.873 253.888 C 305.243 253.976,306.098 253.763,306.773 253.414 L 308.000 252.779 308.029 192.890 C 308.056 137.088,308.105 132.920,308.744 131.832 C 311.584 126.994,318.285 126.706,321.459 131.285 L 322.600 132.931 322.705 193.004 L 322.810 253.076 323.824 253.538 C 324.381 253.792,325.234 253.981,325.719 253.958 C 326.307 253.930,326.068 253.752,325.000 253.422 L 323.400 252.928 323.200 192.764 L 323.000 132.600 322.015 131.200 C 319.699 127.909,316.172 126.578,312.911 127.764 M168.944 134.556 C 169.085 135.632,169.200 140.245,169.200 144.807 L 169.200 153.103 170.300 153.496 C 170.905 153.712,172.120 154.112,173.000 154.385 C 186.034 158.431,195.984 171.296,196.987 185.400 C 197.292 189.690,196.380 198.118,195.556 198.627 C 195.360 198.748,195.200 199.251,195.200 199.744 C 195.200 200.237,195.049 200.811,194.864 201.020 C 194.679 201.229,194.279 202.030,193.974 202.800 C 190.625 211.268,181.647 219.135,171.869 222.170 C 170.588 222.568,169.464 223.098,169.372 223.347 C 169.132 223.999,168.960 343.973,169.200 343.733 C 169.310 343.623,169.490 316.523,169.600 283.510 C 169.776 230.694,169.872 223.451,170.400 223.182 C 170.730 223.015,171.810 222.639,172.800 222.348 C 205.519 212.733,205.377 164.259,172.600 153.772 L 169.800 152.876 169.600 143.071 C 169.490 137.678,169.240 133.115,169.044 132.933 C 168.836 132.739,168.794 133.417,168.944 134.556 M230.700 133.733 C 230.535 134.136,230.400 149.005,230.400 166.775 L 230.400 199.084 229.100 199.501 C 228.130 199.813,228.017 199.929,228.656 199.959 C 229.126 199.982,229.895 199.685,230.363 199.300 L 231.215 198.600 231.107 165.800 C 231.048 147.760,230.865 133.330,230.700 133.733 M153.507 143.638 L 153.400 152.876 150.600 153.771 C 140.012 157.158,131.821 165.004,127.604 175.800 C 127.292 176.597,126.862 178.155,125.993 181.630 C 125.252 184.591,125.916 197.254,126.842 197.826 C 127.039 197.948,127.200 198.400,127.200 198.832 C 127.200 199.894,130.061 205.963,131.650 208.272 C 136.402 215.180,145.195 221.381,152.499 222.975 L 153.597 223.215 153.700 282.907 L 153.803 342.600 153.901 282.766 L 154.000 222.931 151.500 222.240 C 148.857 221.509,142.352 218.409,141.341 217.399 C 141.012 217.069,140.621 216.799,140.471 216.798 C 139.872 216.794,134.396 211.244,132.714 208.937 C 118.746 189.769,127.904 161.194,150.200 154.378 C 151.080 154.109,152.295 153.712,152.900 153.496 L 154.000 153.103 154.000 143.751 C 154.000 138.608,153.913 134.400,153.807 134.400 C 153.701 134.400,153.566 138.557,153.507 143.638 M158.800 167.841 C 133.802 172.299,136.292 208.192,161.600 208.192 C 185.142 208.192,189.747 177.363,167.533 168.474 C 166.343 167.998,160.353 167.564,158.800 167.841 M223.000 201.748 C 204.507 210.646,196.987 232.961,206.471 250.800 C 207.582 252.890,208.607 254.690,208.748 254.800 C 208.889 254.910,209.477 255.630,210.055 256.400 C 214.133 261.832,224.527 268.868,228.355 268.786 C 228.710 268.779,227.650 268.246,226.000 267.603 C 224.350 266.960,222.660 266.229,222.245 265.979 C 221.830 265.729,220.840 265.164,220.045 264.722 C 212.205 260.370,206.435 252.351,203.553 241.800 C 202.829 239.151,202.822 229.290,203.541 226.600 C 205.648 218.725,208.396 213.921,213.836 208.600 C 217.480 205.036,219.862 203.546,226.800 200.494 C 227.350 200.252,227.530 200.046,227.200 200.035 C 226.870 200.025,224.980 200.796,223.000 201.748 M249.200 200.137 C 249.200 200.212,250.463 200.769,252.007 201.375 C 264.993 206.470,273.999 219.913,273.999 234.200 C 273.999 249.498,265.113 262.098,250.305 267.797 C 248.927 268.327,248.107 268.770,248.481 268.780 C 249.831 268.819,255.733 266.083,258.817 263.988 C 265.384 259.529,271.260 251.401,273.123 244.200 C 273.350 243.320,273.731 241.859,273.968 240.954 C 274.206 240.048,274.400 237.009,274.400 234.200 C 274.400 231.391,274.206 228.352,273.968 227.446 C 273.731 226.541,273.348 225.080,273.117 224.200 C 271.742 218.965,268.052 212.844,263.705 208.586 C 259.795 204.756,249.200 198.585,249.200 200.137 M233.200 214.452 C 218.016 218.573,212.981 237.486,224.123 248.547 C 238.455 262.774,262.183 249.949,258.404 230.020 C 256.348 219.182,243.962 211.531,233.200 214.452 M118.991 255.200 C 119.159 255.970,119.527 257.680,119.809 259.000 C 120.188 260.775,120.332 261.066,120.361 260.120 C 120.402 258.770,119.398 254.448,118.949 254.039 C 118.804 253.908,118.823 254.430,118.991 255.200 M301.600 254.746 C 293.696 257.856,286.219 265.051,282.546 273.080 C 281.469 275.435,281.226 276.131,280.125 280.000 C 279.372 282.649,279.208 293.059,279.885 295.200 C 280.129 295.970,280.443 297.116,280.584 297.747 C 280.724 298.378,280.924 298.810,281.027 298.706 C 281.131 298.602,280.918 297.276,280.553 295.759 C 277.878 284.616,281.774 271.301,290.150 262.960 C 293.676 259.448,300.980 254.800,302.972 254.800 C 303.291 254.800,303.664 254.620,303.800 254.400 C 304.139 253.851,303.698 253.920,301.600 254.746 M326.974 254.357 C 327.124 254.601,327.464 254.800,327.730 254.800 C 328.516 254.800,333.230 257.204,335.600 258.814 C 341.075 262.533,346.372 269.347,348.803 275.800 C 349.555 277.798,349.948 278.559,349.973 278.068 C 350.194 273.720,341.520 262.043,335.000 257.913 C 331.057 255.416,326.335 253.323,326.974 254.357 M49.473 256.553 C 49.323 256.945,49.218 257.836,49.240 258.533 C 49.279 259.767,49.290 259.759,49.649 258.227 C 50.045 256.537,49.924 255.379,49.473 256.553 M48.650 261.250 C 48.311 262.947,48.405 267.968,48.800 269.200 C 48.999 269.822,49.135 268.275,49.160 265.100 C 49.201 259.883,49.090 259.048,48.650 261.250 M120.386 264.700 C 120.373 267.490,119.796 271.739,118.986 275.000 C 118.822 275.660,118.806 276.092,118.950 275.961 C 119.919 275.076,121.525 261.600,120.661 261.600 C 120.517 261.600,120.394 262.995,120.386 264.700 M229.700 269.232 C 230.359 269.616,230.400 271.798,230.400 306.091 C 230.400 333.380,230.521 342.902,230.880 343.972 C 233.055 350.443,241.069 351.631,244.983 346.062 L 246.200 344.331 246.303 307.066 C 246.399 272.171,246.450 269.766,247.103 269.264 C 247.752 268.765,247.745 268.738,247.000 268.870 C 246.208 269.010,246.199 269.365,246.098 306.188 C 246.032 330.170,245.855 343.505,245.598 343.762 C 245.379 343.981,245.194 344.439,245.187 344.780 C 245.100 349.079,236.396 350.469,232.927 346.739 C 231.194 344.876,231.200 345.021,231.200 306.948 C 231.200 269.631,231.166 268.786,229.686 268.812 C 229.047 268.823,229.048 268.852,229.700 269.232 M49.253 271.600 C 49.231 272.370,49.387 273.270,49.600 273.600 C 50.077 274.339,50.077 273.276,49.600 271.400 L 49.295 270.200 49.253 271.600 M50.034 275.000 C 50.022 275.440,50.187 276.070,50.400 276.400 C 50.914 277.195,50.914 276.196,50.400 275.000 L 50.056 274.200 50.034 275.000 M117.422 279.086 C 113.505 288.189,105.077 295.876,95.800 298.806 C 94.920 299.084,93.705 299.488,93.100 299.704 L 92.000 300.097 92.000 321.913 L 92.000 343.730 90.989 345.454 C 88.223 350.175,81.798 350.403,78.600 345.892 L 77.400 344.200 77.284 322.157 L 77.168 300.114 76.165 299.657 C 75.614 299.406,74.821 299.200,74.405 299.200 C 73.988 299.200,73.536 299.020,73.400 298.800 C 73.264 298.580,72.848 298.398,72.476 298.395 C 66.856 298.353,54.853 286.755,51.615 278.239 C 51.374 277.606,51.082 277.185,50.965 277.301 C 50.848 277.418,51.289 278.695,51.943 280.139 C 55.946 288.967,63.650 295.827,73.400 299.244 L 76.600 300.366 76.800 322.515 L 77.000 344.663 78.099 346.104 C 81.190 350.155,86.550 350.837,89.928 347.609 C 92.458 345.191,92.384 345.917,92.497 322.083 L 92.600 300.365 96.006 299.221 C 105.655 295.978,113.383 289.007,117.646 279.699 C 118.300 278.272,118.780 276.939,118.713 276.738 C 118.645 276.536,118.065 277.593,117.422 279.086 M350.056 279.800 C 350.056 280.460,350.211 281.360,350.400 281.800 C 350.693 282.482,350.744 282.423,350.744 281.400 C 350.744 280.740,350.589 279.840,350.400 279.400 C 350.107 278.718,350.056 278.777,350.056 279.800 M350.700 288.600 C 350.571 291.900,350.338 295.230,350.182 296.000 C 350.026 296.770,350.015 297.291,350.157 297.158 C 350.649 296.700,351.599 290.194,351.552 287.600 C 351.453 282.064,350.931 282.676,350.700 288.600 M349.053 299.600 C 345.654 309.981,337.574 317.969,326.600 321.796 L 323.000 323.052 322.800 333.426 C 322.587 344.466,322.515 344.878,320.417 347.102 C 317.722 349.957,312.386 349.775,309.800 346.739 C 308.111 344.757,308.000 343.953,307.994 333.681 C 307.987 322.359,308.241 323.231,304.600 322.024 C 294.493 318.675,285.795 310.648,282.356 301.494 C 281.841 300.122,281.362 299.288,281.292 299.640 C 281.039 300.910,285.159 308.258,287.919 311.459 C 292.184 316.405,298.706 320.824,304.000 322.356 C 307.236 323.293,306.978 322.383,307.207 333.643 C 307.385 342.348,307.516 343.988,308.124 345.113 C 311.148 350.706,318.012 351.200,321.901 346.104 L 323.000 344.664 323.131 334.236 C 323.270 323.167,323.337 322.800,325.225 322.800 C 325.845 322.800,326.464 322.620,326.600 322.400 C 326.736 322.180,327.112 322.000,327.435 322.000 C 329.520 322.000,338.760 316.198,341.200 313.356 C 344.089 309.993,345.600 308.048,345.600 307.693 C 345.600 307.476,345.854 307.087,346.165 306.829 C 346.974 306.157,350.082 298.913,349.914 298.090 C 349.837 297.710,349.450 298.390,349.053 299.600 M154.224 344.200 C 155.069 348.462,160.627 350.842,165.046 348.835 C 166.712 348.078,168.810 345.795,168.788 344.762 C 168.780 344.414,168.607 344.505,168.333 345.000 C 165.150 350.755,157.695 350.535,154.774 344.600 C 154.077 343.185,154.014 343.138,154.224 344.200 " stroke="none" fill="#71c091" fill-rule="evenodd"></path></g></svg>