<svg id="svg" version="1.1" xmlns="http://www.w3.org/2000/svg" xmlns:xlink="http://www.w3.org/1999/xlink" width="400" height="400" viewBox="0, 0, 400,400"><g id="svgg"><path id="path0" d="M318.900 0.278 C 317.745 0.368,316.800 0.612,316.800 0.821 C 316.800 1.029,316.260 1.200,315.600 1.200 C 314.940 1.200,314.400 1.380,314.400 1.600 C 314.400 1.820,314.132 2.000,313.805 2.000 C 312.624 2.000,310.439 4.069,290.896 23.696 C 288.752 25.850,274.933 39.665,273.639 40.949 C 272.945 41.637,269.235 45.350,265.393 49.200 C 256.881 57.731,257.731 56.881,249.200 65.393 C 245.350 69.235,241.660 72.930,241.000 73.606 C 240.340 74.281,238.401 76.176,236.690 77.817 L 233.580 80.800 143.190 80.800 L 52.800 80.800 52.800 50.800 C 52.800 31.067,52.663 20.800,52.400 20.800 C 52.180 20.800,52.000 20.506,52.000 20.147 C 52.000 19.247,49.996 17.601,48.900 17.600 C 48.405 17.600,48.000 17.420,48.000 17.200 C 48.000 16.961,46.467 16.800,44.200 16.800 C 41.933 16.800,40.400 16.961,40.400 17.200 C 40.400 17.422,39.333 17.600,38.000 17.600 C 36.667 17.600,35.600 17.778,35.600 18.000 C 35.600 18.220,34.981 18.400,34.224 18.400 C 33.467 18.400,32.736 18.580,32.600 18.800 C 32.464 19.020,31.823 19.200,31.176 19.200 C 30.529 19.200,30.000 19.380,30.000 19.600 C 30.000 19.820,29.651 20.000,29.224 20.000 C 28.797 20.000,28.336 20.180,28.200 20.400 C 28.064 20.620,27.603 20.800,27.176 20.800 C 26.749 20.800,26.400 20.980,26.400 21.200 C 26.400 21.420,26.040 21.600,25.600 21.600 C 25.160 21.600,24.800 21.780,24.800 22.000 C 24.800 22.220,24.480 22.400,24.088 22.400 C 23.697 22.400,23.117 22.760,22.800 23.200 C 22.483 23.640,21.903 24.000,21.512 24.000 C 21.120 24.000,20.800 24.180,20.800 24.400 C 20.800 24.620,20.522 24.800,20.183 24.800 C 19.844 24.800,19.349 24.983,19.083 25.207 C 17.253 26.751,16.639 27.200,16.360 27.200 C 15.742 27.200,9.276 34.052,8.793 35.218 C 8.523 35.868,8.145 36.400,7.951 36.400 C 7.758 36.400,7.600 36.636,7.600 36.925 C 7.600 37.213,7.240 37.836,6.800 38.308 C 6.360 38.780,6.000 39.444,6.000 39.783 C 6.000 40.122,5.820 40.400,5.600 40.400 C 5.380 40.400,5.200 40.760,5.200 41.200 C 5.200 41.640,5.020 42.000,4.800 42.000 C 4.580 42.000,4.400 42.270,4.400 42.600 C 4.400 42.930,4.220 43.200,4.000 43.200 C 3.780 43.200,3.600 43.560,3.600 44.000 C 3.600 44.440,3.420 44.800,3.200 44.800 C 2.980 44.800,2.800 45.160,2.800 45.600 C 2.800 46.040,2.620 46.400,2.400 46.400 C 2.180 46.400,2.000 46.940,2.000 47.600 C 2.000 48.260,1.820 48.800,1.600 48.800 C 1.380 48.800,1.200 49.304,1.200 49.920 C 1.200 50.536,0.975 51.265,0.700 51.540 C -0.036 52.276,-0.036 322.855,0.700 323.100 C 0.975 323.192,1.200 323.702,1.200 324.233 C 1.200 324.765,1.380 325.200,1.600 325.200 C 1.820 325.200,2.000 325.740,2.000 326.400 C 2.000 327.060,2.180 327.600,2.400 327.600 C 2.620 327.600,2.800 328.140,2.800 328.800 C 2.800 329.460,2.980 330.000,3.200 330.000 C 3.420 330.000,3.600 330.278,3.600 330.617 C 3.600 330.956,3.960 331.620,4.400 332.092 C 4.840 332.564,5.200 333.187,5.200 333.475 C 5.200 333.764,5.380 334.000,5.600 334.000 C 5.820 334.000,6.000 334.360,6.000 334.800 C 6.000 335.240,6.180 335.600,6.400 335.600 C 6.620 335.600,6.800 335.832,6.800 336.114 C 6.800 336.397,7.515 337.432,8.389 338.414 C 9.262 339.397,9.982 340.326,9.989 340.480 C 10.006 340.908,15.510 346.400,15.921 346.400 C 16.119 346.400,16.846 346.940,17.537 347.600 C 18.228 348.260,18.982 348.800,19.213 348.800 C 19.444 348.800,20.020 349.160,20.492 349.600 C 20.964 350.040,21.587 350.400,21.875 350.400 C 22.164 350.400,22.400 350.580,22.400 350.800 C 22.400 351.020,22.760 351.200,23.200 351.200 C 23.640 351.200,24.000 351.380,24.000 351.600 C 24.000 351.820,24.360 352.000,24.800 352.000 C 25.240 352.000,25.600 352.180,25.600 352.400 C 25.600 352.620,25.872 352.800,26.205 352.800 C 26.538 352.800,27.168 352.980,27.605 353.200 C 28.042 353.420,28.758 353.780,29.195 354.000 C 29.632 354.220,30.532 354.400,31.195 354.400 C 31.858 354.400,32.400 354.580,32.400 354.800 C 32.400 355.020,33.120 355.200,34.000 355.200 C 34.880 355.200,35.600 355.368,35.600 355.573 C 35.600 356.353,45.870 356.465,132.100 356.632 C 180.885 356.726,220.800 356.864,220.800 356.939 C 220.800 357.013,213.600 364.282,204.800 373.091 C 196.000 381.900,188.800 389.398,188.800 389.754 C 188.800 390.109,188.620 390.400,188.400 390.400 C 188.169 390.400,188.000 391.667,188.000 393.400 C 188.000 395.133,188.169 396.400,188.400 396.400 C 188.620 396.400,188.800 396.678,188.800 397.018 C 188.800 397.358,189.287 398.123,189.882 398.718 L 190.964 399.800 294.228 399.800 L 397.492 399.800 398.746 398.458 L 400.000 397.115 400.000 293.918 C 400.000 181.750,400.121 188.000,397.954 188.000 C 397.539 188.000,397.200 187.820,397.200 187.600 C 397.200 187.369,395.933 187.200,394.200 187.200 C 392.467 187.200,391.200 187.369,391.200 187.600 C 391.200 187.820,390.921 188.000,390.579 188.000 C 390.237 188.000,386.246 191.690,381.708 196.200 C 377.171 200.710,373.400 204.400,373.329 204.400 C 373.258 204.400,373.200 177.490,373.200 144.600 C 373.200 105.000,373.065 84.800,372.800 84.800 C 372.580 84.800,372.400 84.522,372.400 84.182 C 372.400 83.382,370.618 81.600,369.818 81.600 C 369.478 81.600,369.200 81.420,369.200 81.200 C 369.200 80.938,361.400 80.800,346.600 80.800 C 334.170 80.800,324.000 80.702,324.000 80.583 C 324.000 80.252,324.798 79.350,327.104 77.075 C 328.917 75.287,337.120 67.095,343.452 60.751 C 344.523 59.677,347.753 56.496,350.628 53.682 C 353.503 50.868,356.293 47.763,356.828 46.783 C 357.363 45.802,357.950 44.890,358.133 44.756 C 358.316 44.622,358.566 43.402,358.689 42.045 C 358.812 40.688,359.068 39.482,359.257 39.365 C 359.705 39.088,359.705 34.000,359.257 34.000 C 359.068 34.000,358.802 32.929,358.665 31.619 C 358.490 29.940,358.034 28.618,357.120 27.132 C 355.686 24.801,335.274 4.148,333.500 3.232 C 332.895 2.920,332.400 2.515,332.400 2.332 C 332.400 2.150,332.040 2.000,331.600 2.000 C 331.160 2.000,330.800 1.820,330.800 1.600 C 330.800 1.380,330.275 1.200,329.633 1.200 C 328.992 1.200,328.407 1.041,328.333 0.846 C 328.175 0.424,321.880 0.045,318.900 0.278 M326.022 13.930 C 328.396 15.438,344.976 32.520,345.847 34.355 C 347.558 37.959,345.176 41.438,333.812 51.933 C 333.569 52.157,307.200 26.273,307.200 25.810 C 307.200 25.491,318.866 14.213,319.903 13.529 C 321.553 12.441,323.922 12.596,326.022 13.930 M40.400 119.800 C 40.591 205.207,40.631 209.046,41.328 210.072 C 43.618 213.447,48.641 213.260,51.047 209.710 C 51.773 208.639,51.807 206.556,52.000 151.000 L 52.200 93.400 137.100 93.299 C 205.057 93.218,222.000 93.298,222.000 93.701 C 222.000 93.977,214.708 101.493,205.796 110.402 C 188.239 127.953,187.829 128.458,188.789 131.368 C 189.423 133.289,191.319 135.111,193.016 135.429 C 196.550 136.092,194.052 138.370,238.301 94.141 L 279.328 53.132 292.664 66.464 C 299.999 73.796,306.000 79.977,306.000 80.198 C 306.000 80.420,278.730 107.870,245.401 141.199 L 184.802 201.797 171.401 188.401 C 164.030 181.033,158.000 174.879,158.000 174.726 C 158.000 174.572,163.319 169.126,169.821 162.623 C 183.602 148.838,183.976 148.276,181.814 144.587 C 180.248 141.916,176.986 140.842,174.480 142.174 C 173.886 142.489,166.881 149.284,158.913 157.274 L 144.426 171.800 142.989 176.000 C 142.198 178.310,141.394 180.560,141.202 181.000 C 141.010 181.440,140.469 182.970,140.000 184.400 C 139.531 185.830,138.992 187.360,138.802 187.800 C 138.430 188.661,136.801 193.236,135.596 196.800 C 135.187 198.010,134.110 201.070,133.204 203.600 C 132.298 206.130,130.773 210.450,129.816 213.200 C 125.761 224.851,124.650 227.816,124.237 228.094 C 123.997 228.256,119.390 228.394,114.000 228.403 C 105.160 228.416,104.032 228.494,102.483 229.197 C 98.275 231.107,98.407 237.387,102.692 239.153 C 103.513 239.491,125.319 239.582,186.874 239.505 L 269.948 239.400 271.165 238.234 C 274.030 235.489,273.590 230.999,270.269 229.097 C 269.591 228.710,256.488 228.556,210.800 228.400 C 178.570 228.290,152.200 228.052,152.200 227.871 C 152.200 227.690,153.730 227.007,155.600 226.354 C 159.319 225.056,164.372 223.280,174.200 219.818 C 177.720 218.578,181.410 217.293,182.400 216.962 C 184.461 216.272,185.324 215.931,186.974 215.154 C 187.620 214.849,215.490 187.284,248.907 153.897 L 309.666 93.194 335.133 93.297 L 360.600 93.400 360.701 156.140 L 360.802 218.881 318.762 260.991 C 295.639 284.151,276.380 303.618,275.963 304.250 C 273.657 307.748,276.516 312.374,280.993 312.391 L 283.387 312.400 335.377 260.500 C 363.971 231.955,387.499 208.425,387.662 208.211 C 388.334 207.326,388.403 210.098,388.304 234.200 L 388.200 259.400 381.929 259.600 C 373.898 259.856,371.903 261.039,371.938 265.526 C 371.973 270.030,373.559 270.942,381.800 271.200 L 388.200 271.400 388.200 280.200 L 388.200 289.000 381.800 289.200 C 373.580 289.457,371.973 290.375,371.938 294.833 C 371.903 299.415,374.374 300.800,382.587 300.800 L 388.400 300.800 388.400 309.386 C 388.400 319.685,389.093 318.800,381.026 318.800 L 375.200 318.800 373.600 320.400 C 372.432 321.568,371.988 322.351,371.956 323.300 C 371.769 328.790,373.551 329.997,381.860 330.006 C 389.092 330.014,388.436 329.076,388.308 339.229 L 388.200 347.800 381.800 348.002 C 373.566 348.261,372.000 349.181,372.000 353.761 C 372.000 358.315,373.743 359.336,381.970 359.600 L 388.200 359.800 388.305 373.700 L 388.410 387.600 298.605 387.600 C 249.212 387.600,208.800 387.465,208.800 387.301 C 208.800 387.137,222.341 373.460,238.892 356.908 L 268.984 326.814 268.992 324.162 C 269.003 320.561,267.231 318.792,263.633 318.813 C 260.805 318.829,261.926 317.896,247.771 332.008 L 235.743 344.000 139.761 344.000 C 75.502 344.000,42.659 343.862,40.390 343.582 C 18.758 340.917,5.535 317.793,14.783 298.800 C 18.944 290.255,24.721 284.884,34.200 280.750 C 36.108 279.917,41.609 278.809,44.000 278.776 C 47.403 278.728,49.087 278.077,50.579 276.234 L 51.800 274.726 51.800 251.600 L 51.800 228.474 50.571 226.956 C 47.844 223.586,42.827 224.006,41.049 227.753 C 40.479 228.955,40.400 231.405,40.400 247.938 L 40.400 266.755 39.511 267.377 C 39.022 267.720,38.188 268.000,37.657 268.000 C 32.016 268.000,17.372 275.879,12.835 281.356 C 12.390 281.894,12.201 281.928,11.941 281.519 C 11.335 280.564,11.560 65.217,12.172 60.400 C 13.554 49.520,17.854 42.186,26.650 35.700 C 28.216 34.545,29.606 33.600,29.739 33.600 C 29.871 33.600,31.159 33.060,32.600 32.400 C 34.041 31.740,35.531 31.197,35.910 31.194 C 36.290 31.191,36.870 31.009,37.200 30.790 C 37.530 30.571,38.340 30.438,39.000 30.496 L 40.200 30.600 40.400 119.800 M311.698 47.498 C 318.904 54.701,324.800 60.833,324.800 61.123 C 324.800 61.642,315.013 71.600,314.503 71.600 C 314.360 71.600,308.247 65.618,300.919 58.307 L 287.596 45.015 292.892 39.707 C 295.805 36.788,298.280 34.400,298.392 34.400 C 298.504 34.400,304.492 40.294,311.698 47.498 M163.097 196.497 C 173.593 206.987,174.213 207.722,172.900 208.117 C 172.515 208.233,168.799 209.518,164.641 210.973 L 157.083 213.618 151.541 208.128 C 146.325 202.959,145.351 201.583,146.262 200.672 C 146.508 200.426,147.913 196.581,149.579 191.600 C 150.852 187.791,151.672 186.000,152.141 186.000 C 152.390 186.000,157.321 190.724,163.097 196.497 M349.000 282.739 C 347.855 283.440,288.476 342.567,284.100 347.363 C 280.899 350.872,281.237 354.966,284.884 356.838 C 287.169 358.011,352.214 358.027,354.406 356.855 C 357.597 355.149,357.400 357.588,357.400 319.800 C 357.400 286.850,357.384 286.173,356.595 284.830 C 355.043 282.188,351.492 281.211,349.000 282.739 M344.800 324.600 L 344.800 344.800 324.600 344.800 C 313.490 344.800,304.400 344.714,304.400 344.608 C 304.400 344.309,344.161 304.477,344.500 304.436 C 344.665 304.416,344.800 313.490,344.800 324.600 " stroke="none" fill="#060605" fill-rule="evenodd"></path><path id="path1" d="M239.176 93.809 C 217.299 115.704,198.789 134.093,198.042 134.673 C 196.179 136.122,193.327 136.390,191.467 135.292 L 190.100 134.486 185.785 138.815 C 181.594 143.019,181.488 143.169,182.072 144.071 C 184.619 148.004,184.132 148.777,170.463 162.484 C 163.944 169.022,158.558 174.525,158.496 174.713 C 158.365 175.106,184.205 200.800,184.731 200.800 C 185.263 200.800,305.200 80.727,305.200 80.194 C 305.200 79.565,280.058 54.000,279.439 54.000 C 279.171 54.000,261.052 71.914,239.176 93.809 M165.782 201.138 C 165.572 201.326,163.150 202.236,160.400 203.160 C 155.387 204.844,154.930 205.011,152.476 206.053 L 151.151 206.615 154.207 209.691 C 157.217 212.720,159.299 213.537,159.933 211.937 C 160.007 211.751,160.472 211.600,160.967 211.600 C 161.462 211.600,161.990 211.477,162.141 211.326 C 162.539 210.927,165.282 210.013,166.100 210.006 C 166.485 210.003,166.800 209.820,166.800 209.600 C 166.800 209.380,167.239 209.200,167.776 209.200 C 168.313 209.200,168.864 209.020,169.000 208.800 C 169.136 208.580,169.687 208.400,170.224 208.400 C 170.761 208.400,171.200 208.220,171.200 208.000 C 171.200 207.780,171.655 207.600,172.211 207.600 C 173.176 207.600,173.143 207.524,171.475 205.900 C 166.887 201.434,166.145 200.813,165.782 201.138 M336.800 259.837 C 308.750 287.901,285.129 311.298,284.308 311.831 C 282.500 313.005,279.316 313.157,277.768 312.142 C 276.426 311.263,275.900 311.604,271.452 316.242 L 267.904 319.942 268.752 321.133 C 269.903 322.749,269.899 325.636,268.743 327.338 C 268.272 328.032,254.728 341.785,238.644 357.900 L 209.402 387.200 298.701 387.200 L 388.000 387.200 388.000 373.800 L 388.000 360.400 383.128 360.400 C 376.965 360.400,374.253 359.640,372.717 357.484 C 370.931 354.975,371.101 351.721,373.128 349.626 C 374.949 347.744,375.578 347.600,381.974 347.600 L 388.000 347.600 388.000 339.200 L 388.000 330.800 382.300 330.781 C 374.339 330.754,371.508 329.086,371.508 324.422 C 371.508 319.590,374.187 318.000,382.326 318.000 L 388.000 318.000 388.000 309.600 L 388.000 301.200 381.878 301.200 C 373.376 301.200,371.209 299.584,371.540 293.489 C 371.579 292.757,372.210 291.769,373.389 290.589 L 375.179 288.800 381.589 288.800 L 388.000 288.800 388.000 280.400 L 388.000 272.000 382.900 271.994 C 374.653 271.984,371.575 270.248,371.539 265.587 C 371.501 260.732,374.009 259.200,381.994 259.200 L 388.000 259.200 388.000 234.000 C 388.000 220.140,387.955 208.802,387.900 208.806 C 387.845 208.809,364.850 231.773,336.800 259.837 M353.156 281.851 C 354.609 282.142,357.200 284.354,357.200 285.305 C 357.200 285.661,357.380 286.064,357.600 286.200 C 357.861 286.362,358.000 297.872,358.000 319.428 C 358.000 356.851,358.171 354.872,354.749 357.032 L 353.216 358.000 319.669 358.000 C 280.778 358.000,283.386 358.326,281.662 353.243 C 280.566 350.012,279.298 351.439,315.167 315.534 C 350.920 279.745,349.393 281.099,353.156 281.851 " stroke="none" fill="#fac51b" fill-rule="evenodd"></path><path id="path2" d="M52.400 151.013 C 52.400 198.857,52.310 208.240,51.842 209.360 C 51.159 210.995,48.883 212.800,47.505 212.800 C 46.125 212.800,46.000 213.309,46.000 218.935 L 46.000 223.805 47.700 224.335 C 52.522 225.838,52.460 225.457,52.318 252.631 L 52.200 275.063 51.103 276.501 C 49.577 278.500,47.966 279.200,44.885 279.200 C 43.459 279.200,41.552 279.394,40.646 279.632 C 39.741 279.869,38.280 280.250,37.400 280.479 C 25.882 283.467,15.917 293.503,13.249 304.800 C 12.360 308.567,12.010 312.239,12.407 313.626 C 12.623 314.379,12.800 315.840,12.800 316.874 C 12.800 317.907,12.980 318.864,13.200 319.000 C 13.420 319.136,13.600 319.657,13.600 320.157 C 13.600 320.657,13.722 321.189,13.871 321.338 C 14.021 321.487,14.426 322.377,14.771 323.316 C 16.571 328.200,19.843 332.665,24.314 336.336 C 26.670 338.270,31.254 340.741,34.000 341.557 C 34.990 341.851,36.160 342.242,36.600 342.426 C 38.502 343.223,46.629 343.305,138.588 343.452 L 235.377 343.606 247.788 331.226 C 261.961 317.090,262.521 316.720,266.612 318.806 L 268.193 319.612 272.276 315.506 L 276.359 311.400 275.579 310.077 C 274.663 308.522,274.557 305.759,275.355 304.221 C 275.661 303.632,294.831 284.184,317.955 261.003 L 360.000 218.855 360.000 156.428 L 360.000 94.000 334.898 94.000 L 309.796 94.000 249.347 154.359 C 216.100 187.556,188.471 214.986,187.949 215.316 C 187.427 215.645,185.920 216.286,184.600 216.741 C 183.280 217.196,180.130 218.305,177.600 219.205 C 175.070 220.105,171.650 221.290,170.000 221.837 C 168.350 222.385,166.640 222.994,166.200 223.190 C 165.760 223.387,164.680 223.776,163.800 224.055 C 162.920 224.335,162.029 224.707,161.820 224.882 C 161.611 225.057,161.037 225.200,160.544 225.200 C 160.051 225.200,159.536 225.380,159.400 225.600 C 159.264 225.820,158.801 226.000,158.371 226.000 C 157.941 226.000,157.277 226.159,156.895 226.353 C 156.050 226.783,154.416 227.470,153.600 227.739 C 153.270 227.848,179.190 227.952,211.200 227.970 C 268.540 228.003,269.419 228.015,270.704 228.798 C 274.180 230.917,274.698 235.323,271.811 238.211 L 270.021 240.000 186.302 240.000 L 102.582 240.000 101.121 238.795 C 97.808 236.064,98.182 230.988,101.856 228.820 C 103.159 228.051,103.883 228.000,113.523 227.997 L 123.800 227.994 124.300 226.917 C 124.575 226.325,124.800 225.604,124.800 225.315 C 124.800 225.026,124.980 224.432,125.200 223.995 C 125.420 223.558,125.780 222.842,126.000 222.405 C 126.220 221.968,126.400 221.259,126.400 220.829 C 126.400 220.399,126.580 219.936,126.800 219.800 C 127.020 219.664,127.200 219.201,127.200 218.771 C 127.200 218.341,127.370 217.677,127.577 217.295 C 127.785 216.913,128.787 214.080,129.803 211.000 C 130.820 207.920,131.808 205.040,131.999 204.600 C 132.191 204.160,132.576 203.080,132.855 202.200 C 133.135 201.320,133.507 200.429,133.682 200.220 C 133.857 200.011,134.000 199.514,134.000 199.115 C 134.000 198.716,134.208 197.987,134.462 197.495 C 135.456 195.574,135.600 195.184,135.600 194.429 C 135.600 193.999,135.780 193.536,136.000 193.400 C 136.220 193.264,136.400 192.713,136.400 192.176 C 136.400 191.639,136.580 191.200,136.800 191.200 C 137.020 191.200,137.200 190.761,137.200 190.224 C 137.200 189.687,137.380 189.136,137.600 189.000 C 137.820 188.864,138.000 188.401,138.000 187.971 C 138.000 187.541,138.180 186.832,138.400 186.395 C 138.620 185.958,138.980 185.242,139.200 184.805 C 139.420 184.368,139.600 183.736,139.600 183.400 C 139.600 183.064,139.808 182.387,140.062 181.895 C 141.056 179.974,141.200 179.584,141.200 178.829 C 141.200 178.399,141.380 177.936,141.600 177.800 C 141.820 177.664,142.000 177.113,142.000 176.576 C 142.000 176.039,142.180 175.600,142.400 175.600 C 142.620 175.600,142.800 175.238,142.800 174.795 C 142.800 174.352,142.959 173.677,143.153 173.295 C 143.348 172.913,143.725 172.129,143.992 171.554 C 144.430 170.610,171.330 143.581,173.505 141.899 C 174.866 140.847,178.907 140.937,180.476 142.054 L 181.676 142.909 185.638 138.962 C 189.943 134.673,189.947 134.666,188.800 133.200 C 187.682 131.771,187.712 128.348,188.857 126.662 C 189.328 125.968,196.752 118.335,205.355 109.700 L 220.996 94.000 136.698 94.000 L 52.400 94.000 52.400 151.013 M151.689 187.900 C 150.153 192.036,149.596 193.592,149.147 195.000 C 148.866 195.880,148.493 196.771,148.318 196.980 C 148.143 197.189,148.000 197.686,148.000 198.085 C 148.000 198.484,147.820 199.168,147.600 199.605 C 147.380 200.042,147.024 200.752,146.808 201.182 C 146.480 201.836,146.771 202.324,148.599 204.182 C 151.203 206.828,150.760 206.755,154.600 205.170 C 155.040 204.989,157.650 204.083,160.400 203.157 C 163.150 202.231,165.624 201.301,165.897 201.090 C 166.314 200.769,152.978 186.800,152.255 186.800 C 152.168 186.800,151.913 187.295,151.689 187.900 " stroke="none" fill="#e1e1e2" fill-rule="evenodd"></path><path id="path3" d="M319.903 13.529 C 318.866 14.213,307.200 25.491,307.200 25.810 C 307.200 26.273,333.569 52.157,333.812 51.933 C 338.115 47.959,345.298 40.402,345.822 39.298 C 347.510 35.741,346.829 34.624,336.480 23.985 C 325.453 12.647,323.300 11.289,319.903 13.529 M37.200 30.790 C 36.870 31.009,36.290 31.191,35.910 31.194 C 35.531 31.197,34.041 31.740,32.600 32.400 C 31.159 33.060,29.871 33.600,29.739 33.600 C 29.606 33.600,28.216 34.545,26.650 35.700 C 17.854 42.186,13.554 49.520,12.172 60.400 C 11.560 65.217,11.335 280.564,11.941 281.519 C 12.201 281.928,12.390 281.894,12.835 281.356 C 17.372 275.879,32.016 268.000,37.657 268.000 C 38.188 268.000,39.022 267.720,39.511 267.377 L 40.400 266.755 40.400 247.938 C 40.400 231.405,40.479 228.955,41.049 227.753 C 42.827 224.006,47.844 223.586,50.571 226.956 L 51.800 228.474 51.800 251.600 L 51.800 274.726 50.579 276.234 C 49.087 278.077,47.403 278.728,44.000 278.776 C 41.609 278.809,36.108 279.917,34.200 280.750 C 4.182 293.843,4.431 332.098,34.600 342.349 C 39.406 343.982,40.544 344.000,139.761 344.000 L 235.743 344.000 247.771 332.008 C 254.387 325.412,260.160 319.748,260.600 319.421 C 261.834 318.503,265.426 318.622,266.838 319.627 C 267.477 320.082,268.000 320.272,268.000 320.050 C 268.000 319.428,266.375 318.432,264.914 318.157 C 261.552 317.527,261.516 317.554,247.983 331.036 L 235.366 343.606 138.583 343.452 C 46.629 343.305,38.502 343.223,36.600 342.426 C 36.160 342.242,34.990 341.851,34.000 341.557 C 27.237 339.548,20.167 333.767,16.704 327.414 C 15.987 326.098,15.117 324.254,14.771 323.316 C 14.426 322.377,14.021 321.487,13.871 321.338 C 13.722 321.189,13.600 320.657,13.600 320.157 C 13.600 319.657,13.420 319.136,13.200 319.000 C 12.980 318.864,12.800 317.907,12.800 316.874 C 12.800 315.840,12.623 314.379,12.407 313.626 C 12.010 312.239,12.360 308.567,13.249 304.800 C 15.917 293.503,25.882 283.467,37.400 280.479 C 38.280 280.250,39.741 279.869,40.646 279.632 C 41.552 279.394,43.459 279.200,44.885 279.200 C 47.966 279.200,49.577 278.500,51.103 276.501 L 52.200 275.063 52.318 252.631 C 52.460 225.457,52.522 225.838,47.700 224.335 L 46.000 223.805 46.000 218.935 C 46.000 213.309,46.125 212.800,47.505 212.800 C 48.883 212.800,51.159 210.995,51.842 209.360 C 52.310 208.240,52.400 198.857,52.400 151.013 L 52.400 94.000 136.698 94.000 L 220.996 94.000 205.355 109.700 C 196.752 118.335,189.328 125.968,188.857 126.662 C 187.645 128.446,187.681 131.573,188.935 133.419 C 190.274 135.389,190.515 134.695,189.304 132.361 C 187.420 128.729,187.047 129.225,205.634 110.594 C 214.635 101.570,222.000 93.965,222.000 93.693 C 222.000 93.301,204.307 93.219,137.100 93.299 L 52.200 93.400 52.000 151.000 C 51.807 206.556,51.773 208.639,51.047 209.710 C 48.641 213.260,43.618 213.447,41.328 210.072 C 40.631 209.046,40.591 205.207,40.400 119.800 L 40.200 30.600 39.000 30.496 C 38.340 30.438,37.530 30.571,37.200 30.790 M248.907 153.897 C 215.490 187.284,187.620 214.849,186.974 215.154 C 185.324 215.931,184.461 216.272,182.400 216.962 C 181.410 217.293,177.720 218.578,174.200 219.818 C 164.578 223.207,159.359 225.041,155.681 226.327 C 153.855 226.965,152.325 227.647,152.281 227.843 C 152.234 228.050,176.797 228.284,210.800 228.400 C 256.488 228.556,269.591 228.710,270.269 229.097 C 273.590 230.999,274.030 235.489,271.165 238.234 L 269.948 239.400 186.874 239.505 C 125.319 239.582,103.513 239.491,102.692 239.153 C 98.407 237.387,98.275 231.107,102.483 229.197 C 104.032 228.494,105.160 228.416,114.000 228.403 C 119.390 228.394,123.997 228.256,124.237 228.094 C 124.650 227.816,125.761 224.851,129.816 213.200 C 130.773 210.450,132.298 206.130,133.204 203.600 C 134.110 201.070,135.187 198.010,135.596 196.800 C 136.801 193.236,138.430 188.661,138.802 187.800 C 138.992 187.360,139.531 185.830,140.000 184.400 C 140.469 182.970,141.010 181.440,141.202 181.000 C 141.394 180.560,142.198 178.310,142.989 176.000 L 144.426 171.800 158.913 157.274 C 175.927 140.214,175.798 140.306,179.749 142.424 C 181.632 143.433,182.079 143.195,180.461 142.044 C 178.906 140.937,174.858 140.853,173.505 141.899 C 171.330 143.581,144.430 170.610,143.992 171.554 C 143.725 172.129,143.348 172.913,143.153 173.295 C 142.959 173.677,142.800 174.352,142.800 174.795 C 142.800 175.238,142.620 175.600,142.400 175.600 C 142.180 175.600,142.000 176.039,142.000 176.576 C 142.000 177.113,141.820 177.664,141.600 177.800 C 141.380 177.936,141.200 178.399,141.200 178.829 C 141.200 179.259,141.020 179.968,140.800 180.405 C 140.580 180.842,140.220 181.558,140.000 181.995 C 139.780 182.432,139.600 183.064,139.600 183.400 C 139.600 183.736,139.420 184.368,139.200 184.805 C 138.980 185.242,138.620 185.958,138.400 186.395 C 138.180 186.832,138.000 187.541,138.000 187.971 C 138.000 188.401,137.820 188.864,137.600 189.000 C 137.380 189.136,137.200 189.687,137.200 190.224 C 137.200 190.761,137.020 191.200,136.800 191.200 C 136.580 191.200,136.400 191.639,136.400 192.176 C 136.400 192.713,136.220 193.264,136.000 193.400 C 135.780 193.536,135.600 193.999,135.600 194.429 C 135.600 195.184,135.456 195.574,134.462 197.495 C 134.208 197.987,134.000 198.716,134.000 199.115 C 134.000 199.514,133.857 200.011,133.682 200.220 C 133.507 200.429,133.135 201.320,132.855 202.200 C 132.576 203.080,132.191 204.160,131.999 204.600 C 131.808 205.040,130.820 207.920,129.803 211.000 C 128.787 214.080,127.785 216.913,127.577 217.295 C 127.370 217.677,127.200 218.341,127.200 218.771 C 127.200 219.201,127.020 219.664,126.800 219.800 C 126.580 219.936,126.400 220.399,126.400 220.829 C 126.400 221.584,126.256 221.974,125.262 223.895 C 125.008 224.387,124.800 225.026,124.800 225.315 C 124.800 225.604,124.575 226.325,124.300 226.917 L 123.800 227.994 113.523 227.997 C 103.883 228.000,103.159 228.051,101.856 228.820 C 98.182 230.988,97.808 236.064,101.121 238.795 L 102.582 240.000 186.302 240.000 L 270.021 240.000 271.811 238.211 C 274.698 235.323,274.180 230.917,270.704 228.798 C 269.419 228.015,268.540 228.003,211.200 227.970 C 179.190 227.952,153.270 227.848,153.600 227.739 C 154.416 227.470,156.050 226.783,156.895 226.353 C 157.277 226.159,157.941 226.000,158.371 226.000 C 158.801 226.000,159.264 225.820,159.400 225.600 C 159.536 225.380,160.051 225.200,160.544 225.200 C 161.037 225.200,161.611 225.057,161.820 224.882 C 162.029 224.707,162.920 224.335,163.800 224.055 C 164.680 223.776,165.760 223.387,166.200 223.190 C 166.640 222.994,168.350 222.385,170.000 221.837 C 171.650 221.290,175.070 220.105,177.600 219.205 C 180.130 218.305,183.280 217.196,184.600 216.741 C 185.920 216.286,187.427 215.645,187.949 215.316 C 188.471 214.986,216.100 187.556,249.347 154.359 L 309.796 94.000 334.898 94.000 L 360.000 94.000 360.000 156.428 L 360.000 218.855 317.955 261.003 C 274.163 304.902,274.800 304.223,274.800 307.023 C 274.800 308.685,276.381 312.256,276.698 311.307 C 276.775 311.074,276.471 310.280,276.021 309.542 C 273.677 305.697,270.307 309.526,318.762 260.991 L 360.802 218.881 360.701 156.140 L 360.600 93.400 335.133 93.297 L 309.666 93.194 248.907 153.897 M151.001 187.700 C 150.623 188.635,149.983 190.390,149.579 191.600 C 147.913 196.581,146.508 200.426,146.262 200.672 C 145.351 201.583,146.325 202.959,151.541 208.128 L 157.083 213.618 164.641 210.973 C 168.799 209.518,172.515 208.233,172.900 208.117 C 174.213 207.722,173.593 206.987,163.097 196.497 C 151.587 184.993,151.978 185.278,151.001 187.700 M162.808 197.200 C 171.243 205.677,172.976 207.600,172.178 207.600 C 171.640 207.600,171.200 207.780,171.200 208.000 C 171.200 208.220,170.761 208.400,170.224 208.400 C 169.687 208.400,169.136 208.580,169.000 208.800 C 168.864 209.020,168.313 209.200,167.776 209.200 C 167.239 209.200,166.800 209.380,166.800 209.600 C 166.800 209.820,166.485 210.003,166.100 210.006 C 165.282 210.013,162.539 210.927,162.141 211.326 C 161.990 211.477,161.462 211.600,160.967 211.600 C 160.472 211.600,160.007 211.751,159.933 211.937 C 159.860 212.122,159.237 212.383,158.549 212.517 C 156.817 212.854,146.123 202.542,146.802 201.191 C 147.021 200.756,147.380 200.042,147.600 199.605 C 147.820 199.168,148.000 198.484,148.000 198.085 C 148.000 197.686,148.143 197.189,148.318 196.980 C 148.493 196.771,148.866 195.880,149.147 195.000 C 149.596 193.592,150.153 192.036,151.689 187.900 C 152.240 186.416,151.268 185.604,162.808 197.200 " stroke="none" fill="#939393" fill-rule="evenodd"></path><path id="path4" d="M292.892 39.707 L 287.596 45.015 300.919 58.307 C 308.247 65.618,314.360 71.600,314.503 71.600 C 315.013 71.600,324.800 61.642,324.800 61.123 C 324.800 60.643,298.866 34.400,298.392 34.400 C 298.280 34.400,295.805 36.788,292.892 39.707 M278.399 54.102 C 277.849 54.596,277.137 55.360,276.817 55.800 C 276.497 56.240,276.866 56.015,277.636 55.300 C 278.407 54.585,279.238 54.000,279.482 54.000 C 280.072 54.000,305.200 79.593,305.200 80.194 C 305.200 80.727,185.263 200.800,184.731 200.800 C 183.730 200.800,158.398 175.031,158.614 174.232 C 158.825 173.449,158.811 173.444,158.371 174.151 C 157.954 174.820,159.370 176.368,171.352 188.350 L 184.800 201.799 245.400 141.200 C 278.730 107.870,306.000 80.420,306.000 80.198 C 306.000 79.977,300.015 73.812,292.700 66.499 L 279.399 53.203 278.399 54.102 M266.733 65.718 C 263.580 68.863,260.742 71.788,260.426 72.218 C 260.111 72.648,262.766 70.122,266.326 66.605 C 269.887 63.087,272.800 60.162,272.800 60.105 C 272.800 59.735,271.867 60.598,266.733 65.718 M249.931 82.518 C 246.559 85.882,243.542 88.987,243.226 89.418 C 242.911 89.848,245.746 87.142,249.526 83.404 C 253.307 79.667,256.400 76.562,256.400 76.504 C 256.400 76.131,255.416 77.045,249.931 82.518 M233.531 98.918 C 230.159 102.282,227.142 105.387,226.826 105.818 C 226.511 106.248,229.346 103.542,233.126 99.804 C 236.907 96.067,240.000 92.962,240.000 92.904 C 240.000 92.531,239.016 93.445,233.531 98.918 M216.733 115.718 C 213.580 118.863,210.742 121.788,210.426 122.218 C 210.111 122.648,212.766 120.122,216.326 116.605 C 219.887 113.087,222.800 110.162,222.800 110.105 C 222.800 109.735,221.867 110.598,216.733 115.718 M201.764 130.647 C 196.422 135.845,194.822 136.545,191.840 134.990 C 191.203 134.658,190.601 134.466,190.503 134.563 C 189.593 135.473,194.675 136.332,196.613 135.595 C 197.580 135.228,206.918 126.431,206.364 126.409 C 206.234 126.404,204.164 128.311,201.764 130.647 M181.209 143.290 C 181.204 143.450,181.559 144.170,181.999 144.890 C 182.438 145.611,182.794 145.930,182.790 145.600 C 182.782 145.006,181.226 142.732,181.209 143.290 M182.268 149.273 C 182.120 149.860,180.965 151.403,179.700 152.702 C 176.397 156.095,175.808 157.019,178.745 154.200 C 181.442 151.611,182.965 149.495,182.701 148.702 C 182.610 148.429,182.415 148.686,182.268 149.273 M166.733 165.718 C 163.580 168.863,160.742 171.788,160.426 172.218 C 160.111 172.648,162.766 170.122,166.326 166.605 C 169.887 163.087,172.800 160.162,172.800 160.105 C 172.800 159.735,171.867 160.598,166.733 165.718 M387.909 233.620 L 388.017 259.200 382.003 259.200 C 373.504 259.200,371.353 260.744,371.556 266.700 C 371.606 268.168,374.275 271.207,375.500 271.191 C 375.924 271.185,375.682 270.927,374.887 270.535 C 370.975 268.606,370.800 263.429,374.553 260.625 C 375.526 259.898,376.404 259.776,381.929 259.600 L 388.200 259.400 388.303 234.023 C 388.360 220.066,388.270 208.510,388.103 208.343 C 387.936 208.176,387.849 219.551,387.909 233.620 M335.194 260.601 L 283.387 312.400 281.080 312.400 C 279.667 312.400,278.351 312.149,277.686 311.753 L 276.600 311.105 277.600 311.944 C 278.944 313.071,282.269 313.111,284.060 312.022 C 285.096 311.392,387.600 209.319,387.600 208.918 C 387.600 208.300,380.420 215.381,335.194 260.601 M376.800 271.593 C 377.130 271.810,379.785 271.991,382.700 271.994 L 388.000 272.000 388.000 280.400 L 388.000 288.800 381.589 288.800 L 375.179 288.800 373.389 290.589 C 372.210 291.769,371.579 292.757,371.540 293.489 C 371.209 299.584,373.376 301.200,381.878 301.200 L 388.000 301.200 388.000 309.600 L 388.000 318.000 382.326 318.000 C 374.187 318.000,371.508 319.590,371.508 324.422 C 371.508 329.086,374.339 330.754,382.300 330.781 L 388.000 330.800 388.000 339.200 L 388.000 347.600 382.019 347.600 C 376.275 347.600,374.000 347.973,374.000 348.913 C 374.000 349.125,374.297 349.051,374.661 348.749 C 375.135 348.355,377.136 348.144,381.761 348.000 L 388.200 347.800 388.308 339.229 C 388.436 329.076,389.092 330.014,381.860 330.006 C 373.551 329.997,371.769 328.790,371.956 323.300 C 371.988 322.351,372.432 321.568,373.600 320.400 L 375.200 318.800 381.026 318.800 C 389.093 318.800,388.400 319.685,388.400 309.386 L 388.400 300.800 382.587 300.800 C 374.374 300.800,371.903 299.415,371.938 294.833 C 371.973 290.375,373.580 289.457,381.800 289.200 L 388.200 289.000 388.200 280.200 L 388.200 271.400 382.200 271.300 C 378.152 271.232,376.395 271.327,376.800 271.593 M348.142 282.900 C 346.434 284.168,343.600 286.903,343.600 287.285 C 343.600 287.460,344.694 286.568,346.032 285.302 C 347.370 284.036,348.855 282.781,349.332 282.514 C 349.809 282.247,350.010 282.022,349.778 282.014 C 349.545 282.006,348.810 282.405,348.142 282.900 M357.400 319.800 C 357.400 338.348,357.532 353.316,357.694 353.062 C 358.082 352.452,358.088 286.502,357.700 286.262 C 357.535 286.160,357.400 301.252,357.400 319.800 M340.189 290.411 C 338.667 291.945,337.555 293.200,337.718 293.200 C 338.119 293.200,343.316 287.983,343.115 287.782 C 343.028 287.694,341.711 288.878,340.189 290.411 M332.023 298.596 C 329.286 301.337,327.128 303.661,327.227 303.760 C 327.326 303.859,329.729 301.613,332.569 298.770 C 335.408 295.926,337.566 293.603,337.365 293.606 C 337.164 293.610,334.761 295.855,332.023 298.596 M322.587 308.013 C 320.402 310.206,318.749 312.000,318.913 312.000 C 319.311 312.000,326.915 304.382,326.716 304.182 C 326.630 304.096,324.772 305.820,322.587 308.013 M315.212 315.388 C 313.579 317.032,312.333 318.466,312.443 318.576 C 312.553 318.686,314.069 317.341,315.812 315.588 C 317.555 313.835,318.801 312.400,318.581 312.400 C 318.360 312.400,316.844 313.745,315.212 315.388 M307.787 322.813 C 305.602 325.006,303.949 326.800,304.113 326.800 C 304.511 326.800,312.115 319.182,311.916 318.982 C 311.830 318.896,309.972 320.620,307.787 322.813 M268.993 324.205 C 268.989 325.595,269.124 326.647,269.293 326.543 C 269.689 326.298,269.695 322.106,269.300 321.862 C 269.135 321.761,268.997 322.815,268.993 324.205 M238.699 357.101 C 222.255 373.547,208.800 387.137,208.800 387.301 C 208.800 387.465,249.212 387.600,298.605 387.600 L 388.410 387.600 388.305 373.700 L 388.200 359.800 381.933 359.600 C 376.159 359.416,375.566 359.326,374.401 358.465 C 373.706 357.950,373.051 357.616,372.946 357.721 C 371.810 358.857,376.525 360.095,382.700 360.282 L 388.000 360.443 388.000 373.822 L 388.000 387.200 298.706 387.200 L 209.412 387.200 239.106 357.488 C 264.843 331.737,269.275 327.200,268.699 327.200 C 268.643 327.200,255.143 340.655,238.699 357.101 M298.431 332.199 C 295.698 334.947,293.540 337.273,293.634 337.368 C 293.729 337.462,296.129 335.213,298.969 332.370 C 301.808 329.526,303.966 327.200,303.765 327.201 C 303.564 327.202,301.164 329.451,298.431 332.199 M290.189 340.411 C 288.667 341.945,287.555 343.200,287.718 343.200 C 288.119 343.200,293.316 337.983,293.115 337.782 C 293.028 337.694,291.711 338.878,290.189 340.411 M284.469 346.222 C 283.111 347.664,282.000 349.033,282.000 349.265 C 282.000 349.497,282.855 348.733,283.900 347.567 C 284.945 346.401,286.213 345.032,286.718 344.524 C 287.223 344.016,287.479 343.600,287.287 343.600 C 287.095 343.600,285.827 344.780,284.469 346.222 M372.595 350.151 C 371.206 352.272,371.116 355.725,372.418 356.949 C 372.790 357.299,372.797 357.204,372.449 356.526 C 371.725 355.117,371.906 351.959,372.796 350.500 C 373.704 349.010,373.535 348.716,372.595 350.151 M281.444 350.967 C 281.311 351.499,281.370 352.354,281.575 352.867 C 281.888 353.648,281.953 353.490,281.975 351.900 C 282.003 349.809,281.817 349.482,281.444 350.967 M282.007 354.138 C 281.992 354.870,283.686 356.784,284.871 357.376 C 286.222 358.049,353.327 358.365,353.738 357.700 C 353.840 357.535,338.776 357.450,320.262 357.511 C 282.929 357.634,284.538 357.740,282.808 355.040 C 282.371 354.358,282.010 353.952,282.007 354.138 " stroke="none" fill="#e45b32" fill-rule="evenodd"></path></g></svg>