<svg id="svg" version="1.1" xmlns="http://www.w3.org/2000/svg" xmlns:xlink="http://www.w3.org/1999/xlink" width="400" height="400" viewBox="0, 0, 400,400"><g id="svgg"><path id="path0" d="M205.900 107.117 C 205.083 107.282,204.785 134.000,205.600 134.000 C 205.820 134.000,206.000 134.360,206.000 134.800 C 206.000 135.240,206.180 135.600,206.400 135.600 C 206.620 135.600,206.800 135.883,206.800 136.229 C 206.800 136.940,207.274 137.462,209.000 138.656 C 210.596 139.760,211.423 139.947,220.500 141.253 C 222.425 141.530,224.000 141.901,224.000 142.078 C 224.000 142.255,224.551 142.400,225.224 142.400 C 225.937 142.400,226.344 142.567,226.200 142.800 C 226.056 143.033,226.463 143.200,227.176 143.200 C 227.849 143.200,228.400 143.380,228.400 143.600 C 228.400 143.820,228.760 144.000,229.200 144.000 C 229.640 144.000,230.000 144.180,230.000 144.400 C 230.000 144.620,230.272 144.800,230.605 144.800 C 231.251 144.800,231.886 145.071,233.800 146.164 C 234.460 146.541,235.315 146.949,235.700 147.071 C 236.085 147.193,236.400 147.452,236.400 147.647 C 236.400 147.841,236.760 148.000,237.200 148.000 C 237.640 148.000,238.000 148.180,238.000 148.400 C 238.000 148.620,238.320 148.800,238.712 148.800 C 239.103 148.800,239.683 149.160,240.000 149.600 C 240.317 150.040,240.857 150.400,241.200 150.400 C 241.543 150.400,242.083 150.760,242.400 151.200 C 242.717 151.640,243.141 152.000,243.341 152.000 C 243.542 152.000,243.998 152.315,244.354 152.700 C 244.710 153.085,245.591 153.814,246.312 154.320 C 248.848 156.101,255.200 162.152,255.200 162.787 C 255.200 163.029,255.841 163.868,256.624 164.651 C 257.407 165.434,258.217 166.463,258.423 166.937 C 258.805 167.815,259.008 168.158,260.835 170.993 C 261.404 171.877,262.123 173.185,262.432 173.900 C 262.742 174.615,263.131 175.200,263.298 175.200 C 263.464 175.200,263.600 175.560,263.600 176.000 C 263.600 176.440,263.780 176.800,264.000 176.800 C 264.220 176.800,264.400 177.160,264.400 177.600 C 264.400 178.040,264.580 178.400,264.800 178.400 C 265.020 178.400,265.200 178.839,265.200 179.376 C 265.200 179.913,265.380 180.464,265.600 180.600 C 265.820 180.736,266.000 181.197,266.000 181.624 C 266.000 182.051,266.180 182.400,266.400 182.400 C 266.620 182.400,266.800 182.940,266.800 183.600 C 266.800 184.260,266.980 184.800,267.200 184.800 C 267.420 184.800,267.600 185.329,267.600 185.976 C 267.600 186.623,267.760 187.252,267.956 187.373 C 268.347 187.615,268.733 189.476,269.061 192.700 C 269.178 193.855,269.444 194.800,269.651 194.800 C 269.882 194.800,269.958 198.337,269.848 203.900 C 269.654 213.661,269.342 217.600,268.763 217.600 C 268.563 217.600,268.400 218.320,268.400 219.200 C 268.400 220.080,268.220 220.800,268.000 220.800 C 267.780 220.800,267.600 221.340,267.600 222.000 C 267.600 222.660,267.420 223.200,267.200 223.200 C 266.980 223.200,266.800 223.740,266.800 224.400 C 266.800 225.060,266.620 225.600,266.400 225.600 C 266.180 225.600,266.000 226.050,266.000 226.600 C 266.000 227.150,265.820 227.600,265.600 227.600 C 265.380 227.600,265.201 227.825,265.203 228.100 C 265.207 228.733,261.912 235.354,261.504 235.533 C 261.337 235.607,261.200 235.929,261.200 236.250 C 261.200 236.571,261.017 237.051,260.794 237.317 C 259.959 238.312,258.400 240.849,258.400 241.214 C 258.400 241.423,257.860 242.109,257.200 242.740 C 256.540 243.371,256.000 244.007,256.000 244.153 C 256.000 244.557,246.080 254.400,245.673 254.400 C 245.478 254.400,244.754 254.940,244.063 255.600 C 243.372 256.260,242.665 256.800,242.492 256.800 C 242.319 256.800,241.917 257.160,241.600 257.600 C 241.283 258.040,240.703 258.400,240.312 258.400 C 239.920 258.400,239.600 258.591,239.600 258.824 C 239.600 259.057,239.420 259.136,239.200 259.000 C 238.980 258.864,238.800 258.943,238.800 259.176 C 238.800 259.409,238.455 259.600,238.033 259.600 C 237.612 259.600,237.207 259.735,237.133 259.900 C 236.941 260.332,233.628 262.000,232.962 262.000 C 232.653 262.000,232.400 262.180,232.400 262.400 C 232.400 262.620,232.040 262.800,231.600 262.800 C 231.160 262.800,230.800 262.980,230.800 263.200 C 230.800 263.420,230.451 263.600,230.024 263.600 C 229.597 263.600,229.136 263.780,229.000 264.000 C 228.864 264.220,228.403 264.400,227.976 264.400 C 227.549 264.400,227.200 264.580,227.200 264.800 C 227.200 265.020,226.660 265.200,226.000 265.200 C 225.340 265.200,224.800 265.380,224.800 265.600 C 224.800 265.820,224.181 266.000,223.424 266.000 C 222.667 266.000,221.936 266.180,221.800 266.400 C 221.664 266.620,221.034 266.800,220.400 266.800 C 219.766 266.800,219.136 266.980,219.000 267.200 C 218.864 267.420,217.784 267.600,216.600 267.600 C 215.416 267.600,214.336 267.780,214.200 268.000 C 214.048 268.246,210.729 268.400,205.576 268.400 C 200.259 268.400,197.200 268.254,197.200 268.000 C 197.200 267.778,196.133 267.600,194.800 267.600 C 193.467 267.600,192.400 267.422,192.400 267.200 C 192.400 266.980,191.781 266.800,191.024 266.800 C 190.267 266.800,189.536 266.620,189.400 266.400 C 189.264 266.180,188.659 266.000,188.056 266.000 C 187.453 266.000,186.789 265.851,186.580 265.670 C 186.371 265.488,185.390 265.091,184.400 264.788 C 183.410 264.485,182.010 263.914,181.288 263.519 C 180.566 263.123,179.621 262.800,179.188 262.800 C 178.755 262.800,178.400 262.620,178.400 262.400 C 178.400 262.180,178.040 262.000,177.600 262.000 C 177.160 262.000,176.800 261.820,176.800 261.600 C 176.800 261.380,176.440 261.200,176.000 261.200 C 175.560 261.200,175.200 261.059,175.200 260.886 C 175.200 260.713,174.211 260.038,173.001 259.386 C 171.792 258.734,170.802 258.065,170.801 257.900 C 170.801 257.735,170.440 257.600,170.000 257.600 C 169.560 257.600,169.200 257.459,169.200 257.286 C 169.200 257.114,168.650 256.647,167.977 256.250 C 167.305 255.853,166.180 254.956,165.477 254.257 C 164.775 253.559,163.570 252.546,162.800 252.006 C 161.284 250.944,158.400 248.101,158.400 247.667 C 158.400 247.520,157.815 246.737,157.100 245.927 C 155.014 243.562,154.400 242.804,154.400 242.592 C 154.400 242.482,153.860 241.828,153.200 241.137 C 152.540 240.446,152.000 239.638,152.000 239.341 C 152.000 239.043,151.820 238.800,151.600 238.800 C 151.380 238.800,151.200 238.564,151.200 238.275 C 151.200 237.987,150.840 237.364,150.400 236.892 C 149.960 236.420,149.600 235.756,149.600 235.417 C 149.600 235.078,149.420 234.800,149.200 234.800 C 148.980 234.800,148.800 234.440,148.800 234.000 C 148.800 233.560,148.620 233.200,148.400 233.200 C 148.180 233.200,148.000 232.840,148.000 232.400 C 148.000 231.960,147.820 231.600,147.600 231.600 C 147.380 231.600,147.200 231.240,147.200 230.800 C 147.200 230.360,147.020 230.000,146.800 230.000 C 146.580 230.000,146.400 229.640,146.400 229.200 C 146.400 228.760,146.220 228.400,146.000 228.400 C 145.780 228.400,145.600 227.961,145.600 227.424 C 145.600 226.887,145.420 226.336,145.200 226.200 C 144.980 226.064,144.800 225.513,144.800 224.976 C 144.800 224.439,144.620 224.000,144.400 224.000 C 144.180 224.000,144.000 223.460,144.000 222.800 C 144.000 222.140,143.820 221.600,143.600 221.600 C 143.380 221.600,143.200 220.981,143.200 220.224 C 143.200 219.467,143.020 218.736,142.800 218.600 C 142.580 218.464,142.400 217.564,142.400 216.600 C 142.400 215.636,142.247 214.753,142.061 214.638 C 141.874 214.522,141.598 212.234,141.446 209.552 C 141.294 206.870,141.065 204.506,140.937 204.298 C 140.793 204.064,135.211 204.031,126.252 204.210 C 116.384 204.407,111.313 204.363,110.265 204.072 L 108.731 203.645 108.942 209.923 C 109.203 217.710,109.806 221.888,111.725 229.200 C 117.545 251.385,132.071 271.757,151.342 284.761 C 168.546 296.370,189.544 302.167,210.600 301.122 C 217.478 300.780,219.957 300.422,229.405 298.403 C 231.323 297.993,239.304 295.382,241.000 294.609 C 241.660 294.308,243.137 293.694,244.283 293.244 C 270.538 282.925,293.989 254.963,300.344 226.400 C 300.564 225.410,300.923 223.790,301.142 222.800 C 303.575 211.792,303.587 196.408,301.170 185.300 C 299.868 179.315,299.502 177.910,298.176 173.800 C 293.326 158.774,282.767 142.264,271.934 132.772 C 270.320 131.358,268.910 130.101,268.800 129.980 C 265.199 125.998,250.803 117.260,242.200 113.835 C 231.451 109.555,211.818 105.922,205.900 107.117 " stroke="none" fill="#5cb2ea" fill-rule="evenodd"></path><path id="path1" d="M281.317 107.331 C 279.731 108.909,278.253 110.380,278.033 110.600 C 277.812 110.820,274.568 114.105,270.824 117.900 C 264.823 123.983,262.800 125.639,262.800 124.468 C 262.800 124.285,262.305 123.880,261.700 123.568 C 261.095 123.256,260.510 122.911,260.400 122.801 C 260.019 122.419,258.400 121.594,258.400 121.782 C 258.400 121.886,260.425 123.490,262.900 125.347 C 265.375 127.204,267.762 129.055,268.204 129.461 C 268.646 129.868,270.326 131.357,271.938 132.771 C 277.267 137.448,284.461 146.308,288.935 153.704 C 294.902 163.567,298.545 172.983,301.198 185.400 C 303.279 195.138,303.562 207.402,301.956 218.200 C 299.573 234.225,292.959 249.830,283.034 262.845 C 273.090 275.885,257.667 287.983,244.283 293.244 C 243.137 293.694,241.660 294.308,241.000 294.609 C 239.304 295.382,231.323 297.993,229.405 298.403 C 219.957 300.422,217.478 300.780,210.600 301.122 C 191.303 302.080,173.505 297.698,155.853 287.642 C 135.260 275.911,117.973 253.017,111.725 229.200 C 109.807 221.890,109.203 217.710,108.942 209.928 L 108.731 203.657 109.665 203.851 C 110.542 204.034,110.534 204.008,109.540 203.431 C 108.770 202.984,108.298 202.184,107.818 200.508 C 107.454 199.239,106.986 197.647,106.778 196.972 C 106.570 196.296,106.399 195.396,106.398 194.972 C 106.389 191.409,102.074 190.814,99.249 193.985 C 97.075 196.425,95.637 196.703,93.058 195.181 C 90.646 193.758,89.346 194.600,87.282 198.924 C 85.000 203.703,84.605 204.000,80.525 204.000 L 77.200 204.000 77.208 207.500 C 77.276 238.204,92.235 272.004,116.000 295.151 C 122.046 301.040,126.721 305.082,130.400 307.602 C 131.170 308.130,131.890 308.675,132.000 308.814 C 132.278 309.166,139.265 313.800,140.000 314.120 C 140.330 314.264,141.500 314.926,142.600 315.592 C 151.401 320.917,167.260 327.119,177.400 329.199 C 178.720 329.470,180.340 329.831,181.000 330.002 C 181.660 330.173,183.460 330.502,185.000 330.734 C 186.540 330.966,189.330 331.389,191.200 331.672 C 195.787 332.368,216.193 332.360,220.800 331.660 C 233.240 329.771,241.372 327.847,249.013 324.985 C 251.047 324.223,252.823 323.600,252.960 323.600 C 253.331 323.600,256.385 322.196,262.200 319.350 C 294.208 303.689,318.299 275.426,328.558 241.499 C 330.757 234.229,331.825 229.274,333.279 219.600 C 333.978 214.953,333.971 193.386,333.270 188.800 C 332.287 182.375,330.746 174.465,329.997 172.000 C 329.830 171.450,329.466 170.190,329.190 169.200 C 328.457 166.581,326.428 160.363,325.925 159.200 C 325.687 158.650,325.357 157.840,325.191 157.400 C 323.091 151.835,317.876 141.517,314.776 136.795 C 313.469 134.806,312.400 133.018,312.400 132.822 C 312.400 132.627,312.255 132.407,312.077 132.333 C 311.899 132.260,311.142 131.304,310.395 130.209 C 309.648 129.114,308.814 127.944,308.541 127.609 C 308.269 127.274,306.894 125.560,305.485 123.800 C 302.956 120.640,294.317 111.656,291.600 109.360 C 288.535 106.770,286.249 105.200,285.542 105.200 C 285.134 105.200,284.800 105.020,284.800 104.800 C 284.800 104.031,284.179 104.483,281.317 107.331 M284.800 105.422 C 284.800 105.544,283.675 106.713,282.300 108.019 C 279.410 110.764,279.614 110.559,271.174 119.138 C 267.637 122.734,264.650 125.583,264.536 125.470 C 264.372 125.306,270.059 119.378,278.363 111.055 C 283.900 105.505,284.800 104.717,284.800 105.422 M36.694 194.161 C 36.306 194.456,35.270 196.462,34.392 198.619 C 32.030 204.424,33.024 203.967,22.490 204.093 L 13.490 204.200 18.845 209.464 C 29.329 219.770,30.590 220.750,32.395 220.002 C 33.058 219.728,33.600 219.334,33.600 219.128 C 33.600 218.922,33.768 218.856,33.972 218.983 C 34.177 219.109,34.453 219.038,34.585 218.824 C 34.717 218.610,35.090 218.536,35.413 218.660 C 35.740 218.786,36.000 218.660,36.000 218.376 C 36.000 218.096,36.112 217.979,36.249 218.115 C 36.386 218.252,37.370 217.922,38.435 217.382 C 39.501 216.842,40.649 216.400,40.987 216.400 C 41.324 216.400,41.600 216.190,41.600 215.933 C 41.600 215.677,41.714 215.580,41.853 215.719 C 43.884 217.750,44.532 203.005,42.641 197.795 C 41.174 193.752,38.991 192.418,36.694 194.161 M114.922 204.299 C 117.299 204.370,121.079 204.369,123.322 204.298 C 125.565 204.227,123.620 204.169,119.000 204.169 C 114.380 204.170,112.545 204.228,114.922 204.299 " stroke="none" fill="#81aa5f" fill-rule="evenodd"></path><path id="path2" d="M212.125 9.339 C 211.204 9.593,209.959 10.197,209.359 10.683 C 208.759 11.169,208.144 11.489,207.991 11.395 C 207.839 11.300,207.283 12.073,206.757 13.112 C 206.231 14.150,205.665 15.060,205.500 15.133 C 205.335 15.207,205.200 21.268,205.200 28.604 L 205.200 41.941 210.900 42.161 C 218.975 42.473,227.478 43.313,233.200 44.364 C 237.222 45.103,239.067 45.483,244.800 46.752 C 249.174 47.720,261.234 51.494,262.895 52.415 C 263.277 52.627,263.774 52.800,263.999 52.800 C 264.375 52.800,265.226 53.151,269.800 55.197 C 272.474 56.393,282.084 61.164,284.000 62.247 C 289.244 65.212,291.858 66.830,296.400 69.927 C 300.964 73.039,304.287 75.451,304.800 76.023 C 304.910 76.146,305.394 76.515,305.876 76.844 C 306.358 77.173,307.796 78.333,309.072 79.421 C 326.788 94.537,339.742 110.836,350.065 131.000 C 351.787 134.364,353.106 137.288,356.019 144.200 C 363.037 160.856,367.184 183.001,367.195 203.886 C 367.200 213.855,366.496 223.062,365.197 230.000 C 365.012 230.990,364.656 232.970,364.406 234.400 C 364.156 235.830,363.794 237.630,363.601 238.400 C 363.408 239.170,363.048 240.700,362.800 241.800 C 359.669 255.699,350.404 278.332,344.353 286.862 C 343.939 287.446,343.600 288.049,343.600 288.203 C 343.600 288.694,335.987 299.659,332.935 303.564 C 317.064 323.873,293.263 342.454,271.200 351.759 C 270.210 352.177,268.680 352.843,267.800 353.240 C 260.219 356.660,246.224 360.843,236.000 362.744 C 229.339 363.983,226.672 364.341,217.684 365.205 C 212.302 365.722,197.282 365.712,192.645 365.188 C 181.324 363.910,178.560 363.505,172.206 362.190 C 164.567 360.609,151.487 356.719,147.304 354.784 C 146.372 354.353,145.373 354.000,145.084 354.000 C 144.796 354.000,144.389 353.849,144.180 353.664 C 143.971 353.479,143.170 353.089,142.400 352.797 C 136.983 350.743,124.039 343.817,117.871 339.673 C 116.173 338.533,114.695 337.600,114.585 337.600 C 114.380 337.600,105.145 330.655,103.000 328.888 C 94.745 322.087,85.089 312.268,78.925 304.406 C 78.663 304.073,77.659 302.810,76.694 301.600 C 73.294 297.340,68.001 289.225,63.389 281.200 C 62.134 279.017,57.475 269.315,55.802 265.400 C 52.207 256.987,47.510 241.500,47.614 238.400 C 47.632 237.850,47.448 236.230,47.205 234.800 C 46.961 233.370,46.604 231.120,46.412 229.800 C 46.219 228.480,45.935 226.549,45.780 225.509 C 45.508 223.687,45.540 223.604,46.649 223.201 C 47.282 222.971,48.160 222.620,48.600 222.420 C 50.334 221.631,55.044 219.525,55.800 219.200 C 56.240 219.011,57.860 218.291,59.400 217.600 C 60.940 216.909,62.560 216.189,63.000 216.000 C 65.225 215.043,69.709 212.985,72.200 211.777 C 73.740 211.031,75.495 210.306,76.100 210.167 C 77.178 209.918,77.200 209.854,77.200 206.957 L 77.200 204.000 65.500 203.933 C 59.065 203.896,52.090 203.914,50.000 203.973 C 45.726 204.093,44.210 203.429,43.886 201.291 C 43.794 200.691,43.693 203.569,43.660 207.686 C 43.600 215.173,43.179 217.045,41.853 215.719 C 41.714 215.580,41.600 215.677,41.600 215.933 C 41.600 216.190,41.324 216.400,40.987 216.400 C 40.649 216.400,39.501 216.842,38.435 217.382 C 37.370 217.922,36.386 218.252,36.249 218.115 C 36.112 217.979,36.000 218.096,36.000 218.376 C 36.000 218.660,35.740 218.786,35.413 218.660 C 35.090 218.536,34.717 218.610,34.585 218.824 C 34.453 219.038,34.177 219.109,33.972 218.983 C 33.768 218.856,33.600 218.922,33.600 219.128 C 33.600 219.334,33.058 219.728,32.395 220.002 C 30.584 220.752,29.289 219.742,18.751 209.365 C 15.755 206.414,13.128 204.000,12.913 204.000 C 12.699 204.000,12.202 203.644,11.809 203.209 C 11.415 202.775,10.937 202.515,10.747 202.633 C 10.271 202.927,10.307 213.078,10.786 213.975 C 10.999 214.372,11.197 216.880,11.226 219.548 C 11.256 222.217,11.428 224.400,11.609 224.400 C 11.791 224.400,12.037 225.795,12.158 227.500 C 12.576 233.433,12.870 235.802,13.234 236.180 C 13.435 236.389,13.600 237.514,13.600 238.680 C 13.600 239.846,13.780 240.800,14.000 240.800 C 14.220 240.800,14.400 241.700,14.400 242.800 C 14.400 243.900,14.580 244.800,14.800 244.800 C 15.020 244.800,15.200 245.509,15.200 246.376 C 15.200 247.243,15.380 248.064,15.600 248.200 C 15.820 248.336,16.000 249.146,16.000 250.000 C 16.000 250.854,16.180 251.664,16.400 251.800 C 16.620 251.936,16.800 252.566,16.800 253.200 C 16.800 253.834,16.980 254.464,17.200 254.600 C 17.420 254.736,17.600 255.366,17.600 256.000 C 17.600 256.634,17.780 257.264,18.000 257.400 C 18.220 257.536,18.400 258.267,18.400 259.024 C 18.400 259.781,18.580 260.400,18.800 260.400 C 19.020 260.400,19.200 260.940,19.200 261.600 C 19.200 262.260,19.380 262.800,19.600 262.800 C 19.820 262.800,20.000 263.340,20.000 264.000 C 20.000 264.660,20.180 265.200,20.400 265.200 C 20.620 265.200,20.800 265.740,20.800 266.400 C 20.800 267.060,20.980 267.600,21.200 267.600 C 21.420 267.600,21.600 268.140,21.600 268.800 C 21.600 269.460,21.780 270.000,22.000 270.000 C 22.220 270.000,22.400 270.450,22.400 271.000 C 22.400 271.550,22.580 272.000,22.800 272.000 C 23.020 272.000,23.200 272.450,23.200 273.000 C 23.200 273.550,23.380 274.000,23.600 274.000 C 23.820 274.000,24.000 274.450,24.000 275.000 C 24.000 275.550,24.160 276.000,24.355 276.000 C 24.551 276.000,24.837 276.672,24.991 277.493 C 25.145 278.314,25.615 279.698,26.036 280.568 C 26.456 281.438,26.800 282.386,26.800 282.675 C 26.800 282.964,26.980 283.200,27.200 283.200 C 27.420 283.200,27.600 283.560,27.600 284.000 C 27.600 284.440,27.780 284.800,28.000 284.800 C 28.220 284.800,28.400 285.081,28.400 285.425 C 28.400 286.187,30.833 291.347,31.280 291.533 C 31.456 291.607,31.600 292.012,31.600 292.433 C 31.600 292.855,31.780 293.200,32.000 293.200 C 32.220 293.200,32.400 293.560,32.400 294.000 C 32.400 294.440,32.580 294.800,32.800 294.800 C 33.020 294.800,33.200 295.160,33.200 295.600 C 33.200 296.040,33.380 296.400,33.600 296.400 C 33.820 296.400,34.000 296.720,34.000 297.112 C 34.000 297.503,34.360 298.083,34.800 298.400 C 35.240 298.717,35.600 299.297,35.600 299.688 C 35.600 300.080,35.780 300.400,36.000 300.400 C 36.220 300.400,36.400 300.760,36.400 301.200 C 36.400 301.640,36.580 302.000,36.800 302.000 C 37.020 302.000,37.200 302.236,37.200 302.525 C 37.200 302.813,37.560 303.436,38.000 303.908 C 38.440 304.380,38.800 305.044,38.800 305.383 C 38.800 305.722,38.980 306.000,39.200 306.000 C 39.420 306.000,39.600 306.270,39.600 306.600 C 39.600 306.930,39.780 307.200,40.000 307.200 C 40.220 307.200,40.400 307.470,40.400 307.800 C 40.400 308.130,40.580 308.400,40.800 308.400 C 41.020 308.400,41.200 308.670,41.200 309.000 C 41.200 309.330,41.358 309.600,41.551 309.600 C 41.745 309.600,42.127 310.140,42.400 310.800 C 42.673 311.460,43.066 312.000,43.272 312.000 C 43.478 312.000,43.536 312.180,43.400 312.400 C 43.264 312.620,43.343 312.800,43.576 312.800 C 43.809 312.800,44.000 313.025,44.000 313.300 C 44.001 313.575,44.451 314.323,45.000 314.962 C 45.550 315.601,46.000 316.268,46.000 316.444 C 46.000 316.620,46.450 317.214,47.000 317.764 C 47.550 318.314,48.000 318.976,48.000 319.235 C 48.000 319.494,48.317 319.997,48.705 320.353 C 49.092 320.709,50.037 321.837,50.805 322.859 C 51.572 323.882,52.335 324.636,52.500 324.536 C 52.665 324.435,52.800 324.648,52.800 325.008 C 52.800 325.368,53.520 326.354,54.400 327.200 C 55.280 328.046,56.000 328.896,56.000 329.090 C 56.000 329.285,56.585 330.090,57.300 330.880 C 58.015 331.670,59.496 333.370,60.591 334.658 C 63.602 338.198,77.723 352.000,78.334 352.000 C 78.485 352.000,78.832 352.360,79.107 352.800 C 79.382 353.240,79.785 353.600,80.003 353.600 C 80.221 353.600,81.141 354.320,82.048 355.200 C 82.955 356.080,83.863 356.800,84.066 356.800 C 84.270 356.800,84.870 357.205,85.399 357.700 C 87.027 359.222,87.549 359.600,88.023 359.600 C 88.274 359.600,88.983 360.140,89.600 360.800 C 90.217 361.460,90.969 362.000,91.272 362.000 C 91.575 362.000,92.083 362.360,92.400 362.800 C 92.717 363.240,93.119 363.600,93.292 363.600 C 93.465 363.600,94.172 364.140,94.863 364.800 C 95.554 365.460,96.362 366.000,96.659 366.000 C 96.957 366.000,97.200 366.180,97.200 366.400 C 97.200 366.620,97.436 366.800,97.725 366.800 C 98.013 366.800,98.636 367.160,99.108 367.600 C 99.580 368.040,100.204 368.400,100.495 368.400 C 100.786 368.400,101.283 368.760,101.600 369.200 C 101.917 369.640,102.414 370.000,102.705 370.000 C 102.996 370.000,103.620 370.360,104.092 370.800 C 104.564 371.240,105.187 371.600,105.475 371.600 C 105.764 371.600,106.000 371.780,106.000 372.000 C 106.000 372.220,106.360 372.400,106.800 372.400 C 107.240 372.400,107.600 372.580,107.600 372.800 C 107.600 373.020,107.790 373.200,108.021 373.200 C 108.253 373.200,109.105 373.650,109.914 374.200 C 110.723 374.750,111.704 375.200,112.093 375.200 C 112.482 375.200,112.800 375.380,112.800 375.600 C 112.800 375.820,113.160 376.000,113.600 376.000 C 114.040 376.000,114.400 376.180,114.400 376.400 C 114.400 376.620,114.760 376.800,115.200 376.800 C 115.640 376.800,116.000 376.980,116.000 377.200 C 116.000 377.420,116.360 377.600,116.800 377.600 C 117.240 377.600,117.600 377.780,117.600 378.000 C 117.600 378.220,117.960 378.400,118.400 378.400 C 118.840 378.400,119.201 378.535,119.203 378.700 C 119.207 379.059,121.144 380.000,121.880 380.000 C 122.166 380.000,122.400 380.180,122.400 380.400 C 122.400 380.620,122.760 380.800,123.200 380.800 C 123.640 380.800,124.000 380.980,124.000 381.200 C 124.000 381.420,124.360 381.600,124.800 381.600 C 125.240 381.600,125.600 381.780,125.600 382.000 C 125.600 382.220,125.960 382.400,126.400 382.400 C 126.840 382.400,127.200 382.580,127.200 382.800 C 127.200 383.020,127.549 383.200,127.976 383.200 C 128.403 383.200,128.864 383.380,129.000 383.600 C 129.136 383.820,129.597 384.000,130.024 384.000 C 130.451 384.000,130.800 384.180,130.800 384.400 C 130.800 384.620,131.239 384.800,131.776 384.800 C 132.313 384.800,132.864 384.980,133.000 385.200 C 133.136 385.420,133.597 385.600,134.024 385.600 C 134.451 385.600,134.800 385.780,134.800 386.000 C 134.800 386.220,135.162 386.400,135.605 386.400 C 136.383 386.400,136.769 386.542,138.695 387.538 C 139.187 387.792,139.952 388.000,140.395 388.000 C 140.838 388.000,141.200 388.180,141.200 388.400 C 141.200 388.620,141.639 388.800,142.176 388.800 C 142.713 388.800,143.264 388.980,143.400 389.200 C 143.536 389.420,143.999 389.600,144.429 389.600 C 144.859 389.600,145.523 389.758,145.905 389.951 C 147.127 390.568,149.340 391.154,151.500 391.432 C 152.655 391.581,153.600 391.860,153.600 392.052 C 153.600 392.243,154.320 392.400,155.200 392.400 C 156.080 392.400,156.800 392.580,156.800 392.800 C 156.800 393.020,157.419 393.200,158.176 393.200 C 158.933 393.200,159.664 393.380,159.800 393.600 C 159.936 393.820,160.656 394.000,161.400 394.000 C 162.144 394.000,162.864 394.180,163.000 394.400 C 163.136 394.620,164.047 394.800,165.024 394.800 C 166.001 394.800,166.800 394.980,166.800 395.200 C 166.800 395.420,167.700 395.600,168.800 395.600 C 169.900 395.600,170.800 395.780,170.800 396.000 C 170.800 396.222,171.867 396.400,173.200 396.400 C 174.533 396.400,175.600 396.578,175.600 396.800 C 175.600 397.031,176.867 397.200,178.600 397.200 C 180.333 397.200,181.600 397.369,181.600 397.600 C 181.600 397.840,183.200 398.000,185.600 398.000 C 188.000 398.000,189.600 398.160,189.600 398.400 C 189.600 398.950,221.860 398.950,222.200 398.400 C 222.337 398.179,224.137 398.000,226.224 398.000 C 228.475 398.000,230.000 397.838,230.000 397.600 C 230.000 397.371,231.200 397.200,232.800 397.200 C 234.400 397.200,235.600 397.029,235.600 396.800 C 235.600 396.578,236.667 396.400,238.000 396.400 C 239.333 396.400,240.400 396.222,240.400 396.000 C 240.400 395.780,241.289 395.600,242.376 395.600 C 243.463 395.600,244.464 395.420,244.600 395.200 C 244.736 394.980,245.557 394.800,246.424 394.800 C 247.291 394.800,248.000 394.620,248.000 394.400 C 248.000 394.180,248.799 394.000,249.776 394.000 C 250.753 394.000,251.664 393.820,251.800 393.600 C 251.936 393.380,252.656 393.200,253.400 393.200 C 254.144 393.200,254.864 393.020,255.000 392.800 C 255.136 392.580,255.766 392.400,256.400 392.400 C 257.034 392.400,257.651 392.241,257.771 392.047 C 257.891 391.852,258.979 391.570,260.188 391.419 C 261.398 391.268,262.491 390.977,262.617 390.772 C 262.744 390.567,263.377 390.400,264.024 390.400 C 264.671 390.400,265.200 390.220,265.200 390.000 C 265.200 389.780,265.729 389.600,266.376 389.600 C 267.023 389.600,267.664 389.420,267.800 389.200 C 267.936 388.980,268.487 388.800,269.024 388.800 C 269.561 388.800,270.000 388.620,270.000 388.400 C 270.000 388.180,270.439 388.000,270.976 388.000 C 271.513 388.000,272.064 387.820,272.200 387.600 C 272.336 387.380,272.887 387.200,273.424 387.200 C 273.961 387.200,274.400 387.020,274.400 386.800 C 274.400 386.580,274.839 386.400,275.376 386.400 C 275.913 386.400,276.464 386.220,276.600 386.000 C 276.736 385.780,277.197 385.600,277.624 385.600 C 278.051 385.600,278.400 385.420,278.400 385.200 C 278.400 384.980,278.839 384.800,279.376 384.800 C 279.913 384.800,280.464 384.620,280.600 384.400 C 280.736 384.180,281.197 384.000,281.624 384.000 C 282.051 384.000,282.400 383.820,282.400 383.600 C 282.400 383.380,282.760 383.200,283.200 383.200 C 283.640 383.200,284.000 383.020,284.000 382.800 C 284.000 382.580,284.360 382.400,284.800 382.400 C 285.240 382.400,285.600 382.220,285.600 382.000 C 285.600 381.780,286.050 381.600,286.600 381.600 C 287.150 381.600,287.600 381.420,287.600 381.200 C 287.600 380.980,287.853 380.800,288.162 380.800 C 288.828 380.800,292.141 379.132,292.333 378.700 C 292.407 378.535,292.812 378.400,293.233 378.400 C 293.655 378.400,294.000 378.220,294.000 378.000 C 294.000 377.780,294.360 377.600,294.800 377.600 C 295.240 377.600,295.600 377.420,295.600 377.200 C 295.600 376.980,295.960 376.800,296.400 376.800 C 296.840 376.800,297.200 376.620,297.200 376.400 C 297.200 376.180,297.560 376.000,298.000 376.000 C 298.440 376.000,298.800 375.854,298.800 375.675 C 298.800 375.496,299.655 374.962,300.700 374.487 C 302.546 373.650,304.794 372.406,305.200 371.999 C 305.310 371.889,305.940 371.530,306.600 371.202 C 307.260 370.874,308.091 370.289,308.447 369.903 C 308.803 369.516,309.348 369.200,309.659 369.200 C 309.969 369.200,310.483 368.840,310.800 368.400 C 311.117 367.960,311.697 367.600,312.088 367.600 C 312.480 367.600,312.800 367.450,312.800 367.268 C 312.800 367.085,313.295 366.681,313.900 366.370 C 314.505 366.060,315.291 365.489,315.647 365.103 C 316.003 364.716,316.548 364.400,316.859 364.400 C 317.169 364.400,317.683 364.040,318.000 363.600 C 318.317 363.160,318.780 362.800,319.029 362.800 C 319.278 362.800,320.046 362.260,320.737 361.600 C 321.428 360.940,322.140 360.400,322.321 360.400 C 322.501 360.400,322.998 360.085,323.425 359.700 C 323.852 359.315,324.921 358.469,325.800 357.821 C 326.680 357.172,327.691 356.317,328.047 355.921 C 328.403 355.524,328.879 355.200,329.106 355.200 C 329.333 355.200,330.395 354.343,331.465 353.295 C 332.535 352.247,334.038 350.945,334.805 350.403 C 335.572 349.861,337.414 348.153,338.898 346.609 C 342.189 343.183,342.846 342.526,347.407 338.100 C 349.391 336.175,351.455 333.970,351.994 333.200 C 352.533 332.430,353.616 331.170,354.400 330.400 C 355.184 329.630,356.265 328.370,356.802 327.600 C 357.859 326.085,358.326 325.478,359.100 324.615 C 359.375 324.308,359.600 323.937,359.600 323.789 C 359.600 323.642,360.140 323.017,360.800 322.400 C 361.460 321.783,362.000 321.108,362.000 320.899 C 362.000 320.690,362.540 319.954,363.200 319.263 C 363.860 318.572,364.400 317.775,364.400 317.492 C 364.400 317.209,364.760 316.717,365.200 316.400 C 365.640 316.083,366.000 315.638,366.001 315.412 C 366.001 315.185,366.541 314.370,367.200 313.600 C 367.859 312.830,368.399 311.975,368.399 311.700 C 368.400 311.425,368.580 311.200,368.800 311.200 C 369.020 311.200,369.200 310.964,369.200 310.675 C 369.200 310.387,369.560 309.764,370.000 309.292 C 370.440 308.820,370.800 308.280,370.800 308.092 C 370.800 307.904,371.115 307.402,371.500 306.975 C 371.885 306.549,372.470 305.660,372.799 305.000 C 373.129 304.340,373.509 303.710,373.644 303.600 C 374.032 303.282,375.200 300.884,375.200 300.403 C 375.200 300.163,375.560 299.580,376.000 299.108 C 376.440 298.636,376.800 298.013,376.800 297.725 C 376.800 297.436,376.980 297.200,377.200 297.200 C 377.420 297.200,377.600 296.840,377.600 296.400 C 377.600 295.960,377.780 295.600,378.000 295.600 C 378.220 295.600,378.400 295.240,378.400 294.800 C 378.400 294.360,378.580 294.000,378.800 294.000 C 379.020 294.000,379.200 293.640,379.200 293.200 C 379.200 292.760,379.346 292.400,379.525 292.400 C 379.704 292.400,380.098 291.770,380.400 291.000 C 380.702 290.230,381.096 289.600,381.275 289.600 C 381.454 289.600,381.600 289.240,381.600 288.800 C 381.600 288.360,381.780 288.000,382.000 288.000 C 382.220 288.000,382.400 287.728,382.400 287.395 C 382.400 287.062,382.580 286.432,382.800 285.995 C 383.020 285.558,383.380 284.842,383.600 284.405 C 383.820 283.968,384.000 283.338,384.000 283.005 C 384.000 282.672,384.180 282.400,384.400 282.400 C 384.620 282.400,384.800 282.040,384.800 281.600 C 384.800 281.160,384.980 280.800,385.200 280.800 C 385.420 280.800,385.600 280.451,385.600 280.024 C 385.600 279.597,385.780 279.136,386.000 279.000 C 386.220 278.864,386.400 278.313,386.400 277.776 C 386.400 277.239,386.580 276.800,386.800 276.800 C 387.020 276.800,387.200 276.440,387.200 276.000 C 387.200 275.560,387.380 275.200,387.600 275.200 C 387.820 275.200,388.000 274.761,388.000 274.224 C 388.000 273.687,388.180 273.136,388.400 273.000 C 388.620 272.864,388.800 272.313,388.800 271.776 C 388.800 271.239,388.980 270.800,389.200 270.800 C 389.420 270.800,389.600 270.438,389.600 269.995 C 389.600 269.552,389.774 268.877,389.987 268.495 C 390.633 267.336,391.600 264.034,391.600 262.986 C 391.600 262.444,391.780 262.000,392.000 262.000 C 392.220 262.000,392.400 261.280,392.400 260.400 C 392.400 259.520,392.580 258.800,392.800 258.800 C 393.020 258.800,393.200 258.260,393.200 257.600 C 393.200 256.940,393.380 256.400,393.600 256.400 C 393.820 256.400,394.000 255.770,394.000 255.000 C 394.000 254.230,394.180 253.600,394.400 253.600 C 394.620 253.600,394.800 252.880,394.800 252.000 C 394.800 251.120,394.980 250.400,395.200 250.400 C 395.420 250.400,395.600 249.680,395.600 248.800 C 395.600 247.920,395.780 247.200,396.000 247.200 C 396.220 247.200,396.400 246.300,396.400 245.200 C 396.400 244.100,396.580 243.200,396.800 243.200 C 397.020 243.200,397.200 242.300,397.200 241.200 C 397.200 240.100,397.380 239.200,397.600 239.200 C 397.820 239.200,398.000 238.210,398.000 237.000 C 398.000 235.790,398.180 234.800,398.400 234.800 C 398.628 234.800,398.800 233.611,398.800 232.033 C 398.800 230.176,398.964 229.212,399.300 229.100 C 400.031 228.857,400.031 180.271,399.300 179.540 C 398.999 179.239,398.800 177.967,398.800 176.344 C 398.800 174.861,398.620 173.536,398.400 173.400 C 398.180 173.264,398.000 172.263,398.000 171.176 C 398.000 170.089,397.820 169.200,397.600 169.200 C 397.378 169.200,397.200 168.133,397.200 166.800 C 397.200 165.467,397.022 164.400,396.800 164.400 C 396.580 164.400,396.400 163.680,396.400 162.800 C 396.400 161.920,396.220 161.200,396.000 161.200 C 395.780 161.200,395.600 160.390,395.600 159.400 C 395.600 158.410,395.420 157.600,395.200 157.600 C 394.980 157.600,394.800 156.880,394.800 156.000 C 394.800 155.120,394.620 154.400,394.400 154.400 C 394.180 154.400,394.000 153.860,394.000 153.200 C 394.000 152.540,393.820 152.000,393.600 152.000 C 393.380 152.000,393.200 151.280,393.200 150.400 C 393.200 149.520,393.020 148.800,392.800 148.800 C 392.580 148.800,392.400 148.260,392.400 147.600 C 392.400 146.940,392.241 146.400,392.046 146.400 C 391.851 146.400,391.569 145.413,391.418 144.206 C 391.267 143.000,390.977 141.909,390.772 141.783 C 390.567 141.656,390.400 141.113,390.400 140.576 C 390.400 140.039,390.220 139.600,390.000 139.600 C 389.780 139.600,389.600 139.060,389.600 138.400 C 389.600 137.740,389.420 137.200,389.200 137.200 C 388.980 137.200,388.800 136.761,388.800 136.224 C 388.800 135.687,388.620 135.136,388.400 135.000 C 388.180 134.864,388.000 134.403,388.000 133.976 C 388.000 133.549,387.820 133.200,387.600 133.200 C 387.380 133.200,387.200 132.660,387.200 132.000 C 387.200 131.340,387.020 130.800,386.800 130.800 C 386.580 130.800,386.400 130.528,386.400 130.195 C 386.400 129.862,386.232 129.277,386.026 128.895 C 385.821 128.513,385.417 127.615,385.129 126.900 C 384.840 126.185,384.469 125.600,384.302 125.600 C 384.136 125.600,384.000 125.251,384.000 124.824 C 384.000 124.397,383.820 123.936,383.600 123.800 C 383.380 123.664,383.200 123.113,383.200 122.576 C 383.200 122.039,383.020 121.600,382.800 121.600 C 382.580 121.600,382.400 121.240,382.400 120.800 C 382.400 120.360,382.220 120.000,382.000 120.000 C 381.780 120.000,381.600 119.640,381.600 119.200 C 381.600 118.760,381.420 118.400,381.200 118.400 C 380.980 118.400,380.800 118.040,380.800 117.600 C 380.800 117.160,380.620 116.800,380.400 116.800 C 380.180 116.800,380.000 116.440,380.000 116.000 C 380.000 115.560,379.820 115.200,379.600 115.200 C 379.380 115.200,379.200 114.840,379.200 114.400 C 379.200 113.960,379.020 113.600,378.800 113.600 C 378.580 113.600,378.400 113.240,378.400 112.800 C 378.400 112.360,378.220 112.000,378.000 112.000 C 377.780 112.000,377.600 111.812,377.600 111.583 C 377.600 111.354,377.240 110.780,376.800 110.308 C 376.360 109.836,376.000 109.213,376.000 108.925 C 376.000 108.636,375.820 108.400,375.600 108.400 C 375.380 108.400,375.200 108.136,375.200 107.814 C 375.200 107.001,373.924 104.400,373.526 104.400 C 373.347 104.400,373.200 104.040,373.200 103.600 C 373.200 103.160,373.042 102.800,372.849 102.800 C 372.655 102.800,372.273 102.260,372.000 101.600 C 371.727 100.940,371.345 100.400,371.151 100.400 C 370.958 100.400,370.800 100.164,370.800 99.875 C 370.800 99.587,370.440 98.964,370.000 98.492 C 369.560 98.020,369.200 97.422,369.200 97.164 C 369.200 96.905,368.884 96.403,368.497 96.047 C 368.111 95.691,367.540 94.905,367.230 94.300 C 366.919 93.695,366.515 93.200,366.332 93.200 C 366.150 93.200,366.000 92.970,366.000 92.688 C 366.000 92.407,365.640 91.917,365.200 91.600 C 364.760 91.283,364.400 90.775,364.400 90.472 C 364.400 90.169,363.860 89.417,363.200 88.800 C 362.540 88.183,362.000 87.463,362.000 87.200 C 362.000 86.937,361.460 86.217,360.800 85.600 C 360.140 84.983,359.600 84.274,359.600 84.023 C 359.600 83.772,359.222 83.169,358.759 82.683 C 358.297 82.197,357.449 81.170,356.876 80.400 C 354.615 77.364,337.335 59.200,336.708 59.200 C 336.291 59.200,335.047 58.152,332.553 55.700 C 331.379 54.545,330.219 53.600,329.977 53.600 C 329.735 53.600,328.846 52.880,328.000 52.000 C 327.154 51.120,326.295 50.400,326.091 50.400 C 325.886 50.400,325.154 49.860,324.463 49.200 C 323.772 48.540,323.107 48.000,322.985 48.000 C 322.863 48.000,322.314 47.550,321.764 47.000 C 321.214 46.450,320.600 46.000,320.400 46.000 C 320.200 46.000,319.586 45.550,319.036 45.000 C 318.486 44.450,317.910 44.000,317.756 44.000 C 317.602 44.000,316.886 43.550,316.164 43.000 C 315.443 42.450,314.611 42.000,314.315 42.000 C 314.019 42.000,313.517 41.640,313.200 41.200 C 312.883 40.760,312.343 40.400,312.000 40.400 C 311.657 40.400,311.117 40.040,310.800 39.600 C 310.483 39.160,309.903 38.800,309.512 38.800 C 309.120 38.800,308.800 38.620,308.800 38.400 C 308.800 38.180,308.530 38.000,308.200 38.000 C 307.870 38.000,307.600 37.820,307.600 37.600 C 307.600 37.380,307.330 37.200,307.000 37.200 C 306.670 37.200,306.400 37.020,306.400 36.800 C 306.400 36.580,306.130 36.400,305.800 36.400 C 305.470 36.400,305.200 36.220,305.200 36.000 C 305.200 35.780,304.840 35.600,304.400 35.600 C 303.960 35.600,303.600 35.420,303.600 35.200 C 303.600 34.980,303.330 34.800,303.000 34.800 C 302.670 34.800,302.400 34.654,302.400 34.475 C 302.400 34.296,301.770 33.902,301.000 33.600 C 300.230 33.298,299.600 32.904,299.600 32.725 C 299.600 32.546,299.240 32.400,298.800 32.400 C 298.360 32.400,298.000 32.220,298.000 32.000 C 298.000 31.780,297.640 31.600,297.200 31.600 C 296.760 31.600,296.400 31.420,296.400 31.200 C 296.400 30.980,296.040 30.800,295.600 30.800 C 295.160 30.800,294.800 30.620,294.800 30.400 C 294.800 30.180,294.440 30.000,294.000 30.000 C 293.560 30.000,293.200 29.820,293.200 29.600 C 293.200 29.380,292.840 29.200,292.400 29.200 C 291.960 29.200,291.600 29.062,291.600 28.894 C 291.600 28.578,288.799 27.246,288.342 27.345 C 288.200 27.375,287.716 27.067,287.267 26.661 C 286.818 26.254,286.259 26.040,286.025 26.184 C 285.791 26.329,285.600 26.273,285.600 26.061 C 285.600 25.848,284.700 25.443,283.600 25.161 C 282.500 24.879,281.600 24.503,281.600 24.324 C 281.600 24.146,281.240 24.000,280.800 24.000 C 280.360 24.000,280.000 23.820,280.000 23.600 C 280.000 23.380,279.460 23.200,278.800 23.200 C 278.140 23.200,277.600 23.020,277.600 22.800 C 277.600 22.580,277.240 22.400,276.800 22.400 C 276.360 22.400,276.000 22.220,276.000 22.000 C 276.000 21.780,275.561 21.600,275.024 21.600 C 274.487 21.600,273.936 21.420,273.800 21.200 C 273.664 20.980,273.113 20.800,272.576 20.800 C 272.039 20.800,271.600 20.620,271.600 20.400 C 271.600 20.180,271.161 20.000,270.624 20.000 C 270.087 20.000,269.536 19.820,269.400 19.600 C 269.264 19.380,268.724 19.200,268.200 19.200 C 267.676 19.200,267.136 19.020,267.000 18.800 C 266.864 18.580,266.223 18.400,265.576 18.400 C 264.929 18.400,264.400 18.220,264.400 18.000 C 264.400 17.780,263.860 17.600,263.200 17.600 C 262.540 17.600,262.000 17.420,262.000 17.200 C 262.000 16.980,261.471 16.800,260.824 16.800 C 260.177 16.800,259.536 16.620,259.400 16.400 C 259.264 16.180,258.634 16.000,258.000 16.000 C 257.366 16.000,256.736 15.820,256.600 15.600 C 256.464 15.380,255.733 15.200,254.976 15.200 C 254.219 15.200,253.600 15.020,253.600 14.800 C 253.600 14.580,252.880 14.400,252.000 14.400 C 251.120 14.400,250.400 14.220,250.400 14.000 C 250.400 13.780,249.500 13.600,248.400 13.600 C 247.300 13.600,246.400 13.420,246.400 13.200 C 246.400 12.980,245.691 12.800,244.824 12.800 C 243.957 12.800,243.136 12.620,243.000 12.400 C 242.864 12.180,241.784 12.000,240.600 12.000 C 239.416 12.000,238.336 11.820,238.200 11.600 C 238.064 11.380,236.984 11.200,235.800 11.200 C 234.616 11.200,233.536 11.020,233.400 10.800 C 233.264 10.580,231.734 10.400,230.000 10.400 C 228.266 10.400,226.752 10.246,226.636 10.057 C 226.519 9.869,224.558 9.685,222.277 9.648 C 219.997 9.612,217.517 9.406,216.768 9.191 C 215.111 8.716,214.298 8.742,212.125 9.339 M124.800 188.000 C 124.800 188.220,124.440 188.400,124.000 188.400 C 123.560 188.400,123.200 188.627,123.200 188.904 C 123.200 189.657,115.508 194.000,114.174 194.000 C 113.895 194.000,113.607 194.172,113.533 194.383 C 113.460 194.593,112.230 195.358,110.800 196.083 C 107.975 197.514,107.592 198.302,108.187 201.472 C 108.619 203.775,109.598 204.000,119.180 204.000 L 127.600 204.000 127.600 201.463 C 127.600 196.439,127.071 188.033,126.766 188.221 C 126.595 188.327,126.342 188.230,126.204 188.007 C 125.880 187.482,124.800 187.477,124.800 188.000 M126.000 188.400 C 126.000 188.620,125.854 188.800,125.675 188.800 C 125.497 188.800,124.957 189.167,124.475 189.616 C 123.774 190.269,123.600 190.309,123.600 189.816 C 123.600 189.477,123.851 189.200,124.157 189.200 C 124.464 189.200,124.818 188.930,124.945 188.600 C 125.202 187.929,126.000 187.778,126.000 188.400 " stroke="none" fill="#fa5771" fill-rule="evenodd"></path><path id="path3" d="M60.600 1.600 C 60.464 1.820,59.913 2.000,59.376 2.000 C 58.839 2.000,58.400 2.180,58.400 2.400 C 58.400 2.620,58.080 2.800,57.688 2.800 C 57.297 2.800,56.717 3.160,56.400 3.600 C 56.083 4.040,55.628 4.400,55.390 4.400 C 54.752 4.400,52.284 6.828,51.631 8.100 C 51.319 8.705,50.915 9.200,50.732 9.200 C 50.550 9.200,50.400 9.470,50.400 9.800 C 50.400 10.130,50.220 10.400,50.000 10.400 C 49.780 10.400,49.600 10.749,49.600 11.176 C 49.600 11.603,49.420 12.064,49.200 12.200 C 48.980 12.336,48.800 13.121,48.800 13.944 C 48.800 14.767,48.606 15.634,48.370 15.870 C 47.711 16.529,48.508 34.644,49.228 35.380 C 49.433 35.589,49.600 36.523,49.600 37.456 C 49.600 38.389,49.780 39.264,50.000 39.400 C 50.220 39.536,50.400 40.267,50.400 41.024 C 50.400 41.781,50.580 42.400,50.800 42.400 C 51.020 42.400,51.200 43.120,51.200 44.000 C 51.200 44.880,51.380 45.600,51.600 45.600 C 51.820 45.600,52.000 46.219,52.000 46.976 C 52.000 47.733,52.180 48.464,52.400 48.600 C 52.620 48.736,52.800 49.467,52.800 50.224 C 52.800 50.981,52.980 51.600,53.200 51.600 C 53.420 51.600,53.600 52.399,53.600 53.376 C 53.600 54.353,53.780 55.264,54.000 55.400 C 54.220 55.536,54.400 56.717,54.400 58.024 C 54.400 59.341,54.578 60.400,54.800 60.400 C 55.060 60.400,55.200 66.400,55.200 77.600 L 55.200 94.800 32.024 94.800 C 17.004 94.800,8.760 94.941,8.600 95.200 C 8.464 95.420,7.922 95.600,7.395 95.600 C 6.262 95.600,4.400 96.386,4.400 96.864 C 4.400 97.049,4.185 97.200,3.922 97.200 C 3.283 97.200,1.200 99.221,1.200 99.842 C 1.200 100.112,0.975 100.408,0.700 100.500 C -0.154 100.783,-0.247 116.760,0.595 118.534 C 1.738 120.941,6.626 124.707,7.488 123.845 C 7.579 123.754,8.284 123.853,9.054 124.066 C 10.057 124.343,10.619 124.317,11.032 123.973 C 11.479 123.603,23.260 123.562,62.905 123.795 C 143.227 124.267,147.197 124.257,147.199 123.598 C 147.200 123.486,147.772 123.142,148.472 122.832 C 149.938 122.183,152.000 120.327,152.000 119.657 C 152.000 119.406,152.180 119.200,152.400 119.200 C 152.620 119.200,152.800 118.930,152.800 118.600 C 152.800 118.270,152.980 118.000,153.200 118.000 C 153.420 118.000,153.600 117.471,153.600 116.824 C 153.600 116.177,153.780 115.536,154.000 115.400 C 154.515 115.082,154.532 105.092,154.019 104.579 C 153.810 104.370,153.593 103.524,153.537 102.699 C 153.482 101.875,153.293 101.200,153.118 101.200 C 152.943 101.200,152.800 100.965,152.800 100.678 C 152.800 99.100,148.121 95.600,146.011 95.600 C 145.371 95.600,144.736 95.420,144.600 95.200 C 144.440 94.941,136.196 94.800,121.176 94.800 L 98.000 94.800 98.000 78.400 C 98.000 69.380,98.152 62.000,98.337 62.000 C 98.522 62.000,98.713 60.785,98.760 59.300 C 98.807 57.815,99.016 56.429,99.223 56.220 C 99.430 56.011,99.600 54.976,99.600 53.920 C 99.600 52.864,99.780 52.000,100.000 52.000 C 100.220 52.000,100.400 51.370,100.400 50.600 C 100.400 49.830,100.580 49.200,100.800 49.200 C 101.020 49.200,101.200 48.570,101.200 47.800 C 101.200 47.030,101.380 46.400,101.600 46.400 C 101.820 46.400,102.000 45.680,102.000 44.800 C 102.000 43.920,102.180 43.200,102.400 43.200 C 102.620 43.200,102.800 42.480,102.800 41.600 C 102.800 40.720,102.980 40.000,103.200 40.000 C 103.420 40.000,103.600 39.111,103.600 38.024 C 103.600 36.937,103.780 35.936,104.000 35.800 C 104.220 35.664,104.400 34.339,104.400 32.856 C 104.400 31.373,104.588 29.972,104.818 29.742 C 105.608 28.952,104.897 12.673,104.043 12.000 C 103.903 11.890,103.357 10.942,102.828 9.894 C 101.742 7.737,99.144 4.879,97.500 4.032 C 96.895 3.720,96.400 3.315,96.400 3.132 C 96.400 2.950,96.040 2.800,95.600 2.800 C 95.160 2.800,94.800 2.620,94.800 2.400 C 94.800 2.180,94.260 2.000,93.600 2.000 C 92.940 2.000,92.400 1.820,92.400 1.600 C 92.400 1.340,86.875 1.200,76.624 1.200 C 66.537 1.200,60.758 1.344,60.600 1.600 M205.208 60.585 C 205.222 72.417,205.371 79.142,205.615 78.991 C 205.827 78.860,206.000 78.117,206.000 77.341 L 206.000 75.929 210.300 76.138 C 218.970 76.559,225.896 77.463,233.800 79.204 C 234.900 79.446,236.387 79.744,237.104 79.866 C 237.821 79.988,238.506 80.249,238.627 80.444 C 238.748 80.640,239.242 80.805,239.724 80.810 C 240.676 80.822,245.822 82.489,246.262 82.929 C 246.411 83.078,246.943 83.200,247.443 83.200 C 247.943 83.200,248.464 83.380,248.600 83.600 C 248.736 83.820,249.115 84.000,249.443 84.000 C 249.771 84.000,250.784 84.360,251.694 84.800 C 252.605 85.240,253.496 85.600,253.673 85.600 C 254.229 85.600,259.742 88.240,262.773 89.958 C 264.367 90.861,265.926 91.600,266.236 91.600 C 266.546 91.600,266.800 91.780,266.800 92.000 C 266.800 92.220,267.197 92.400,267.681 92.400 L 268.563 92.400 267.637 93.100 C 267.128 93.485,265.246 95.286,263.456 97.101 C 255.870 104.794,250.303 110.316,248.438 112.000 C 246.523 113.728,245.825 115.200,246.920 115.200 C 247.656 115.200,249.593 116.141,249.597 116.500 C 249.599 116.665,249.960 116.800,250.400 116.800 C 250.840 116.800,251.200 116.980,251.200 117.200 C 251.200 117.420,251.560 117.600,252.000 117.600 C 252.440 117.600,252.800 117.780,252.800 118.000 C 252.800 118.220,253.070 118.400,253.400 118.400 C 253.730 118.400,254.000 118.559,254.000 118.753 C 254.000 118.948,254.315 119.207,254.700 119.329 C 255.609 119.617,257.553 120.812,258.558 121.700 C 258.994 122.085,259.587 122.400,259.875 122.400 C 260.164 122.400,260.400 122.580,260.400 122.800 C 260.400 123.020,260.636 123.200,260.925 123.200 C 261.213 123.200,261.836 123.560,262.308 124.000 C 262.780 124.440,263.429 124.800,263.750 124.800 C 264.071 124.800,264.406 125.017,264.494 125.282 C 264.582 125.547,267.569 122.802,271.130 119.182 C 279.628 110.545,279.404 110.769,282.345 107.975 C 283.744 106.645,284.793 105.459,284.674 105.341 C 284.391 105.058,281.675 107.674,271.178 118.338 C 267.638 121.934,264.650 124.783,264.536 124.670 C 264.374 124.507,269.392 119.276,277.976 110.659 C 282.102 106.518,284.578 104.333,284.707 104.720 C 284.795 104.984,285.186 105.200,285.576 105.200 C 287.569 105.200,299.577 116.418,305.485 123.800 C 306.894 125.560,308.269 127.274,308.541 127.609 C 308.814 127.944,309.648 129.114,310.395 130.209 C 311.142 131.304,311.899 132.260,312.077 132.333 C 312.255 132.407,312.400 132.627,312.400 132.822 C 312.400 133.018,313.469 134.806,314.776 136.795 C 317.895 141.545,322.689 151.028,325.245 157.500 C 325.440 157.995,325.770 158.805,325.979 159.300 C 326.451 160.423,328.515 166.788,329.190 169.200 C 329.466 170.190,329.830 171.450,329.997 172.000 C 330.746 174.465,332.287 182.375,333.270 188.800 C 333.971 193.386,333.978 214.953,333.279 219.600 C 331.825 229.274,330.757 234.229,328.558 241.499 C 318.299 275.426,294.208 303.689,262.200 319.350 C 256.385 322.196,253.331 323.600,252.960 323.600 C 252.823 323.600,251.047 324.223,249.013 324.985 C 241.372 327.847,233.240 329.771,220.800 331.660 C 216.193 332.360,195.787 332.368,191.200 331.672 C 189.330 331.389,186.540 330.966,185.000 330.734 C 183.460 330.502,181.660 330.173,181.000 330.002 C 180.340 329.831,178.720 329.470,177.400 329.199 C 167.260 327.119,151.401 320.917,142.600 315.592 C 141.500 314.926,140.330 314.264,140.000 314.120 C 139.265 313.800,132.278 309.166,132.000 308.814 C 131.890 308.675,131.170 308.130,130.400 307.602 C 126.721 305.082,122.046 301.040,116.000 295.151 C 93.245 272.988,77.616 238.865,77.208 210.457 C 77.197 209.699,75.640 210.110,72.200 211.777 C 69.709 212.985,65.225 215.043,63.000 216.000 C 62.560 216.189,60.940 216.909,59.400 217.600 C 57.860 218.291,56.240 219.011,55.800 219.200 C 55.044 219.525,50.334 221.631,48.600 222.420 C 48.160 222.620,47.282 222.971,46.649 223.201 C 45.540 223.604,45.508 223.687,45.780 225.509 C 45.935 226.549,46.219 228.480,46.412 229.800 C 46.604 231.120,46.961 233.370,47.205 234.800 C 47.448 236.230,47.632 237.850,47.614 238.400 C 47.510 241.500,52.207 256.987,55.802 265.400 C 57.475 269.315,62.134 279.017,63.389 281.200 C 68.001 289.225,73.294 297.340,76.694 301.600 C 77.659 302.810,78.663 304.073,78.925 304.406 C 85.089 312.268,94.745 322.087,103.000 328.888 C 105.145 330.655,114.380 337.600,114.585 337.600 C 114.695 337.600,116.173 338.533,117.871 339.673 C 124.039 343.817,136.983 350.743,142.400 352.797 C 143.170 353.089,143.971 353.479,144.180 353.664 C 144.389 353.849,144.796 354.000,145.084 354.000 C 145.373 354.000,146.372 354.353,147.304 354.784 C 151.487 356.719,164.567 360.609,172.206 362.190 C 178.560 363.505,181.324 363.910,192.645 365.188 C 197.282 365.712,212.302 365.722,217.684 365.205 C 226.672 364.341,229.339 363.983,236.000 362.744 C 246.274 360.833,260.182 356.677,267.800 353.240 C 268.680 352.843,270.210 352.177,271.200 351.759 C 293.263 342.454,317.064 323.873,332.935 303.564 C 335.987 299.659,343.600 288.694,343.600 288.203 C 343.600 288.049,343.939 287.446,344.353 286.862 C 350.404 278.332,359.669 255.699,362.800 241.800 C 363.048 240.700,363.408 239.170,363.601 238.400 C 363.794 237.630,364.156 235.830,364.406 234.400 C 364.656 232.970,365.012 230.990,365.197 230.000 C 370.018 204.248,366.171 168.293,356.019 144.200 C 353.106 137.288,351.787 134.364,350.065 131.000 C 339.742 110.836,326.788 94.537,309.072 79.421 C 307.796 78.333,306.358 77.173,305.876 76.844 C 305.394 76.515,304.910 76.146,304.800 76.023 C 304.287 75.451,300.964 73.039,296.400 69.927 C 291.858 66.830,289.244 65.212,284.000 62.247 C 282.084 61.164,272.474 56.393,269.800 55.197 C 265.226 53.151,264.375 52.800,263.999 52.800 C 263.774 52.800,263.277 52.627,262.895 52.415 C 261.234 51.494,249.174 47.720,244.800 46.752 C 239.067 45.483,237.222 45.103,233.200 44.364 C 227.476 43.312,218.974 42.473,210.893 42.161 L 205.185 41.941 205.208 60.585 M125.600 174.400 C 125.600 174.620,125.240 174.800,124.800 174.800 C 123.925 174.800,123.697 175.811,124.500 176.135 C 124.775 176.246,124.595 176.351,124.100 176.368 C 123.605 176.386,123.200 176.564,123.200 176.765 C 123.200 176.966,122.480 177.251,121.600 177.400 C 120.616 177.566,120.000 177.888,120.000 178.235 C 120.000 178.546,119.640 178.800,119.200 178.800 C 118.760 178.800,118.400 178.988,118.400 179.218 C 118.400 179.860,116.514 181.600,115.818 181.600 C 115.467 181.600,115.200 181.945,115.200 182.400 C 115.200 182.933,114.933 183.200,114.400 183.200 C 113.956 183.200,113.600 183.467,113.600 183.800 C 113.600 184.130,113.270 184.400,112.868 184.400 C 112.465 184.400,111.894 184.850,111.600 185.400 C 111.306 185.950,110.896 186.400,110.690 186.400 C 110.484 186.400,109.659 186.902,108.858 187.516 C 108.056 188.129,106.545 189.058,105.500 189.579 C 104.455 190.100,103.600 190.677,103.600 190.863 C 103.600 191.048,103.071 191.200,102.424 191.200 C 101.777 191.200,101.136 191.380,101.000 191.600 C 100.864 191.820,100.387 192.000,99.939 192.000 C 99.462 192.000,99.039 192.331,98.916 192.800 C 98.662 193.770,98.617 193.773,97.178 192.923 C 96.138 192.309,95.967 192.304,95.316 192.871 C 94.441 193.634,92.478 194.033,92.295 193.485 C 92.207 193.220,91.899 193.221,91.381 193.488 C 90.951 193.710,89.700 193.827,88.600 193.748 C 87.500 193.670,86.240 193.762,85.800 193.953 C 83.500 194.952,82.755 195.158,82.205 194.946 C 81.872 194.819,81.600 194.869,81.600 195.057 C 81.599 195.246,80.791 195.422,79.803 195.448 C 78.815 195.475,77.753 195.707,77.442 195.965 C 77.007 196.326,76.838 196.315,76.704 195.917 C 76.566 195.506,76.387 195.518,75.833 195.976 C 75.292 196.423,74.971 196.449,74.403 196.095 C 73.824 195.733,73.623 195.762,73.443 196.233 C 73.244 196.751,73.085 196.743,72.210 196.170 C 71.586 195.761,70.940 195.628,70.503 195.819 C 70.116 195.988,69.575 196.090,69.300 196.046 C 69.025 196.001,68.800 196.172,68.800 196.426 C 68.800 196.715,68.436 196.795,67.825 196.642 C 67.288 196.507,66.737 196.578,66.601 196.799 C 66.464 197.019,65.013 197.200,63.376 197.200 C 61.659 197.200,60.400 197.369,60.400 197.600 C 60.400 197.820,59.950 198.000,59.400 198.000 C 58.850 198.000,58.400 197.796,58.400 197.548 C 58.400 197.241,57.917 197.187,56.900 197.380 C 56.075 197.536,54.735 197.643,53.922 197.617 C 52.134 197.560,51.732 198.154,51.270 201.532 L 50.945 203.907 67.376 203.973 C 86.522 204.051,84.601 204.538,87.282 198.924 C 89.346 194.600,90.646 193.758,93.058 195.181 C 95.637 196.703,97.075 196.425,99.249 193.985 C 102.074 190.814,106.389 191.409,106.398 194.972 C 106.399 195.396,106.574 196.296,106.786 196.972 C 106.998 197.647,107.302 198.740,107.461 199.400 L 107.749 200.600 107.974 199.000 C 108.186 197.501,108.364 197.317,110.800 196.083 C 112.230 195.358,113.460 194.593,113.533 194.383 C 113.607 194.172,113.895 194.000,114.174 194.000 C 115.508 194.000,123.200 189.657,123.200 188.904 C 123.200 188.627,123.545 188.400,123.967 188.400 C 124.388 188.400,124.804 188.188,124.891 187.928 C 124.993 187.620,125.318 187.573,125.824 187.792 C 126.251 187.976,126.735 188.098,126.900 188.064 C 127.065 188.029,127.224 189.395,127.254 191.100 C 127.284 192.805,127.448 196.360,127.617 199.000 C 127.987 204.744,127.771 190.070,127.339 180.100 C 127.098 174.534,127.010 174.000,126.338 174.000 C 125.932 174.000,125.600 174.180,125.600 174.400 M124.945 188.600 C 124.818 188.930,124.464 189.200,124.157 189.200 C 123.851 189.200,123.600 189.477,123.600 189.816 C 123.600 190.309,123.774 190.269,124.475 189.616 C 124.957 189.167,125.497 188.800,125.675 188.800 C 125.854 188.800,126.000 188.620,126.000 188.400 C 126.000 187.778,125.202 187.929,124.945 188.600 " stroke="none" fill="#fbb24f" fill-rule="evenodd"></path><path id="path4" d="M206.000 77.388 C 206.000 78.211,205.834 78.744,205.619 78.612 C 205.380 78.464,205.227 83.738,205.210 92.710 L 205.182 107.044 209.691 107.119 C 225.746 107.388,246.418 113.789,258.185 122.135 L 259.369 122.975 258.585 121.916 C 258.153 121.333,257.530 120.764,257.200 120.653 C 256.317 120.354,254.221 119.047,254.067 118.700 C 253.993 118.535,253.678 118.400,253.367 118.400 C 253.055 118.400,252.800 118.220,252.800 118.000 C 252.800 117.780,252.440 117.600,252.000 117.600 C 251.560 117.600,251.200 117.420,251.200 117.200 C 251.200 116.980,250.840 116.800,250.400 116.800 C 249.960 116.800,249.599 116.665,249.597 116.500 C 249.593 116.141,247.656 115.200,246.920 115.200 C 245.825 115.200,246.523 113.728,248.438 112.000 C 250.303 110.316,255.870 104.794,263.456 97.101 C 265.246 95.286,267.128 93.485,267.637 93.100 L 268.563 92.400 267.681 92.400 C 267.197 92.400,266.800 92.220,266.800 92.000 C 266.800 91.780,266.546 91.600,266.236 91.600 C 265.926 91.600,264.367 90.861,262.773 89.958 C 259.742 88.240,254.229 85.600,253.673 85.600 C 253.496 85.600,252.605 85.240,251.694 84.800 C 250.784 84.360,249.771 84.000,249.443 84.000 C 249.115 84.000,248.736 83.820,248.600 83.600 C 248.464 83.380,247.943 83.200,247.443 83.200 C 246.943 83.200,246.411 83.078,246.262 82.929 C 245.822 82.489,240.676 80.822,239.724 80.810 C 239.242 80.805,238.748 80.640,238.627 80.444 C 238.506 80.249,237.821 79.988,237.104 79.866 C 236.387 79.744,234.900 79.446,233.800 79.204 C 225.896 77.463,218.970 76.559,210.300 76.138 L 206.000 75.929 206.000 77.388 M10.900 124.038 C 10.242 124.725,10.159 202.400,10.817 202.400 C 11.046 202.400,11.620 202.760,12.092 203.200 C 12.897 203.950,13.504 204.000,21.821 204.000 C 32.327 204.000,32.017 204.120,33.958 199.304 C 36.052 194.111,36.471 193.600,38.648 193.600 C 40.917 193.600,41.997 194.650,42.814 197.651 C 43.113 198.751,43.503 199.740,43.679 199.849 C 43.856 199.958,44.000 200.453,44.000 200.948 C 44.000 202.952,46.105 204.150,49.232 203.926 L 51.000 203.800 51.286 201.501 C 51.695 198.205,52.133 197.560,53.922 197.617 C 54.735 197.643,56.075 197.536,56.900 197.380 C 57.917 197.187,58.400 197.241,58.400 197.548 C 58.400 197.796,58.850 198.000,59.400 198.000 C 59.950 198.000,60.400 197.820,60.400 197.600 C 60.400 197.369,61.659 197.200,63.376 197.200 C 65.013 197.200,66.464 197.019,66.601 196.799 C 66.737 196.578,67.288 196.507,67.825 196.642 C 68.436 196.795,68.800 196.715,68.800 196.426 C 68.800 196.172,69.025 196.001,69.300 196.046 C 69.575 196.090,70.116 195.988,70.503 195.819 C 70.940 195.628,71.586 195.761,72.210 196.170 C 73.085 196.743,73.244 196.751,73.443 196.233 C 73.623 195.762,73.824 195.733,74.403 196.095 C 74.971 196.449,75.292 196.423,75.833 195.976 C 76.387 195.518,76.566 195.506,76.704 195.917 C 76.838 196.315,77.007 196.326,77.442 195.965 C 77.753 195.707,78.815 195.475,79.803 195.448 C 80.791 195.422,81.599 195.246,81.600 195.057 C 81.600 194.869,81.872 194.819,82.205 194.946 C 82.755 195.158,83.500 194.952,85.800 193.953 C 86.240 193.762,87.500 193.670,88.600 193.748 C 89.700 193.827,90.951 193.710,91.381 193.488 C 91.899 193.221,92.207 193.220,92.295 193.485 C 92.478 194.033,94.441 193.634,95.316 192.871 C 95.967 192.304,96.138 192.309,97.178 192.923 C 98.617 193.773,98.662 193.770,98.916 192.800 C 99.039 192.331,99.462 192.000,99.939 192.000 C 100.387 192.000,100.864 191.820,101.000 191.600 C 101.136 191.380,101.777 191.200,102.424 191.200 C 103.071 191.200,103.600 191.048,103.600 190.863 C 103.600 190.677,104.455 190.100,105.500 189.579 C 106.545 189.058,108.056 188.129,108.858 187.516 C 109.659 186.902,110.484 186.400,110.690 186.400 C 110.896 186.400,111.306 185.950,111.600 185.400 C 111.894 184.850,112.465 184.400,112.868 184.400 C 113.270 184.400,113.600 184.130,113.600 183.800 C 113.600 183.467,113.956 183.200,114.400 183.200 C 114.933 183.200,115.200 182.933,115.200 182.400 C 115.200 181.945,115.467 181.600,115.818 181.600 C 116.514 181.600,118.400 179.860,118.400 179.218 C 118.400 178.988,118.760 178.800,119.200 178.800 C 119.640 178.800,120.000 178.546,120.000 178.235 C 120.000 177.888,120.616 177.566,121.600 177.400 C 122.480 177.251,123.200 176.966,123.200 176.765 C 123.200 176.564,123.605 176.386,124.100 176.368 C 124.595 176.351,124.775 176.246,124.500 176.135 C 123.697 175.811,123.925 174.800,124.800 174.800 C 125.240 174.800,125.600 174.620,125.600 174.400 C 125.600 174.180,125.940 174.000,126.356 174.000 C 127.203 174.000,127.768 183.168,127.790 197.282 L 127.800 203.963 134.498 204.082 C 141.560 204.206,142.400 204.006,142.400 202.195 C 142.400 201.868,142.576 201.600,142.792 201.600 C 143.046 201.600,143.189 187.948,143.196 163.000 L 143.208 124.400 137.704 124.340 C 128.484 124.240,116.304 124.157,62.800 123.830 C 20.744 123.574,11.309 123.611,10.900 124.038 " stroke="none" fill="#fbd2c0" fill-rule="evenodd"></path></g></svg>