<svg id="svg" version="1.1" xmlns="http://www.w3.org/2000/svg" xmlns:xlink="http://www.w3.org/1999/xlink" width="400" height="400" viewBox="0, 0, 400,400"><g id="svgg"><path id="path0" d="M190.500 0.270 C 189.565 0.367,188.800 0.616,188.800 0.823 C 188.800 1.030,188.260 1.200,187.600 1.200 C 186.940 1.200,186.400 1.380,186.400 1.600 C 186.400 1.820,186.040 2.000,185.600 2.000 C 185.160 2.000,184.800 2.180,184.800 2.400 C 184.800 2.620,184.384 2.800,183.875 2.800 C 183.367 2.800,182.564 3.160,182.092 3.600 C 181.620 4.040,180.956 4.400,180.617 4.400 C 180.278 4.400,180.000 4.580,180.000 4.800 C 180.000 5.020,179.775 5.200,179.500 5.200 C 179.225 5.201,178.525 5.606,177.945 6.100 C 177.365 6.595,176.207 7.540,175.372 8.200 C 173.074 10.016,170.000 13.093,170.000 13.578 C 170.000 13.814,169.460 14.572,168.800 15.263 C 168.140 15.954,167.600 16.762,167.600 17.059 C 167.600 17.357,167.420 17.600,167.200 17.600 C 166.980 17.600,166.800 17.960,166.800 18.400 C 166.800 18.840,166.620 19.200,166.400 19.200 C 166.180 19.200,166.000 19.560,166.000 20.000 C 166.000 20.440,165.820 20.800,165.600 20.800 C 165.380 20.800,165.200 21.160,165.200 21.600 C 165.200 22.040,165.020 22.400,164.800 22.400 C 164.580 22.400,164.400 22.940,164.400 23.600 C 164.400 24.260,164.220 24.800,164.000 24.800 C 163.780 24.800,163.600 25.239,163.600 25.776 C 163.600 26.313,163.420 26.864,163.200 27.000 C 162.980 27.136,162.800 28.047,162.800 29.024 L 162.800 30.800 150.824 30.800 C 143.271 30.800,138.756 30.948,138.600 31.200 C 138.464 31.420,137.913 31.600,137.376 31.600 C 136.839 31.600,136.400 31.780,136.400 32.000 C 136.400 32.220,136.040 32.400,135.600 32.400 C 135.160 32.400,134.800 32.580,134.800 32.800 C 134.800 33.020,134.533 33.200,134.207 33.200 C 133.018 33.200,127.600 38.618,127.600 39.807 C 127.600 40.133,127.420 40.400,127.200 40.400 C 126.980 40.400,126.800 40.760,126.800 41.200 C 126.800 41.640,126.620 42.000,126.400 42.000 C 126.180 42.000,126.000 42.270,126.000 42.600 C 126.000 43.127,123.047 43.200,101.824 43.200 C 86.137 43.200,77.560 43.340,77.400 43.600 C 77.264 43.820,76.602 44.000,75.929 44.000 C 74.795 44.000,69.654 45.524,69.200 45.994 C 69.090 46.108,68.505 46.456,67.900 46.768 C 67.295 47.080,66.800 47.485,66.800 47.668 C 66.800 47.850,66.527 48.000,66.193 48.000 C 64.809 48.000,58.400 55.283,58.400 56.856 C 58.400 57.265,58.264 57.600,58.098 57.600 C 57.931 57.600,57.560 58.185,57.271 58.900 C 56.983 59.615,56.579 60.513,56.374 60.895 C 56.168 61.277,56.000 62.042,56.000 62.595 C 56.000 63.148,55.820 63.600,55.600 63.600 C 55.334 63.600,55.200 116.592,55.200 221.776 C 55.200 326.796,55.334 380.036,55.600 380.200 C 55.820 380.336,56.000 381.067,56.000 381.824 C 56.000 382.581,56.180 383.200,56.400 383.200 C 56.620 383.200,56.800 383.740,56.800 384.400 C 56.800 385.060,56.980 385.600,57.200 385.600 C 57.420 385.600,57.600 385.960,57.600 386.400 C 57.600 386.840,57.780 387.200,58.000 387.200 C 58.220 387.200,58.400 387.415,58.400 387.678 C 58.400 388.967,64.180 395.600,65.303 395.600 C 65.589 395.600,66.083 395.960,66.400 396.400 C 66.717 396.840,67.297 397.200,67.688 397.200 C 68.080 397.200,68.400 397.380,68.400 397.600 C 68.400 397.820,68.760 398.000,69.200 398.000 C 69.640 398.000,70.000 398.180,70.000 398.400 C 70.000 398.620,70.324 398.800,70.720 398.800 C 71.116 398.800,71.665 399.025,71.940 399.300 C 72.338 399.698,98.485 399.800,200.000 399.800 C 301.515 399.800,327.662 399.698,328.060 399.300 C 328.335 399.025,328.884 398.800,329.280 398.800 C 329.676 398.800,330.000 398.620,330.000 398.400 C 330.000 398.180,330.360 398.000,330.800 398.000 C 331.240 398.000,331.600 397.820,331.600 397.600 C 331.600 397.380,331.920 397.200,332.312 397.200 C 332.703 397.200,333.283 396.840,333.600 396.400 C 333.917 395.960,334.411 395.600,334.697 395.600 C 335.820 395.600,341.600 388.967,341.600 387.678 C 341.600 387.415,341.780 387.200,342.000 387.200 C 342.220 387.200,342.400 386.840,342.400 386.400 C 342.400 385.960,342.580 385.600,342.800 385.600 C 343.020 385.600,343.200 385.060,343.200 384.400 C 343.200 383.740,343.380 383.200,343.600 383.200 C 343.820 383.200,344.000 382.581,344.000 381.824 C 344.000 381.067,344.180 380.336,344.400 380.200 C 345.043 379.802,344.944 219.041,344.300 217.917 C 343.508 216.535,342.092 215.200,341.418 215.200 C 341.078 215.200,340.800 215.020,340.800 214.800 C 340.800 214.204,339.463 214.317,338.576 214.987 C 338.149 215.310,337.468 215.580,337.062 215.587 C 336.110 215.604,334.140 217.008,333.499 218.128 C 333.107 218.813,332.957 235.899,332.800 298.000 C 332.608 373.986,332.571 377.076,331.850 379.000 C 330.217 383.356,326.938 386.470,322.600 387.785 C 319.560 388.707,80.440 388.707,77.400 387.785 C 73.062 386.470,69.783 383.356,68.150 379.000 C 67.236 376.562,66.706 72.010,67.608 67.600 C 68.569 62.901,71.149 59.364,75.059 57.385 L 77.400 56.200 101.600 56.200 L 125.800 56.200 125.800 62.800 L 125.800 69.400 110.600 69.628 C 101.615 69.763,94.779 70.034,93.882 70.290 C 88.252 71.898,83.639 76.229,81.733 81.696 C 80.755 84.503,80.566 359.479,81.541 362.000 C 83.941 368.208,87.316 371.694,92.833 373.662 C 96.591 375.003,123.724 375.116,125.958 373.800 C 130.063 371.382,130.001 365.820,125.847 363.849 C 124.669 363.290,122.611 363.200,111.048 363.200 C 96.137 363.200,95.215 363.066,93.495 360.655 L 92.600 359.400 92.600 222.200 L 92.600 85.000 93.510 83.724 C 95.311 81.199,95.302 81.200,112.575 81.200 L 128.228 81.200 128.912 82.359 C 130.765 85.495,134.968 88.560,139.160 89.833 C 141.991 90.692,206.323 90.667,207.988 89.806 C 211.609 87.934,211.883 82.443,208.472 80.128 C 207.463 79.443,205.465 79.388,174.529 79.200 C 137.555 78.975,140.714 79.257,138.485 75.983 L 137.571 74.639 137.685 60.819 C 137.844 41.651,136.462 43.090,155.000 42.800 C 169.425 42.575,169.588 42.543,172.222 39.466 C 173.573 37.888,174.800 34.793,174.800 32.966 C 174.800 24.458,185.015 14.134,195.520 12.025 C 209.596 9.200,222.187 18.427,225.436 33.950 C 226.313 38.145,228.257 40.845,231.400 42.236 C 231.840 42.430,237.974 42.682,245.030 42.795 L 257.860 43.000 259.468 44.064 C 262.363 45.981,262.400 46.201,262.400 61.301 C 262.400 80.394,263.940 78.924,243.653 79.200 C 227.390 79.421,227.656 79.377,225.982 82.122 C 224.447 84.640,225.381 87.947,228.096 89.602 C 230.138 90.847,257.775 90.825,261.582 89.575 C 265.512 88.285,269.279 85.421,271.099 82.340 L 271.772 81.200 287.425 81.200 C 304.698 81.200,304.689 81.199,306.490 83.724 L 307.400 85.000 307.400 199.800 L 307.400 314.600 290.400 314.811 C 272.842 315.029,272.161 315.093,269.397 316.802 C 263.545 320.419,263.200 321.928,263.200 343.935 C 263.200 357.639,263.079 362.361,262.720 362.720 C 262.351 363.089,248.945 363.200,204.820 363.201 C 148.611 363.203,147.373 363.219,146.122 363.982 C 142.418 366.241,142.291 371.162,145.873 373.600 L 147.341 374.600 209.371 374.600 L 271.400 374.600 274.076 373.332 C 277.457 371.730,278.274 370.886,303.605 342.800 C 305.887 340.270,309.409 336.400,311.433 334.200 C 316.260 328.951,316.873 328.171,318.027 325.800 L 319.000 323.800 319.000 203.800 C 319.000 99.017,318.925 83.572,318.409 82.000 C 316.534 76.289,312.000 71.970,306.118 70.290 C 305.221 70.034,298.385 69.763,289.400 69.628 L 274.200 69.400 274.200 62.800 L 274.200 56.200 298.400 56.200 L 322.600 56.200 325.054 57.482 C 328.867 59.475,331.293 62.728,332.360 67.277 C 332.670 68.602,332.800 88.032,332.801 133.277 C 332.803 205.990,332.454 198.987,336.168 200.784 C 339.632 202.461,340.854 202.367,342.963 200.258 L 344.800 198.421 344.800 131.234 C 344.800 86.874,344.664 63.963,344.400 63.800 C 344.180 63.664,344.000 63.111,344.000 62.571 C 344.000 62.031,343.832 61.277,343.626 60.895 C 343.421 60.513,343.017 59.615,342.729 58.900 C 342.440 58.185,342.069 57.600,341.902 57.600 C 341.736 57.600,341.600 57.265,341.600 56.856 C 341.600 55.283,335.191 48.000,333.807 48.000 C 333.473 48.000,333.200 47.850,333.200 47.668 C 333.200 47.485,332.705 47.080,332.100 46.768 C 331.495 46.456,330.910 46.108,330.800 45.994 C 330.346 45.524,325.205 44.000,324.071 44.000 C 323.398 44.000,322.736 43.820,322.600 43.600 C 322.440 43.340,313.863 43.200,298.176 43.200 C 276.953 43.200,274.000 43.127,274.000 42.600 C 274.000 42.270,273.820 42.000,273.600 42.000 C 273.380 42.000,273.200 41.640,273.200 41.200 C 273.200 40.760,273.020 40.400,272.800 40.400 C 272.580 40.400,272.400 40.133,272.400 39.807 C 272.400 38.618,266.982 33.200,265.793 33.200 C 265.467 33.200,265.200 33.020,265.200 32.800 C 265.200 32.580,264.840 32.400,264.400 32.400 C 263.960 32.400,263.600 32.220,263.600 32.000 C 263.600 31.780,263.161 31.600,262.624 31.600 C 262.087 31.600,261.536 31.420,261.400 31.200 C 261.244 30.948,256.729 30.800,249.176 30.800 L 237.200 30.800 237.200 29.024 C 237.200 28.047,237.020 27.136,236.800 27.000 C 236.580 26.864,236.400 26.313,236.400 25.776 C 236.400 25.239,236.220 24.800,236.000 24.800 C 235.780 24.800,235.600 24.260,235.600 23.600 C 235.600 22.940,235.420 22.400,235.200 22.400 C 234.980 22.400,234.800 22.040,234.800 21.600 C 234.800 21.160,234.620 20.800,234.400 20.800 C 234.180 20.800,234.000 20.440,234.000 20.000 C 234.000 19.560,233.820 19.200,233.600 19.200 C 233.380 19.200,233.200 18.840,233.200 18.400 C 233.200 17.960,233.020 17.600,232.800 17.600 C 232.580 17.600,232.400 17.357,232.400 17.059 C 232.400 16.762,231.860 15.954,231.200 15.263 C 230.540 14.572,230.000 13.816,230.000 13.581 C 230.000 12.917,223.583 6.800,222.885 6.800 C 222.716 6.800,222.317 6.440,222.000 6.000 C 221.683 5.560,221.103 5.200,220.712 5.200 C 220.320 5.200,220.000 5.020,220.000 4.800 C 220.000 4.580,219.775 4.396,219.500 4.391 C 219.225 4.386,218.550 4.030,218.000 3.600 C 217.450 3.170,216.595 2.814,216.100 2.809 C 215.605 2.804,215.200 2.620,215.200 2.400 C 215.200 2.180,214.840 2.000,214.400 2.000 C 213.960 2.000,213.600 1.820,213.600 1.600 C 213.600 1.380,213.075 1.200,212.433 1.200 C 211.792 1.200,211.193 0.980,211.104 0.711 C 210.939 0.217,194.432 -0.136,190.500 0.270 M197.296 35.998 C 194.457 37.729,193.549 41.416,195.314 44.041 C 198.639 48.984,205.979 46.431,205.502 40.497 C 205.163 36.264,200.791 33.867,197.296 35.998 M126.800 108.761 C 122.797 109.597,118.688 113.114,117.262 116.927 C 116.428 119.155,116.400 119.796,116.400 136.600 C 116.400 156.678,116.429 156.867,119.981 160.351 C 124.514 164.797,124.538 164.801,144.366 164.796 C 165.454 164.790,167.818 164.074,171.427 156.600 C 172.717 153.930,172.824 120.363,171.554 116.969 C 170.503 114.160,167.572 111.048,164.600 109.585 L 162.600 108.600 145.400 108.534 C 135.940 108.498,127.570 108.600,126.800 108.761 M160.451 120.661 C 160.895 121.197,161.000 124.239,161.000 136.600 C 161.000 148.961,160.895 152.003,160.451 152.539 C 159.958 153.133,158.330 153.200,144.374 153.200 L 128.845 153.200 128.223 152.311 C 127.686 151.545,127.600 149.368,127.600 136.600 C 127.600 123.832,127.686 121.655,128.223 120.889 L 128.845 120.000 144.374 120.000 C 158.330 120.000,159.958 120.067,160.451 120.661 M199.417 121.888 C 194.993 123.033,194.152 129.597,198.119 132.016 C 199.900 133.102,278.753 133.258,280.838 132.181 C 284.292 130.394,284.575 124.765,281.320 122.559 C 280.236 121.824,202.136 121.184,199.417 121.888 M197.217 143.938 C 194.102 146.901,195.448 152.082,199.624 153.207 C 200.644 153.481,209.312 153.586,224.888 153.512 L 248.600 153.400 250.073 152.484 C 253.418 150.404,253.505 145.789,250.246 143.286 L 249.092 142.400 223.963 142.400 L 198.834 142.400 197.217 143.938 M126.200 194.467 C 121.923 195.908,118.626 198.881,117.262 202.527 C 115.925 206.100,115.925 238.300,117.262 241.873 C 118.296 244.638,121.248 247.762,124.200 249.215 L 126.200 250.200 144.237 250.200 L 162.273 250.200 164.923 248.869 C 167.868 247.389,169.463 245.793,171.101 242.685 L 172.200 240.600 172.315 222.756 C 172.427 205.535,172.402 204.835,171.602 202.697 C 170.145 198.804,166.932 195.884,162.600 194.517 C 160.586 193.882,128.070 193.837,126.200 194.467 M140.600 217.600 C 134.003 224.200,128.379 229.600,128.103 229.600 C 127.274 229.600,127.388 207.681,128.223 206.489 C 128.842 205.604,128.903 205.600,140.720 205.600 L 152.595 205.600 140.600 217.600 M197.217 207.938 C 194.438 210.581,195.018 214.912,198.408 216.837 C 199.472 217.441,273.662 217.946,278.387 217.382 C 283.445 216.778,285.484 211.484,282.000 208.000 L 280.400 206.400 239.617 206.400 L 198.834 206.400 197.217 207.938 M161.123 226.639 C 161.007 237.015,160.954 237.699,160.224 238.233 C 159.238 238.953,136.800 239.087,136.800 238.372 C 136.800 237.338,160.504 214.286,160.879 214.955 C 161.087 215.327,161.193 220.411,161.123 226.639 M198.307 227.624 C 194.571 229.596,194.644 235.458,198.429 237.415 C 199.438 237.937,202.954 238.003,224.571 237.909 L 249.548 237.800 250.780 236.619 C 253.720 233.803,252.958 228.861,249.353 227.355 C 246.935 226.344,200.265 226.590,198.307 227.624 M126.553 279.970 C 122.482 280.974,118.677 284.344,117.222 288.234 C 115.967 291.588,115.952 323.971,117.203 327.317 C 118.745 331.439,122.564 334.598,127.200 335.588 C 130.268 336.243,161.186 335.972,163.273 335.272 C 166.936 334.042,170.872 330.008,171.964 326.363 C 172.876 323.318,172.536 290.793,171.564 288.196 C 170.537 285.450,167.409 282.115,164.593 280.763 L 162.600 279.807 145.200 279.735 C 135.630 279.695,127.239 279.801,126.553 279.970 M198.491 291.437 C 194.717 293.087,194.634 299.453,198.362 301.381 C 200.540 302.507,279.223 302.298,281.062 301.161 C 284.636 298.953,284.482 293.717,280.782 291.638 C 278.836 290.544,200.968 290.355,198.491 291.437 M160.451 291.861 C 160.895 292.397,161.000 295.439,161.000 307.800 C 161.000 320.161,160.895 323.203,160.451 323.739 C 159.958 324.333,158.329 324.400,144.360 324.400 L 128.818 324.400 128.195 323.449 C 127.281 322.053,127.473 292.177,128.400 291.591 C 129.584 290.843,159.818 291.098,160.451 291.861 M198.542 311.992 C 195.540 313.220,194.587 318.018,196.837 320.581 C 198.836 322.857,198.816 322.856,225.000 322.722 L 249.000 322.600 250.269 321.695 C 253.106 319.671,253.354 315.447,250.780 312.981 L 249.548 311.800 224.474 311.721 C 210.683 311.677,199.014 311.799,198.542 311.992 M302.392 326.700 C 302.385 326.978,301.212 328.302,292.207 338.200 C 290.405 340.180,286.160 344.860,282.773 348.600 C 276.222 355.833,275.274 356.800,274.739 356.800 C 274.236 356.800,274.309 328.118,274.814 327.174 C 275.244 326.371,302.413 325.904,302.392 326.700 " stroke="none" fill="#060605" fill-rule="evenodd"></path><path id="path1" d="M195.600 12.276 C 188.426 13.477,181.097 18.872,177.744 25.421 C 176.137 28.559,175.738 29.791,174.741 34.703 C 174.065 38.035,172.132 40.629,169.228 42.100 L 167.057 43.200 154.828 43.207 C 136.982 43.216,137.864 42.353,137.671 60.000 C 137.528 73.089,137.765 75.259,139.515 76.891 C 141.626 78.859,140.554 78.800,174.355 78.800 C 198.596 78.800,206.634 78.918,207.481 79.286 C 209.170 80.020,210.706 81.765,211.165 83.472 L 211.576 85.000 218.114 84.882 L 224.652 84.764 225.174 83.282 C 226.693 78.966,227.386 78.800,243.894 78.800 C 263.508 78.800,262.141 80.061,262.325 61.800 C 262.521 42.322,263.330 43.200,245.184 43.200 C 229.180 43.200,226.918 42.204,225.205 34.400 C 223.802 28.012,223.137 26.263,220.794 22.799 C 215.513 14.994,205.171 10.674,195.600 12.276 M204.028 36.700 C 205.370 37.961,205.659 38.519,205.838 40.200 C 206.651 47.805,195.605 49.430,194.195 41.913 C 193.165 36.424,199.922 32.843,204.028 36.700 M77.000 56.959 C 73.366 58.363,70.864 60.589,69.146 63.949 L 68.200 65.800 68.200 222.200 C 68.200 373.639,68.224 378.647,68.941 380.090 C 70.720 383.669,74.054 386.461,77.710 387.434 C 80.378 388.144,319.091 388.285,321.800 387.578 C 326.391 386.380,330.102 383.050,331.537 378.840 C 331.882 377.828,332.001 357.535,332.002 299.440 C 332.004 244.571,332.133 220.925,332.439 219.800 C 333.037 217.596,334.836 215.854,337.423 214.974 L 339.600 214.234 339.600 208.163 L 339.600 202.091 337.875 201.832 C 335.518 201.479,333.444 199.696,332.638 197.331 C 332.064 195.646,332.000 188.968,332.000 130.941 L 332.000 66.424 331.006 64.251 C 329.399 60.737,326.721 58.345,322.800 56.921 C 321.728 56.531,315.900 56.411,297.900 56.406 L 274.400 56.400 274.400 62.800 L 274.400 69.200 288.908 69.200 C 302.278 69.200,303.647 69.264,306.358 70.015 C 312.638 71.756,317.394 76.556,318.959 82.732 C 319.874 86.348,319.941 321.048,319.027 324.059 C 317.974 327.530,317.050 328.833,311.247 335.025 C 308.215 338.260,302.859 344.126,301.599 345.593 C 301.129 346.139,299.170 348.299,297.244 350.393 C 295.319 352.487,293.036 355.004,292.172 355.986 C 291.307 356.969,289.880 358.517,289.000 359.428 C 288.120 360.338,285.637 363.067,283.483 365.493 C 277.351 372.397,275.664 373.657,271.094 374.746 C 268.352 375.399,149.487 375.393,147.560 374.739 C 144.818 373.809,142.800 371.604,142.800 369.539 C 142.800 368.851,142.351 368.800,136.243 368.800 C 129.273 368.800,129.200 368.821,129.200 370.793 C 129.200 371.888,126.675 374.191,124.887 374.727 C 122.787 375.356,98.524 375.380,95.531 374.756 C 87.935 373.173,82.920 368.451,81.003 361.080 C 80.223 358.082,80.072 87.005,80.848 83.706 C 82.478 76.780,87.110 71.825,93.651 70.013 C 96.351 69.265,97.738 69.200,111.092 69.200 L 125.600 69.200 125.600 62.800 L 125.600 56.400 101.900 56.448 C 84.996 56.482,77.856 56.628,77.000 56.959 " stroke="none" fill="#e5a96e" fill-rule="evenodd"></path><path id="path2" d="M96.446 82.151 C 95.701 82.420,94.667 83.171,94.148 83.820 L 93.204 85.000 93.202 222.287 L 93.200 359.573 94.613 360.987 L 96.027 362.400 110.018 362.400 C 123.433 362.400,124.083 362.435,125.811 363.247 C 127.627 364.101,129.200 365.810,129.200 366.929 C 129.200 368.762,129.341 368.800,136.243 368.800 C 142.351 368.800,142.800 368.749,142.800 368.061 C 142.800 367.092,143.808 365.097,144.712 364.280 C 146.877 362.320,144.295 362.400,205.387 362.400 L 262.400 362.400 262.404 344.500 C 262.409 323.456,262.453 323.173,266.319 318.785 C 270.029 314.574,273.220 314.064,296.100 314.020 L 306.800 314.000 306.800 199.442 L 306.800 84.885 305.677 83.682 C 303.857 81.734,302.657 81.603,286.800 81.621 L 272.200 81.637 270.855 83.519 C 268.802 86.391,263.879 90.000,262.013 90.000 C 261.592 90.000,261.136 90.180,261.000 90.400 C 260.842 90.656,254.975 90.800,244.714 90.800 L 228.676 90.800 227.337 89.779 C 225.870 88.660,224.800 86.902,224.800 85.610 C 224.800 84.800,224.646 84.783,218.300 84.890 L 211.800 85.000 211.400 86.395 C 211.180 87.162,210.325 88.467,209.500 89.295 L 208.000 90.800 173.624 90.800 C 151.137 90.800,139.162 90.662,139.000 90.400 C 138.864 90.180,138.491 90.000,138.172 90.000 C 136.316 90.000,128.800 84.487,128.800 83.126 C 128.800 81.672,128.022 81.599,112.729 81.630 C 102.024 81.652,97.417 81.799,96.446 82.151 M161.269 108.045 C 166.033 109.039,169.603 111.721,171.556 115.770 L 172.800 118.350 172.800 136.580 C 172.800 146.607,172.640 155.123,172.444 155.505 C 172.249 155.887,171.754 156.912,171.344 157.781 C 170.272 160.059,167.718 162.487,164.978 163.832 L 162.600 165.000 145.200 165.118 C 125.944 165.249,125.817 165.236,121.985 162.759 C 119.178 160.945,117.066 157.990,116.201 154.667 C 115.352 151.410,115.327 121.660,116.170 118.494 C 117.592 113.153,121.528 109.398,127.000 108.162 C 129.746 107.542,158.391 107.444,161.269 108.045 M281.000 121.835 C 285.270 124.065,285.383 130.120,281.200 132.578 C 279.181 133.764,200.288 133.886,198.132 132.706 C 194.724 130.842,193.903 125.777,196.575 123.105 C 198.879 120.801,197.479 120.871,240.000 120.938 C 279.118 121.000,279.411 121.006,281.000 121.835 M250.532 142.921 C 254.250 145.757,254.026 150.889,250.087 153.103 L 248.491 154.000 224.026 154.000 C 197.087 154.000,198.234 154.103,196.250 151.500 C 195.305 150.260,194.971 148.712,195.128 146.300 C 195.220 144.893,197.944 142.121,199.471 141.882 C 200.092 141.785,211.504 141.727,224.831 141.753 L 249.063 141.800 250.532 142.921 M163.081 194.051 C 167.738 195.926,170.026 197.958,171.769 201.769 L 172.800 204.024 172.800 222.262 L 172.800 240.501 171.580 242.902 C 170.030 245.952,167.794 248.166,164.887 249.528 L 162.600 250.600 145.258 250.716 C 126.035 250.845,125.461 250.786,121.755 248.303 C 119.313 246.668,116.981 243.300,116.200 240.280 C 115.323 236.889,115.327 206.730,116.205 203.834 C 117.422 199.823,120.221 196.416,123.459 195.005 C 124.306 194.636,125.270 194.179,125.600 193.990 C 126.541 193.452,161.736 193.509,163.081 194.051 M281.774 206.953 C 285.415 209.730,285.152 214.413,281.204 217.100 L 279.882 218.000 239.721 218.000 C 195.476 218.000,198.278 218.161,196.250 215.500 C 195.305 214.260,194.971 212.712,195.128 210.300 C 195.213 208.997,197.879 206.153,199.268 205.883 C 199.781 205.783,218.214 205.724,240.231 205.751 L 280.263 205.800 281.774 206.953 M250.200 227.159 C 253.901 229.321,254.145 234.723,250.663 237.379 L 249.324 238.400 224.242 238.400 C 196.685 238.400,197.776 238.494,195.968 235.954 C 194.875 234.420,194.724 230.418,195.722 229.421 C 196.056 229.087,196.390 228.673,196.464 228.499 C 196.539 228.326,197.140 227.788,197.800 227.305 L 199.000 226.425 224.000 226.442 C 247.082 226.457,249.092 226.512,250.200 227.159 M161.628 279.362 C 166.451 280.515,169.611 282.937,171.556 286.970 L 172.800 289.550 172.800 307.780 C 172.800 317.807,172.640 326.323,172.444 326.705 C 172.249 327.087,171.754 328.098,171.344 328.951 C 170.230 331.273,167.461 333.922,164.888 335.128 L 162.600 336.200 144.400 336.200 C 126.300 336.200,126.189 336.195,124.222 335.288 C 120.140 333.406,117.675 330.597,116.339 326.304 C 115.211 322.679,115.217 292.484,116.347 289.060 C 118.066 283.849,121.867 280.450,127.200 279.355 C 130.542 278.668,158.753 278.674,161.628 279.362 M281.387 291.300 C 285.192 293.789,285.244 299.322,281.484 301.614 C 279.737 302.680,200.055 302.863,198.012 301.806 C 195.580 300.548,193.694 294.302,195.559 293.680 C 195.802 293.599,196.000 293.303,196.000 293.021 C 196.000 292.739,196.675 292.045,197.500 291.478 L 199.000 290.448 239.506 290.424 L 280.011 290.400 281.387 291.300 M249.738 311.613 C 253.878 313.559,254.329 319.660,250.523 322.239 C 249.372 323.019,205.804 323.683,200.180 323.006 C 196.510 322.564,194.813 320.060,195.127 315.550 C 195.209 314.378,197.267 312.000,198.800 311.306 C 200.878 310.367,247.686 310.648,249.738 311.613 M275.680 327.280 C 275.325 327.635,275.200 331.432,275.200 341.885 L 275.200 356.011 277.492 353.305 C 278.753 351.817,280.796 349.520,282.032 348.200 C 283.269 346.880,284.982 344.993,285.840 344.007 C 286.698 343.020,288.210 341.395,289.200 340.395 C 290.190 339.394,291.990 337.412,293.200 335.990 C 294.410 334.567,296.458 332.285,297.751 330.918 C 299.044 329.550,300.360 328.065,300.674 327.616 L 301.245 326.800 288.703 326.800 C 279.481 326.800,276.033 326.927,275.680 327.280 " stroke="none" fill="#f8e9f1" fill-rule="evenodd"></path><path id="path3" d="M128.700 120.432 C 127.558 121.097,127.629 152.173,128.774 152.786 C 129.942 153.411,159.691 153.349,160.320 152.720 C 161.261 151.779,160.980 120.925,160.026 120.414 C 158.980 119.854,129.663 119.871,128.700 120.432 M128.480 206.080 C 127.937 206.623,127.764 229.600,128.303 229.600 C 128.469 229.600,134.003 224.200,140.600 217.600 L 152.595 205.600 140.777 205.600 C 132.119 205.600,128.832 205.728,128.480 206.080 M148.700 226.300 C 142.155 232.848,136.800 238.339,136.800 238.502 C 136.800 239.052,159.370 238.856,160.130 238.300 C 160.751 237.845,160.803 236.744,160.706 226.097 L 160.600 214.394 148.700 226.300 M128.700 291.632 C 127.558 292.297,127.629 323.373,128.774 323.986 C 129.831 324.552,158.969 324.552,160.026 323.986 C 160.771 323.587,160.800 322.984,160.800 307.800 C 160.800 292.616,160.771 292.013,160.026 291.614 C 158.980 291.054,129.663 291.071,128.700 291.632 " stroke="none" fill="#04daea" fill-rule="evenodd"></path><path id="path4" d="M197.000 11.800 C 197.220 11.876,199.200 12.012,201.400 12.103 C 203.600 12.194,204.950 12.136,204.400 11.974 C 203.438 11.691,196.183 11.520,197.000 11.800 M187.900 14.629 C 186.349 15.470,186.525 15.761,188.100 14.959 C 189.608 14.193,189.875 13.994,189.367 14.016 C 189.165 14.025,188.505 14.301,187.900 14.629 M183.126 17.973 C 181.371 19.518,178.000 23.591,178.000 24.168 C 178.000 24.329,178.641 23.592,179.424 22.531 C 180.208 21.469,181.873 19.655,183.124 18.501 C 185.766 16.064,185.767 15.648,183.126 17.973 M216.932 18.399 C 218.215 19.567,220.060 21.707,221.032 23.157 C 222.005 24.606,222.800 25.646,222.800 25.468 C 222.800 24.323,218.073 18.676,215.800 17.106 C 215.140 16.650,215.650 17.232,216.932 18.399 M176.981 26.037 C 176.629 26.718,176.412 27.345,176.499 27.432 C 176.586 27.519,176.956 26.962,177.322 26.195 C 178.144 24.470,177.859 24.338,176.981 26.037 M174.893 32.800 C 174.893 33.570,174.975 33.885,175.076 33.500 C 175.176 33.115,175.176 32.485,175.076 32.100 C 174.975 31.715,174.893 32.030,174.893 32.800 M224.828 32.633 C 224.844 33.275,225.016 34.160,225.210 34.600 C 225.447 35.134,225.486 34.802,225.327 33.600 C 225.046 31.480,224.788 30.980,224.828 32.633 M195.953 36.753 C 195.099 37.607,194.401 38.552,194.401 38.853 C 194.402 39.154,194.761 38.813,195.198 38.096 C 195.635 37.379,196.579 36.435,197.296 35.998 C 198.013 35.561,198.354 35.202,198.053 35.201 C 197.752 35.201,196.807 35.899,195.953 36.753 M202.600 35.944 C 203.916 36.757,204.974 37.869,205.316 38.800 C 205.500 39.300,205.542 39.291,205.568 38.747 C 205.604 38.020,202.683 35.199,201.899 35.201 C 201.624 35.202,201.940 35.537,202.600 35.944 M171.000 40.668 C 170.120 41.457,169.760 41.916,170.200 41.688 C 170.941 41.304,173.151 39.179,172.770 39.217 C 172.676 39.226,171.880 39.879,171.000 40.668 M228.001 40.137 C 228.551 40.762,229.360 41.459,229.800 41.686 C 230.642 42.120,230.618 42.093,228.401 40.197 L 227.003 39.000 228.001 40.137 M194.093 40.800 C 194.093 41.570,194.175 41.885,194.276 41.500 C 194.376 41.115,194.376 40.485,194.276 40.100 C 194.175 39.715,194.093 40.030,194.093 40.800 M205.701 41.000 C 205.705 41.880,205.787 42.193,205.883 41.695 C 205.979 41.198,205.975 40.478,205.875 40.095 C 205.775 39.713,205.696 40.120,205.701 41.000 M149.100 43.099 C 152.455 43.166,157.945 43.166,161.300 43.099 C 164.655 43.032,161.910 42.978,155.200 42.978 C 148.490 42.978,145.745 43.032,149.100 43.099 M238.725 43.099 C 242.093 43.166,247.493 43.166,250.725 43.099 C 253.956 43.032,251.200 42.977,244.600 42.977 C 238.000 42.977,235.356 43.032,238.725 43.099 M140.583 43.945 C 139.149 44.820,138.123 46.270,137.814 47.858 L 137.593 49.000 138.096 47.800 C 139.049 45.531,139.628 44.805,141.112 44.021 C 141.931 43.589,142.420 43.228,142.200 43.219 C 141.980 43.210,141.252 43.537,140.583 43.945 M102.100 56.298 L 125.600 56.406 125.600 62.803 L 125.600 69.200 111.092 69.200 C 94.481 69.200,92.753 69.444,88.392 72.405 C 84.992 74.714,81.179 79.960,81.209 82.287 C 81.215 82.679,81.632 81.996,82.137 80.768 C 84.261 75.606,88.494 71.829,93.882 70.290 C 94.779 70.034,101.615 69.763,110.600 69.628 L 125.800 69.400 125.800 62.800 L 125.800 56.200 102.200 56.195 L 78.600 56.190 102.100 56.298 M274.177 56.517 C 274.068 56.801,274.028 59.816,274.089 63.217 L 274.200 69.400 289.400 69.628 C 298.385 69.763,305.221 70.034,306.118 70.290 C 309.069 71.133,312.135 72.938,314.156 75.022 C 315.979 76.903,316.728 78.076,318.355 81.600 C 318.805 82.575,318.811 82.570,318.576 81.400 C 317.995 78.505,314.858 74.564,311.150 72.073 C 307.289 69.480,305.124 69.200,288.908 69.200 L 274.400 69.200 274.400 62.803 L 274.400 56.406 297.700 56.300 L 321.000 56.193 297.687 56.097 C 278.933 56.019,274.336 56.101,274.177 56.517 M76.400 56.800 C 75.867 57.145,75.867 57.188,76.400 57.188 C 76.730 57.188,77.270 57.013,77.600 56.800 C 78.133 56.455,78.133 56.412,77.600 56.412 C 77.270 56.412,76.730 56.587,76.400 56.800 M322.400 56.800 C 322.730 57.013,323.270 57.188,323.600 57.188 C 324.133 57.188,324.133 57.145,323.600 56.800 C 323.270 56.587,322.730 56.412,322.400 56.412 C 321.867 56.412,321.867 56.455,322.400 56.800 M73.509 58.223 C 71.455 59.569,67.988 64.000,68.990 64.000 C 69.094 64.000,69.439 63.505,69.757 62.900 C 70.610 61.275,72.818 59.016,74.300 58.251 C 75.015 57.881,75.600 57.494,75.600 57.390 C 75.600 57.014,74.974 57.264,73.509 58.223 M324.400 57.382 C 324.400 57.490,324.983 57.881,325.695 58.249 C 326.407 58.617,327.469 59.432,328.055 60.059 C 328.642 60.687,329.262 61.200,329.435 61.200 C 330.073 61.200,327.351 58.702,325.900 57.955 C 325.075 57.531,324.400 57.273,324.400 57.382 M330.234 62.700 C 330.854 63.990,331.200 64.328,331.200 63.644 C 331.200 63.449,330.842 62.864,330.404 62.344 L 329.608 61.400 330.234 62.700 M68.267 64.667 C 68.120 64.813,68.011 65.308,68.025 65.767 C 68.049 66.533,68.082 66.523,68.434 65.642 C 68.826 64.663,68.744 64.189,68.267 64.667 M67.450 68.050 C 67.078 69.910,67.227 375.634,67.600 376.800 C 67.776 377.350,67.938 307.825,67.960 222.300 C 67.982 136.775,67.933 66.800,67.850 66.800 C 67.767 66.800,67.588 67.362,67.450 68.050 M332.068 131.200 C 332.062 166.730,332.211 196.160,332.400 196.600 C 332.836 197.614,332.836 68.961,332.400 67.600 C 332.224 67.050,332.074 95.670,332.068 131.200 M137.606 73.833 C 137.609 74.255,137.795 74.870,138.018 75.200 C 138.315 75.638,138.352 75.476,138.156 74.600 C 137.827 73.129,137.598 72.810,137.606 73.833 M139.876 77.500 C 140.598 78.215,141.416 78.795,141.694 78.788 C 141.972 78.781,141.840 78.577,141.400 78.334 C 140.960 78.092,140.142 77.512,139.581 77.046 C 139.021 76.581,139.154 76.785,139.876 77.500 M259.000 78.027 C 258.340 78.450,258.005 78.797,258.256 78.798 C 258.506 78.799,259.136 78.446,259.656 78.013 C 260.845 77.023,260.559 77.029,259.000 78.027 M151.200 79.091 C 174.036 79.362,207.479 79.371,207.062 79.106 C 206.808 78.944,192.110 78.851,174.400 78.898 C 156.690 78.946,146.250 79.032,151.200 79.091 M229.337 79.106 C 228.916 79.373,244.733 79.357,254.000 79.081 C 256.090 79.018,251.500 78.933,243.800 78.890 C 236.100 78.847,229.592 78.944,229.337 79.106 M226.604 80.796 C 225.974 81.454,225.535 82.042,225.629 82.103 C 225.723 82.164,226.370 81.626,227.066 80.907 C 227.762 80.188,228.201 79.600,228.041 79.600 C 227.881 79.600,227.234 80.138,226.604 80.796 M95.518 81.856 C 94.923 82.170,94.023 83.006,93.518 83.713 L 92.600 85.000 92.600 222.200 L 92.600 359.400 93.495 360.655 C 95.215 363.066,96.137 363.200,111.048 363.200 C 126.795 363.200,128.780 363.699,128.806 367.662 C 128.809 368.178,129.000 368.870,129.230 369.200 C 129.532 369.634,129.572 369.302,129.375 368.000 C 128.583 362.768,127.311 362.400,110.018 362.400 L 96.027 362.400 94.613 360.987 L 93.200 359.573 93.200 222.324 L 93.200 85.076 94.164 83.812 C 95.756 81.725,96.815 81.600,112.975 81.600 C 127.999 81.600,128.800 81.677,128.800 83.126 C 128.800 84.487,136.316 90.000,138.172 90.000 C 138.491 90.000,138.864 90.180,139.000 90.400 C 139.162 90.662,151.137 90.800,173.624 90.800 L 208.000 90.800 209.545 89.255 C 211.242 87.558,211.809 85.722,211.230 83.800 C 210.906 82.724,210.865 82.822,210.834 84.738 C 210.795 87.163,209.852 88.842,207.988 89.806 C 206.323 90.667,141.991 90.692,139.160 89.833 C 134.968 88.560,130.765 85.495,128.912 82.359 L 128.228 81.200 112.414 81.242 C 99.549 81.277,96.398 81.391,95.518 81.856 M271.099 82.340 C 266.991 89.294,263.302 90.400,244.234 90.399 C 226.562 90.397,226.021 90.245,225.170 85.048 L 224.900 83.400 224.850 84.920 C 224.787 86.837,225.624 88.472,227.337 89.779 L 228.676 90.800 244.714 90.800 C 254.975 90.800,260.842 90.656,261.000 90.400 C 261.136 90.180,261.592 90.000,262.013 90.000 C 263.879 90.000,268.802 86.391,270.855 83.519 L 272.200 81.637 286.800 81.621 C 302.657 81.603,303.857 81.734,305.677 83.682 L 306.800 84.885 306.800 199.442 L 306.800 314.000 296.100 314.020 C 273.220 314.064,270.029 314.574,266.319 318.785 C 262.453 323.173,262.409 323.456,262.404 344.500 L 262.400 362.400 205.387 362.400 C 144.295 362.400,146.877 362.320,144.712 364.280 C 143.121 365.720,142.053 370.291,143.150 370.969 C 143.343 371.088,143.423 370.424,143.328 369.493 C 143.112 367.368,144.097 365.352,145.959 364.108 L 147.318 363.200 204.779 363.200 C 248.938 363.200,262.351 363.089,262.720 362.720 C 263.079 362.361,263.200 357.639,263.200 343.935 C 263.200 321.928,263.545 320.419,269.397 316.802 C 272.161 315.093,272.842 315.029,290.400 314.811 L 307.400 314.600 307.400 199.800 L 307.400 85.000 306.490 83.724 C 304.689 81.199,304.698 81.200,287.425 81.200 L 271.772 81.200 271.099 82.340 M319.000 203.600 C 319.000 269.804,319.122 323.662,319.272 323.285 C 319.421 322.908,319.544 269.050,319.544 203.600 C 319.544 138.150,319.421 84.292,319.272 83.915 C 319.122 83.538,319.000 137.396,319.000 203.600 M80.652 84.500 C 80.317 85.750,80.392 359.239,80.728 360.085 C 80.878 360.462,81.000 298.407,81.000 222.185 C 81.000 145.963,80.976 83.600,80.947 83.600 C 80.917 83.600,80.785 84.005,80.652 84.500 M127.000 108.162 C 121.528 109.398,117.592 113.153,116.170 118.494 C 115.327 121.660,115.352 151.410,116.201 154.667 C 117.066 157.990,119.178 160.945,121.985 162.759 C 125.817 165.236,125.944 165.249,145.200 165.118 L 162.600 165.000 164.978 163.832 C 167.718 162.487,170.272 160.059,171.344 157.781 C 171.754 156.912,172.249 155.887,172.444 155.505 C 172.640 155.123,172.800 146.607,172.800 136.580 L 172.800 118.350 171.556 115.770 C 169.603 111.721,166.033 109.039,161.269 108.045 C 158.391 107.444,129.746 107.542,127.000 108.162 M164.600 109.585 C 167.572 111.048,170.503 114.160,171.554 116.969 C 172.824 120.363,172.717 153.930,171.427 156.600 C 167.818 164.074,165.454 164.790,144.366 164.796 C 124.538 164.801,124.514 164.797,119.981 160.351 C 116.429 156.867,116.400 156.678,116.400 136.600 C 116.400 116.386,116.409 116.329,120.162 112.598 C 124.308 108.476,124.439 108.455,145.400 108.534 L 162.600 108.600 164.600 109.585 M199.275 121.303 C 194.205 122.937,193.481 130.162,198.132 132.706 C 200.288 133.886,279.181 133.764,281.200 132.578 C 285.383 130.120,285.270 124.065,281.000 121.835 C 279.145 120.867,202.183 120.365,199.275 121.303 M127.781 136.600 C 127.781 144.960,127.834 148.437,127.899 144.326 C 127.964 140.216,127.964 133.376,127.900 129.126 C 127.835 124.877,127.782 128.240,127.781 136.600 M281.320 122.559 C 284.575 124.765,284.292 130.394,280.838 132.181 C 278.753 133.258,199.900 133.102,198.119 132.016 C 194.152 129.597,194.993 123.033,199.417 121.888 C 202.136 121.184,280.236 121.824,281.320 122.559 M160.981 136.600 C 160.980 144.520,161.034 147.817,161.099 143.926 C 161.165 140.035,161.165 133.555,161.100 129.526 C 161.034 125.497,160.981 128.680,160.981 136.600 M199.471 141.882 C 197.944 142.121,195.220 144.893,195.128 146.300 C 194.971 148.712,195.305 150.260,196.250 151.500 C 198.234 154.103,197.087 154.000,224.026 154.000 L 248.491 154.000 250.087 153.103 C 254.026 150.889,254.250 145.757,250.532 142.921 L 249.063 141.800 224.831 141.753 C 211.504 141.727,200.092 141.785,199.471 141.882 M250.246 143.286 C 253.505 145.789,253.418 150.404,250.073 152.484 L 248.600 153.400 224.888 153.512 C 209.312 153.586,200.644 153.481,199.624 153.207 C 195.448 152.082,194.102 146.901,197.217 143.938 L 198.834 142.400 223.963 142.400 L 249.092 142.400 250.246 143.286 M125.600 193.990 C 125.270 194.179,124.306 194.636,123.459 195.005 C 120.221 196.416,117.422 199.823,116.205 203.834 C 115.327 206.730,115.323 236.889,116.200 240.280 C 116.981 243.300,119.313 246.668,121.755 248.303 C 125.461 250.786,126.035 250.845,145.258 250.716 L 162.600 250.600 164.887 249.528 C 167.794 248.166,170.030 245.952,171.580 242.902 L 172.800 240.501 172.800 222.262 L 172.800 204.024 171.769 201.769 C 170.026 197.958,167.738 195.926,163.081 194.051 C 161.736 193.509,126.541 193.452,125.600 193.990 M162.600 194.517 C 166.932 195.884,170.145 198.804,171.602 202.697 C 172.402 204.835,172.427 205.535,172.315 222.756 L 172.200 240.600 171.101 242.685 C 169.463 245.793,167.868 247.389,164.923 248.869 L 162.273 250.200 144.237 250.200 L 126.200 250.200 124.200 249.215 C 121.248 247.762,118.296 244.638,117.262 241.873 C 115.925 238.300,115.925 206.100,117.262 202.527 C 118.626 198.881,121.923 195.908,126.200 194.467 C 128.070 193.837,160.586 193.882,162.600 194.517 M332.816 197.811 C 332.764 199.140,335.476 201.372,337.600 201.749 L 339.000 201.998 337.538 201.433 C 335.402 200.608,334.041 199.625,333.399 198.443 C 333.087 197.869,332.825 197.585,332.816 197.811 M199.268 205.883 C 197.879 206.153,195.213 208.997,195.128 210.300 C 194.971 212.712,195.305 214.260,196.250 215.500 C 198.278 218.161,195.476 218.000,239.721 218.000 L 279.882 218.000 281.204 217.100 C 285.152 214.413,285.415 209.730,281.774 206.953 L 280.263 205.800 240.231 205.751 C 218.214 205.724,199.781 205.783,199.268 205.883 M282.000 208.000 C 285.484 211.484,283.445 216.778,278.387 217.382 C 273.662 217.946,199.472 217.441,198.408 216.837 C 195.018 214.912,194.438 210.581,197.217 207.938 L 198.834 206.400 239.617 206.400 L 280.400 206.400 282.000 208.000 M127.776 218.400 C 127.776 224.670,127.832 227.235,127.899 224.100 C 127.967 220.965,127.967 215.835,127.899 212.700 C 127.832 209.565,127.776 212.130,127.776 218.400 M337.400 214.986 C 336.469 215.412,336.380 215.539,337.000 215.555 C 337.440 215.566,338.149 215.310,338.576 214.987 C 339.540 214.259,338.990 214.258,337.400 214.986 M160.975 225.800 C 160.975 231.740,161.031 234.226,161.099 231.324 C 161.167 228.422,161.167 223.562,161.099 220.524 C 161.031 217.486,160.975 219.860,160.975 225.800 M334.115 216.900 C 333.432 217.615,332.677 218.920,332.439 219.800 C 331.922 221.703,331.884 378.412,332.400 376.800 C 332.576 376.250,332.738 340.646,332.760 297.680 C 332.804 212.269,332.631 218.287,335.089 216.454 C 335.700 215.998,336.010 215.620,335.778 215.613 C 335.547 215.606,334.798 216.185,334.115 216.900 M197.800 227.305 C 197.140 227.788,196.539 228.326,196.464 228.499 C 196.390 228.673,196.056 229.087,195.722 229.421 C 194.724 230.418,194.875 234.420,195.968 235.954 C 197.776 238.494,196.685 238.400,224.242 238.400 L 249.324 238.400 250.663 237.379 C 253.292 235.374,253.924 232.295,252.293 229.430 C 250.510 226.297,252.061 226.460,224.000 226.442 L 199.000 226.425 197.800 227.305 M249.353 227.355 C 252.958 228.861,253.720 233.803,250.780 236.619 L 249.548 237.800 224.571 237.909 C 202.954 238.003,199.438 237.937,198.429 237.415 C 194.644 235.458,194.571 229.596,198.307 227.624 C 200.265 226.590,246.935 226.344,249.353 227.355 M144.175 230.500 L 143.000 231.800 144.300 230.625 C 145.512 229.530,145.784 229.200,145.475 229.200 C 145.406 229.200,144.821 229.785,144.175 230.500 M127.200 279.355 C 121.867 280.450,118.066 283.849,116.347 289.060 C 115.217 292.484,115.211 322.679,116.339 326.304 C 117.675 330.597,120.140 333.406,124.222 335.288 C 126.189 336.195,126.300 336.200,144.400 336.200 L 162.600 336.200 164.888 335.128 C 167.461 333.922,170.230 331.273,171.344 328.951 C 171.754 328.098,172.249 327.087,172.444 326.705 C 172.640 326.323,172.800 317.807,172.800 307.780 L 172.800 289.550 171.556 286.970 C 169.611 282.937,166.451 280.515,161.628 279.362 C 158.753 278.674,130.542 278.668,127.200 279.355 M164.593 280.763 C 167.409 282.115,170.537 285.450,171.564 288.196 C 172.536 290.793,172.876 323.318,171.964 326.363 C 170.872 330.008,166.936 334.042,163.273 335.272 C 161.186 335.972,130.268 336.243,127.200 335.588 C 122.564 334.598,118.745 331.439,117.203 327.317 C 115.952 323.971,115.967 291.588,117.222 288.234 C 118.677 284.344,122.482 280.974,126.553 279.970 C 127.239 279.801,135.630 279.695,145.200 279.735 L 162.600 279.807 164.593 280.763 M197.500 291.478 C 196.675 292.045,196.000 292.739,196.000 293.021 C 196.000 293.303,195.802 293.599,195.559 293.680 C 193.694 294.302,195.580 300.548,198.012 301.806 C 200.055 302.863,279.737 302.680,281.484 301.614 C 285.244 299.322,285.192 293.789,281.387 291.300 L 280.011 290.400 239.506 290.424 L 199.000 290.448 197.500 291.478 M280.782 291.638 C 284.482 293.717,284.636 298.953,281.062 301.161 C 279.223 302.298,200.540 302.507,198.362 301.381 C 194.634 299.453,194.717 293.087,198.491 291.437 C 200.968 290.355,278.836 290.544,280.782 291.638 M127.781 307.800 C 127.781 316.160,127.834 319.637,127.899 315.526 C 127.964 311.416,127.964 304.576,127.900 300.326 C 127.835 296.077,127.782 299.440,127.781 307.800 M160.981 307.800 C 160.981 315.940,161.034 319.213,161.100 315.074 C 161.165 310.934,161.165 304.274,161.099 300.274 C 161.034 296.273,160.981 299.660,160.981 307.800 M198.800 311.306 C 197.267 312.000,195.209 314.378,195.127 315.550 C 194.813 320.060,196.510 322.564,200.180 323.006 C 205.804 323.683,249.372 323.019,250.523 322.239 C 254.329 319.660,253.878 313.559,249.738 311.613 C 247.686 310.648,200.878 310.367,198.800 311.306 M250.780 312.981 C 253.354 315.447,253.106 319.671,250.269 321.695 L 249.000 322.600 225.000 322.722 C 198.816 322.856,198.836 322.857,196.837 320.581 C 194.587 318.018,195.540 313.220,198.542 311.992 C 199.014 311.799,210.683 311.677,224.474 311.721 L 249.548 311.800 250.780 312.981 M317.827 326.070 C 316.827 328.367,316.823 328.372,305.645 340.497 C 304.680 341.543,304.025 342.400,304.190 342.400 C 304.355 342.400,305.414 341.375,306.545 340.123 C 307.675 338.870,309.791 336.575,311.247 335.023 C 316.636 329.276,319.096 325.888,318.713 324.740 C 318.640 324.520,318.241 325.119,317.827 326.070 M274.814 327.174 C 274.309 328.118,274.236 356.800,274.739 356.800 C 275.274 356.800,276.222 355.833,282.773 348.600 C 286.160 344.860,290.405 340.180,292.207 338.200 C 301.212 328.302,302.385 326.978,302.392 326.700 C 302.413 325.904,275.244 326.371,274.814 327.174 M300.674 327.616 C 300.360 328.065,299.044 329.550,297.751 330.918 C 296.458 332.285,294.410 334.567,293.200 335.990 C 291.990 337.412,290.190 339.394,289.200 340.395 C 288.210 341.395,286.698 343.020,285.840 344.007 C 284.982 344.993,283.269 346.880,282.032 348.200 C 280.796 349.520,278.753 351.817,277.492 353.305 L 275.200 356.011 275.200 341.885 C 275.200 331.432,275.325 327.635,275.680 327.280 C 276.033 326.927,279.481 326.800,288.703 326.800 L 301.245 326.800 300.674 327.616 M295.618 351.600 C 291.185 356.440,287.663 360.400,287.792 360.400 C 288.072 360.400,290.001 358.457,292.172 355.988 C 293.036 355.004,295.376 352.419,297.372 350.241 C 299.367 348.064,301.180 346.074,301.400 345.820 C 301.620 345.565,302.329 344.782,302.975 344.079 C 303.621 343.375,304.044 342.800,303.914 342.800 C 303.784 342.800,300.051 346.760,295.618 351.600 M283.929 364.482 C 278.320 370.685,276.866 372.003,274.284 373.224 C 272.918 373.871,272.098 374.400,272.462 374.400 C 274.618 374.401,279.514 370.216,285.685 363.100 C 288.867 359.431,287.582 360.441,283.929 364.482 M81.212 362.000 C 81.212 362.330,81.387 362.870,81.600 363.200 C 81.945 363.733,81.988 363.733,81.988 363.200 C 81.988 362.870,81.813 362.330,81.600 362.000 C 81.255 361.467,81.212 361.467,81.212 362.000 M82.000 364.322 C 82.000 365.995,89.023 373.510,89.832 372.701 C 89.948 372.586,89.410 372.101,88.638 371.624 C 86.856 370.522,83.908 367.256,83.034 365.416 C 82.388 364.054,82.000 363.644,82.000 364.322 M128.400 371.305 C 126.853 374.625,124.870 374.951,107.553 374.739 C 100.699 374.654,95.521 374.706,96.046 374.853 C 97.818 375.350,123.178 375.239,124.887 374.727 C 126.698 374.184,129.200 371.883,129.200 370.760 C 129.200 369.734,129.100 369.802,128.400 371.305 M143.613 371.880 C 143.600 372.364,146.006 374.400,146.592 374.400 C 146.766 374.400,146.389 373.999,145.754 373.509 C 145.119 373.020,144.381 372.345,144.113 372.009 C 143.802 371.621,143.621 371.574,143.613 371.880 M92.590 373.984 C 92.732 374.213,93.317 374.400,93.890 374.400 C 95.144 374.400,94.999 374.208,93.466 373.840 C 92.723 373.662,92.421 373.711,92.590 373.984 M147.915 374.872 C 148.292 375.021,175.870 375.144,209.200 375.144 C 242.530 375.144,270.108 375.021,270.485 374.872 C 270.862 374.722,243.284 374.600,209.200 374.600 C 175.117 374.600,147.538 374.722,147.915 374.872 M68.821 380.528 C 68.703 382.368,73.827 386.702,77.400 387.785 C 80.440 388.707,319.560 388.707,322.600 387.785 C 326.115 386.720,332.136 381.603,331.097 380.564 C 330.998 380.465,330.422 381.133,329.816 382.048 C 327.956 384.859,325.361 386.649,321.800 387.578 C 319.091 388.285,80.378 388.144,77.710 387.434 C 74.384 386.549,71.856 384.623,69.521 381.196 C 69.148 380.648,68.833 380.348,68.821 380.528 " stroke="none" fill="#8f8c8e" fill-rule="evenodd"></path></g></svg>