<svg id="svg" version="1.1" xmlns="http://www.w3.org/2000/svg" xmlns:xlink="http://www.w3.org/1999/xlink" width="400" height="400" viewBox="0, 0, 400,400"><g id="svgg"><path id="path0" d="M133.516 60.061 C 133.232 60.241,132.055 60.391,130.900 60.394 C 129.425 60.398,128.800 60.558,128.800 60.931 C 128.800 61.293,128.419 61.406,127.600 61.285 C 126.880 61.180,126.400 61.287,126.400 61.555 C 126.400 61.800,125.860 62.000,125.200 62.000 C 124.540 62.000,124.000 62.147,124.000 62.328 C 124.000 62.508,123.089 62.904,121.975 63.207 C 120.861 63.510,119.860 63.903,119.751 64.079 C 119.642 64.256,119.124 64.400,118.600 64.400 C 118.076 64.400,117.536 64.580,117.400 64.800 C 117.264 65.020,116.713 65.200,116.176 65.200 C 115.639 65.200,115.200 65.380,115.200 65.600 C 115.200 65.820,114.840 66.000,114.400 66.000 C 113.960 66.000,113.600 66.180,113.600 66.400 C 113.600 66.620,113.240 66.800,112.800 66.800 C 112.342 66.800,112.000 67.067,112.000 67.424 C 112.000 67.767,111.820 67.936,111.601 67.800 C 111.064 67.469,109.800 68.451,109.800 69.200 C 109.800 69.530,109.366 69.861,108.835 69.936 C 107.755 70.089,106.800 70.888,106.800 71.638 C 106.800 71.910,106.693 72.026,106.562 71.896 C 106.331 71.664,102.000 75.758,102.000 76.208 C 102.000 76.332,101.640 76.820,101.200 77.292 C 100.760 77.764,100.400 78.387,100.400 78.675 C 100.400 78.964,100.220 79.200,100.000 79.200 C 99.780 79.200,99.600 79.470,99.600 79.800 C 99.600 80.130,99.399 80.400,99.153 80.400 C 98.904 80.400,98.799 80.753,98.916 81.201 C 99.031 81.641,98.976 81.909,98.794 81.796 C 98.391 81.547,97.200 83.836,97.200 84.861 C 97.200 85.268,97.020 85.600,96.800 85.600 C 96.580 85.600,96.400 86.129,96.400 86.776 C 96.400 87.423,96.220 88.064,96.000 88.200 C 95.780 88.336,95.600 88.887,95.600 89.424 C 95.600 89.961,95.452 90.400,95.271 90.400 C 95.091 90.400,94.901 91.345,94.849 92.500 C 94.797 93.655,94.585 94.771,94.377 94.980 C 93.860 95.501,93.882 111.480,94.400 111.800 C 94.620 111.936,94.800 112.937,94.800 114.024 C 94.800 115.111,94.980 116.000,95.200 116.000 C 95.420 116.000,95.600 116.641,95.600 117.424 C 95.600 118.260,95.763 118.746,95.995 118.603 C 96.216 118.466,96.293 118.615,96.168 118.939 C 96.046 119.258,96.130 119.633,96.355 119.772 C 96.581 119.912,96.659 120.302,96.529 120.640 C 96.317 121.193,96.572 121.983,97.647 124.095 C 97.841 124.477,98.000 125.062,98.000 125.395 C 98.000 126.125,98.658 126.200,98.922 125.500 C 99.026 125.225,99.017 125.765,98.903 126.700 C 98.765 127.821,98.849 128.400,99.147 128.400 C 99.396 128.400,99.600 128.678,99.600 129.017 C 99.600 129.356,99.960 130.020,100.400 130.492 C 100.840 130.964,101.200 131.587,101.200 131.875 C 101.200 132.164,101.380 132.400,101.600 132.400 C 101.820 132.400,102.000 132.760,102.000 133.200 C 102.000 133.640,102.180 134.000,102.400 134.000 C 102.620 134.000,102.800 134.360,102.800 134.800 C 102.800 135.689,103.406 135.877,103.763 135.100 C 103.889 134.825,103.892 135.005,103.769 135.500 C 103.643 136.011,103.731 136.400,103.973 136.400 C 104.208 136.400,104.400 136.670,104.400 137.000 C 104.400 137.330,104.580 137.600,104.800 137.600 C 105.020 137.600,105.200 137.793,105.200 138.029 C 105.200 138.593,106.222 139.600,106.795 139.600 C 107.044 139.600,107.136 139.780,107.000 140.000 C 106.864 140.220,106.943 140.400,107.176 140.400 C 107.409 140.400,107.600 140.588,107.600 140.818 C 107.600 141.273,109.400 143.200,109.825 143.200 C 109.968 143.200,109.978 142.921,109.847 142.579 C 109.707 142.214,109.777 142.062,110.015 142.209 C 110.239 142.347,110.371 142.743,110.311 143.089 C 110.250 143.434,110.450 143.804,110.756 143.910 C 111.127 144.040,111.206 143.934,110.994 143.590 C 110.784 143.251,110.835 143.175,111.145 143.366 C 111.402 143.525,111.510 143.821,111.385 144.024 C 111.054 144.560,113.121 146.496,113.665 146.160 C 113.949 145.984,114.014 146.053,113.836 146.341 C 113.426 147.005,114.569 148.071,115.111 147.529 C 115.652 146.988,116.428 147.461,116.157 148.168 C 116.030 148.500,116.424 148.921,117.174 149.253 C 117.848 149.551,118.400 149.931,118.400 150.098 C 118.400 150.264,118.720 150.400,119.112 150.400 C 119.503 150.400,120.083 150.760,120.400 151.200 C 120.739 151.670,121.435 152.000,122.088 152.000 C 122.700 152.000,123.200 152.180,123.200 152.400 C 123.200 152.620,123.472 152.800,123.805 152.800 C 124.138 152.800,124.723 152.959,125.105 153.153 C 127.281 154.260,128.036 154.478,128.923 154.255 C 129.560 154.095,130.084 154.219,130.403 154.604 C 130.735 155.004,131.645 155.200,133.169 155.200 C 134.418 155.200,135.656 155.416,135.920 155.680 C 136.294 156.054,136.721 156.045,137.845 155.638 C 138.664 155.342,140.774 155.137,142.718 155.164 C 145.035 155.196,146.243 155.054,146.448 154.723 C 146.614 154.453,147.378 154.275,148.145 154.327 C 148.912 154.379,149.654 154.236,149.794 154.011 C 149.933 153.785,150.481 153.600,151.011 153.600 C 151.542 153.600,152.617 153.240,153.400 152.800 C 154.183 152.360,155.089 152.000,155.412 152.000 C 155.735 152.000,156.000 151.820,156.000 151.600 C 156.000 151.380,156.410 151.200,156.912 151.200 C 157.413 151.200,158.083 150.840,158.400 150.400 C 158.717 149.960,159.257 149.600,159.600 149.600 C 159.943 149.600,160.483 149.240,160.800 148.800 C 161.117 148.360,161.613 148.000,161.902 148.000 C 162.190 148.000,163.040 147.386,163.791 146.636 C 164.541 145.886,165.708 144.945,166.385 144.545 C 167.089 144.129,167.529 143.591,167.412 143.288 C 167.300 142.996,167.392 142.871,167.616 143.010 C 168.208 143.376,171.946 139.193,172.896 137.100 C 173.171 136.495,173.518 136.000,173.668 136.000 C 174.021 136.000,175.200 133.642,175.200 132.939 C 175.200 132.642,175.380 132.400,175.600 132.400 C 175.820 132.400,176.000 132.040,176.000 131.600 C 176.000 131.160,176.201 130.800,176.447 130.800 C 176.710 130.800,176.813 130.380,176.698 129.777 C 176.547 128.991,176.640 128.806,177.096 128.981 C 177.510 129.140,177.617 129.022,177.451 128.589 C 177.315 128.234,177.467 127.872,177.807 127.742 C 178.142 127.613,178.400 127.011,178.400 126.357 C 178.400 125.721,178.580 125.200,178.800 125.200 C 179.020 125.200,179.200 124.750,179.200 124.200 C 179.200 123.650,179.380 123.200,179.600 123.200 C 179.820 123.200,180.000 122.480,180.000 121.600 C 180.000 120.720,180.180 120.000,180.400 120.000 C 180.620 120.000,180.800 119.291,180.800 118.424 C 180.800 117.557,180.966 116.745,181.169 116.619 C 181.372 116.494,181.547 114.910,181.559 113.099 C 181.571 111.227,181.757 109.748,181.990 109.670 C 182.524 109.492,182.530 103.090,181.997 102.557 C 181.776 102.336,181.579 100.680,181.560 98.877 C 181.540 97.030,181.367 95.697,181.162 95.823 C 180.963 95.946,180.800 95.137,180.800 94.024 C 180.800 92.911,180.620 92.000,180.400 92.000 C 180.180 92.000,180.000 91.460,180.000 90.800 C 180.000 90.140,179.820 89.600,179.600 89.600 C 179.380 89.600,179.200 89.060,179.200 88.400 C 179.200 87.740,179.020 87.200,178.800 87.200 C 178.580 87.200,178.400 86.868,178.400 86.461 C 178.400 86.055,177.995 85.527,177.500 85.288 C 177.005 85.049,176.825 84.842,177.100 84.827 C 177.689 84.795,177.787 83.200,177.200 83.200 C 176.980 83.200,176.800 82.924,176.800 82.587 C 176.800 82.251,176.531 81.872,176.202 81.746 C 175.874 81.619,175.704 81.355,175.826 81.158 C 175.948 80.961,175.857 80.800,175.624 80.800 C 175.391 80.800,175.200 80.545,175.200 80.232 C 175.200 79.229,173.820 77.191,173.279 77.395 C 172.993 77.503,172.867 77.415,173.000 77.200 C 173.133 76.985,172.782 76.314,172.221 75.709 C 171.659 75.103,171.200 74.486,171.200 74.337 C 171.200 73.748,167.986 70.761,167.605 70.997 C 167.382 71.134,167.200 70.967,167.200 70.624 C 167.200 70.281,167.002 70.000,166.760 70.000 C 166.519 70.000,165.804 69.446,165.172 68.770 C 164.494 68.044,163.828 67.659,163.549 67.831 C 163.243 68.021,163.183 67.951,163.378 67.635 C 163.571 67.324,163.375 67.066,162.840 66.926 C 162.378 66.806,162.000 66.548,162.000 66.353 C 162.000 66.159,161.640 66.000,161.200 66.000 C 160.760 66.000,160.400 65.820,160.400 65.600 C 160.400 65.380,160.122 65.200,159.783 65.200 C 159.444 65.200,158.780 64.840,158.308 64.400 C 157.836 63.960,157.123 63.600,156.725 63.600 C 156.326 63.600,156.000 63.420,156.000 63.200 C 156.000 62.980,155.561 62.800,155.024 62.800 C 154.487 62.800,153.925 62.603,153.777 62.362 C 153.628 62.122,153.086 62.005,152.573 62.103 C 152.028 62.207,151.673 62.098,151.720 61.841 C 151.768 61.577,151.129 61.400,150.133 61.400 C 149.216 61.400,148.496 61.223,148.533 61.006 C 148.570 60.790,147.700 60.517,146.600 60.399 C 145.500 60.282,144.344 60.024,144.032 59.827 C 143.602 59.556,143.526 59.631,143.719 60.134 C 143.860 60.500,143.801 60.800,143.587 60.800 C 143.374 60.800,143.200 60.511,143.200 60.158 C 143.200 59.545,142.399 59.524,139.400 60.059 C 139.180 60.098,138.291 59.996,137.424 59.833 C 135.938 59.552,135.881 59.577,136.417 60.268 C 136.955 60.960,136.943 60.965,136.193 60.353 C 135.334 59.652,134.332 59.543,133.516 60.061 M276.200 86.000 C 276.064 86.220,274.973 86.400,273.776 86.400 C 272.579 86.400,271.600 86.580,271.600 86.800 C 271.600 87.020,270.981 87.200,270.224 87.200 C 269.467 87.200,268.736 87.380,268.600 87.600 C 268.464 87.820,267.823 88.000,267.176 88.000 C 266.127 88.000,265.802 88.346,265.953 89.300 C 266.031 89.799,265.284 89.636,265.033 89.100 C 264.847 88.700,264.753 88.700,264.567 89.100 C 264.438 89.375,263.982 89.600,263.553 89.600 C 262.454 89.600,260.801 90.766,260.794 91.546 C 260.789 92.114,260.737 92.121,260.400 91.600 C 260.118 91.164,260.011 91.143,260.006 91.524 C 260.003 91.812,259.835 91.945,259.632 91.820 C 259.430 91.695,258.993 91.864,258.661 92.196 C 258.329 92.528,257.796 92.800,257.478 92.800 C 257.159 92.800,256.674 93.070,256.400 93.400 C 256.126 93.730,255.689 94.000,255.429 94.000 C 254.814 94.000,252.000 96.578,252.000 97.141 C 252.000 97.380,251.732 97.472,251.405 97.346 C 251.024 97.201,250.014 97.946,248.605 99.413 C 246.293 101.819,246.082 102.205,246.900 102.535 C 247.192 102.653,247.101 102.750,246.682 102.768 C 245.387 102.825,243.755 104.943,241.405 109.615 C 241.188 110.047,240.873 110.400,240.705 110.400 C 240.537 110.400,240.400 110.861,240.400 111.424 C 240.400 112.004,240.227 112.340,240.000 112.200 C 239.780 112.064,239.600 112.323,239.600 112.776 C 239.600 113.229,239.406 113.600,239.169 113.600 C 238.932 113.600,238.771 114.185,238.810 114.900 C 238.923 116.965,238.820 118.154,238.552 117.886 C 238.041 117.374,237.200 118.796,237.200 120.171 C 237.200 120.957,237.020 121.600,236.800 121.600 C 236.575 121.600,236.400 122.725,236.400 124.176 C 236.400 125.593,236.220 126.864,236.000 127.000 C 235.775 127.139,235.600 129.071,235.600 131.424 C 235.600 133.941,235.759 135.600,236.000 135.600 C 236.226 135.600,236.400 136.733,236.400 138.200 C 236.400 139.630,236.536 140.800,236.702 140.800 C 237.195 140.800,238.050 143.065,238.091 144.484 C 238.113 145.208,238.206 145.575,238.298 145.300 C 238.664 144.214,239.013 144.887,238.869 146.400 C 238.774 147.393,238.884 148.000,239.158 148.000 C 239.401 148.000,239.600 148.360,239.600 148.800 C 239.600 149.240,239.780 149.600,240.000 149.600 C 240.220 149.600,240.400 149.979,240.400 150.443 C 240.400 151.053,240.577 151.217,241.045 151.038 C 241.525 150.854,241.624 150.961,241.433 151.458 C 241.277 151.865,241.510 152.478,242.031 153.033 C 242.500 153.532,242.764 154.135,242.617 154.373 C 242.470 154.611,242.619 154.909,242.949 155.036 C 243.279 155.163,243.465 155.488,243.361 155.758 C 243.257 156.029,243.538 156.582,243.986 156.987 C 244.434 157.392,244.800 157.878,244.800 158.066 C 244.800 158.254,245.340 158.972,246.000 159.663 C 246.660 160.354,247.200 161.066,247.200 161.246 C 247.200 161.810,250.117 164.775,250.463 164.561 C 250.643 164.450,250.697 164.602,250.583 164.900 C 250.231 165.818,260.620 175.200,261.990 175.200 C 262.234 175.200,262.820 175.560,263.292 176.000 C 263.764 176.440,264.387 176.800,264.675 176.800 C 264.964 176.800,265.200 176.980,265.200 177.200 C 265.200 177.420,265.560 177.600,266.000 177.600 C 266.440 177.600,266.800 177.780,266.800 178.000 C 266.800 178.220,267.340 178.400,268.000 178.400 C 268.660 178.400,269.200 178.580,269.200 178.800 C 269.200 179.020,269.639 179.200,270.176 179.200 C 270.713 179.200,271.264 179.380,271.400 179.600 C 271.536 179.820,272.357 180.000,273.224 180.000 C 274.091 180.000,274.800 180.162,274.800 180.360 C 274.800 180.558,276.690 180.742,279.000 180.769 C 281.625 180.799,283.200 180.664,283.200 180.409 C 283.200 180.184,283.920 180.000,284.800 180.000 C 285.680 180.000,286.400 179.820,286.400 179.600 C 286.400 179.380,286.839 179.200,287.376 179.200 C 287.913 179.200,288.464 179.020,288.600 178.800 C 288.736 178.580,290.187 178.400,291.824 178.400 C 293.541 178.400,294.800 178.231,294.800 178.000 C 294.800 177.780,295.145 177.600,295.567 177.600 C 295.988 177.600,296.424 177.375,296.535 177.100 C 296.696 176.700,296.743 176.700,296.768 177.100 C 296.806 177.689,298.800 177.787,298.800 177.200 C 298.800 176.980,299.340 176.800,300.000 176.800 C 300.660 176.800,301.200 176.620,301.200 176.400 C 301.200 176.180,301.729 176.000,302.376 176.000 C 303.023 176.000,303.664 175.820,303.800 175.600 C 303.936 175.380,304.352 175.199,304.724 175.198 C 305.096 175.197,306.286 174.747,307.368 174.198 C 308.450 173.649,309.575 173.200,309.868 173.200 C 310.161 173.200,310.400 173.020,310.400 172.800 C 310.400 172.580,310.720 172.400,311.112 172.400 C 311.503 172.400,312.083 172.040,312.400 171.600 C 312.717 171.160,313.257 170.800,313.600 170.800 C 313.943 170.800,314.483 170.440,314.800 170.000 C 315.117 169.560,315.631 169.200,315.941 169.200 C 316.252 169.200,316.797 168.876,317.153 168.481 C 317.509 168.086,318.430 167.328,319.200 166.797 C 321.086 165.497,325.200 161.186,325.200 160.510 C 325.200 160.212,325.920 159.283,326.800 158.446 C 327.680 157.609,328.400 156.716,328.400 156.462 C 328.400 156.208,328.580 156.000,328.800 156.000 C 329.020 156.000,329.200 155.640,329.200 155.200 C 329.200 154.760,329.380 154.400,329.600 154.400 C 329.820 154.400,330.000 154.040,330.000 153.600 C 330.000 153.160,330.201 152.800,330.447 152.800 C 330.703 152.800,330.815 152.389,330.709 151.837 C 330.568 151.099,330.667 150.928,331.132 151.106 C 331.578 151.277,331.669 151.157,331.476 150.654 C 331.313 150.228,331.438 149.884,331.807 149.742 C 332.142 149.613,332.400 149.011,332.400 148.357 C 332.400 147.721,332.580 147.200,332.800 147.200 C 333.020 147.200,333.200 146.401,333.200 145.424 C 333.200 144.447,333.380 143.536,333.600 143.400 C 334.228 143.012,334.130 129.625,333.498 129.382 C 333.166 129.255,333.044 128.579,333.138 127.395 C 333.227 126.269,333.116 125.600,332.840 125.600 C 332.598 125.600,332.400 124.953,332.400 124.163 C 332.400 123.062,332.213 122.676,331.600 122.516 C 331.160 122.401,330.800 122.137,330.800 121.930 C 330.800 121.722,330.980 121.664,331.200 121.800 C 331.427 121.940,331.600 121.604,331.600 121.024 C 331.600 120.411,331.374 120.000,331.037 120.000 C 330.672 120.000,330.548 119.720,330.684 119.200 C 330.801 118.753,330.696 118.400,330.447 118.400 C 330.201 118.400,330.000 118.034,330.000 117.587 C 330.000 117.141,329.750 116.679,329.444 116.562 C 329.123 116.438,328.974 116.022,329.091 115.574 C 329.228 115.049,329.089 114.800,328.659 114.800 C 328.260 114.800,328.110 114.578,328.255 114.200 C 328.382 113.870,328.286 113.600,328.043 113.600 C 327.799 113.600,327.600 113.240,327.600 112.800 C 327.600 112.360,327.420 112.000,327.200 112.000 C 326.980 112.000,326.800 111.659,326.800 111.243 C 326.800 110.826,326.521 110.379,326.181 110.248 C 325.841 110.117,325.369 109.457,325.133 108.781 C 324.850 107.967,324.511 107.625,324.132 107.771 C 323.800 107.898,323.666 107.817,323.814 107.578 C 324.349 106.711,319.184 100.916,318.340 101.437 C 318.051 101.615,317.985 101.549,318.163 101.260 C 318.447 100.800,314.706 96.800,313.992 96.800 C 313.796 96.800,313.186 96.350,312.636 95.800 C 312.086 95.250,311.424 94.800,311.165 94.800 C 310.906 94.800,310.358 94.412,309.947 93.939 C 309.536 93.465,309.200 93.207,309.200 93.366 C 309.200 93.525,308.677 93.282,308.038 92.827 C 307.399 92.372,306.679 92.000,306.438 92.000 C 306.197 92.000,306.000 91.820,306.000 91.600 C 306.000 91.380,305.640 91.200,305.200 91.200 C 304.760 91.200,304.400 91.020,304.400 90.800 C 304.400 90.580,304.040 90.400,303.600 90.400 C 303.160 90.400,302.800 90.220,302.800 90.000 C 302.800 89.780,302.260 89.600,301.600 89.600 C 300.940 89.600,300.400 89.408,300.400 89.173 C 300.400 88.928,300.059 88.854,299.600 89.000 C 299.016 89.185,298.800 89.072,298.800 88.580 C 298.800 88.109,298.565 87.968,298.019 88.111 C 297.589 88.223,296.914 88.070,296.519 87.770 C 296.123 87.471,295.215 87.220,294.500 87.213 C 293.785 87.206,293.200 87.020,293.200 86.800 C 293.200 86.580,292.210 86.400,291.000 86.400 C 289.749 86.400,288.800 86.221,288.800 85.986 C 288.800 85.732,287.714 85.598,286.011 85.641 C 284.102 85.690,283.300 85.852,283.470 86.156 C 283.606 86.400,283.475 86.375,283.179 86.100 C 282.527 85.495,276.565 85.410,276.200 86.000 M29.200 168.800 C 29.200 169.020,28.225 169.200,27.033 169.200 C 25.842 169.200,24.804 169.388,24.727 169.618 C 24.651 169.848,24.141 170.066,23.594 170.103 C 23.047 170.141,22.378 170.387,22.107 170.650 C 21.836 170.913,21.251 171.034,20.807 170.918 C 20.353 170.799,20.000 170.902,20.000 171.153 C 20.000 171.399,19.640 171.600,19.200 171.600 C 18.760 171.600,18.400 171.780,18.400 172.000 C 18.400 172.220,18.040 172.400,17.600 172.400 C 17.160 172.400,16.800 172.580,16.800 172.800 C 16.800 173.020,16.480 173.200,16.088 173.200 C 15.697 173.200,15.117 173.560,14.800 174.000 C 14.483 174.440,13.978 174.800,13.677 174.800 C 12.963 174.800,6.800 180.959,6.800 181.673 C 6.800 181.976,6.440 182.483,6.000 182.800 C 5.560 183.117,5.200 183.697,5.200 184.088 C 5.200 184.480,4.998 184.800,4.751 184.800 C 4.459 184.800,4.493 185.035,4.851 185.475 C 5.331 186.065,5.313 186.117,4.713 185.892 C 3.844 185.567,3.385 186.259,3.988 186.986 C 4.357 187.430,4.286 187.495,3.623 187.322 C 2.922 187.139,2.800 187.292,2.800 188.353 C 2.800 189.039,2.620 189.600,2.400 189.600 C 2.180 189.600,2.000 189.960,2.000 190.400 C 2.000 190.840,1.820 191.200,1.600 191.200 C 1.380 191.200,1.200 191.704,1.200 192.320 C 1.200 192.936,0.975 193.665,0.700 193.940 C 0.096 194.543,-0.247 214.200,0.340 214.563 C 0.540 214.686,0.612 215.600,0.500 216.594 C 0.365 217.790,0.449 218.400,0.748 218.400 C 0.997 218.400,1.200 218.940,1.200 219.600 C 1.200 220.260,1.380 220.800,1.600 220.800 C 1.820 220.800,2.000 221.346,2.000 222.013 C 2.000 222.679,2.250 223.321,2.556 223.438 C 2.877 223.562,3.026 223.978,2.909 224.426 C 2.798 224.852,2.908 225.200,3.153 225.200 C 3.399 225.200,3.600 225.560,3.600 226.000 C 3.600 226.440,3.780 226.800,4.000 226.800 C 4.220 226.800,4.400 227.340,4.400 228.000 C 4.400 228.660,4.580 229.200,4.800 229.200 C 5.020 229.200,5.200 229.581,5.200 230.047 C 5.200 230.696,5.386 230.845,6.000 230.684 C 6.531 230.545,6.800 230.672,6.800 231.061 C 6.800 231.383,6.620 231.536,6.400 231.400 C 5.751 230.999,5.958 231.724,6.800 232.800 C 7.230 233.350,7.586 234.025,7.591 234.300 C 7.596 234.575,7.780 234.800,8.000 234.800 C 8.220 234.800,8.400 235.151,8.400 235.580 C 8.400 236.009,8.681 236.518,9.025 236.710 C 9.369 236.902,9.689 237.316,9.736 237.630 C 9.883 238.597,10.434 239.226,10.889 238.945 C 11.136 238.792,11.210 238.861,11.059 239.104 C 10.829 239.476,11.854 241.000,13.497 242.729 C 13.774 243.019,14.000 243.397,14.000 243.567 C 14.000 244.023,15.484 245.657,15.870 245.626 C 16.051 245.612,16.223 245.780,16.250 246.000 C 16.277 246.220,16.325 246.535,16.356 246.700 C 16.521 247.575,18.708 249.532,19.092 249.148 C 19.382 248.858,19.603 248.882,19.817 249.227 C 20.015 249.547,19.959 249.622,19.662 249.438 C 19.408 249.281,19.200 249.350,19.200 249.591 C 19.200 250.150,26.668 257.600,27.228 257.600 C 27.458 257.600,27.556 257.748,27.444 257.929 C 27.144 258.415,28.764 259.669,29.280 259.350 C 29.547 259.185,29.611 259.259,29.440 259.535 C 29.070 260.134,31.066 262.130,31.665 261.760 C 31.957 261.579,32.014 261.654,31.822 261.965 C 31.411 262.630,32.807 263.626,33.750 263.341 C 34.240 263.193,34.405 263.269,34.225 263.560 C 33.883 264.113,35.046 265.342,35.592 265.005 C 35.831 264.857,35.885 265.035,35.726 265.449 C 35.525 265.971,35.619 266.078,36.110 265.890 C 36.521 265.732,36.693 265.817,36.579 266.120 C 36.368 266.684,38.325 267.693,38.918 267.327 C 39.150 267.184,39.201 267.275,39.036 267.541 C 38.662 268.146,39.854 269.338,40.459 268.964 C 40.749 268.784,40.816 268.851,40.636 269.141 C 40.317 269.658,41.273 270.800,42.025 270.800 C 42.289 270.800,42.797 271.115,43.153 271.500 C 44.551 273.011,47.231 274.828,47.665 274.560 C 47.948 274.385,48.014 274.453,47.838 274.738 C 47.681 274.992,47.761 275.200,48.016 275.200 C 48.271 275.200,48.983 275.740,49.600 276.400 C 50.217 277.060,50.897 277.600,51.112 277.600 C 51.327 277.600,52.260 278.334,53.184 279.231 C 54.155 280.173,55.104 280.769,55.432 280.643 C 55.744 280.523,56.000 280.608,56.000 280.831 C 56.000 281.474,57.898 283.200,58.605 283.200 C 58.958 283.200,59.136 283.380,59.000 283.600 C 58.864 283.820,59.063 284.000,59.443 284.000 C 59.823 284.000,60.014 284.119,59.869 284.265 C 59.723 284.410,60.278 284.986,61.102 285.545 C 61.926 286.103,62.949 286.884,63.375 287.280 C 63.802 287.676,64.387 288.000,64.675 288.000 C 64.964 288.000,65.200 288.158,65.200 288.351 C 65.200 288.545,65.740 288.927,66.400 289.200 C 67.060 289.473,67.600 289.828,67.600 289.988 C 67.600 290.148,68.320 290.603,69.200 291.000 C 70.080 291.397,70.800 291.893,70.800 292.104 C 70.800 292.314,71.054 292.388,71.364 292.269 C 71.679 292.148,72.250 292.482,72.659 293.026 C 73.061 293.562,73.707 294.000,74.095 294.000 C 74.483 294.000,74.800 294.191,74.800 294.424 C 74.800 294.657,74.980 294.736,75.200 294.600 C 75.420 294.464,75.600 294.563,75.600 294.819 C 75.600 295.076,75.852 295.189,76.161 295.070 C 76.501 294.940,76.806 295.180,76.937 295.681 C 77.091 296.269,77.380 296.446,77.946 296.298 C 78.509 296.151,78.678 296.252,78.527 296.645 C 78.392 296.997,78.590 297.200,79.069 297.200 C 79.484 297.200,80.083 297.560,80.400 298.000 C 80.717 298.440,81.297 298.800,81.688 298.800 C 82.080 298.800,82.400 299.001,82.400 299.247 C 82.400 299.496,82.753 299.601,83.200 299.484 C 83.682 299.358,84.000 299.472,84.000 299.770 C 84.000 300.415,85.797 301.373,86.357 301.026 C 86.627 300.860,86.701 300.994,86.553 301.379 C 86.384 301.819,86.560 302.000,87.157 302.000 C 87.621 302.000,88.000 302.180,88.000 302.400 C 88.000 302.620,88.360 302.800,88.800 302.800 C 89.240 302.800,89.600 302.980,89.600 303.200 C 89.600 303.420,89.945 303.600,90.367 303.600 C 90.788 303.600,91.193 303.735,91.267 303.900 C 91.652 304.768,95.264 306.145,95.666 305.578 C 96.006 305.098,96.040 305.111,95.867 305.655 C 95.712 306.145,96.335 306.650,98.330 307.653 C 99.798 308.392,101.060 309.132,101.133 309.298 C 101.207 309.464,101.612 309.600,102.033 309.600 C 102.455 309.600,102.800 309.780,102.800 310.000 C 102.800 310.220,103.160 310.400,103.600 310.400 C 104.040 310.400,104.400 310.600,104.400 310.845 C 104.400 311.110,104.875 311.221,105.572 311.119 C 106.488 310.984,106.852 311.149,107.239 311.873 C 107.512 312.383,108.075 312.800,108.491 312.800 C 108.907 312.800,109.136 312.980,109.000 313.200 C 108.864 313.420,109.033 313.600,109.376 313.600 C 109.719 313.600,110.000 313.791,110.000 314.024 C 110.000 314.257,110.165 314.345,110.368 314.220 C 110.570 314.095,111.007 314.264,111.339 314.596 C 111.671 314.928,112.226 315.200,112.571 315.200 C 112.917 315.200,113.200 315.392,113.200 315.627 C 113.200 315.863,113.537 315.947,113.953 315.815 C 114.428 315.664,114.792 315.802,114.940 316.188 C 115.069 316.525,115.541 316.800,115.987 316.800 C 116.434 316.800,116.800 316.980,116.800 317.200 C 116.800 317.420,117.160 317.600,117.600 317.600 C 118.040 317.600,118.400 317.780,118.400 318.000 C 118.400 318.220,118.760 318.400,119.200 318.400 C 119.640 318.400,120.000 318.580,120.000 318.800 C 120.000 319.020,120.360 319.200,120.800 319.200 C 121.240 319.200,121.600 319.380,121.600 319.600 C 121.600 319.820,121.945 320.000,122.367 320.000 C 122.788 320.000,123.195 320.184,123.269 320.408 C 123.344 320.633,123.972 320.858,124.664 320.908 C 125.356 320.959,125.839 321.135,125.737 321.300 C 125.636 321.465,125.923 321.600,126.376 321.600 C 126.829 321.600,127.200 321.736,127.200 321.902 C 127.200 322.069,127.785 322.444,128.500 322.736 C 131.157 323.822,131.815 324.101,132.415 324.397 C 132.754 324.564,133.789 324.829,134.715 324.986 C 135.642 325.142,136.400 325.434,136.400 325.635 C 136.400 325.836,136.940 326.000,137.600 326.000 C 138.260 326.000,138.800 326.180,138.800 326.400 C 138.800 326.620,139.239 326.800,139.776 326.800 C 140.313 326.800,140.864 326.980,141.000 327.200 C 141.136 327.420,141.597 327.600,142.024 327.600 C 142.451 327.600,142.800 327.780,142.800 328.000 C 142.800 328.220,143.070 328.400,143.400 328.400 C 143.730 328.400,144.000 328.192,144.000 327.939 C 144.000 327.685,144.355 327.886,144.788 328.386 C 145.221 328.886,145.831 329.197,146.142 329.078 C 146.453 328.958,147.101 329.135,147.581 329.472 C 148.063 329.809,148.960 330.009,149.585 329.917 C 150.400 329.797,150.661 329.898,150.516 330.275 C 150.376 330.639,150.696 330.800,151.557 330.800 C 152.241 330.800,152.800 330.980,152.800 331.200 C 152.800 331.420,153.329 331.600,153.976 331.600 C 154.623 331.600,155.247 331.752,155.362 331.939 C 155.477 332.125,156.145 332.294,156.847 332.314 C 157.548 332.334,158.255 332.566,158.418 332.830 C 158.588 333.104,159.175 333.222,159.789 333.104 C 160.475 332.973,160.937 333.093,161.069 333.436 C 161.193 333.759,161.832 333.952,162.673 333.920 C 163.445 333.891,164.216 334.102,164.394 334.391 C 164.619 334.755,165.306 334.851,166.659 334.708 C 167.726 334.595,168.374 334.585,168.098 334.686 C 167.076 335.057,168.102 335.600,169.824 335.600 C 170.801 335.600,171.600 335.780,171.600 336.000 C 171.600 336.220,172.500 336.400,173.600 336.400 C 174.700 336.400,175.600 336.581,175.600 336.802 C 175.600 337.034,176.649 337.180,178.082 337.148 C 179.625 337.113,180.621 337.264,180.715 337.546 C 180.805 337.814,181.803 338.000,183.153 338.000 C 184.411 338.000,185.611 338.168,185.820 338.373 C 186.206 338.753,190.644 339.105,198.602 339.389 C 201.024 339.475,203.510 339.738,204.128 339.973 C 206.586 340.907,233.746 340.480,232.334 339.529 C 232.003 339.307,232.387 339.272,233.344 339.438 C 234.455 339.630,234.986 339.551,235.238 339.153 C 235.490 338.754,235.589 338.739,235.594 339.100 C 235.602 339.758,241.643 339.797,242.297 339.143 C 242.578 338.862,243.990 338.716,245.965 338.764 C 247.905 338.810,249.537 338.645,250.088 338.346 C 250.590 338.073,252.022 337.888,253.271 337.935 C 254.519 337.981,255.655 337.835,255.794 337.609 C 255.933 337.384,257.192 337.200,258.590 337.200 C 260.132 337.200,261.193 337.021,261.285 336.746 C 261.374 336.477,262.277 336.311,263.499 336.338 C 264.634 336.364,265.671 336.208,265.805 335.992 C 265.938 335.777,266.836 335.600,267.800 335.600 C 268.764 335.600,269.664 335.420,269.800 335.200 C 269.936 334.980,270.836 334.800,271.800 334.800 C 272.764 334.800,273.664 334.620,273.800 334.400 C 273.936 334.180,274.847 334.000,275.824 334.000 C 276.801 334.000,277.600 333.820,277.600 333.600 C 277.600 333.380,278.320 333.200,279.200 333.200 C 280.080 333.200,280.800 333.020,280.800 332.800 C 280.800 332.580,281.520 332.400,282.400 332.400 C 283.280 332.400,284.000 332.220,284.000 332.000 C 284.000 331.780,284.720 331.600,285.600 331.600 C 286.480 331.600,287.200 331.420,287.200 331.200 C 287.200 330.980,287.843 330.800,288.629 330.800 C 289.975 330.800,291.374 329.995,290.984 329.444 C 290.887 329.306,291.023 329.377,291.287 329.601 C 291.631 329.892,291.920 329.750,292.301 329.104 L 292.833 328.200 292.590 329.100 C 292.448 329.623,292.525 330.000,292.773 330.000 C 293.008 330.000,293.200 329.820,293.200 329.600 C 293.200 329.380,293.740 329.200,294.400 329.200 C 295.060 329.200,295.600 329.020,295.600 328.800 C 295.600 328.580,296.129 328.400,296.776 328.400 C 297.423 328.400,298.064 328.220,298.200 328.000 C 298.336 327.780,299.067 327.600,299.824 327.600 C 300.581 327.600,301.200 327.420,301.200 327.200 C 301.200 326.980,301.740 326.800,302.400 326.800 C 303.060 326.800,303.600 326.620,303.600 326.400 C 303.600 326.180,303.960 326.000,304.400 326.000 C 304.840 326.000,305.200 325.820,305.200 325.600 C 305.200 325.380,305.391 325.200,305.624 325.200 C 305.857 325.200,305.936 325.380,305.800 325.600 C 305.664 325.820,305.743 326.000,305.976 326.000 C 306.209 326.000,306.400 325.838,306.400 325.639 C 306.400 325.441,307.480 325.153,308.800 325.000 C 310.120 324.847,311.200 324.559,311.200 324.361 C 311.200 324.162,311.592 324.000,312.072 324.000 C 312.992 324.000,315.328 323.340,316.495 322.751 C 316.877 322.558,317.541 322.400,317.971 322.400 C 318.401 322.400,318.864 322.220,319.000 322.000 C 319.136 321.780,319.676 321.600,320.200 321.600 C 320.724 321.600,321.264 321.420,321.400 321.200 C 321.536 320.980,322.076 320.800,322.600 320.800 C 323.124 320.800,323.664 320.620,323.800 320.400 C 323.936 320.180,324.487 320.000,325.024 320.000 C 325.561 320.000,326.000 319.820,326.000 319.600 C 326.000 319.380,326.392 319.200,326.872 319.200 C 328.022 319.200,331.366 318.135,333.295 317.153 C 333.677 316.959,334.352 316.800,334.795 316.800 C 335.238 316.800,335.600 316.620,335.600 316.400 C 335.600 316.180,336.039 316.000,336.576 316.000 C 337.113 316.000,337.664 315.820,337.800 315.600 C 337.936 315.380,338.397 315.200,338.824 315.200 C 339.251 315.200,339.600 315.020,339.600 314.800 C 339.600 314.580,339.949 314.400,340.376 314.400 C 340.803 314.400,341.264 314.220,341.400 314.000 C 341.536 313.780,341.997 313.600,342.424 313.600 C 342.851 313.600,343.200 313.420,343.200 313.200 C 343.200 312.980,343.539 312.800,343.953 312.800 C 344.395 312.800,344.809 312.427,344.953 311.900 C 345.162 311.138,345.266 311.092,345.630 311.600 C 345.955 312.052,346.111 312.076,346.264 311.700 C 346.375 311.425,346.812 311.200,347.233 311.200 C 347.655 311.200,348.000 311.020,348.000 310.800 C 348.000 310.580,348.360 310.400,348.800 310.400 C 349.240 310.400,349.600 310.220,349.600 310.000 C 349.600 309.780,349.960 309.600,350.400 309.600 C 350.840 309.600,351.200 309.462,351.200 309.294 C 351.200 309.126,352.085 308.568,353.168 308.055 C 354.250 307.541,355.541 306.688,356.037 306.160 C 356.533 305.632,357.197 305.200,357.513 305.200 C 357.866 305.200,357.994 304.962,357.847 304.579 C 357.704 304.206,357.775 304.061,358.026 304.216 C 358.255 304.358,358.769 304.097,359.168 303.637 C 359.567 303.177,360.188 302.800,360.547 302.800 C 360.906 302.800,361.200 302.620,361.200 302.400 C 361.200 302.180,361.560 302.000,362.000 302.000 C 362.440 302.000,362.800 301.820,362.800 301.600 C 362.800 301.380,363.056 301.200,363.369 301.200 C 363.682 301.200,364.528 300.615,365.248 299.900 C 365.968 299.185,366.422 298.825,366.255 299.100 C 366.088 299.376,366.143 299.600,366.376 299.600 C 366.609 299.600,366.800 299.347,366.800 299.037 C 366.800 298.672,367.080 298.548,367.600 298.684 C 368.230 298.849,368.400 298.696,368.400 297.967 C 368.400 297.246,368.507 297.147,368.880 297.520 C 369.530 298.170,370.000 298.124,370.000 297.413 C 370.000 297.050,370.234 296.915,370.612 297.060 C 370.965 297.196,371.535 296.937,371.959 296.447 C 372.363 295.981,372.917 295.600,373.190 295.600 C 373.462 295.600,373.590 295.350,373.473 295.045 C 373.329 294.672,373.485 294.549,373.947 294.670 C 374.427 294.796,374.810 294.451,375.217 293.525 C 375.665 292.507,376.009 292.229,376.700 292.325 C 377.195 292.394,377.600 292.259,377.600 292.025 C 377.600 291.791,377.920 291.600,378.310 291.600 C 378.701 291.600,379.982 290.745,381.157 289.700 C 386.125 285.283,388.800 282.635,388.800 282.134 C 388.800 281.840,388.980 281.600,389.200 281.600 C 389.420 281.600,389.600 281.409,389.600 281.176 C 389.600 280.943,389.420 280.864,389.200 281.000 C 388.980 281.136,388.800 281.044,388.800 280.797 C 388.800 280.518,389.127 280.450,389.661 280.619 C 390.345 280.836,390.470 280.760,390.273 280.246 C 390.137 279.891,390.192 279.600,390.397 279.600 C 391.059 279.600,392.348 277.929,392.128 277.356 C 392.010 277.050,392.127 276.800,392.386 276.800 C 393.068 276.800,394.000 275.764,394.000 275.005 C 394.000 274.646,394.180 274.464,394.400 274.600 C 394.620 274.736,394.800 274.477,394.800 274.024 C 394.800 273.571,394.980 273.200,395.200 273.200 C 395.420 273.200,395.600 272.919,395.600 272.576 C 395.600 272.207,395.412 272.069,395.138 272.238 C 394.859 272.411,394.785 272.348,394.951 272.079 C 395.102 271.835,395.521 271.748,395.882 271.887 C 396.366 272.073,396.475 271.972,396.295 271.503 C 396.149 271.124,396.300 270.771,396.667 270.630 C 397.006 270.500,397.186 270.140,397.067 269.830 C 396.948 269.520,397.130 269.159,397.471 269.028 C 397.865 268.877,398.013 268.492,397.876 267.971 C 397.746 267.471,397.884 267.066,398.231 266.933 C 398.544 266.813,398.800 266.209,398.800 265.591 C 398.800 264.972,399.025 264.392,399.300 264.300 C 399.682 264.173,399.800 261.831,399.800 254.400 C 399.800 246.969,399.682 244.627,399.300 244.500 C 399.025 244.408,398.800 243.888,398.800 243.343 C 398.800 242.785,398.626 242.461,398.400 242.600 C 398.167 242.744,398.000 242.337,398.000 241.624 C 398.000 240.951,397.820 240.400,397.600 240.400 C 397.380 240.400,397.200 240.040,397.200 239.600 C 397.200 239.160,397.020 238.800,396.800 238.800 C 396.580 238.800,396.400 238.440,396.400 238.000 C 396.400 237.542,396.133 237.200,395.776 237.200 C 395.433 237.200,395.264 237.020,395.400 236.800 C 395.536 236.580,395.457 236.400,395.224 236.400 C 394.991 236.400,394.800 236.117,394.800 235.771 C 394.800 234.976,393.725 233.876,393.240 234.175 C 393.039 234.299,392.953 234.086,393.049 233.701 C 393.236 232.951,391.025 230.067,390.714 230.654 C 390.614 230.844,390.582 230.785,390.644 230.522 C 390.783 229.937,386.765 225.921,385.277 225.158 C 384.685 224.854,383.909 224.289,383.553 223.903 C 383.197 223.516,382.612 223.200,382.253 223.200 C 381.894 223.200,381.600 223.020,381.600 222.800 C 381.600 222.580,381.240 222.400,380.800 222.400 C 380.360 222.400,380.000 222.199,380.000 221.953 C 380.000 221.704,379.647 221.599,379.200 221.716 C 378.680 221.852,378.400 221.728,378.400 221.363 C 378.400 221.004,377.964 220.800,377.200 220.800 C 376.540 220.800,376.000 220.620,376.000 220.400 C 376.000 220.180,375.460 220.000,374.800 220.000 C 374.140 220.000,373.600 219.837,373.600 219.638 C 373.600 219.440,372.658 219.269,371.507 219.261 C 370.356 219.252,369.351 219.054,369.274 218.822 C 369.075 218.226,360.116 218.251,359.917 218.848 C 359.835 219.095,358.978 219.286,358.012 219.272 C 356.864 219.257,355.866 219.526,355.128 220.051 C 354.508 220.493,354.000 220.662,354.000 220.427 C 354.000 219.764,352.115 219.924,351.852 220.610 C 351.685 221.043,351.317 221.144,350.580 220.959 C 349.731 220.746,349.565 220.828,349.671 221.408 C 349.742 221.798,349.575 222.196,349.300 222.292 C 349.025 222.388,348.787 222.227,348.772 221.933 C 348.756 221.640,348.589 221.760,348.400 222.200 C 348.106 222.884,348.052 222.899,348.028 222.300 C 348.013 221.915,347.801 221.600,347.557 221.600 C 347.314 221.600,347.203 221.831,347.312 222.114 C 347.455 222.488,347.139 222.586,346.155 222.471 C 345.334 222.375,344.800 222.487,344.800 222.756 C 344.800 223.000,344.552 223.200,344.249 223.200 C 343.946 223.200,343.489 223.451,343.234 223.759 C 342.979 224.066,342.442 224.231,342.040 224.126 C 341.611 224.014,341.211 224.193,341.070 224.561 C 340.931 224.925,340.573 225.088,340.215 224.950 C 339.877 224.821,339.600 224.924,339.600 225.181 C 339.600 225.437,339.425 225.539,339.211 225.407 C 338.998 225.275,338.368 225.465,337.811 225.829 C 337.255 226.194,336.800 226.368,336.800 226.217 C 336.800 226.066,336.515 226.227,336.168 226.575 C 335.820 226.923,335.339 227.086,335.100 226.938 C 334.831 226.772,334.753 226.899,334.896 227.272 C 335.072 227.732,334.899 227.832,334.163 227.691 C 333.611 227.585,333.200 227.697,333.200 227.953 C 333.200 228.199,332.840 228.400,332.400 228.400 C 331.960 228.400,331.600 228.536,331.600 228.702 C 331.600 228.869,331.060 229.244,330.400 229.536 C 329.740 229.828,329.200 230.305,329.200 230.596 C 329.200 230.928,328.902 231.047,328.400 230.916 C 327.953 230.799,327.600 230.904,327.600 231.153 C 327.600 231.399,327.330 231.600,327.000 231.600 C 326.670 231.600,326.400 231.870,326.400 232.200 C 326.400 232.530,326.265 232.764,326.100 232.721 C 325.554 232.577,324.000 233.247,324.000 233.627 C 324.000 233.832,323.717 234.000,323.371 234.000 C 322.659 234.000,321.600 234.932,321.600 235.559 C 321.600 235.788,321.335 235.873,321.010 235.749 C 320.169 235.426,319.200 236.443,319.200 237.649 C 319.200 237.957,319.010 237.940,318.594 237.595 C 318.092 237.178,317.844 237.256,317.150 238.046 C 316.690 238.571,316.147 238.953,315.944 238.896 C 315.741 238.839,315.187 239.154,314.712 239.596 C 314.238 240.038,313.613 240.400,313.325 240.400 C 313.036 240.400,312.800 240.664,312.800 240.987 C 312.800 241.311,312.569 241.486,312.286 241.378 C 312.003 241.269,311.381 241.545,310.903 241.990 C 310.425 242.436,309.846 242.800,309.617 242.800 C 309.388 242.800,309.200 242.991,309.200 243.224 C 309.200 243.457,309.020 243.536,308.800 243.400 C 308.580 243.264,308.400 243.301,308.400 243.482 C 308.400 243.663,307.680 244.256,306.800 244.800 C 305.920 245.344,305.200 245.926,305.200 246.094 C 305.200 246.262,304.917 246.400,304.571 246.400 C 303.826 246.400,302.731 247.397,303.086 247.752 C 303.222 247.889,302.893 248.000,302.355 248.000 C 301.817 248.000,301.117 248.360,300.800 248.800 C 300.483 249.240,299.943 249.600,299.600 249.600 C 299.257 249.600,298.717 249.960,298.400 250.400 C 298.083 250.840,297.503 251.200,297.112 251.200 C 296.642 251.200,296.398 251.506,296.394 252.100 C 296.389 252.750,296.293 252.851,296.047 252.463 C 295.692 251.903,294.000 252.591,294.000 253.296 C 294.000 253.463,293.724 253.600,293.387 253.600 C 293.051 253.600,292.672 253.869,292.546 254.198 C 292.419 254.526,292.182 254.713,292.019 254.612 C 291.855 254.510,291.341 254.781,290.877 255.214 C 290.413 255.646,289.737 256.000,289.374 256.000 C 288.962 256.000,288.798 256.218,288.937 256.580 C 289.085 256.967,288.967 257.085,288.580 256.937 C 288.261 256.814,288.000 256.914,288.000 257.157 C 288.000 257.401,287.449 257.600,286.776 257.600 C 286.063 257.600,285.656 257.767,285.800 258.000 C 285.949 258.242,285.404 258.400,284.424 258.400 C 283.531 258.400,282.800 258.568,282.800 258.774 C 282.800 258.979,282.364 259.068,281.831 258.971 C 281.298 258.875,280.623 259.022,280.331 259.298 C 280.039 259.574,279.440 259.792,279.000 259.783 C 278.560 259.773,277.930 259.886,277.600 260.033 C 276.334 260.600,274.106 261.200,273.272 261.200 C 272.792 261.200,272.400 261.380,272.400 261.600 C 272.400 261.820,271.779 262.000,271.020 262.000 C 270.261 262.000,269.496 262.225,269.320 262.500 C 269.144 262.775,268.280 263.034,267.400 263.076 C 264.881 263.195,262.416 263.651,262.174 264.042 C 262.052 264.239,261.314 264.400,260.534 264.400 C 259.562 264.400,259.175 264.558,259.307 264.900 C 259.452 265.275,258.898 265.365,257.097 265.262 C 255.599 265.176,254.589 265.294,254.415 265.576 C 254.261 265.825,253.115 266.041,251.868 266.056 C 250.620 266.071,249.600 266.244,249.600 266.441 C 249.600 266.639,248.625 266.800,247.433 266.800 C 246.206 266.800,245.203 266.992,245.119 267.242 C 245.024 267.529,243.494 267.683,240.786 267.679 C 238.484 267.675,236.385 267.850,236.123 268.066 C 235.841 268.299,232.423 268.443,227.779 268.417 C 221.916 268.385,219.755 268.504,219.292 268.887 C 218.798 269.294,218.635 269.297,218.502 268.900 C 218.409 268.625,217.754 268.400,217.047 268.400 C 216.339 268.400,215.518 268.625,215.221 268.900 C 214.790 269.300,214.739 269.300,214.965 268.900 C 215.170 268.536,214.811 268.400,213.647 268.400 C 212.767 268.400,211.936 268.220,211.800 268.000 C 211.664 267.780,210.203 267.600,208.553 267.600 C 206.517 267.600,205.638 267.738,205.818 268.030 C 206.007 268.336,205.842 268.336,205.242 268.030 C 204.779 267.793,204.042 267.420,203.605 267.200 C 202.503 266.645,200.907 266.700,200.665 267.300 C 200.504 267.700,200.457 267.700,200.432 267.300 C 200.414 267.025,200.040 266.800,199.600 266.800 C 199.160 266.800,198.800 266.597,198.800 266.349 C 198.800 266.050,198.285 265.980,197.278 266.141 C 196.210 266.312,195.484 266.194,194.843 265.745 C 194.195 265.291,193.364 265.159,191.985 265.292 C 190.700 265.415,190.068 265.330,190.120 265.039 C 190.167 264.781,189.465 264.576,188.414 264.541 C 187.431 264.509,186.561 264.284,186.480 264.041 C 186.400 263.799,185.808 263.600,185.167 263.600 C 184.525 263.600,184.000 263.440,184.000 263.244 C 184.000 262.907,183.551 262.790,179.900 262.168 C 179.075 262.027,178.400 261.752,178.400 261.556 C 178.400 261.360,177.871 261.200,177.224 261.200 C 176.577 261.200,175.936 261.020,175.800 260.800 C 175.664 260.580,175.034 260.400,174.400 260.400 C 173.766 260.400,173.146 260.236,173.022 260.035 C 172.898 259.835,172.357 259.719,171.819 259.778 C 171.251 259.840,170.748 259.641,170.617 259.301 C 170.494 258.980,170.125 258.820,169.797 258.946 C 169.468 259.072,169.200 259.001,169.200 258.787 C 169.200 258.574,168.742 258.400,168.183 258.400 C 167.624 258.400,166.780 258.040,166.308 257.600 C 165.836 257.160,165.213 256.800,164.925 256.800 C 164.636 256.800,164.400 256.620,164.400 256.400 C 164.400 256.180,164.040 256.000,163.600 256.000 C 163.160 256.000,162.800 255.801,162.800 255.557 C 162.800 255.314,162.523 255.221,162.185 255.350 C 161.829 255.487,161.470 255.326,161.333 254.970 C 161.203 254.631,160.843 254.451,160.533 254.570 C 160.223 254.689,159.874 254.536,159.756 254.230 C 159.639 253.924,159.015 253.455,158.371 253.188 C 157.727 252.921,157.200 252.545,157.200 252.351 C 157.200 252.158,156.930 252.000,156.600 252.000 C 156.270 252.000,156.000 251.820,156.000 251.600 C 156.000 251.380,155.640 251.200,155.200 251.200 C 154.760 251.200,154.400 251.020,154.400 250.800 C 154.400 250.580,154.209 250.400,153.976 250.400 C 153.743 250.400,153.667 250.625,153.807 250.900 C 153.947 251.175,153.683 250.970,153.220 250.443 C 152.758 249.917,152.283 249.583,152.165 249.701 C 152.047 249.819,151.485 249.485,150.917 248.958 C 150.348 248.431,149.639 248.000,149.342 248.000 C 149.044 248.000,148.800 247.820,148.800 247.600 C 148.800 247.380,148.429 247.200,147.976 247.200 C 147.424 247.200,147.252 247.365,147.453 247.700 C 147.657 248.040,147.537 248.024,147.077 247.651 C 146.344 247.057,146.149 246.598,146.800 247.000 C 147.020 247.136,147.200 247.057,147.200 246.824 C 147.200 246.591,146.840 246.400,146.400 246.400 C 145.960 246.400,145.600 246.250,145.600 246.068 C 145.600 245.885,145.105 245.480,144.500 245.168 C 143.895 244.856,143.310 244.495,143.200 244.366 C 142.424 243.453,138.522 241.627,139.000 242.400 C 139.136 242.620,139.044 242.800,138.797 242.800 C 138.528 242.800,138.449 242.477,138.600 242.000 C 138.791 241.397,138.672 241.200,138.115 241.200 C 137.709 241.200,137.117 240.840,136.800 240.400 C 136.483 239.960,135.903 239.600,135.512 239.600 C 135.120 239.600,134.800 239.420,134.800 239.200 C 134.800 238.980,134.530 238.800,134.200 238.800 C 133.870 238.800,133.600 238.620,133.600 238.400 C 133.600 238.180,133.330 238.000,133.000 238.000 C 132.670 238.000,132.400 237.801,132.400 237.557 C 132.400 237.314,132.146 237.212,131.836 237.331 C 131.520 237.452,130.949 237.117,130.538 236.569 C 130.133 236.030,129.593 235.670,129.338 235.769 C 129.082 235.867,128.543 235.509,128.141 234.974 C 127.718 234.410,127.001 234.000,126.438 234.000 C 125.904 234.000,125.578 233.889,125.714 233.752 C 126.089 233.378,124.914 232.359,124.032 232.292 C 123.605 232.260,123.288 232.075,123.328 231.880 C 123.367 231.685,123.043 231.317,122.606 231.063 C 122.169 230.808,121.518 230.285,121.159 229.900 C 120.800 229.515,120.347 229.200,120.153 229.200 C 119.959 229.199,119.277 228.749,118.638 228.200 C 117.553 227.266,117.038 227.036,116.300 227.153 C 116.135 227.179,116.000 226.919,116.000 226.576 C 116.000 226.233,115.853 226.044,115.673 226.155 C 115.493 226.266,115.093 226.007,114.785 225.579 C 114.476 225.150,113.903 224.800,113.512 224.800 C 113.120 224.800,112.800 224.620,112.800 224.400 C 112.800 224.180,112.500 224.000,112.133 224.000 C 111.767 224.000,111.578 223.889,111.714 223.752 C 112.022 223.445,111.017 222.400,110.413 222.400 C 110.168 222.400,109.283 221.680,108.446 220.800 C 107.609 219.920,106.806 219.200,106.662 219.200 C 106.519 219.200,105.659 218.480,104.752 217.600 C 103.845 216.720,102.941 216.000,102.741 216.000 C 102.542 216.000,101.569 215.190,100.579 214.200 C 98.923 212.545,97.561 211.765,98.238 212.862 C 98.416 213.150,98.348 213.215,98.055 213.034 C 97.798 212.875,97.655 212.622,97.737 212.472 C 97.820 212.323,97.283 211.610,96.544 210.889 C 95.805 210.167,95.200 209.692,95.200 209.833 C 95.200 209.974,94.861 209.670,94.446 209.157 C 93.766 208.318,93.618 208.284,92.946 208.813 C 92.262 209.351,92.245 209.342,92.740 208.711 C 93.345 207.938,92.396 206.508,91.603 206.998 C 91.381 207.135,91.200 207.052,91.200 206.813 C 91.200 206.574,88.889 204.088,86.066 201.289 C 79.421 194.704,78.068 193.511,77.581 193.812 C 77.361 193.948,77.206 193.911,77.237 193.730 C 77.378 192.921,77.155 192.651,76.800 193.200 C 76.465 193.718,76.411 193.708,76.406 193.129 C 76.403 192.760,75.926 192.085,75.346 191.629 C 74.766 191.173,74.411 190.800,74.557 190.800 C 74.703 190.800,74.233 190.195,73.511 189.456 C 72.631 188.554,72.046 188.233,71.731 188.479 C 71.393 188.744,71.327 188.600,71.494 187.960 C 71.654 187.350,71.582 187.164,71.263 187.361 C 71.008 187.518,70.800 187.452,70.800 187.213 C 70.800 186.648,67.352 183.200,66.787 183.200 C 66.548 183.200,66.482 183.425,66.641 183.700 C 66.808 183.990,66.776 184.060,66.564 183.867 C 66.364 183.683,66.200 183.400,66.200 183.238 C 66.200 182.626,64.787 181.561,64.341 181.836 C 64.051 182.016,63.984 181.949,64.164 181.659 C 64.458 181.182,63.549 180.000,62.888 180.000 C 62.685 180.000,61.936 179.443,61.224 178.763 C 60.384 177.960,59.660 177.596,59.164 177.725 C 58.683 177.851,58.498 177.766,58.665 177.495 C 58.832 177.225,58.690 177.157,58.286 177.312 C 57.827 177.488,57.707 177.387,57.869 176.963 C 58.025 176.558,57.698 176.217,56.849 175.896 C 56.162 175.637,55.600 175.284,55.600 175.112 C 55.600 174.941,55.330 174.800,55.000 174.800 C 54.670 174.800,54.400 174.620,54.400 174.400 C 54.400 174.180,54.040 174.000,53.600 174.000 C 53.160 174.000,52.800 173.820,52.800 173.600 C 52.800 173.380,52.440 173.200,52.000 173.200 C 51.560 173.200,51.200 173.020,51.200 172.800 C 51.200 172.580,50.840 172.400,50.400 172.400 C 49.960 172.400,49.600 172.220,49.600 172.000 C 49.600 171.780,49.060 171.600,48.400 171.600 C 47.740 171.600,47.200 171.400,47.200 171.155 C 47.200 170.887,46.720 170.780,46.000 170.885 C 45.148 171.010,44.800 170.897,44.800 170.494 C 44.800 170.055,44.296 169.957,42.591 170.063 C 40.920 170.167,40.528 170.094,40.981 169.763 C 41.446 169.424,41.112 169.310,39.490 169.253 C 38.341 169.213,37.340 169.005,37.267 168.790 C 37.193 168.576,36.418 168.400,35.543 168.400 C 34.387 168.400,34.030 168.537,34.235 168.900 C 34.461 169.300,34.410 169.300,33.979 168.900 C 33.340 168.308,29.200 168.221,29.200 168.800 " stroke="none" fill="#642c94" fill-rule="evenodd"></path><path id="path1" d="M137.200 59.755 C 137.200 60.089,139.611 60.240,140.091 59.935 C 140.396 59.742,139.920 59.610,138.900 59.606 C 137.965 59.603,137.200 59.670,137.200 59.755 M238.413 116.776 C 238.178 117.215,238.152 117.647,238.353 117.771 C 238.549 117.892,238.794 117.543,238.899 116.995 C 239.127 115.800,238.973 115.730,238.413 116.776 M375.666 292.521 C 375.346 292.906,375.435 293.047,376.020 293.092 C 376.819 293.152,377.081 292.621,376.445 292.228 C 376.250 292.107,375.899 292.239,375.666 292.521 " stroke="none" fill="#682c94" fill-rule="evenodd"></path><path id="path2" d="M137.200 59.755 C 137.200 60.089,139.611 60.240,140.091 59.935 C 140.396 59.742,139.920 59.610,138.900 59.606 C 137.965 59.603,137.200 59.670,137.200 59.755 M238.413 116.776 C 238.178 117.215,238.152 117.647,238.353 117.771 C 238.549 117.892,238.794 117.543,238.899 116.995 C 239.127 115.800,238.973 115.730,238.413 116.776 M375.666 292.521 C 375.346 292.906,375.435 293.047,376.020 293.092 C 376.819 293.152,377.081 292.621,376.445 292.228 C 376.250 292.107,375.899 292.239,375.666 292.521 " stroke="none" fill="#682c94" fill-rule="evenodd"></path><path id="path3" d="M137.200 59.755 C 137.200 60.089,139.611 60.240,140.091 59.935 C 140.396 59.742,139.920 59.610,138.900 59.606 C 137.965 59.603,137.200 59.670,137.200 59.755 M238.413 116.776 C 238.178 117.215,238.152 117.647,238.353 117.771 C 238.549 117.892,238.794 117.543,238.899 116.995 C 239.127 115.800,238.973 115.730,238.413 116.776 M375.666 292.521 C 375.346 292.906,375.435 293.047,376.020 293.092 C 376.819 293.152,377.081 292.621,376.445 292.228 C 376.250 292.107,375.899 292.239,375.666 292.521 " stroke="none" fill="#682c94" fill-rule="evenodd"></path><path id="path4" d="M137.200 59.755 C 137.200 60.089,139.611 60.240,140.091 59.935 C 140.396 59.742,139.920 59.610,138.900 59.606 C 137.965 59.603,137.200 59.670,137.200 59.755 M238.413 116.776 C 238.178 117.215,238.152 117.647,238.353 117.771 C 238.549 117.892,238.794 117.543,238.899 116.995 C 239.127 115.800,238.973 115.730,238.413 116.776 M375.666 292.521 C 375.346 292.906,375.435 293.047,376.020 293.092 C 376.819 293.152,377.081 292.621,376.445 292.228 C 376.250 292.107,375.899 292.239,375.666 292.521 " stroke="none" fill="#682c94" fill-rule="evenodd"></path></g></svg>