<?xml version="1.0" encoding="UTF-8"?>
<svg xmlns="http://www.w3.org/2000/svg" xmlns:xlink="http://www.w3.org/1999/xlink" viewBox="0 0 240 240" width="240px" height="240px">
<g id="surface91884500">
<path style=" stroke:none;fill-rule:nonzero;fill:rgb(9.803922%,46.27451%,82.352942%);fill-opacity:1;" d="M 141 129.1875 C 141 118.25 155 116.0625 155 92 C 155 72.03125 144.621094 59.703125 125.6875 53.9375 C 114.75 50.609375 100.375 50 85 50 C 78 50 64 50 64 50 L 64 116.0625 L 81.5 134 L 109.5 134 L 144.5 172.5 L 176 190 C 176 190 141 139.6875 141 129.1875 Z M 120 92 C 120 99.730469 113.730469 106 106 106 L 102.5 106 C 98.632812 106 95.5 102.867188 95.5 99 L 95.5 85 C 95.5 81.132812 98.632812 78 102.5 78 L 109.5 78 C 115.300781 78 120 82.699219 120 88.5 Z M 120 92 "/>
<path style=" stroke:none;fill-rule:nonzero;fill:rgb(8.235294%,39.607844%,75.294119%);fill-opacity:1;" d="M 119.972656 92.261719 C 119.828125 99.871094 113.640625 106 106 106 C 106 106 105.125 109.5 98.5625 115.625 C 94.945312 119.003906 85 123.5 85 123.5 C 85 123.5 123.835938 126.066406 134.691406 104.5 C 132.871094 98.25 127.710938 93.386719 119.972656 92.261719 Z M 119.972656 92.261719 "/>
<path style=" stroke:none;fill-rule:nonzero;fill:rgb(9.803922%,31.37255%,65.098041%);fill-opacity:1;" d="M 113 67.5 L 99 67.5 C 93.199219 67.5 88.5 72.199219 88.5 78 L 88.5 88.5 C 88.5 97.378906 94.414062 104.636719 100.800781 105.769531 C 97.761719 105.007812 95.5 102.277344 95.5 99 L 95.5 85 C 95.5 81.132812 98.632812 78 102.5 78 L 109.5 78 C 115.300781 78 120 82.699219 120 88.5 L 120 92 C 120 92.089844 119.976562 92.175781 119.972656 92.261719 C 127.710938 93.386719 132.871094 98.246094 134.6875 104.496094 C 136.449219 101 137.5 96.886719 137.5 92 C 137.5 78.46875 126.53125 67.5 113 67.5 Z M 113 67.5 "/>
<path style=" stroke:none;fill-rule:nonzero;fill:rgb(5.098039%,27.843139%,63.137257%);fill-opacity:1;" d="M 99 67.5 C 93.199219 67.5 88.5 72.199219 88.5 78 L 88.5 88.5 C 88.5 97.378906 94.414062 104.636719 100.800781 105.769531 C 97.761719 105.007812 95.5 102.277344 95.5 99 L 95.5 85 C 95.5 81.132812 98.632812 78 102.5 78 L 109.5 78 C 115.300781 78 120 82.699219 120 88.5 L 120 92 C 120 99.730469 113.730469 106 106 106 C 106 106 127 106 127 85 L 127 81.515625 C 127 74.023438 121.117188 67.699219 113.628906 67.507812 C 113.421875 67.503906 113.210938 67.5 113 67.5 Z M 64 50 L 64 183 L 78 190 L 85 123.5 C 85 123.5 64 113 64 50 Z M 64 50 "/>
<path style=" stroke:none;fill-rule:nonzero;fill:rgb(22.745098%,63.529414%,85.882354%);fill-opacity:1;" d="M 78 190 L 85 123.5 C 85 123.5 106 123.5 116.5 130.5 C 121.0625 133.546875 133.746094 148.363281 145.375 161.5625 C 161.5625 179.9375 176 190 176 190 C 176 190 151.9375 188.25 142.355469 186.90625 C 139.292969 186.476562 136.464844 185.050781 134.671875 182.53125 C 129.425781 175.152344 120 156.75 106 142.75 C 105.175781 141.925781 104.25 141.015625 102.5 141.015625 C 100.71875 141.015625 99 142.40625 99 144.535156 L 99 180.476562 C 99 181.980469 98.039062 183.320312 96.605469 183.796875 Z M 78 190 "/>
<path style=" stroke:none;fill-rule:nonzero;fill:rgb(80.000001%,80.000001%,80.000001%);fill-opacity:1;" d="M 89.972656 228.757812 L 82.746094 215.277344 L 74.910156 215.277344 L 74.910156 228.757812 L 70.496094 228.757812 L 70.496094 195.429688 L 81.523438 195.429688 C 85.28125 195.429688 88.171875 196.28125 90.199219 197.988281 C 92.214844 199.703125 93.226562 202.1875 93.226562 205.449219 C 93.226562 207.527344 92.664062 209.339844 91.546875 210.882812 C 90.425781 212.417969 88.867188 213.566406 86.867188 214.328125 L 94.691406 228.484375 L 94.691406 228.757812 Z M 74.910156 199.042969 L 74.910156 211.683594 L 81.671875 211.683594 C 83.851562 211.683594 85.585938 211.117188 86.875 209.984375 C 88.164062 208.855469 88.808594 207.347656 88.808594 205.449219 C 88.808594 203.394531 88.195312 201.8125 86.964844 200.714844 C 85.734375 199.613281 83.960938 199.058594 81.640625 199.042969 Z M 109 229.214844 C 105.640625 229.214844 102.90625 228.113281 100.804688 225.902344 C 98.695312 223.703125 97.640625 220.753906 97.640625 217.054688 L 97.640625 216.285156 C 97.640625 213.820312 98.113281 211.628906 99.054688 209.699219 C 99.996094 207.765625 101.304688 206.253906 102.992188 205.167969 C 104.679688 204.074219 106.503906 203.527344 108.472656 203.527344 C 111.695312 203.527344 114.199219 204.589844 115.984375 206.710938 C 117.769531 208.832031 118.660156 211.871094 118.660156 215.824219 L 118.660156 217.582031 L 101.878906 217.582031 C 101.9375 220.023438 102.652344 221.996094 104.019531 223.5 C 105.386719 225.003906 107.121094 225.757812 109.222656 225.757812 C 110.722656 225.757812 111.988281 225.453125 113.023438 224.839844 C 114.066406 224.226562 114.972656 223.421875 115.75 222.417969 L 118.335938 224.429688 C 116.261719 227.621094 113.148438 229.214844 109 229.214844 Z M 108.472656 207.003906 C 106.765625 207.003906 105.332031 207.625 104.164062 208.871094 C 103.003906 210.113281 102.289062 211.859375 102.015625 214.105469 L 114.421875 214.105469 L 114.421875 213.78125 C 114.304688 211.632812 113.722656 209.96875 112.683594 208.78125 C 111.648438 207.597656 110.242188 207.003906 108.472656 207.003906 Z M 125.136719 203.984375 L 131.4375 223.011719 L 137.570312 203.984375 L 141.898438 203.984375 L 133.019531 228.757812 L 129.785156 228.757812 L 120.808594 203.984375 Z M 150.570312 203.984375 L 150.570312 228.757812 L 146.339844 228.757812 L 146.339844 203.984375 Z M 145.988281 197.414062 C 145.988281 196.730469 146.199219 196.148438 146.625 195.675781 C 147.039062 195.207031 147.664062 194.96875 148.488281 194.96875 C 149.308594 194.96875 149.933594 195.207031 150.363281 195.675781 C 150.792969 196.148438 151.007812 196.730469 151.007812 197.414062 C 151.007812 198.101562 150.792969 198.675781 150.363281 199.132812 C 149.933594 199.59375 149.308594 199.824219 148.488281 199.824219 C 147.664062 199.824219 147.039062 199.59375 146.625 199.132812 C 146.199219 198.675781 145.988281 198.101562 145.988281 197.414062 Z M 158.863281 197.988281 L 163.09375 197.988281 L 163.09375 203.984375 L 167.722656 203.984375 L 167.722656 207.257812 L 163.09375 207.257812 L 163.09375 222.621094 C 163.09375 223.613281 163.300781 224.355469 163.71875 224.847656 C 164.128906 225.351562 164.828125 225.601562 165.816406 225.601562 C 166.304688 225.601562 166.976562 225.507812 167.828125 225.316406 L 167.828125 228.757812 C 166.714844 229.0625 165.632812 229.214844 164.585938 229.214844 C 162.691406 229.214844 161.261719 228.640625 160.296875 227.496094 C 159.339844 226.351562 158.863281 224.726562 158.863281 222.621094 L 158.863281 207.257812 L 154.351562 207.257812 L 154.351562 203.984375 L 158.863281 203.984375 Z M 158.863281 197.988281 "/>
</g>
</svg>
