<?xml version="1.0" encoding="UTF-8"?>
<svg xmlns="http://www.w3.org/2000/svg" xmlns:xlink="http://www.w3.org/1999/xlink" viewBox="0 0 240 240" width="240px" height="240px">
<defs>
<linearGradient id="linear0" gradientUnits="userSpaceOnUse" x1="94.548042" y1="176.5625" x2="91.675957" y2="176.5625" gradientTransform="matrix(0.828319,0,0,0.828319,26.400001,26.400001)">
<stop offset="0" style="stop-color:rgb(19.215687%,0%,0%);stop-opacity:1;"/>
<stop offset="0.092" style="stop-color:rgb(31.37255%,8.235294%,1.176471%);stop-opacity:1;"/>
<stop offset="0.228" style="stop-color:rgb(47.058824%,18.431373%,2.352941%);stop-opacity:1;"/>
<stop offset="0.369" style="stop-color:rgb(59.607846%,26.666668%,3.137255%);stop-opacity:1;"/>
<stop offset="0.513" style="stop-color:rgb(69.803923%,33.333334%,3.921569%);stop-opacity:1;"/>
<stop offset="0.663" style="stop-color:rgb(76.862746%,38.039216%,4.705882%);stop-opacity:1;"/>
<stop offset="0.82" style="stop-color:rgb(81.176472%,40.784314%,5.098039%);stop-opacity:1;"/>
<stop offset="1" style="stop-color:rgb(82.352942%,41.568628%,5.098039%);stop-opacity:1;"/>
</linearGradient>
<linearGradient id="linear1" gradientUnits="userSpaceOnUse" x1="102.702881" y1="176.5625" x2="79.161209" y2="176.5625" gradientTransform="matrix(0.828319,0,0,0.828319,26.400001,26.400001)">
<stop offset="0.1" style="stop-color:rgb(19.215687%,0%,0%);stop-opacity:1;"/>
<stop offset="0.183" style="stop-color:rgb(31.37255%,8.235294%,1.176471%);stop-opacity:1;"/>
<stop offset="0.305" style="stop-color:rgb(47.058824%,18.431373%,2.352941%);stop-opacity:1;"/>
<stop offset="0.432" style="stop-color:rgb(59.607846%,26.666668%,3.137255%);stop-opacity:1;"/>
<stop offset="0.562" style="stop-color:rgb(69.803923%,33.333334%,3.921569%);stop-opacity:1;"/>
<stop offset="0.696" style="stop-color:rgb(76.862746%,38.039216%,4.705882%);stop-opacity:1;"/>
<stop offset="0.838" style="stop-color:rgb(81.176472%,40.784314%,5.098039%);stop-opacity:1;"/>
<stop offset="1" style="stop-color:rgb(82.352942%,41.568628%,5.098039%);stop-opacity:1;"/>
</linearGradient>
<linearGradient id="linear2" gradientUnits="userSpaceOnUse" x1="155.375" y1="58.307999" x2="131.833328" y2="58.307999" gradientTransform="matrix(0.828319,0,0,0.828319,26.400001,26.400001)">
<stop offset="0" style="stop-color:rgb(19.215687%,0%,0%);stop-opacity:1;"/>
<stop offset="0.092" style="stop-color:rgb(31.37255%,8.235294%,1.176471%);stop-opacity:1;"/>
<stop offset="0.228" style="stop-color:rgb(47.058824%,18.431373%,2.352941%);stop-opacity:1;"/>
<stop offset="0.369" style="stop-color:rgb(59.607846%,26.666668%,3.137255%);stop-opacity:1;"/>
<stop offset="0.513" style="stop-color:rgb(69.803923%,33.333334%,3.921569%);stop-opacity:1;"/>
<stop offset="0.663" style="stop-color:rgb(76.862746%,38.039216%,4.705882%);stop-opacity:1;"/>
<stop offset="0.82" style="stop-color:rgb(81.176472%,40.784314%,5.098039%);stop-opacity:1;"/>
<stop offset="1" style="stop-color:rgb(82.352942%,41.568628%,5.098039%);stop-opacity:1;"/>
</linearGradient>
<radialGradient id="radial0" gradientUnits="userSpaceOnUse" cx="115.354172" cy="200.104172" fx="110.240921" fy="219.342422" r="32.021381" gradientTransform="matrix(0.828319,0,0,0.828319,26.400001,26.400001)">
<stop offset="0" style="stop-color:rgb(19.215687%,0%,0%);stop-opacity:1;"/>
<stop offset="0.193" style="stop-color:rgb(36.078432%,17.254902%,8.235294%);stop-opacity:1;"/>
<stop offset="0.357" style="stop-color:rgb(49.019608%,30.588236%,14.117648%);stop-opacity:1;"/>
<stop offset="0.451" style="stop-color:rgb(59.215689%,38.039216%,14.117648%);stop-opacity:1;"/>
<stop offset="0.622" style="stop-color:rgb(75.686276%,50.196081%,14.509805%);stop-opacity:1;"/>
<stop offset="0.776" style="stop-color:rgb(87.843138%,58.823532%,14.509805%);stop-opacity:1;"/>
<stop offset="0.907" style="stop-color:rgb(94.901961%,63.921571%,14.509805%);stop-opacity:1;"/>
<stop offset="1" style="stop-color:rgb(97.647059%,65.882355%,14.509805%);stop-opacity:1;"/>
</radialGradient>
<linearGradient id="linear3" gradientUnits="userSpaceOnUse" x1="148.3125" y1="169.5" x2="148.3125" y2="184.190002" gradientTransform="matrix(0.828319,0,0,0.828319,26.400001,26.400001)">
<stop offset="0.271" style="stop-color:rgb(65.098041%,30.19608%,9.803922%);stop-opacity:1;"/>
<stop offset="0.333" style="stop-color:rgb(71.764708%,38.431373%,11.764706%);stop-opacity:1;"/>
<stop offset="0.44" style="stop-color:rgb(81.176472%,49.803922%,14.901961%);stop-opacity:1;"/>
<stop offset="0.553" style="stop-color:rgb(88.627452%,58.431375%,17.254902%);stop-opacity:1;"/>
<stop offset="0.676" style="stop-color:rgb(93.725491%,65.098041%,18.82353%);stop-opacity:1;"/>
<stop offset="0.814" style="stop-color:rgb(96.862745%,68.627453%,19.607843%);stop-opacity:1;"/>
<stop offset="1" style="stop-color:rgb(97.647059%,69.803923%,20%);stop-opacity:1;"/>
</linearGradient>
<linearGradient id="linear4" gradientUnits="userSpaceOnUse" x1="100.254539" y1="58.854172" x2="76.712883" y2="58.854172" gradientTransform="matrix(0.828319,0,0,0.828319,26.400001,26.400001)">
<stop offset="0" style="stop-color:rgb(92.156863%,65.098041%,0%);stop-opacity:1;"/>
<stop offset="0.299" style="stop-color:rgb(90.196079%,63.529414%,0%);stop-opacity:1;"/>
<stop offset="0.643" style="stop-color:rgb(84.705883%,58.823532%,0%);stop-opacity:1;"/>
<stop offset="1" style="stop-color:rgb(76.078433%,50.980395%,0%);stop-opacity:1;"/>
</linearGradient>
<linearGradient id="linear5" gradientUnits="userSpaceOnUse" x1="113" y1="165.182465" x2="113" y2="14.51579" gradientTransform="matrix(0.828319,0,0,0.828319,26.400001,26.400001)">
<stop offset="0.043" style="stop-color:rgb(65.098041%,30.19608%,9.803922%);stop-opacity:1;"/>
<stop offset="0.373" style="stop-color:rgb(77.64706%,38.039216%,9.411765%);stop-opacity:1;"/>
<stop offset="0.779" style="stop-color:rgb(90.980393%,46.666667%,9.019608%);stop-opacity:1;"/>
<stop offset="1" style="stop-color:rgb(96.078432%,49.803922%,9.019608%);stop-opacity:1;"/>
</linearGradient>
<linearGradient id="linear6" gradientUnits="userSpaceOnUse" x1="151.84375" y1="30.60417" x2="67.09375" y2="30.60417" gradientTransform="matrix(0.828319,0,0,0.828319,26.400001,26.400001)">
<stop offset="0" style="stop-color:rgb(65.098041%,30.19608%,9.803922%);stop-opacity:1;"/>
<stop offset="0.122" style="stop-color:rgb(70.588237%,33.725491%,8.235294%);stop-opacity:1;"/>
<stop offset="0.509" style="stop-color:rgb(86.666667%,44.313726%,3.921569%);stop-opacity:1;"/>
<stop offset="0.815" style="stop-color:rgb(96.470588%,50.980395%,1.176471%);stop-opacity:1;"/>
<stop offset="1" style="stop-color:rgb(100%,53.333336%,0%);stop-opacity:1;"/>
</linearGradient>
<radialGradient id="radial1" gradientUnits="userSpaceOnUse" cx="115.354172" cy="127.130653" fx="90.461212" fy="93.599586" r="64.833748" gradientTransform="matrix(0.828319,0,0,0.828319,26.400001,26.400001)">
<stop offset="0" style="stop-color:rgb(95.686275%,75.686276%,52.549022%);stop-opacity:1;"/>
<stop offset="0.072" style="stop-color:rgb(94.901961%,74.901962%,50.588238%);stop-opacity:1;"/>
<stop offset="0.155" style="stop-color:rgb(92.941177%,72.156864%,45.09804%);stop-opacity:1;"/>
<stop offset="0.179" style="stop-color:rgb(92.156863%,71.372551%,43.137255%);stop-opacity:1;"/>
<stop offset="0.26" style="stop-color:rgb(90.980393%,69.803923%,40.000001%);stop-opacity:1;"/>
<stop offset="0.387" style="stop-color:rgb(87.843138%,65.882355%,30.980393%);stop-opacity:1;"/>
<stop offset="0.543" style="stop-color:rgb(82.352942%,58.823532%,16.862746%);stop-opacity:1;"/>
<stop offset="0.699" style="stop-color:rgb(76.078433%,50.980395%,0%);stop-opacity:1;"/>
</radialGradient>
</defs>
<g id="surface123357944">
<path style=" stroke:none;fill-rule:nonzero;fill:url(#linear0);" d="M 104.398438 170.699219 C 104.398438 174.601562 104.398438 174.601562 104.398438 174.601562 L 102.019531 173.429688 C 103.777344 171.949219 104.398438 170.699219 104.398438 170.699219 Z M 104.398438 170.699219 "/>
<path style=" stroke:none;fill-rule:nonzero;fill:url(#linear1);" d="M 104.398438 166.800781 L 104.398438 170.699219 C 104.398438 170.699219 103.777344 171.949219 102.019531 173.429688 C 99.40625 175.691406 94.261719 178.5 84.898438 178.5 L 92.699219 170.699219 L 100.5 170.699219 C 100.5 170.699219 104.398438 170.699219 104.398438 166.800781 Z M 104.398438 166.800781 "/>
<path style=" stroke:none;fill-rule:nonzero;fill:url(#linear2);" d="M 155.101562 65.398438 L 147.300781 77.101562 C 139.5 77.101562 139.5 84.898438 139.5 84.898438 L 135.601562 84.898438 L 135.601562 73.199219 L 137.980469 72.03125 C 137.550781 69.652344 137.667969 67 139.5 65.398438 C 141.800781 63.371094 149.328125 65.398438 155.101562 65.398438 Z M 155.101562 65.398438 "/>
<path style=" stroke:none;fill-rule:nonzero;fill:url(#radial0);" d="M 159 198 C 159 198 147.300781 186.300781 120 186.300781 C 92.699219 186.300781 84.898438 198 84.898438 198 C 106.976562 193.144531 131.835938 193.433594 159 198 Z M 159 198 "/>
<path style=" stroke:none;fill-rule:nonzero;fill:rgb(0%,0%,0%);fill-opacity:1;" d="M 151.199219 170.699219 L 159 178.5 Z M 151.199219 170.699219 "/>
<path style=" stroke:none;fill-rule:nonzero;fill:url(#linear3);" d="M 159 178.5 C 143.398438 178.5 139.5 170.699219 139.5 170.699219 L 139.5 166.332031 C 139.5 169.726562 143.398438 170.699219 143.867188 170.699219 L 151.199219 170.699219 Z M 159 178.5 "/>
<path style=" stroke:none;fill-rule:nonzero;fill:url(#linear4);" d="M 104.398438 69.300781 L 104.398438 84.898438 C 104.398438 84.898438 104.398438 77.101562 96.601562 77.101562 L 92.699219 77.101562 L 84.898438 65.398438 C 96.601562 65.398438 104.398438 69.300781 104.398438 69.300781 Z M 104.398438 69.300781 "/>
<path style=" stroke:none;fill-rule:nonzero;fill:url(#linear5);" d="M 155.101562 45.898438 L 155.101562 65.398438 C 155.101562 65.398438 139.5 65.398438 139.5 77.101562 C 139.5 88.800781 139.5 170.699219 139.5 170.699219 L 104.398438 77.101562 C 104.398438 77.101562 100.5 65.398438 84.898438 65.398438 L 84.898438 45.898438 C 107.207031 49.761719 130.609375 49.839844 155.101562 45.898438 Z M 155.101562 45.898438 "/>
<path style=" stroke:none;fill-rule:nonzero;fill:url(#linear6);" d="M 155.101562 45.898438 C 155.101562 45.898438 143.398438 57.601562 120 57.601562 C 96.601562 57.601562 84.898438 45.898438 84.898438 45.898438 C 107.207031 49.761719 130.609375 49.839844 155.101562 45.898438 Z M 155.101562 45.898438 "/>
<path style=" stroke:none;fill-rule:nonzero;fill:rgb(100%,100%,100%);fill-opacity:1;" d="M 155.136719 45.933594 C 150.621094 50.414062 144.824219 53.417969 138.800781 55.417969 C 132.742188 57.375 126.375 58.378906 120 58.476562 C 113.625 58.371094 107.257812 57.378906 101.203125 55.417969 C 95.175781 53.417969 89.382812 50.410156 84.863281 45.933594 L 84.933594 45.863281 C 89.632812 50.0625 95.445312 52.84375 101.40625 54.78125 C 107.417969 56.617188 113.714844 57.5 120 57.503906 C 126.285156 57.5 132.582031 56.613281 138.597656 54.78125 C 144.554688 52.84375 150.367188 50.0625 155.070312 45.867188 Z M 155.136719 45.933594 "/>
<path style=" stroke:none;fill-rule:nonzero;fill:rgb(100%,100%,100%);fill-opacity:1;" d="M 104.398438 77.101562 C 110.566406 92.582031 116.390625 108.191406 122.351562 123.746094 C 128.34375 139.296875 133.945312 154.988281 139.761719 170.597656 L 139.75 170.570312 C 140.621094 172.066406 142.003906 173.316406 143.460938 174.335938 C 144.945312 175.351562 146.582031 176.136719 148.285156 176.742188 C 149.984375 177.378906 151.773438 177.734375 153.558594 178.050781 C 155.359375 178.316406 157.175781 178.441406 159 178.496094 C 157.179688 178.5 155.351562 178.433594 153.535156 178.222656 C 151.730469 177.960938 149.917969 177.660156 148.175781 177.070312 C 144.710938 175.964844 141.296875 174.066406 139.25 170.820312 L 139.246094 170.8125 L 139.238281 170.792969 C 133.355469 155.207031 127.257812 139.699219 121.546875 124.046875 C 115.808594 108.410156 109.933594 92.816406 104.398438 77.101562 Z M 104.398438 77.101562 "/>
<path style=" stroke:none;fill-rule:nonzero;fill:url(#radial1);" d="M 159 178.5 C 159 186.300781 159 198 159 198 C 159 198 143.398438 186.300781 120 186.300781 C 96.601562 186.300781 84.898438 198 84.898438 198 L 84.898438 178.5 C 84.898438 178.5 104.398438 178.5 104.398438 166.800781 L 104.398438 84.898438 C 104.398438 84.898438 104.398438 77.101562 96.601562 77.101562 L 92.699219 77.101562 L 84.898438 65.398438 C 100.5 65.398438 104.398438 77.101562 104.398438 77.101562 L 139.5 170.699219 C 139.5 170.699219 143.398438 178.5 159 178.5 Z M 159 178.5 "/>
<path style=" stroke:none;fill-rule:nonzero;fill:rgb(80.000001%,80.000001%,80.000001%);fill-opacity:1;" d="M 58.785156 204.480469 L 58.785156 232.742188 L 55.058594 232.742188 L 55.058594 204.480469 Z M 65.039062 211.738281 L 68.4375 211.738281 L 68.550781 214.378906 C 70.152344 212.359375 72.25 211.347656 74.839844 211.347656 C 79.277344 211.347656 81.519531 213.851562 81.558594 218.859375 L 81.558594 232.742188 L 77.96875 232.742188 L 77.96875 218.84375 C 77.953125 217.332031 77.605469 216.210938 76.925781 215.480469 C 76.246094 214.757812 75.191406 214.394531 73.753906 214.394531 C 72.589844 214.394531 71.566406 214.707031 70.691406 215.332031 C 69.804688 215.949219 69.117188 216.765625 68.628906 217.773438 L 68.628906 232.742188 L 65.039062 232.742188 Z M 88.566406 211.738281 L 93.90625 227.871094 L 99.109375 211.738281 L 102.777344 211.738281 L 95.242188 232.742188 L 92.507812 232.742188 L 84.894531 211.738281 Z M 114.699219 233.132812 C 111.847656 233.132812 109.53125 232.195312 107.75 230.324219 C 105.960938 228.457031 105.066406 225.957031 105.066406 222.820312 L 105.066406 222.164062 C 105.066406 220.078125 105.464844 218.21875 106.265625 216.582031 C 107.0625 214.941406 108.171875 213.660156 109.605469 212.738281 C 111.035156 211.8125 112.582031 211.347656 114.25 211.347656 C 116.984375 211.347656 119.109375 212.246094 120.621094 214.046875 C 122.132812 215.847656 122.890625 218.425781 122.890625 221.777344 L 122.890625 223.265625 L 108.660156 223.265625 C 108.710938 225.335938 109.3125 227.011719 110.472656 228.285156 C 111.632812 229.5625 113.105469 230.199219 114.890625 230.199219 C 116.160156 230.199219 117.234375 229.941406 118.109375 229.421875 C 118.996094 228.902344 119.765625 228.21875 120.421875 227.367188 L 122.617188 229.074219 C 120.855469 231.78125 118.214844 233.132812 114.699219 233.132812 Z M 114.25 214.296875 C 112.804688 214.296875 111.585938 214.824219 110.597656 215.878906 C 109.613281 216.933594 109.007812 218.414062 108.777344 220.316406 L 119.296875 220.316406 L 119.296875 220.042969 C 119.195312 218.222656 118.703125 216.808594 117.820312 215.804688 C 116.941406 214.800781 115.753906 214.296875 114.25 214.296875 Z M 127.046875 211.738281 L 130.445312 211.738281 L 130.558594 214.378906 C 132.160156 212.359375 134.257812 211.347656 136.847656 211.347656 C 141.289062 211.347656 143.527344 213.851562 143.566406 218.859375 L 143.566406 232.742188 L 139.96875 232.742188 L 139.96875 218.84375 C 139.960938 217.332031 139.613281 216.210938 138.933594 215.480469 C 138.253906 214.757812 137.199219 214.394531 135.761719 214.394531 C 134.597656 214.394531 133.574219 214.707031 132.699219 215.332031 C 131.8125 215.949219 131.125 216.765625 130.636719 217.773438 L 130.636719 232.742188 L 127.046875 232.742188 Z M 150.265625 206.652344 L 153.851562 206.652344 L 153.851562 211.738281 L 157.777344 211.738281 L 157.777344 214.511719 L 153.851562 214.511719 L 153.851562 227.542969 C 153.851562 228.378906 154.03125 229.011719 154.382812 229.429688 C 154.730469 229.855469 155.324219 230.066406 156.164062 230.066406 C 156.578125 230.066406 157.148438 229.988281 157.871094 229.828125 L 157.871094 232.742188 C 156.925781 233.003906 156.007812 233.132812 155.121094 233.132812 C 153.511719 233.132812 152.300781 232.644531 151.484375 231.675781 C 150.671875 230.703125 150.265625 229.324219 150.265625 227.542969 L 150.265625 214.511719 L 146.4375 214.511719 L 146.4375 211.738281 L 150.265625 211.738281 Z M 160.628906 222.296875 L 160.628906 222.050781 C 160.628906 219.988281 161.035156 218.136719 161.847656 216.492188 C 162.652344 214.851562 163.777344 213.585938 165.226562 212.6875 C 166.667969 211.792969 168.3125 211.347656 170.164062 211.347656 C 173.023438 211.347656 175.335938 212.339844 177.105469 214.320312 C 178.871094 216.296875 179.753906 218.933594 179.753906 222.222656 L 179.753906 222.472656 C 179.753906 224.515625 179.363281 226.351562 178.578125 227.980469 C 177.792969 229.605469 176.675781 230.867188 175.222656 231.773438 C 173.765625 232.679688 172.09375 233.132812 170.203125 233.132812 C 167.355469 233.132812 165.046875 232.140625 163.277344 230.160156 C 161.511719 228.183594 160.628906 225.5625 160.628906 222.296875 Z M 164.238281 222.472656 C 164.238281 224.800781 164.78125 226.675781 165.863281 228.085938 C 166.945312 229.496094 168.390625 230.199219 170.203125 230.199219 C 172.027344 230.199219 173.476562 229.484375 174.550781 228.054688 C 175.625 226.625 176.160156 224.621094 176.160156 222.050781 C 176.160156 219.742188 175.613281 217.871094 174.519531 216.441406 C 173.425781 215.011719 171.972656 214.296875 170.164062 214.296875 C 168.390625 214.296875 166.960938 215.003906 165.871094 216.417969 C 164.785156 217.824219 164.238281 219.84375 164.238281 222.472656 Z M 194.40625 211.621094 L 194.40625 214.960938 C 193.867188 214.871094 193.277344 214.828125 192.644531 214.828125 C 190.289062 214.828125 188.691406 215.828125 187.847656 217.832031 L 187.847656 232.742188 L 184.261719 232.742188 L 184.261719 211.738281 L 187.746094 211.738281 L 187.804688 214.164062 C 188.988281 212.285156 190.65625 211.347656 192.816406 211.347656 C 193.519531 211.347656 194.046875 211.4375 194.40625 211.621094 Z M 194.40625 211.621094 "/>
</g>
</svg>
