<?xml version="1.0" encoding="UTF-8"?>
<svg xmlns="http://www.w3.org/2000/svg" xmlns:xlink="http://www.w3.org/1999/xlink" viewBox="0 0 240 240" width="240px" height="240px">
<g id="surface91942912">
<path style=" stroke:none;fill-rule:nonzero;fill:rgb(86.666667%,17.254902%,0%);fill-opacity:1;" d="M 120 190 L 53.5 162 L 53.5 71 L 120 92 Z M 120 190 "/>
<path style=" stroke:none;fill-rule:nonzero;fill:rgb(64.705884%,12.54902%,1.960784%);fill-opacity:1;" d="M 120 190 L 186.5 162 L 186.5 71 L 120 92 Z M 120 190 "/>
<path style=" stroke:none;fill-rule:nonzero;fill:rgb(100%,23.921569%,0%);fill-opacity:1;" d="M 53.5 71 L 120 50 L 186.5 71 L 120 92 Z M 53.5 71 "/>
<path style=" stroke:none;fill-rule:nonzero;fill:rgb(100%,100%,100%);fill-opacity:1;" d="M 163.882812 138.25 L 169.640625 94.207031 L 176 92 L 167.46875 150.582031 L 161.210938 153.164062 L 153.941406 114.914062 L 146.382812 159.28125 L 139.785156 162 L 130.5 107.804688 L 137.453125 105.390625 L 143.625 146.203125 L 151.097656 100.652344 L 156.710938 98.703125 Z M 94.992188 144.859375 C 94.992188 143.726562 94.867188 142.667969 94.609375 141.691406 C 94.355469 140.714844 93.890625 139.734375 93.214844 138.75 C 92.539062 137.765625 91.613281 136.730469 90.433594 135.636719 C 89.257812 134.550781 87.753906 133.3125 85.921875 131.9375 C 83.917969 130.453125 82.082031 128.914062 80.402344 127.320312 C 78.726562 125.734375 77.289062 124.0625 76.089844 122.3125 C 74.890625 120.566406 73.953125 118.710938 73.277344 116.75 C 72.601562 114.785156 72.265625 112.683594 72.265625 110.445312 C 72.265625 108.230469 72.617188 106.308594 73.320312 104.671875 C 74.023438 103.035156 75.019531 101.742188 76.300781 100.785156 C 77.589844 99.828125 79.132812 99.253906 80.945312 99.0625 C 82.761719 98.871094 84.773438 99.121094 86.992188 99.816406 C 89.371094 100.5625 91.523438 101.691406 93.4375 103.207031 C 95.359375 104.726562 96.988281 106.488281 98.320312 108.484375 C 99.65625 110.492188 100.683594 112.648438 101.402344 114.96875 C 102.117188 117.289062 102.476562 119.628906 102.476562 121.992188 L 94.996094 119.515625 C 94.996094 118.152344 94.835938 116.84375 94.507812 115.589844 C 94.1875 114.339844 93.691406 113.1875 93.027344 112.136719 C 92.359375 111.085938 91.519531 110.164062 90.507812 109.378906 C 89.496094 108.589844 88.308594 107.976562 86.933594 107.535156 C 85.640625 107.121094 84.523438 106.953125 83.582031 107.03125 C 82.644531 107.113281 81.863281 107.394531 81.246094 107.878906 C 80.625 108.363281 80.167969 109.027344 79.871094 109.871094 C 79.578125 110.710938 79.429688 111.675781 79.429688 112.769531 C 79.429688 114.824219 80.160156 116.777344 81.617188 118.636719 C 83.082031 120.5 85.324219 122.527344 88.355469 124.726562 C 90.742188 126.460938 92.824219 128.195312 94.582031 129.925781 C 96.351562 131.664062 97.824219 133.457031 99.003906 135.296875 C 100.183594 137.140625 101.0625 139.066406 101.640625 141.066406 C 102.210938 143.070312 102.5 145.203125 102.5 147.460938 C 102.5 149.847656 102.136719 151.863281 101.40625 153.503906 C 100.683594 155.148438 99.652344 156.386719 98.3125 157.226562 C 96.980469 158.066406 95.375 158.484375 93.492188 158.496094 C 91.613281 158.507812 89.53125 158.082031 87.246094 157.234375 C 85.21875 156.480469 83.234375 155.375 81.28125 153.925781 C 79.339844 152.480469 77.605469 150.75 76.070312 148.730469 C 74.546875 146.71875 73.316406 144.460938 72.390625 141.960938 C 71.460938 139.46875 71 136.761719 71 133.847656 L 78.144531 136.375 C 78.144531 138.121094 78.375 139.703125 78.839844 141.125 C 79.304688 142.546875 79.941406 143.804688 80.75 144.894531 C 81.5625 145.992188 82.523438 146.921875 83.636719 147.695312 C 84.746094 148.46875 85.953125 149.09375 87.246094 149.566406 C 89.804688 150.496094 91.738281 150.511719 93.035156 149.613281 C 94.339844 148.714844 94.992188 147.125 94.992188 144.859375 Z M 94.992188 144.859375 "/>
<path style=" stroke:none;fill-rule:nonzero;fill:rgb(80.000001%,80.000001%,80.000001%);fill-opacity:1;" d="M 30.5 213.09375 C 27.511719 212.234375 25.339844 211.179688 23.984375 209.929688 C 22.621094 208.679688 21.941406 207.136719 21.941406 205.300781 C 21.941406 203.222656 22.773438 201.503906 24.433594 200.140625 C 26.09375 198.78125 28.253906 198.101562 30.910156 198.101562 C 32.726562 198.101562 34.34375 198.453125 35.761719 199.15625 C 37.183594 199.859375 38.28125 200.828125 39.054688 202.058594 C 39.835938 203.289062 40.226562 204.636719 40.226562 206.101562 L 36.730469 206.101562 C 36.730469 204.503906 36.222656 203.25 35.207031 202.339844 C 34.191406 201.421875 32.757812 200.964844 30.910156 200.964844 C 29.195312 200.964844 27.859375 201.339844 26.894531 202.097656 C 25.9375 202.851562 25.457031 203.898438 25.457031 205.242188 C 25.457031 206.320312 25.914062 207.234375 26.828125 207.976562 C 27.738281 208.71875 29.289062 209.394531 31.484375 210.007812 C 33.671875 210.625 35.390625 211.308594 36.632812 212.050781 C 37.871094 212.792969 38.789062 213.65625 39.386719 214.648438 C 39.984375 215.644531 40.285156 216.808594 40.285156 218.144531 C 40.285156 220.285156 39.449219 222.003906 37.777344 223.292969 C 36.109375 224.574219 33.882812 225.214844 31.09375 225.214844 C 29.277344 225.214844 27.585938 224.867188 26.015625 224.171875 C 24.445312 223.480469 23.234375 222.53125 22.382812 221.320312 C 21.527344 220.113281 21.101562 218.742188 21.101562 217.207031 L 24.609375 217.207031 C 24.609375 218.800781 25.195312 220.0625 26.367188 220.984375 C 27.546875 221.910156 29.121094 222.375 31.09375 222.375 C 32.929688 222.375 34.335938 222 35.3125 221.25 C 36.289062 220.5 36.78125 219.480469 36.78125 218.183594 C 36.78125 216.894531 36.328125 215.894531 35.421875 215.183594 C 34.515625 214.480469 32.875 213.785156 30.5 213.09375 Z M 43.324219 215.105469 L 43.324219 214.871094 C 43.324219 212.949219 43.699219 211.222656 44.457031 209.683594 C 45.210938 208.148438 46.261719 206.964844 47.613281 206.128906 C 48.960938 205.296875 50.496094 204.878906 52.222656 204.878906 C 54.890625 204.878906 57.054688 205.804688 58.707031 207.652344 C 60.355469 209.503906 61.179688 211.960938 61.179688 215.027344 L 61.179688 215.261719 C 61.179688 217.175781 60.8125 218.890625 60.085938 220.398438 C 59.347656 221.917969 58.304688 223.097656 56.949219 223.945312 C 55.589844 224.792969 54.023438 225.214844 52.261719 225.214844 C 49.605469 225.214844 47.453125 224.289062 45.804688 222.441406 C 44.152344 220.59375 43.324219 218.148438 43.324219 215.105469 Z M 46.691406 215.261719 C 46.691406 217.4375 47.199219 219.1875 48.207031 220.507812 C 49.214844 221.824219 50.566406 222.480469 52.261719 222.480469 C 53.964844 222.480469 55.320312 221.8125 56.324219 220.476562 C 57.328125 219.144531 57.828125 217.273438 57.828125 214.871094 C 57.828125 212.714844 57.316406 210.972656 56.292969 209.636719 C 55.273438 208.300781 53.914062 207.632812 52.222656 207.632812 C 50.566406 207.632812 49.234375 208.296875 48.21875 209.617188 C 47.199219 210.933594 46.691406 212.8125 46.691406 215.261719 Z M 69.023438 197.015625 L 69.023438 224.855469 L 65.671875 224.855469 L 65.671875 197.015625 Z M 78.027344 205.242188 L 78.027344 224.855469 L 74.675781 224.855469 L 74.675781 205.242188 Z M 74.402344 200.042969 C 74.402344 199.496094 74.570312 199.039062 74.902344 198.667969 C 75.234375 198.289062 75.730469 198.101562 76.386719 198.101562 C 77.039062 198.101562 77.53125 198.289062 77.871094 198.667969 C 78.210938 199.039062 78.378906 199.496094 78.378906 200.042969 C 78.378906 200.585938 78.210938 201.039062 77.871094 201.402344 C 77.53125 201.765625 77.039062 201.949219 76.386719 201.949219 C 75.730469 201.949219 75.234375 201.765625 74.902344 201.402344 C 74.570312 201.039062 74.402344 200.585938 74.402344 200.042969 Z M 82.578125 215.136719 L 82.578125 214.882812 C 82.578125 211.875 83.292969 209.453125 84.71875 207.625 C 86.144531 205.792969 88.007812 204.878906 90.316406 204.878906 C 92.613281 204.878906 94.433594 205.664062 95.773438 207.234375 L 95.773438 197.015625 L 99.125 197.015625 L 99.125 224.855469 L 96.046875 224.855469 L 95.882812 222.753906 C 94.539062 224.394531 92.675781 225.214844 90.285156 225.214844 C 88.011719 225.214844 86.160156 224.285156 84.726562 222.421875 C 83.296875 220.566406 82.578125 218.136719 82.578125 215.136719 Z M 85.929688 215.261719 C 85.929688 217.488281 86.386719 219.230469 87.304688 220.488281 C 88.222656 221.746094 89.496094 222.375 91.117188 222.375 C 93.246094 222.375 94.796875 221.417969 95.773438 219.511719 L 95.773438 210.496094 C 94.773438 208.652344 93.230469 207.730469 91.15625 207.730469 C 89.507812 207.730469 88.222656 208.363281 87.304688 209.625 C 86.386719 210.898438 85.929688 212.773438 85.929688 215.261719 Z M 106.371094 198.460938 L 110.542969 216.53125 L 111.050781 220.019531 L 111.792969 216.882812 L 117.019531 198.460938 L 119.949219 198.460938 L 125.046875 216.882812 L 125.769531 220.066406 L 126.328125 216.511719 L 130.429688 198.460938 L 133.925781 198.460938 L 127.527344 224.855469 L 124.355469 224.855469 L 118.914062 205.621094 L 118.503906 203.609375 L 118.082031 205.621094 L 112.449219 224.855469 L 109.273438 224.855469 L 102.894531 198.460938 Z M 158.082031 210.847656 L 158.082031 212.507812 C 158.082031 215.09375 157.644531 217.347656 156.773438 219.277344 C 155.90625 221.203125 154.675781 222.675781 153.082031 223.691406 C 151.484375 224.707031 149.621094 225.214844 147.492188 225.214844 C 145.417969 225.214844 143.578125 224.703125 141.976562 223.683594 C 140.367188 222.667969 139.117188 221.210938 138.222656 219.316406 C 137.339844 217.425781 136.882812 215.238281 136.855469 212.753906 L 136.855469 210.847656 C 136.855469 208.308594 137.300781 206.066406 138.183594 204.117188 C 139.0625 202.175781 140.3125 200.691406 141.925781 199.652344 C 143.539062 198.617188 145.386719 198.101562 147.464844 198.101562 C 149.574219 198.101562 151.4375 198.613281 153.050781 199.632812 C 154.664062 200.65625 155.90625 202.136719 156.773438 204.078125 C 157.644531 206.019531 158.082031 208.277344 158.082031 210.847656 Z M 154.625 212.761719 L 154.625 210.808594 C 154.625 207.675781 153.996094 205.273438 152.738281 203.601562 C 151.480469 201.925781 149.722656 201.089844 147.464844 201.089844 C 145.261719 201.089844 143.53125 201.925781 142.269531 203.601562 C 141.003906 205.273438 140.355469 207.597656 140.324219 210.574219 L 140.324219 212.507812 C 140.324219 215.542969 140.957031 217.925781 142.230469 219.65625 C 143.503906 221.398438 145.257812 222.265625 147.492188 222.265625 C 149.746094 222.265625 151.488281 221.445312 152.71875 219.804688 C 153.949219 218.171875 154.585938 215.824219 154.625 212.761719 Z M 178.710938 224.855469 L 172.976562 214.179688 L 166.785156 214.179688 L 166.785156 224.855469 L 163.289062 224.855469 L 163.289062 198.460938 L 172.019531 198.460938 C 174.988281 198.460938 177.273438 199.140625 178.875 200.496094 C 180.476562 201.847656 181.277344 203.820312 181.277344 206.402344 C 181.277344 208.042969 180.835938 209.476562 179.949219 210.699219 C 179.058594 211.917969 177.820312 212.832031 176.238281 213.4375 L 182.441406 224.640625 L 182.441406 224.855469 Z M 166.785156 201.335938 L 166.785156 211.335938 L 172.125 211.335938 C 173.851562 211.335938 175.226562 210.890625 176.25 209.996094 C 177.269531 209.097656 177.78125 207.902344 177.78125 206.402344 C 177.78125 204.777344 177.296875 203.523438 176.328125 202.652344 C 175.351562 201.78125 173.945312 201.339844 172.105469 201.335938 Z M 202.210938 224.855469 L 192.863281 212.585938 L 189.628906 215.9375 L 189.628906 224.855469 L 186.152344 224.855469 L 186.152344 198.460938 L 189.628906 198.460938 L 189.628906 211.511719 L 201.359375 198.460938 L 205.5625 198.460938 L 195.179688 210.125 L 206.382812 224.855469 Z M 217.203125 213.09375 C 214.214844 212.234375 212.042969 211.179688 210.6875 209.929688 C 209.328125 208.679688 208.648438 207.136719 208.648438 205.300781 C 208.648438 203.222656 209.476562 201.503906 211.136719 200.140625 C 212.796875 198.78125 214.957031 198.101562 217.613281 198.101562 C 219.429688 198.101562 221.046875 198.453125 222.46875 199.15625 C 223.886719 199.859375 224.984375 200.828125 225.761719 202.058594 C 226.542969 203.289062 226.933594 204.636719 226.933594 206.101562 L 223.433594 206.101562 C 223.433594 204.503906 222.925781 203.25 221.910156 202.339844 C 220.894531 201.421875 219.464844 200.964844 217.613281 200.964844 C 215.902344 200.964844 214.5625 201.339844 213.597656 202.097656 C 212.640625 202.851562 212.164062 203.898438 212.164062 205.242188 C 212.164062 206.320312 212.621094 207.234375 213.53125 207.976562 C 214.441406 208.71875 215.996094 209.394531 218.191406 210.007812 C 220.382812 210.625 222.101562 211.308594 223.335938 212.050781 C 224.574219 212.792969 225.492188 213.65625 226.09375 214.648438 C 226.691406 215.644531 226.992188 216.808594 226.992188 218.144531 C 226.992188 220.285156 226.15625 222.003906 224.488281 223.292969 C 222.816406 224.574219 220.585938 225.214844 217.800781 225.214844 C 215.988281 225.214844 214.296875 224.867188 212.71875 224.171875 C 211.152344 223.480469 209.941406 222.53125 209.085938 221.320312 C 208.234375 220.113281 207.808594 218.742188 207.808594 217.207031 L 211.3125 217.207031 C 211.3125 218.800781 211.898438 220.0625 213.070312 220.984375 C 214.25 221.910156 215.828125 222.375 217.800781 222.375 C 219.636719 222.375 221.042969 222 222.019531 221.25 C 222.996094 220.5 223.484375 219.480469 223.484375 218.183594 C 223.484375 216.894531 223.03125 215.894531 222.125 215.183594 C 221.222656 214.480469 219.582031 213.785156 217.203125 213.09375 Z M 217.203125 213.09375 "/>
</g>
</svg>
