<?xml version="1.0" encoding="UTF-8"?>
<svg xmlns="http://www.w3.org/2000/svg" xmlns:xlink="http://www.w3.org/1999/xlink" viewBox="0 0 240 240" width="240px" height="240px">
<g id="surface91948138">
<path style=" stroke:none;fill-rule:nonzero;fill:rgb(29.803923%,68.627453%,31.37255%);fill-opacity:1;" d="M 179.5 71 L 123.5 71 L 123.5 169 L 179.5 169 C 181.433594 169 183 167.433594 183 165.5 L 183 74.5 C 183 72.566406 181.433594 71 179.5 71 Z M 179.5 71 "/>
<path style=" stroke:none;fill-rule:nonzero;fill:rgb(100%,100%,100%);fill-opacity:1;" d="M 148 88.5 L 172.5 88.5 L 172.5 99 L 148 99 Z M 148 123.5 L 172.5 123.5 L 172.5 134 L 148 134 Z M 148 141 L 172.5 141 L 172.5 151.5 L 148 151.5 Z M 148 106 L 172.5 106 L 172.5 116.5 L 148 116.5 Z M 123.5 88.5 L 141 88.5 L 141 99 L 123.5 99 Z M 123.5 123.5 L 141 123.5 L 141 134 L 123.5 134 Z M 123.5 141 L 141 141 L 141 151.5 L 123.5 151.5 Z M 123.5 106 L 141 106 L 141 116.5 L 123.5 116.5 Z M 123.5 106 "/>
<path style=" stroke:none;fill-rule:nonzero;fill:rgb(18.039216%,49.019608%,19.607843%);fill-opacity:1;" d="M 130.5 183 L 57 169 L 57 71 L 130.5 57 Z M 130.5 183 "/>
<path style=" stroke:none;fill-rule:nonzero;fill:rgb(100%,100%,100%);fill-opacity:1;" d="M 102.953125 144.5 L 94.511719 128.535156 C 94.191406 127.9375 93.863281 126.847656 93.519531 125.253906 L 93.390625 125.253906 C 93.226562 126.007812 92.851562 127.148438 92.253906 128.679688 L 83.78125 144.5 L 70.632812 144.5 L 86.25 119.996094 L 71.960938 95.5 L 85.386719 95.5 L 92.390625 110.1875 C 92.9375 111.34375 93.429688 112.722656 93.863281 114.3125 L 94.003906 114.3125 C 94.273438 113.363281 94.785156 111.933594 95.539062 110.042969 L 103.328125 95.5 L 115.632812 95.5 L 100.933594 119.785156 L 116.042969 144.492188 L 102.953125 144.492188 Z M 102.953125 144.5 "/>
<path style=" stroke:none;fill-rule:nonzero;fill:rgb(80.000001%,80.000001%,80.000001%);fill-opacity:1;" d="M 92.214844 201.238281 L 92.214844 204.832031 L 77.769531 204.832031 L 77.769531 216.640625 L 94.546875 216.640625 L 94.546875 220.234375 L 73.371094 220.234375 L 73.371094 186.910156 L 94.324219 186.910156 L 94.324219 190.523438 L 77.769531 190.523438 L 77.769531 201.238281 Z M 102.246094 195.464844 L 107.664062 204.511719 L 113.164062 195.464844 L 118.105469 195.464844 L 110 207.714844 L 118.359375 220.234375 L 113.457031 220.234375 L 107.734375 210.964844 L 102.011719 220.234375 L 97.085938 220.234375 L 105.449219 207.714844 L 97.339844 195.464844 Z M 132.066406 217.238281 C 133.582031 217.238281 134.902344 216.777344 136.03125 215.859375 C 137.15625 214.949219 137.78125 213.804688 137.90625 212.429688 L 141.910156 212.429688 C 141.839844 213.851562 141.351562 215.203125 140.445312 216.484375 C 139.546875 217.769531 138.34375 218.789062 136.839844 219.550781 C 135.335938 220.3125 133.746094 220.695312 132.066406 220.695312 C 128.699219 220.695312 126.019531 219.566406 124.027344 217.316406 C 122.035156 215.0625 121.039062 211.980469 121.039062 208.074219 L 121.039062 207.371094 C 121.039062 204.960938 121.480469 202.816406 122.367188 200.933594 C 123.25 199.058594 124.519531 197.605469 126.175781 196.570312 C 127.828125 195.527344 129.785156 195.007812 132.046875 195.007812 C 134.824219 195.007812 137.132812 195.839844 138.96875 197.507812 C 140.8125 199.167969 141.792969 201.324219 141.910156 203.984375 L 137.90625 203.984375 C 137.78125 202.378906 137.175781 201.066406 136.089844 200.035156 C 134.996094 199 133.648438 198.484375 132.046875 198.484375 C 129.898438 198.484375 128.230469 199.257812 127.042969 200.808594 C 125.859375 202.359375 125.265625 204.597656 125.265625 207.527344 L 125.265625 208.328125 C 125.265625 211.1875 125.855469 213.386719 127.035156 214.921875 C 128.207031 216.464844 129.882812 217.238281 132.066406 217.238281 Z M 156.953125 220.695312 C 153.597656 220.695312 150.867188 219.589844 148.757812 217.382812 C 146.652344 215.183594 145.601562 212.234375 145.601562 208.535156 L 145.601562 207.761719 C 145.601562 205.300781 146.070312 203.105469 147.007812 201.179688 C 147.945312 199.246094 149.257812 197.734375 150.945312 196.648438 C 152.632812 195.554688 154.457031 195.007812 156.425781 195.007812 C 159.648438 195.007812 162.152344 196.066406 163.9375 198.191406 C 165.71875 200.3125 166.613281 203.351562 166.613281 207.304688 L 166.613281 209.0625 L 149.832031 209.0625 C 149.898438 211.503906 150.609375 213.476562 151.972656 214.980469 C 153.339844 216.484375 155.078125 217.238281 157.1875 217.238281 C 158.679688 217.238281 159.945312 216.929688 160.984375 216.320312 C 162.023438 215.707031 162.929688 214.898438 163.710938 213.898438 L 166.289062 215.910156 C 164.21875 219.097656 161.105469 220.695312 156.953125 220.695312 Z M 156.425781 198.484375 C 154.71875 198.484375 153.285156 199.105469 152.128906 200.347656 C 150.960938 201.59375 150.242188 203.339844 149.96875 205.585938 L 162.382812 205.585938 L 162.382812 205.261719 C 162.257812 203.113281 161.675781 201.445312 160.632812 200.261719 C 159.597656 199.074219 158.195312 198.484375 156.425781 198.484375 Z M 176.117188 185.074219 L 176.117188 220.234375 L 171.878906 220.234375 L 171.878906 185.074219 Z M 176.117188 185.074219 "/>
</g>
</svg>
